<svg width="25" height="24" viewBox="0 0 25 24" fill="none" xmlns="http://www.w3.org/2000/svg">
<path d="M8.85718 1.25H4.85718C3.33839 1.25 2.10718 2.48122 2.10718 4V8C2.10718 9.51879 3.33839 10.75 4.85718 10.75H8.85718C10.376 10.75 11.6072 9.51879 11.6072 8V4C11.6072 2.48122 10.376 1.25 8.85718 1.25Z" fill="#614730" fill-opacity="0.3"/>
<path d="M8.85718 13.25H4.85718C3.33839 13.25 2.10718 14.4812 2.10718 16V20C2.10718 21.5188 3.33839 22.75 4.85718 22.75H8.85718C10.376 22.75 11.6072 21.5188 11.6072 20V16C11.6072 14.4812 10.376 13.25 8.85718 13.25Z" fill="#614730"/>
<path d="M20.8572 1.25H16.8572C15.3384 1.25 14.1072 2.48122 14.1072 4V8C14.1072 9.51879 15.3384 10.75 16.8572 10.75H20.8572C22.376 10.75 23.6072 9.51879 23.6072 8V4C23.6072 2.48122 22.376 1.25 20.8572 1.25Z" fill="#614730"/>
<path d="M15.8572 21.75C15.6583 21.75 15.4675 21.671 15.3268 21.5303C15.1862 21.3897 15.1072 21.1989 15.1072 21V15C15.1072 14.8011 15.1862 14.6103 15.3268 14.4697C15.4675 14.329 15.6583 14.25 15.8572 14.25C16.0561 14.25 16.2469 14.329 16.3875 14.4697C16.5282 14.6103 16.6072 14.8011 16.6072 15V21C16.6072 21.1989 16.5282 21.3897 16.3875 21.5303C16.2469 21.671 16.0561 21.75 15.8572 21.75Z" fill="#614730" fill-opacity="0.3"/>
<path d="M21.8572 21.75C21.6583 21.75 21.4675 21.671 21.3268 21.5303C21.1862 21.3897 21.1072 21.1989 21.1072 21V15C21.1072 14.8011 21.1862 14.6103 21.3268 14.4697C21.4675 14.329 21.6583 14.25 21.8572 14.25C22.0561 14.25 22.2469 14.329 22.3875 14.4697C22.5282 14.6103 22.6072 14.8011 22.6072 15V21C22.6072 21.1989 22.5282 21.3897 22.3875 21.5303C22.2469 21.671 22.0561 21.75 21.8572 21.75Z" fill="#614730" fill-opacity="0.3"/>
<path d="M18.8572 21.75C18.6583 21.75 18.4675 21.671 18.3268 21.5303C18.1862 21.3897 18.1072 21.1989 18.1072 21V15C18.1072 14.8011 18.1862 14.6103 18.3268 14.4697C18.4675 14.329 18.6583 14.25 18.8572 14.25C19.0561 14.25 19.2469 14.329 19.3875 14.4697C19.5282 14.6103 19.6072 14.8011 19.6072 15V21C19.6072 21.1989 19.5282 21.3897 19.3875 21.5303C19.2469 21.671 19.0561 21.75 18.8572 21.75Z" fill="#614730" fill-opacity="0.3"/>
</svg>
