<svg width="25" height="24" viewBox="0 0 25 24" fill="none" xmlns="http://www.w3.org/2000/svg">
<g clip-path="url(#clip0_411_6065)">
<path d="M10.2233 6.79566C10.2797 7.60773 11.2075 8.05238 11.8782 7.59104C12.4681 7.18491 13.2734 7.60791 13.2734 8.32468V11.2736H15.4826C15.0902 9.67149 16.3605 8.11069 18.0502 8.22737C19.5369 8.3304 20.6394 9.76191 20.2681 11.2736H22.4996C24.3668 8.45044 22.4864 4.36594 18.8477 4.1791C19.2592 2.0064 17.5839 0.00366211 15.3884 0.00366211C14.5953 0.00366211 13.8627 0.267287 13.2734 0.711381V5.11262C13.2734 5.82887 12.4687 6.25257 11.8781 5.84626C11.1605 5.35257 10.1611 5.89791 10.2233 6.79566Z" fill="#614730" fill-opacity="0.3"/>
<path d="M5.65881 11.2736C6.3752 11.2736 6.79881 12.0785 6.39236 12.669C5.90097 13.383 6.4405 14.3855 7.34205 14.3232C8.15598 14.2668 8.59844 13.3382 8.13766 12.6689C7.73139 12.0786 8.15477 11.2736 8.87134 11.2736H11.8676V9.11057C10.3526 9.48276 8.92384 8.37609 8.82095 6.89287C8.70428 5.21029 10.2586 3.93159 11.8676 4.32557V0.711416C9.34511 -1.18965 5.73142 0.98104 6.28497 4.13259C2.62464 4.32707 0.772282 8.42043 2.65567 11.2736H5.65881Z" fill="#614730"/>
<path d="M22.4761 12.6795H19.4822C18.7655 12.6795 18.3423 11.8744 18.7486 11.2842C19.2097 10.6145 18.7661 9.68626 17.953 9.62987C17.0516 9.56729 16.5117 10.5697 17.0033 11.284C17.4096 11.8746 16.9863 12.6795 16.2697 12.6795H13.2734V14.8413C14.8779 14.4484 16.4371 15.7219 16.3201 17.4085C16.2172 18.8923 14.7881 19.9981 13.2734 19.6263V23.2886C15.796 25.1897 19.4097 23.019 18.8561 19.8675C22.4285 19.6776 24.4141 15.6698 22.4761 12.6795Z" fill="#614730"/>
<path d="M14.9176 17.3113C14.9798 16.414 13.9806 15.8681 13.263 16.362C12.6727 16.7679 11.8676 16.3452 11.8676 15.6284V12.6795H9.65719C10.0398 14.2367 8.85375 15.7319 7.26192 15.7319C5.6551 15.7319 4.4947 14.2178 4.87163 12.6795H2.65584C0.773485 15.5324 2.62224 19.6324 6.2933 19.821C5.88188 21.9937 7.55714 23.9964 9.75263 23.9964C10.5457 23.9964 11.2784 23.7328 11.8676 23.2887V18.8405C11.8676 18.1243 12.6724 17.7005 13.2628 18.1068C13.9321 18.5674 14.8612 18.125 14.9176 17.3113Z" fill="#614730" fill-opacity="0.3"/>
</g>
<defs>
<clipPath id="clip0_411_6065">
<rect width="24" height="24" fill="white" transform="translate(0.571533)"/>
</clipPath>
</defs>
</svg>
