<svg width="24" height="24" viewBox="0 0 24 24" fill="none" xmlns="http://www.w3.org/2000/svg">
<path d="M9.32623 5.82422L8.48047 8.92913H10.172L9.32623 5.82422Z" fill="#CDD3DD"/>
<path d="M20.046 0H3.95375C3.1543 0 2.50391 0.650391 2.50391 1.44984V14.1116H21.4959V1.44984C21.4959 0.650391 20.8455 0 20.046 0ZM12.3209 11.8834C12.0698 12.0302 11.8092 12.1035 11.5389 12.1035C11.2067 12.1035 11.0098 11.9917 10.9481 11.7675L10.5541 10.3193H8.1095L7.71556 11.7675C7.65369 11.9917 7.45667 12.1035 7.12475 12.1035C6.85428 12.1035 6.59361 12.0302 6.34269 11.8834C6.09158 11.7368 5.96614 11.563 5.96614 11.3621C5.96614 11.3389 5.97373 11.2966 5.98934 11.2346L8.14428 4.16738C8.20597 3.97444 8.34702 3.82561 8.56719 3.72136C8.78736 3.61711 9.0402 3.56494 9.32605 3.56494C9.6117 3.56494 9.86473 3.61706 10.0849 3.72136C10.305 3.82561 10.4458 3.97444 10.5078 4.16738L12.6743 11.2346C12.6897 11.2965 12.6975 11.3389 12.6975 11.3621C12.6975 11.563 12.5719 11.7368 12.3209 11.8834ZM17.8761 11.5474C17.8761 11.702 17.793 11.8332 17.627 11.9414C17.4608 12.0496 17.2505 12.1036 16.9956 12.1036C16.7715 12.1036 16.5823 12.0459 16.4279 11.9303C16.2733 11.8148 16.1962 11.6747 16.1962 11.5098V11.2376C15.6633 11.8922 15.0762 12.2194 14.4352 12.2194C14.0104 12.2194 13.657 12.0827 13.3752 11.8091C13.0931 11.5356 12.9522 11.1373 12.9522 10.6143C12.9522 9.99684 13.1858 9.56166 13.6532 9.30858C14.1204 9.05569 14.7904 8.92912 15.6633 8.92912H16.0804V8.80781C16.0804 8.56505 16.0108 8.35472 15.8718 8.17659C15.7328 7.99866 15.5127 7.90959 15.2114 7.90959C14.8407 7.90959 14.5355 7.98108 14.2962 8.12391C14.0567 8.26692 13.9099 8.33822 13.8559 8.33822C13.6706 8.33822 13.5237 8.24752 13.4157 8.06597C13.3074 7.88456 13.2534 7.67784 13.2534 7.44614C13.2534 7.19123 13.4677 6.97308 13.8965 6.79153C14.3251 6.61013 14.7712 6.51928 15.2346 6.51928C16.1227 6.51928 16.7851 6.73561 17.2215 7.16808C17.6578 7.60073 17.8761 8.14125 17.8761 8.79009L17.8761 11.5474Z" fill="#CDD3DD"/>
<path d="M16.0342 9.7981C15.7792 9.7981 15.5687 9.80897 15.4028 9.83035C15.2365 9.85186 15.0879 9.9075 14.9567 9.99689C14.8252 10.0863 14.7598 10.2134 14.7598 10.3782C14.7598 10.679 14.9104 10.8293 15.2116 10.8293C15.4045 10.8293 15.5978 10.7292 15.7909 10.5285C15.9838 10.328 16.0806 10.0988 16.0806 9.84099V9.7981H16.0342Z" fill="#CDD3DD"/>
<path d="M2.50391 15.5194V22.5502C2.50391 23.3496 3.1543 24 3.95375 24H20.046C20.8455 24 21.4959 23.3496 21.4959 22.5502V15.5194H2.50391ZM6.52531 17.1876H10.1763C10.565 17.1876 10.8801 17.5027 10.8801 17.8914C10.8801 18.2802 10.565 18.5953 10.1763 18.5953H6.52531C6.13658 18.5953 5.82144 18.2802 5.82144 17.8914C5.82144 17.5027 6.13662 17.1876 6.52531 17.1876ZM13.0077 20.8357H6.52531C6.13658 20.8357 5.82144 20.5206 5.82144 20.1318C5.82144 19.7431 6.13658 19.4279 6.52531 19.4279H13.0076C13.3963 19.4279 13.7115 19.7431 13.7115 20.1318C13.7115 20.5206 13.3964 20.8357 13.0077 20.8357ZM17.4259 20.8357H15.6749C15.2862 20.8357 14.971 20.5206 14.971 20.1318C14.971 19.7431 15.2862 19.4279 15.6749 19.4279H17.4259C17.8146 19.4279 18.1297 19.7431 18.1297 20.1318C18.1297 20.5206 17.8146 20.8357 17.4259 20.8357Z" fill="#CDD3DD" fill-opacity="0.3"/>
</svg>
