<svg width="24" height="24" viewBox="0 0 24 24" fill="none" xmlns="http://www.w3.org/2000/svg">
<g clip-path="url(#clip0_1102_21369)">
<path d="M4.27345 17.308V0H3.1208C1.42261 0 0.0410156 1.38159 0.0410156 3.07978V18.2859C0.746531 17.6773 1.66402 17.3079 2.66672 17.3079H4.27345V17.308Z" fill="#CDD3DD"/>
<path d="M18.6541 11.9508C18.8055 11.9508 18.9556 11.9563 19.1044 11.9662V0H5.67578V17.308H12.0858C12.7111 14.2546 15.4186 11.9508 18.6541 11.9508ZM9.93578 4.13301H14.6336V5.53669H9.93578V4.13301ZM8.34892 7.18036H16.2205V8.58403H8.34892V7.18036Z" fill="#CDD3DD"/>
<path d="M12.8675 22.0355H3.5977V20.6318H12.2483C12.0562 20.0104 11.9521 19.3507 11.9509 18.6674H2.66634C1.19611 18.6674 0 19.8635 0 21.3337C0 22.8039 1.19611 24 2.66634 24H14.6128C13.9101 23.4673 13.3154 22.7995 12.8675 22.0355Z" fill="#CDD3DD" fill-opacity="0.3"/>
<path d="M18.6555 13.3102C15.7083 13.3102 13.3105 15.7079 13.3105 18.6551C13.3105 21.6023 15.7083 24 18.6555 24C21.6027 24 24.0004 21.6023 24.0004 18.6551C24.0004 15.7079 21.6027 13.3102 18.6555 13.3102ZM18.655 15.4553C19.0492 15.4553 19.3411 15.7774 19.3581 16.1584C19.3751 16.5381 19.0228 16.8615 18.655 16.8615C18.2608 16.8615 17.9689 16.5394 17.9519 16.1584C17.9349 15.7787 18.2872 15.4553 18.655 15.4553ZM19.3597 21.3954H17.9535V17.7955H19.3597V21.3954Z" fill="#CDD3DD" fill-opacity="0.3"/>
</g>
<defs>
<clipPath id="clip0_1102_21369">
<rect width="24" height="24" fill="white"/>
</clipPath>
</defs>
</svg>
