<svg width="24" height="24" viewBox="0 0 24 24" fill="none" xmlns="http://www.w3.org/2000/svg">
<path d="M8 1.25H4C2.48122 1.25 1.25 2.48122 1.25 4V8C1.25 9.51879 2.48122 10.75 4 10.75H8C9.51879 10.75 10.75 9.51879 10.75 8V4C10.75 2.48122 9.51879 1.25 8 1.25Z" fill="#CDD3DD" fill-opacity="0.3"/>
<path d="M8 13.25H4C2.48122 13.25 1.25 14.4812 1.25 16V20C1.25 21.5188 2.48122 22.75 4 22.75H8C9.51879 22.75 10.75 21.5188 10.75 20V16C10.75 14.4812 9.51879 13.25 8 13.25Z" fill="#CDD3DD"/>
<path d="M20 1.25H16C14.4812 1.25 13.25 2.48122 13.25 4V8C13.25 9.51879 14.4812 10.75 16 10.75H20C21.5188 10.75 22.75 9.51879 22.75 8V4C22.75 2.48122 21.5188 1.25 20 1.25Z" fill="#CDD3DD"/>
<path d="M15 21.75C14.8011 21.75 14.6103 21.671 14.4697 21.5303C14.329 21.3897 14.25 21.1989 14.25 21V15C14.25 14.8011 14.329 14.6103 14.4697 14.4697C14.6103 14.329 14.8011 14.25 15 14.25C15.1989 14.25 15.3897 14.329 15.5303 14.4697C15.671 14.6103 15.75 14.8011 15.75 15V21C15.75 21.1989 15.671 21.3897 15.5303 21.5303C15.3897 21.671 15.1989 21.75 15 21.75Z" fill="#CDD3DD" fill-opacity="0.3"/>
<path d="M21 21.75C20.8011 21.75 20.6103 21.671 20.4697 21.5303C20.329 21.3897 20.25 21.1989 20.25 21V15C20.25 14.8011 20.329 14.6103 20.4697 14.4697C20.6103 14.329 20.8011 14.25 21 14.25C21.1989 14.25 21.3897 14.329 21.5303 14.4697C21.671 14.6103 21.75 14.8011 21.75 15V21C21.75 21.1989 21.671 21.3897 21.5303 21.5303C21.3897 21.671 21.1989 21.75 21 21.75Z" fill="#CDD3DD" fill-opacity="0.3"/>
<path d="M18 21.75C17.8011 21.75 17.6103 21.671 17.4697 21.5303C17.329 21.3897 17.25 21.1989 17.25 21V15C17.25 14.8011 17.329 14.6103 17.4697 14.4697C17.6103 14.329 17.8011 14.25 18 14.25C18.1989 14.25 18.3897 14.329 18.5303 14.4697C18.671 14.6103 18.75 14.8011 18.75 15V21C18.75 21.1989 18.671 21.3897 18.5303 21.5303C18.3897 21.671 18.1989 21.75 18 21.75Z" fill="#CDD3DD" fill-opacity="0.3"/>
</svg>
