<svg width="24" height="24" viewBox="0 0 24 24" fill="none" xmlns="http://www.w3.org/2000/svg">
<path d="M5.1057 19.9549C5.39861 19.662 5.39861 19.1871 5.1057 18.8942C1.2981 15.0866 1.2981 8.91326 5.1057 5.10566C5.39861 4.81275 5.39861 4.33789 5.1057 4.04497C4.81282 3.7521 4.33792 3.7521 4.04505 4.04497C-0.34835 8.4384 -0.348349 15.5615 4.04505 19.9549C4.33792 20.2478 4.81282 20.2478 5.1057 19.9549Z" fill="#CDD3DD" fill-opacity="0.3"/>
<path d="M18.8935 19.9549C19.1864 20.2478 19.6613 20.2478 19.9542 19.9549C24.3476 15.5615 24.3476 8.4384 19.9542 4.04497C19.6613 3.7521 19.1864 3.7521 18.8935 4.04497C18.6006 4.33789 18.6006 4.81275 18.8935 5.10566C22.7011 8.91326 22.7011 15.0866 18.8935 18.8942C18.6006 19.1871 18.6006 19.662 18.8935 19.9549Z" fill="#CDD3DD" fill-opacity="0.3"/>
<path fill-rule="evenodd" clip-rule="evenodd" d="M4.125 11.9999C4.125 16.3491 7.65075 19.8749 12 19.8749C16.3492 19.8749 19.875 16.3491 19.875 11.9999C19.875 7.65063 16.3492 4.12488 12 4.12488C7.65075 4.12488 4.125 7.65063 4.125 11.9999ZM12 16.1249C12.4142 16.1249 12.75 15.7891 12.75 15.3749V10.8749C12.75 10.4607 12.4142 10.1249 12 10.1249C11.5858 10.1249 11.25 10.4607 11.25 10.8749V15.3749C11.25 15.7891 11.5858 16.1249 12 16.1249ZM12 8.24988C12.4142 8.24988 12.75 8.58565 12.75 8.99988C12.75 9.41407 12.4142 9.74988 12 9.74988C11.5858 9.74988 11.25 9.41407 11.25 8.99988C11.25 8.58565 11.5858 8.24988 12 8.24988Z" fill="#CDD3DD"/>
</svg>
