<svg width="24" height="24" viewBox="0 0 24 24" fill="none" xmlns="http://www.w3.org/2000/svg">
<path opacity="0.4" d="M19.86 8.08997C19.86 8.23997 19.86 8.38997 19.85 8.52997C18.32 7.95997 16.52 8.30997 15.32 9.38997C14.51 8.65997 13.46 8.24997 12.34 8.24997C9.88 8.24997 7.88 10.26 7.88 12.74C7.88 15.57 9.3 17.64 10.66 18.98C10.55 18.97 10.46 18.95 10.38 18.92C7.79 18.03 2 14.35 2 8.08997C2 5.32997 4.21999 3.09998 6.95999 3.09998C8.58999 3.09998 10.03 3.87997 10.93 5.08997C11.84 3.87997 13.28 3.09998 14.9 3.09998C17.64 3.09998 19.86 5.32997 19.86 8.08997Z" fill="#CDD3DD"/>
<path d="M17.9999 9.58997C16.9299 9.58997 15.9599 10.11 15.3599 10.91C14.7599 10.11 13.7999 9.58997 12.7199 9.58997C10.8999 9.58997 9.41992 11.07 9.41992 12.91C9.41992 13.62 9.52992 14.27 9.72992 14.87C10.6699 17.84 13.5599 19.61 14.9899 20.1C15.1899 20.17 15.5199 20.17 15.7299 20.1C17.1599 19.61 20.0499 17.84 20.9899 14.87C21.1899 14.26 21.2999 13.61 21.2999 12.91C21.2999 11.07 19.8199 9.58997 17.9999 9.58997Z" fill="#CDD3DD"/>
</svg>
