<svg width="24" height="24" viewBox="0 0 24 24" fill="none" xmlns="http://www.w3.org/2000/svg">
<g clip-path="url(#clip0_1102_8288)">
<path d="M20.4853 3.51473C18.2188 1.24823 15.2053 0 12 0C8.79469 0 5.78119 1.24823 3.51469 3.51473C1.24819 5.78123 0 8.79469 0 12C0 15.2053 1.24819 18.2188 3.51469 20.4853C5.78119 22.7517 8.79469 24 12 24C15.2053 24 18.2188 22.7518 20.4853 20.4853C22.7518 18.2188 24 15.2053 24 12C24 8.79469 22.7518 5.78119 20.4853 3.51473ZM12 21.6446C6.68189 21.6446 2.35538 17.3181 2.35538 12C2.35538 11.9913 2.35566 11.9827 2.3557 11.974C2.3557 11.9718 2.35538 11.9697 2.35538 11.9675C2.35538 11.9638 2.35584 11.9602 2.35594 11.9566C2.37933 6.70223 6.62559 2.42738 11.8689 2.35706C11.8799 2.35655 11.8908 2.35542 11.9019 2.35542C11.9085 2.35542 11.915 2.35622 11.9216 2.35641C11.9478 2.35622 11.9738 2.35542 12 2.35542C17.3182 2.35542 21.6447 6.68198 21.6447 12C21.6447 17.3181 17.3181 21.6446 12 21.6446Z" fill="#CDD3DD" fill-opacity="0.3"/>
<path d="M19.3252 12.5794C18.933 12.5794 18.6151 12.2615 18.6151 11.8693C18.6151 11.4771 18.933 11.1592 19.3252 11.1592H20.181C19.779 7.21817 16.5828 4.09175 12.6111 3.79822V4.5433C12.6111 4.93545 12.2932 5.25336 11.901 5.25336C11.5089 5.25336 11.191 4.93545 11.191 4.5433V3.81519C7.27805 4.19862 4.16119 7.33559 3.80855 11.2573H4.57505C4.9672 11.2573 5.28511 11.5752 5.28511 11.9674C5.28511 12.3596 4.9672 12.6775 4.57505 12.6775H3.80273C4.12922 16.6624 7.30856 19.8515 11.2891 20.1935V19.2934C11.2891 18.9012 11.607 18.5833 11.9992 18.5833C12.3914 18.5833 12.7093 18.9012 12.7093 19.2934V20.1935C16.7224 19.8486 19.9211 16.6099 20.203 12.5794H19.3252ZM14.8736 10.1298L12.5013 12.5021C12.3682 12.6352 12.1876 12.71 11.9993 12.71C11.811 12.71 11.6303 12.6352 11.4972 12.5021L7.36781 8.3727C7.0905 8.09544 7.0905 7.64586 7.36781 7.36855C7.64508 7.09123 8.09466 7.09123 8.37197 7.36855L11.9993 10.9958L13.8695 9.12561C14.1468 8.8483 14.5964 8.8483 14.8737 9.12561C15.1509 9.40287 15.1509 9.8525 14.8736 10.1298Z" fill="#CDD3DD"/>
</g>
<defs>
<clipPath id="clip0_1102_8288">
<rect width="24" height="24" fill="white"/>
</clipPath>
</defs>
</svg>
