<svg width="24" height="24" viewBox="0 0 24 24" fill="none" xmlns="http://www.w3.org/2000/svg">
<g clip-path="url(#clip0_1102_8371)">
<path d="M9.65121 6.79566C9.70755 7.60773 10.6354 8.05238 11.306 7.59104C11.896 7.18491 12.7013 7.60791 12.7013 8.32468V11.2736H14.9104C14.5181 9.67149 15.7884 8.11069 17.4781 8.22737C18.9648 8.3304 20.0673 9.76191 19.696 11.2736H21.9275C23.7947 8.45044 21.9142 4.36594 18.2756 4.1791C18.687 2.0064 17.0118 0.00366211 14.8163 0.00366211C14.0232 0.00366211 13.2905 0.267287 12.7013 0.711381V5.11262C12.7013 5.82887 11.8966 6.25257 11.3059 5.84626C10.5883 5.35257 9.589 5.89791 9.65121 6.79566Z" fill="#CDD3DD" fill-opacity="0.3"/>
<path d="M5.08752 11.2736C5.80391 11.2736 6.22752 12.0785 5.82107 12.669C5.32968 13.383 5.86921 14.3855 6.77076 14.3232C7.5847 14.2668 8.02715 13.3382 7.56637 12.6689C7.1601 12.0786 7.58348 11.2736 8.30006 11.2736H11.2964V9.11057C9.7813 9.48276 8.35256 8.37609 8.24966 6.89287C8.13299 5.21029 9.68727 3.93159 11.2964 4.32557V0.711416C8.77382 -1.18965 5.16013 0.98104 5.71368 4.13259C2.05335 4.32707 0.200993 8.42043 2.08438 11.2736H5.08752Z" fill="#CDD3DD"/>
<path d="M21.9058 12.6795H18.9119C18.1952 12.6795 17.772 11.8744 18.1783 11.2842C18.6394 10.6145 18.1957 9.68626 17.3827 9.62987C16.4812 9.56729 15.9414 10.5697 16.433 11.284C16.8393 11.8746 16.416 12.6795 15.6994 12.6795H12.7031V14.8413C14.3076 14.4484 15.8668 15.7219 15.7498 17.4085C15.6469 18.8923 14.2178 19.9981 12.7031 19.6263V23.2886C15.2257 25.1897 18.8393 23.019 18.2858 19.8675C21.8581 19.6776 23.8438 15.6698 21.9058 12.6795Z" fill="#CDD3DD"/>
<path d="M14.346 17.3112C14.4082 16.4139 13.4089 15.8681 12.6913 16.3619C12.101 16.7678 11.2959 16.3452 11.2959 15.6283V12.6794H9.08553C9.46817 14.2366 8.2821 15.7319 6.69027 15.7319C5.08344 15.7319 3.92305 14.2177 4.29997 12.6794H2.08419C0.20183 15.5323 2.05058 19.6324 5.72164 19.8209C5.31022 21.9936 6.98549 23.9963 9.18097 23.9963C9.97405 23.9963 10.7067 23.7327 11.296 23.2886V18.8404C11.296 18.1243 12.1007 17.7004 12.6912 18.1067C13.3604 18.5674 14.2895 18.125 14.346 17.3112Z" fill="#CDD3DD" fill-opacity="0.3"/>
</g>
<defs>
<clipPath id="clip0_1102_8371">
<rect width="24" height="24" fill="white"/>
</clipPath>
</defs>
</svg>
