<svg width="24" height="24" viewBox="0 0 24 24" fill="none" xmlns="http://www.w3.org/2000/svg">
<g clip-path="url(#clip0_1102_21429)">
<path d="M12.25 2H11.15C10.82 0.85 9.76 0 8.5 0C7.24 0 6.18 0.85 5.85 2H4.75C4.34 2 4 2.34 4 2.75V4.25C4 5.21 4.79 6 5.75 6H11.25C12.21 6 13 5.21 13 4.25V2.75C13 2.34 12.66 2 12.25 2Z" fill="#CDD3DD"/>
<path d="M14.25 3H14V4.25C14 5.77 12.77 7 11.25 7H5.75C4.23 7 3 5.77 3 4.25V3H2.75C1.23 3 0 4.23 0 5.75V18.25C0 19.77 1.23 21 2.75 21H10.13L10.35 19.77C10.45 19.21 10.71 18.71 11.11 18.3L11.91 17.5H3.75C3.34 17.5 3 17.16 3 16.75C3 16.34 3.34 16 3.75 16H13.25C13.3 16 13.34 16 13.39 16.02H13.4L17 12.42V5.75C17 4.23 15.77 3 14.25 3ZM13.25 14.25H3.75C3.34 14.25 3 13.91 3 13.5C3 13.09 3.34 12.75 3.75 12.75H13.25C13.66 12.75 14 13.09 14 13.5C14 13.91 13.66 14.25 13.25 14.25ZM13.25 11H3.75C3.34 11 3 10.66 3 10.25C3 9.84 3.34 9.5 3.75 9.5H13.25C13.66 9.5 14 9.84 14 10.25C14 10.66 13.66 11 13.25 11Z" fill="#CDD3DD" fill-opacity="0.3"/>
<path d="M12.527 24C12.33 24 12.138 23.922 11.997 23.78C11.824 23.607 11.746 23.361 11.789 23.119L12.319 20.114C12.345 19.963 12.419 19.823 12.527 19.714L19.952 12.29C20.864 11.376 21.76 11.623 22.25 12.113L23.487 13.35C24.17 14.032 24.17 15.142 23.487 15.825L16.062 23.25C15.954 23.359 15.814 23.432 15.662 23.458L12.657 23.988C12.614 23.996 12.57 24 12.527 24Z" fill="#CDD3DD"/>
</g>
<defs>
<clipPath id="clip0_1102_21429">
<rect width="24" height="24" fill="white"/>
</clipPath>
</defs>
</svg>
