<svg width="25" height="24" viewBox="0 0 25 24" fill="none" xmlns="http://www.w3.org/2000/svg">
<g clip-path="url(#clip0_411_6089)">
<path d="M5.24877 19.9549C5.54168 19.662 5.54168 19.1871 5.24877 18.8942C1.44116 15.0866 1.44116 8.91326 5.24877 5.10566C5.54168 4.81275 5.54168 4.33789 5.24877 4.04497C4.95589 3.7521 4.48099 3.7521 4.18812 4.04497C-0.205284 8.4384 -0.205283 15.5615 4.18812 19.9549C4.48099 20.2478 4.95589 20.2478 5.24877 19.9549Z" fill="#614730" fill-opacity="0.3"/>
<path d="M19.0373 19.9549C19.3302 20.2478 19.8051 20.2478 20.098 19.9549C24.4913 15.5615 24.4913 8.4384 20.098 4.04497C19.8051 3.7521 19.3302 3.7521 19.0373 4.04497C18.7444 4.33789 18.7444 4.81275 19.0373 5.10566C22.8449 8.91326 22.8449 15.0866 19.0373 18.8942C18.7444 19.1871 18.7444 19.662 19.0373 19.9549Z" fill="#614730" fill-opacity="0.3"/>
<path fill-rule="evenodd" clip-rule="evenodd" d="M4.26807 11.9999C4.26807 16.3492 7.79382 19.8749 12.1431 19.8749C16.4923 19.8749 20.0181 16.3492 20.0181 11.9999C20.0181 7.65069 16.4923 4.12494 12.1431 4.12494C7.79382 4.12494 4.26807 7.65069 4.26807 11.9999ZM12.1431 16.1249C12.5573 16.1249 12.8931 15.7891 12.8931 15.3749V10.8749C12.8931 10.4607 12.5573 10.1249 12.1431 10.1249C11.7288 10.1249 11.3931 10.4607 11.3931 10.8749V15.3749C11.3931 15.7891 11.7288 16.1249 12.1431 16.1249ZM12.1431 8.24994C12.5573 8.24994 12.8931 8.58571 12.8931 8.99994C12.8931 9.41413 12.5573 9.74994 12.1431 9.74994C11.7288 9.74994 11.3931 9.41413 11.3931 8.99994C11.3931 8.58571 11.7288 8.24994 12.1431 8.24994Z" fill="#614730"/>
</g>
<defs>
<clipPath id="clip0_411_6089">
<rect width="24" height="24" fill="white" transform="translate(0.143066)"/>
</clipPath>
</defs>
</svg>
