<svg width="24" height="24" viewBox="0 0 24 24" fill="none" xmlns="http://www.w3.org/2000/svg">
<g clip-path="url(#clip0_411_6063)">
<path d="M20.4853 3.51473C18.2188 1.24823 15.2053 0 12 0C8.79469 0 5.78119 1.24823 3.51469 3.51473C1.24819 5.78123 0 8.79469 0 12C0 15.2053 1.24819 18.2188 3.51469 20.4853C5.78119 22.7517 8.79469 24 12 24C15.2053 24 18.2188 22.7518 20.4853 20.4853C22.7518 18.2188 24 15.2053 24 12C24 8.79469 22.7518 5.78119 20.4853 3.51473ZM12 21.6446C6.68189 21.6446 2.35538 17.3181 2.35538 12C2.35538 11.9913 2.35566 11.9827 2.3557 11.974C2.3557 11.9718 2.35538 11.9697 2.35538 11.9675C2.35538 11.9638 2.35584 11.9602 2.35594 11.9566C2.37933 6.70223 6.62559 2.42738 11.8689 2.35706C11.8799 2.35655 11.8908 2.35542 11.9019 2.35542C11.9085 2.35542 11.915 2.35622 11.9216 2.35641C11.9478 2.35622 11.9738 2.35542 12 2.35542C17.3182 2.35542 21.6447 6.68198 21.6447 12C21.6447 17.3181 17.3181 21.6446 12 21.6446Z" fill="#614730" fill-opacity="0.3"/>
<path d="M19.326 12.5794C18.9339 12.5794 18.6159 12.2615 18.6159 11.8693C18.6159 11.4771 18.9339 11.1592 19.326 11.1592H20.1819C19.7799 7.21817 16.5837 4.09175 12.612 3.79822V4.5433C12.612 4.93545 12.2941 5.25336 11.9019 5.25336C11.5097 5.25336 11.1918 4.93545 11.1918 4.5433V3.81519C7.2789 4.19862 4.16204 7.33559 3.8094 11.2573H4.5759C4.96806 11.2573 5.28596 11.5752 5.28596 11.9674C5.28596 12.3596 4.96806 12.6775 4.5759 12.6775H3.80359C4.13007 16.6624 7.30942 19.8515 11.29 20.1935V19.2934C11.29 18.9012 11.6079 18.5833 12.0001 18.5833C12.3922 18.5833 12.7101 18.9012 12.7101 19.2934V20.1935C16.7233 19.8486 19.922 16.6099 20.2039 12.5794H19.326ZM14.8744 10.1298L12.5022 12.5021C12.369 12.6352 12.1884 12.71 12.0001 12.71C11.8118 12.71 11.6312 12.6352 11.498 12.5021L7.36867 8.3727C7.09135 8.09544 7.09135 7.64586 7.36867 7.36855C7.64593 7.09123 8.09551 7.09123 8.37282 7.36855L12.0002 10.9958L13.8704 9.12561C14.1476 8.8483 14.5972 8.8483 14.8745 9.12561C15.1517 9.40287 15.1517 9.8525 14.8744 10.1298Z" fill="#614730"/>
</g>
<defs>
<clipPath id="clip0_411_6063">
<rect width="24" height="24" fill="white"/>
</clipPath>
</defs>
</svg>
