<svg width="25" height="24" viewBox="0 0 25 24" fill="none" xmlns="http://www.w3.org/2000/svg">
<path opacity="0.4" d="M20.2887 8.08997C20.2887 8.23997 20.2887 8.38997 20.2787 8.52997C18.7487 7.95997 16.9487 8.30997 15.7487 9.38997C14.9387 8.65997 13.8887 8.24997 12.7687 8.24997C10.3087 8.24997 8.30872 10.26 8.30872 12.74C8.30872 15.57 9.72871 17.64 11.0887 18.98C10.9787 18.97 10.8887 18.95 10.8087 18.92C8.21872 18.03 2.42871 14.35 2.42871 8.08997C2.42871 5.32997 4.6487 3.09998 7.3887 3.09998C9.0187 3.09998 10.4587 3.87997 11.3587 5.08997C12.2687 3.87997 13.7087 3.09998 15.3287 3.09998C18.0687 3.09998 20.2887 5.32997 20.2887 8.08997Z" fill="#614730"/>
<path d="M18.4287 9.58997C17.3587 9.58997 16.3887 10.11 15.7887 10.91C15.1887 10.11 14.2287 9.58997 13.1487 9.58997C11.3287 9.58997 9.84875 11.07 9.84875 12.91C9.84875 13.62 9.95875 14.27 10.1588 14.87C11.0988 17.84 13.9887 19.61 15.4187 20.1C15.6187 20.17 15.9488 20.17 16.1588 20.1C17.5888 19.61 20.4787 17.84 21.4187 14.87C21.6187 14.26 21.7287 13.61 21.7287 12.91C21.7287 11.07 20.2487 9.58997 18.4287 9.58997Z" fill="#614730"/>
</svg>
