<svg width="25" height="24" viewBox="0 0 25 24" fill="none" xmlns="http://www.w3.org/2000/svg">
<path d="M10.0405 5.82422L9.1947 8.92913H10.8862L10.0405 5.82422Z" fill="#614730"/>
<path d="M20.7605 0H4.66823C3.86877 0 3.21838 0.650391 3.21838 1.44984V14.1116H22.2104V1.44984C22.2104 0.650391 21.56 0 20.7605 0ZM13.0354 11.8834C12.7843 12.0302 12.5237 12.1035 12.2534 12.1035C11.9212 12.1035 11.7243 11.9917 11.6625 11.7675L11.2686 10.3193H8.82398L8.43004 11.7675C8.36816 11.9917 8.17115 12.1035 7.83923 12.1035C7.56876 12.1035 7.30809 12.0302 7.05716 11.8834C6.80606 11.7368 6.68062 11.563 6.68062 11.3621C6.68062 11.3389 6.68821 11.2966 6.70382 11.2346L8.85876 4.16738C8.92045 3.97444 9.06149 3.82561 9.28166 3.72136C9.50184 3.61711 9.75468 3.56494 10.0405 3.56494C10.3262 3.56494 10.5792 3.61706 10.7994 3.72136C11.0195 3.82561 11.1603 3.97444 11.2223 4.16738L13.3888 11.2346C13.4041 11.2965 13.412 11.3389 13.412 11.3621C13.412 11.563 13.2863 11.7368 13.0354 11.8834ZM18.5906 11.5474C18.5906 11.702 18.5075 11.8332 18.3415 11.9414C18.1753 12.0496 17.965 12.1036 17.7101 12.1036C17.486 12.1036 17.2968 12.0459 17.1424 11.9303C16.9878 11.8148 16.9107 11.6747 16.9107 11.5098V11.2376C16.3778 11.8922 15.7907 12.2194 15.1497 12.2194C14.7248 12.2194 14.3715 12.0827 14.0896 11.8091C13.8076 11.5356 13.6667 11.1373 13.6667 10.6143C13.6667 9.99684 13.9003 9.56166 14.3677 9.30858C14.8349 9.05569 15.5049 8.92912 16.3778 8.92912H16.7949V8.80781C16.7948 8.56505 16.7253 8.35472 16.5863 8.17659C16.4473 7.99866 16.2272 7.90959 15.9259 7.90959C15.5552 7.90959 15.25 7.98108 15.0106 8.12391C14.7711 8.26692 14.6243 8.33822 14.5704 8.33822C14.385 8.33822 14.2382 8.24752 14.1301 8.06597C14.0219 7.88456 13.9679 7.67784 13.9679 7.44614C13.9679 7.19123 14.1822 6.97308 14.6109 6.79153C15.0396 6.61013 15.4857 6.51928 15.9491 6.51928C16.8372 6.51928 17.4996 6.73561 17.936 7.16808C18.3723 7.60073 18.5906 8.14125 18.5906 8.79009L18.5906 11.5474Z" fill="#614730"/>
<path d="M16.7486 9.79803C16.4936 9.79803 16.283 9.80891 16.1171 9.83028C15.9509 9.8518 15.8023 9.90744 15.671 9.99683C15.5396 10.0863 15.4741 10.2133 15.4741 10.3781C15.4741 10.679 15.6247 10.8292 15.9259 10.8292C16.1189 10.8292 16.3121 10.7291 16.5052 10.5285C16.6982 10.3279 16.7949 10.0987 16.7949 9.84093V9.79803H16.7486Z" fill="#614730"/>
<path d="M3.21838 15.5193V22.5501C3.21838 23.3496 3.86877 24 4.66823 24H20.7605C21.56 24 22.2104 23.3496 22.2104 22.5501V15.5193H3.21838ZM7.23979 17.1875H10.8907C11.2795 17.1875 11.5946 17.5026 11.5946 17.8914C11.5946 18.2801 11.2795 18.5952 10.8907 18.5952H7.23979C6.85106 18.5952 6.53591 18.2801 6.53591 17.8914C6.53591 17.5026 6.8511 17.1875 7.23979 17.1875ZM13.7221 20.8356H7.23979C6.85106 20.8356 6.53591 20.5205 6.53591 20.1318C6.53591 19.743 6.85106 19.4279 7.23979 19.4279H13.7221C14.1108 19.4279 14.426 19.743 14.426 20.1318C14.426 20.5205 14.1109 20.8356 13.7221 20.8356ZM18.1403 20.8356H16.3894C16.0006 20.8356 15.6855 20.5205 15.6855 20.1318C15.6855 19.743 16.0006 19.4279 16.3894 19.4279H18.1403C18.5291 19.4279 18.8442 19.743 18.8442 20.1318C18.8442 20.5205 18.5291 20.8356 18.1403 20.8356Z" fill="#614730" fill-opacity="0.3"/>
</svg>
