<svg width="25" height="24" viewBox="0 0 25 24" fill="none" xmlns="http://www.w3.org/2000/svg">
<g clip-path="url(#clip0_411_6066)">
<path d="M12.5359 2H11.4359C11.1059 0.85 10.0459 0 8.78589 0C7.52589 0 6.46589 0.85 6.13589 2H5.03589C4.62589 2 4.28589 2.34 4.28589 2.75V4.25C4.28589 5.21 5.07589 6 6.03589 6H11.5359C12.4959 6 13.2859 5.21 13.2859 4.25V2.75C13.2859 2.34 12.9459 2 12.5359 2Z" fill="#614730"/>
<path d="M14.5359 3H14.2859V4.25C14.2859 5.77 13.0559 7 11.5359 7H6.03589C4.51589 7 3.28589 5.77 3.28589 4.25V3H3.03589C1.51589 3 0.285889 4.23 0.285889 5.75V18.25C0.285889 19.77 1.51589 21 3.03589 21H10.4159L10.6359 19.77C10.7359 19.21 10.9959 18.71 11.3959 18.3L12.1959 17.5H4.03589C3.62589 17.5 3.28589 17.16 3.28589 16.75C3.28589 16.34 3.62589 16 4.03589 16H13.5359C13.5859 16 13.6259 16 13.6759 16.02H13.6859L17.2859 12.42V5.75C17.2859 4.23 16.0559 3 14.5359 3ZM13.5359 14.25H4.03589C3.62589 14.25 3.28589 13.91 3.28589 13.5C3.28589 13.09 3.62589 12.75 4.03589 12.75H13.5359C13.9459 12.75 14.2859 13.09 14.2859 13.5C14.2859 13.91 13.9459 14.25 13.5359 14.25ZM13.5359 11H4.03589C3.62589 11 3.28589 10.66 3.28589 10.25C3.28589 9.84 3.62589 9.5 4.03589 9.5H13.5359C13.9459 9.5 14.2859 9.84 14.2859 10.25C14.2859 10.66 13.9459 11 13.5359 11Z" fill="#614730" fill-opacity="0.3"/>
<path d="M12.8128 24C12.6158 24 12.4238 23.922 12.2828 23.78C12.1098 23.607 12.0318 23.361 12.0748 23.119L12.6048 20.114C12.6308 19.963 12.7048 19.823 12.8128 19.714L20.2378 12.29C21.1498 11.376 22.0458 11.623 22.5358 12.113L23.7728 13.35C24.4558 14.032 24.4558 15.142 23.7728 15.825L16.3478 23.25C16.2398 23.359 16.0998 23.432 15.9478 23.458L12.9428 23.988C12.8998 23.996 12.8558 24 12.8128 24Z" fill="#614730"/>
</g>
<defs>
<clipPath id="clip0_411_6066">
<rect width="24" height="24" fill="white" transform="translate(0.285889)"/>
</clipPath>
</defs>
</svg>
