<svg width="34" height="34" viewBox="0 0 34 34" fill="none" xmlns="http://www.w3.org/2000/svg">
<path fill-rule="evenodd" clip-rule="evenodd" d="M14.4941 2.88254L12.1077 5.26509H8.76294C6.25622 5.26509 5.39666 5.28649 5.33272 5.35043C5.26878 5.41437 5.24738 6.26639 5.24738 8.74687V12.058L2.96682 14.3334C1.71254 15.5849 0.639467 16.6972 0.582144 16.8051C0.509743 16.9415 0.498933 17.039 0.546797 17.1251C0.584704 17.1932 1.65777 18.2888 2.93155 19.5599L5.24738 21.8709V25.2176C5.24738 27.7257 5.26878 28.5856 5.33272 28.6496C5.39666 28.7135 6.25622 28.7349 8.76294 28.7349H12.1077L14.4941 31.1175C15.8066 32.4279 16.9258 33.5 16.9813 33.5C17.0368 33.5 18.1573 32.4279 19.4715 31.1175L21.8609 28.7349H25.2037C27.7089 28.7349 28.5679 28.7135 28.6319 28.6496C28.6958 28.5856 28.7172 27.7264 28.7172 25.2204V21.8766L31.0997 19.4903C32.4101 18.1778 33.4823 17.0572 33.4823 17C33.4823 16.9428 32.4101 15.8222 31.0997 14.5097L28.7172 12.1234V8.77959C28.7172 6.27365 28.6958 5.41437 28.6319 5.35043C28.5679 5.28649 27.7089 5.26509 25.2037 5.26509H21.8609L19.4715 2.88254C18.1573 1.57214 17.0368 0.5 16.9813 0.5C16.9258 0.5 15.8066 1.57214 14.4941 2.88254ZM19.2574 3.73528L21.4962 5.97487L24.7333 5.99336L27.9704 6.01185L28.006 9.26527L28.0416 12.5187L30.2814 14.7593L32.5213 17L30.2643 19.2581L28.0073 21.5162L27.9889 24.7522L27.9704 27.9881L24.717 28.0237L21.4636 28.0593L19.2229 30.2991L16.9823 32.539L14.7242 30.282L12.4661 28.025L9.23013 28.0066L5.99414 27.9881L5.95858 24.7347L5.92302 21.4813L3.68315 19.2407L1.44327 17L3.70029 14.7419L5.9573 12.4838L5.97572 9.24784L5.99414 6.01185L9.24784 5.97629L12.5015 5.94073L14.724 3.71821C15.9463 2.49586 16.9627 1.49569 16.9826 1.49569C17.0024 1.49569 18.0261 2.50354 19.2574 3.73528ZM14.8499 4.94504L12.8185 6.97198H9.96005C7.20668 6.97198 7.09879 6.97703 7.02788 7.10953C6.98073 7.19772 6.95427 8.25194 6.95427 10.0438V12.8404L4.96289 14.8308C3.41133 16.3817 2.97151 16.8607 2.97151 17C2.97151 17.1393 3.41133 17.6183 4.96289 19.1692L6.95427 21.1596V23.9761C6.95427 26.6144 6.96252 26.8001 7.08435 26.9103C7.20071 27.0156 7.50909 27.028 10.0185 27.028H12.8227L14.8131 29.0194C16.364 30.571 16.843 31.0108 16.9823 31.0108C17.1215 31.0108 17.6006 30.571 19.1515 29.0194L21.1419 27.028H23.9643C26.4354 27.028 26.8007 27.0141 26.8986 26.9163C26.9964 26.8184 27.0103 26.4531 27.0103 23.9821V21.1596L28.9966 19.1743C30.0891 18.0824 31.0002 17.1228 31.0214 17.0418C31.0525 16.9228 30.6722 16.5061 29.035 14.8655L27.0103 12.8362V9.98942C27.0103 7.87009 26.9885 7.12084 26.925 7.05733C26.8615 6.99382 26.1122 6.97198 23.9929 6.97198H21.1461L19.1147 4.94504C17.9974 3.83023 17.0378 2.9181 16.9823 2.9181C16.9267 2.9181 15.9672 3.83023 14.8499 4.94504ZM18.9203 5.81627L20.8237 7.71875L23.5234 7.73895L26.2231 7.75922L26.2433 10.4589L26.2635 13.1586L28.1833 15.0793L30.1031 17L28.1833 18.9207L26.2635 20.8414L26.2433 23.5411L26.2231 26.2408L23.5234 26.2611L20.8237 26.2812L18.903 28.201L16.9823 30.1208L15.0616 28.201L13.1409 26.2812L10.4412 26.2611L7.74151 26.2408L7.72124 23.5411L7.70104 20.8414L5.78128 18.9207L3.86152 17L5.78128 15.0793L7.70104 13.1586L7.72124 10.4589L7.74151 7.75922L10.4415 7.73895L13.1416 7.71875L15.044 5.81627C16.0903 4.76987 16.9622 3.91379 16.9816 3.91379C17.001 3.91379 17.8734 4.76987 18.9203 5.81627Z" fill="#101010" fill-opacity="0.3"/>
</svg>
