<svg width="24" height="24" viewBox="0 0 24 24" fill="none" xmlns="http://www.w3.org/2000/svg">
    <g clip-path="url(#clip0_635_6522)">
        <path
            d="M22.8716 24H1.12743C0.476644 24 -0.0549316 23.4673 -0.0549316 22.8166V1.18453C-0.0549316 0.532117 0.476644 0 1.12743 0H22.8716C23.5235 0 24.0551 0.532117 24.0551 1.18453V22.8166C24.0551 23.4673 23.5235 24 22.8716 24Z"
            fill="#DF146E" />
        <path
            d="M17.2275 13.1408L9.58333 11.9238L10.6178 16.437L17.2275 13.1408ZM17.5374 12.7712L11.527 4.42155L9.56382 11.5233L17.5374 12.7712ZM9.19155 11.4263L2.89339 3.38062L11.1412 4.36628L9.19155 11.4263ZM6.13594 8.09164L2.64142 4.79707H3.55989L6.13594 8.09164ZM19.4139 8.71479L17.9352 12.7263L15.5369 9.4111L19.4139 8.71479ZM11.5503 16.3817L17.3538 14.0517L17.5998 13.312L11.5503 16.3817ZM6.70978 20.6197L9.19643 11.8945L10.4568 17.5728L6.70978 20.6197ZM19.7683 8.74514L19.1571 10.4011L21.3566 10.3632L19.7683 8.74514Z"
            fill="white" />
    </g>
    <defs>
        <clipPath id="clip0_635_6522">
            <rect width="24" height="24" rx="5" fill="white" />
        </clipPath>
    </defs>
</svg>
