<svg width="14" height="16" viewBox="0 0 14 16" fill="none" xmlns="http://www.w3.org/2000/svg">
    <path
        d="M9.8125 11.9375V14.4688C9.8125 14.9345 9.4345 15.3125 8.96875 15.3125H1.65625C1.43247 15.3125 1.21786 15.2236 1.05963 15.0654C0.901395 14.9071 0.8125 14.6925 0.8125 14.4688V4.90625C0.8125 4.4405 1.1905 4.0625 1.65625 4.0625H3.0625C3.43943 4.06224 3.81573 4.09335 4.1875 4.1555M9.8125 11.9375H12.3438C12.8095 11.9375 13.1875 11.5595 13.1875 11.0938V7.4375C13.1875 4.0925 10.7552 1.31675 7.5625 0.780502C7.19073 0.718352 6.81443 0.687245 6.4375 0.687502H5.03125C4.5655 0.687502 4.1875 1.0655 4.1875 1.53125V4.1555M9.8125 11.9375H5.03125C4.80747 11.9375 4.59286 11.8486 4.43463 11.6904C4.27639 11.5321 4.1875 11.3175 4.1875 11.0938V4.1555M13.1875 9.125V7.71875C13.1875 7.04742 12.9208 6.40359 12.4461 5.92889C11.9714 5.45419 11.3276 5.1875 10.6562 5.1875H9.53125C9.30747 5.1875 9.09286 5.09861 8.93463 4.94037C8.77639 4.78214 8.6875 4.56753 8.6875 4.34375V3.21875C8.6875 2.88634 8.62203 2.55719 8.49482 2.25008C8.36761 1.94298 8.18116 1.66394 7.94611 1.42889C7.71107 1.19384 7.43202 1.00739 7.12492 0.880181C6.81781 0.752974 6.48866 0.687502 6.15625 0.687502H5.3125"
        stroke="#5D646F" stroke-width="1.25" stroke-linecap="round" stroke-linejoin="round" />
</svg>
