<svg width="25" height="24" viewBox="0 0 25 24" fill="none" xmlns="http://www.w3.org/2000/svg">
    <g clip-path="url(#clip0_1034_13222)">
        <path
            d="M2.31458 21.0023H6.13278V11.7296L3.63257 7.36377L0.678223 7.63869V19.366C0.678223 20.2701 1.4105 21.0023 2.31458 21.0023Z"
            fill="#0085F7" />
        <path
            d="M19.2236 21.0023H23.0418C23.9459 21.0023 24.6782 20.2701 24.6782 19.366V7.63869L21.7281 7.36377L19.2237 11.7296V21.0023H19.2236Z"
            fill="#00A94B" />
        <path
            d="M19.2235 4.63881L16.9807 8.91863L19.2235 11.7297L24.6781 7.6388V5.45701C24.6781 3.43473 22.3695 2.27973 20.7508 3.49337L19.2235 4.63881Z"
            fill="#FFBC00" />
        <path fill-rule="evenodd" clip-rule="evenodd"
            d="M6.13278 11.7296L3.99561 7.21506L6.13278 4.63867L12.6782 9.54775L19.2237 4.63867V11.7296L12.6782 16.6387L6.13278 11.7296Z"
            fill="#FF4131" />
        <path
            d="M0.678223 5.45701V7.6388L6.13278 11.7297V4.63881L4.6055 3.49337C2.98686 2.27973 0.678223 3.43473 0.678223 5.45701Z"
            fill="#E51C19" />
    </g>
    <defs>
        <clipPath id="clip0_1034_13222">
            <rect width="24" height="24" fill="white" transform="translate(0.678223)" />
        </clipPath>
    </defs>
</svg>
