<svg width="25" height="24" viewBox="0 0 25 24" fill="none" xmlns="http://www.w3.org/2000/svg">
    <path
        d="M22.4317 12.8319C22.4317 13.1646 22.4317 13.4497 22.3842 13.7349C22.2891 15.0656 21.9564 16.3012 21.4337 17.4418C21.2436 17.9171 21.0059 18.3448 20.7208 18.7725C18.7248 21.9091 15.2079 24.0002 11.2158 24.0002C9.50495 24.0002 7.88911 23.62 6.46337 22.9547C2.66139 21.1963 0 17.2992 0 12.8319C0 8.41212 2.56634 4.61014 6.22574 2.8042C5.94059 3.1844 5.65545 3.5646 5.41782 3.99232C5.41782 4.03984 5.3703 4.03984 5.3703 4.08737C5.22772 4.22994 5.08515 4.32499 4.94257 4.46757C4.75248 4.61014 4.6099 4.80024 4.4198 4.94281L4.32475 5.03786L4.2297 5.13291C4.18218 5.18044 4.13465 5.27549 4.0396 5.32301C3.94455 5.46559 3.80198 5.60816 3.70693 5.75073C3.23168 6.36856 2.85149 7.0339 2.56634 7.74677C2.51881 7.7943 2.51881 7.88935 2.47129 7.93687C2.42376 8.03192 2.42376 8.12697 2.37624 8.1745C2.37624 8.22202 2.32871 8.26955 2.32871 8.31707C2.28119 8.45965 2.23366 8.55469 2.18614 8.69727C2.13861 8.79232 2.13861 8.88737 2.09109 8.93489C2.09109 8.98242 2.04356 9.02994 2.04356 9.07747C2.04356 9.17252 1.99604 9.26757 1.99604 9.36261L1.85347 10.2181C1.85347 10.3131 1.85347 10.3606 1.80594 10.4557V11.5963C1.80594 14.6379 3.18416 17.3943 5.41782 19.1527C7.12871 20.5309 9.26733 21.3864 11.596 21.3864C13.7347 21.3864 15.6832 20.721 17.299 19.5329C18.4871 18.6775 19.4376 17.5844 20.1505 16.3012C20.2455 16.1111 20.3406 15.9686 20.4356 15.7785C21.0059 14.5903 21.3386 13.3072 21.3386 11.929V11.5963C21.3386 11.2636 21.3386 10.9785 21.2911 10.6458L21.3386 10.6933C21.4812 10.8359 21.6238 10.9309 21.7663 11.0735C21.9089 10.8359 22.0515 10.6458 22.1941 10.4082C22.2891 10.8359 22.3366 11.2636 22.3842 11.7389C22.4317 12.1666 22.4317 12.4992 22.4317 12.8319Z"
        fill="#ED1C24" />
    <path
        d="M12.5466 3.8495L10.4555 0C6.98616 1.56832 4.60992 5.03762 4.60992 9.07723C4.60992 11.1208 5.22775 13.0218 6.27329 14.5901C6.17824 14.0673 6.17824 13.5446 6.17824 12.9743C6.22577 8.8396 8.83963 5.32277 12.5466 3.8495Z"
        fill="#F7941D" />
    <path
        d="M14.2099 5.75034C15.0653 5.51272 16.0158 5.41767 16.9188 5.41767C17.4891 5.41767 18.1069 5.46519 18.6297 5.56024L18.5822 3.84935L18.4871 0.427569C18.1069 0.380044 17.6792 0.33252 17.2515 0.33252C15.3505 0.33252 13.5921 0.950341 12.1663 1.94836L13.3069 4.03945C11.2634 4.75232 9.6 6.17806 8.55446 8.03153C8.03168 8.9345 7.65149 9.98005 7.50891 11.0731C7.79406 10.5028 8.12673 9.98005 8.50693 9.5048C9.88515 7.69886 11.8812 6.32064 14.2099 5.75034Z"
        fill="#ED1C24" />
    <path
        d="M19.2 3.80176L19.2951 6.22552C18.4871 5.9879 17.6792 5.84532 16.7762 5.84532C15.1129 5.84532 13.5446 6.32057 12.1663 7.12849C10.4555 8.17404 9.12476 9.8374 8.45941 11.7859C9.12476 10.8829 9.93268 10.075 10.8832 9.4572C12.2614 8.55423 13.9248 8.03146 15.6832 8.03146C17.0139 8.03146 18.2495 8.31661 19.3901 8.83938C20.2456 9.21958 21.0059 9.74235 21.6713 10.4077L23.002 8.41166L24.7129 5.7978C23.1921 4.56215 21.2911 3.80176 19.2 3.80176Z"
        fill="#F7941D" />
    <path
        d="M21.3386 11.691V12.0237C21.3386 14.0198 20.5307 15.6831 20.4356 15.8732C20.3406 16.0633 20.2455 16.2059 20.1505 16.396C19.4376 17.6792 18.4871 18.7722 17.299 19.6277C15.6831 20.7683 13.7346 21.4811 11.596 21.4811C9.26729 21.4811 7.08116 20.6732 5.41779 19.2475C3.23165 17.4415 1.80591 14.7326 1.80591 11.691V10.5504C1.80591 10.4554 1.80591 10.4079 1.85343 10.3128L1.99601 9.45738C1.99601 9.36233 2.04353 9.26728 2.04353 9.17223C2.04353 9.1247 2.09106 9.07718 2.09106 9.02965C2.13858 8.9346 2.13858 8.83956 2.18611 8.79203C2.23363 8.64946 2.28116 8.50688 2.32868 8.41183C2.32868 8.36431 2.37621 8.31678 2.37621 8.26926C2.42373 8.17421 2.42373 8.07916 2.47125 8.03163C2.51878 7.98411 2.51878 7.88906 2.5663 7.84154C2.85145 7.12866 3.27918 6.46332 3.7069 5.8455C3.80195 5.70292 3.94452 5.56035 4.03957 5.41777C4.0871 5.37025 4.13462 5.2752 4.22967 5.22767C4.2772 5.18015 4.2772 5.13262 4.32472 5.13262C4.37225 5.0851 4.37224 5.03757 4.41977 5.03757C4.56234 4.84748 4.75244 4.7049 4.94254 4.56233C5.08512 4.41975 5.22769 4.3247 5.37026 4.18213C5.37026 4.22965 5.32274 4.22965 5.32274 4.27718C5.32274 4.3247 5.27522 4.37223 5.27522 4.37223C4.70492 5.51282 4.32472 6.89104 4.18215 8.31678C4.13462 8.69698 4.13462 9.07718 4.13462 9.5049C4.13462 14.6376 7.12868 18.7722 10.8356 18.7722H11.2158C11.7386 18.7722 12.2614 18.6772 12.7841 18.5821C15.3029 17.9168 17.1564 15.5881 17.1564 12.8792V12.7366C17.1089 11.1207 16.4435 9.64748 15.3505 8.64946C16.1109 8.64946 16.8713 8.79203 17.5841 8.98213C18.9623 9.3148 20.198 9.98015 21.2911 10.8356L21.3386 10.8831C21.2911 11.0732 21.3386 11.4059 21.3386 11.691Z"
        fill="#F7941D" />
    <path
        d="M21.3386 11.6912V12.0239C21.3386 14.115 20.3881 15.9209 20.3881 15.9209C20.2931 16.111 20.198 16.2536 20.103 16.4437C19.3901 17.7268 18.3921 18.8199 17.204 19.6754C15.5406 20.911 13.5446 21.5288 11.4535 21.5288C9.17228 21.5288 6.98614 20.7209 5.22773 19.2952C2.94654 17.4417 1.61584 14.6377 1.61584 11.6912C1.61584 8.74466 2.94654 5.9407 5.22773 4.08724L5.32278 3.99219C5.32278 4.03971 5.27525 4.03971 5.27525 4.08724C5.27525 4.13476 5.22773 4.13476 5.22773 4.18229C2.99406 6.03575 1.71089 8.74466 1.71089 11.6912C1.71089 14.6377 2.99406 17.3466 5.27525 19.2476C6.98614 20.6734 9.21981 21.4338 11.4535 21.4338C13.497 21.4338 15.4931 20.816 17.1564 19.5803C18.3446 18.7249 19.2951 17.6318 20.0079 16.3486C20.103 16.1585 20.198 16.016 20.2455 15.8259C20.2455 15.8259 21.196 14.0674 21.196 11.9763V11.6437C21.196 11.311 21.196 11.0259 21.1485 10.6932V10.6457L21.196 10.6932L21.2436 10.7407C21.3386 11.1209 21.3386 11.406 21.3386 11.6912Z"
        fill="#F7941D" />
</svg>
