<svg width="24" height="24" viewBox="0 0 24 24" fill="none" xmlns="http://www.w3.org/2000/svg">
    <rect width="24" height="24" rx="5" fill="#8A288F" />
    <g clip-path="url(#clip0_1078_7009)">
        <path fill-rule="evenodd" clip-rule="evenodd"
            d="M16.8641 6.68625L13.9086 9.7366L14.116 11.4494L14.6605 10.2722L16.3453 12.4933L18.7042 5L10.8492 8.37183L12.9751 9.52251L16.8641 6.68625Z"
            fill="white" />
        <path
            d="M14.2977 12.0386H11.1863C8.81614 12.4131 8.56794 15.9725 11.1606 16.4564H14.2977V13.2423C15.3432 13.2783 15.5592 14.6254 14.7902 15.1161C14.9456 15.303 15.5677 15.9997 15.5677 15.9997C17.2005 14.5452 16.2676 12.1514 14.2977 12.0386ZM13.1574 15.25H11.4207C10.3449 15.318 9.99463 13.4829 11.3166 13.2423H13.1601L13.1574 15.25Z"
            fill="white" />
        <path fill-rule="evenodd" clip-rule="evenodd"
            d="M20.8044 13.6467H19.6634L19.171 14.8245H20.6227C20.9143 14.8109 20.9275 15.2527 20.6227 15.2792H18.1083V13.2423H21.973V12.0386H21.4002C21.2317 9.54962 18.348 9.47554 17.5895 10.8342C17.739 10.9613 18.4454 11.6104 18.4454 11.6104C18.8793 10.9076 20.0848 10.9409 20.2599 12.0386H16.9694V16.4564H20.6766C21.5187 16.4435 21.9078 15.8012 21.9987 15.2527C22.0487 14.3664 21.5299 13.7778 20.8044 13.6467Z"
            fill="white" />
        <path fill-rule="evenodd" clip-rule="evenodd"
            d="M9.70887 12.0386H8.20515C7.72585 12.6408 6.89631 15.074 8.54223 16.9091C8.54223 16.9091 9.25525 16.2804 9.39812 16.1614C8.89249 15.651 8.04977 13.5787 9.70887 12.0386Z"
            fill="white" />
        <path fill-rule="evenodd" clip-rule="evenodd"
            d="M5.88173 16.9511C5.88186 17.1436 5.82668 17.3319 5.72316 17.492C5.61965 17.6522 5.47245 17.777 5.30019 17.8508C5.12793 17.9246 4.93834 17.9439 4.75542 17.9065C4.57249 17.869 4.40444 17.7763 4.27252 17.6403C4.14061 17.5042 4.05075 17.3307 4.01432 17.1419C3.97789 16.9531 3.99652 16.7574 4.06786 16.5795C4.1392 16.4016 4.26003 16.2496 4.41509 16.1426C4.57014 16.0356 4.75245 15.9785 4.93894 15.9785C5.18887 15.9785 5.42857 16.081 5.60536 16.2633C5.78215 16.4457 5.88156 16.6931 5.88173 16.9511Z"
            fill="white" />
        <path fill-rule="evenodd" clip-rule="evenodd"
            d="M3.87578 12.0386C1.50565 12.4131 1.2581 15.9725 3.85011 16.4564H3.86788C3.96075 16.2432 4.11132 16.0622 4.30147 15.9352C4.49162 15.8083 4.71325 15.7407 4.93971 15.7407C5.16617 15.7407 5.3878 15.8083 5.57796 15.9352C5.76811 16.0622 5.91867 16.2432 6.01154 16.4564H6.9879V12.0386H3.87578ZM5.84629 15.25H4.1095C3.03373 15.318 2.68347 13.4829 4.00548 13.2423H5.84892L5.84629 15.25Z"
            fill="white" />
        <path fill-rule="evenodd" clip-rule="evenodd"
            d="M4.991 10.9958C5.37286 10.9279 5.56115 10.1191 4.93899 9.93896H3.92773V11.4777H4.34251V10.9958L4.80929 11.4777H5.45779L4.991 10.9958ZM4.94163 10.4521C4.94163 10.479 4.93129 10.5047 4.91289 10.5237C4.8945 10.5427 4.86955 10.5534 4.84353 10.5534H4.34777V10.3393H4.84353C4.86955 10.3393 4.8945 10.35 4.91289 10.3689C4.93129 10.3879 4.94163 10.4137 4.94163 10.4406V10.4521Z"
            fill="white" />
        <path fill-rule="evenodd" clip-rule="evenodd"
            d="M6.17933 9.91309C6.02982 9.91309 5.88367 9.95886 5.75936 10.0446C5.63505 10.1304 5.53818 10.2523 5.48099 10.3949C5.42381 10.5375 5.40888 10.6944 5.43809 10.8458C5.46731 10.9972 5.53936 11.1362 5.64513 11.2453C5.7509 11.3544 5.88563 11.4287 6.03229 11.4587C6.17894 11.4887 6.33093 11.4732 6.46903 11.414C6.60712 11.3549 6.72512 11.2547 6.80809 11.1263C6.89106 10.9979 6.93527 10.847 6.93514 10.6927C6.93497 10.4858 6.85526 10.2876 6.71354 10.1414C6.57182 9.9952 6.37967 9.91309 6.17933 9.91309ZM6.17933 11.0352C6.11423 11.0352 6.05058 11.0153 5.99645 10.9779C5.94231 10.9406 5.90012 10.8875 5.87521 10.8254C5.85029 10.7633 5.84377 10.695 5.85647 10.6291C5.86917 10.5632 5.90053 10.5026 5.94656 10.4551C5.9926 10.4076 6.05126 10.3752 6.11511 10.3621C6.17897 10.349 6.24516 10.3557 6.30531 10.3814C6.36546 10.4071 6.41687 10.4507 6.45304 10.5066C6.48921 10.5625 6.50852 10.6282 6.50852 10.6954C6.50852 10.7855 6.47384 10.872 6.4121 10.9357C6.35037 10.9994 6.26664 11.0352 6.17933 11.0352Z"
            fill="white" />
        <path fill-rule="evenodd" clip-rule="evenodd"
            d="M10.4647 10.3563H11.1435V9.9043H10.5694C10.1177 9.9043 9.74774 10.2564 9.74774 10.6859C9.74774 11.1155 10.1177 11.4716 10.5694 11.4716H11.1435V11.0162H10.4647C10.4172 11.0161 10.3704 11.0048 10.3279 10.9831C10.2853 10.9615 10.2481 10.93 10.2191 10.8912H11.1409V10.4834H10.2191C10.248 10.4443 10.2851 10.4125 10.3276 10.3904C10.3702 10.3684 10.4171 10.3567 10.4647 10.3563Z"
            fill="white" />
        <path fill-rule="evenodd" clip-rule="evenodd"
            d="M7.76602 11.0162C7.68371 11.0159 7.60487 10.982 7.54666 10.9219C7.48846 10.8618 7.45561 10.7804 7.45526 10.6954V10.6771C7.45544 10.5921 7.48823 10.5106 7.54647 10.4504C7.60471 10.3903 7.68365 10.3565 7.76602 10.3563H8.41056V9.9043H7.83185C7.38021 9.9043 7.01086 10.2564 7.01086 10.6859C7.01086 11.1155 7.38087 11.4716 7.83251 11.4716H8.41056V11.0162H7.76602Z"
            fill="white" />
        <path fill-rule="evenodd" clip-rule="evenodd"
            d="M12.7203 9.93359H11.2574V10.3387H11.7926V11.4445H12.1844V10.3387H12.7203V9.93359Z"
            fill="white" />
        <path
            d="M9.23812 10.6833L9.95838 9.93359H9.37506L8.97016 10.3557V9.93359H8.57843V11.4445H8.97016V11.0115L9.38625 11.4445H9.96891L9.23812 10.6833Z"
            fill="white" />
        <path
            d="M15.1292 17.2029C15.0588 17.2206 14.9977 17.2657 14.9587 17.3287C14.9144 17.387 14.8895 17.4585 14.8876 17.5326C14.8877 17.574 14.8963 17.615 14.9126 17.6529C14.9337 17.7025 14.9627 17.727 14.9982 17.727C15.0243 17.7239 15.0489 17.7133 15.0693 17.6964L15.1102 17.8085C15.0782 17.8301 15.041 17.8421 15.0028 17.8432C14.9527 17.842 14.9045 17.8228 14.8666 17.7888C14.8336 17.7553 14.8089 17.714 14.7948 17.6685C14.7816 17.6264 14.7758 17.5822 14.7777 17.538V17.4966C14.7777 17.4059 14.8249 17.3029 14.9192 17.1873C14.9507 17.1518 14.9843 17.1184 15.02 17.0874H15.1674V17.1982L15.1292 17.2029Z"
            fill="white" />
        <path
            d="M15.7843 17.1994V17.8348H15.6612V17.7526C15.6537 17.7098 15.6315 17.6712 15.5986 17.6439C15.5688 17.6114 15.5357 17.5822 15.4999 17.5569C15.4633 17.5302 15.4196 17.516 15.3748 17.5161C15.354 17.515 15.3334 17.5202 15.3155 17.531C15.2976 17.5419 15.2832 17.558 15.2741 17.5772C15.2715 17.5825 15.2703 17.5884 15.2708 17.5942C15.2711 17.6033 15.2734 17.6121 15.2775 17.6201C15.2816 17.6281 15.2874 17.6351 15.2945 17.6405C15.3079 17.653 15.3251 17.6602 15.3432 17.6608C15.3757 17.6551 15.4073 17.645 15.4373 17.6309L15.4735 17.7465C15.4317 17.7717 15.3849 17.7865 15.3366 17.79C15.2965 17.7903 15.2572 17.778 15.224 17.7546C15.1905 17.7318 15.1644 17.6991 15.149 17.6608C15.1416 17.6411 15.138 17.6201 15.1384 17.599C15.1371 17.566 15.1445 17.5333 15.1598 17.5043C15.1751 17.4754 15.1978 17.4512 15.2253 17.4345C15.2632 17.4079 15.3079 17.3934 15.3537 17.3931H15.3656C15.3618 17.3651 15.3498 17.3391 15.3313 17.3183C15.324 17.3068 15.3143 17.2971 15.3029 17.2899C15.2915 17.2828 15.2788 17.2783 15.2655 17.2768H15.1292V17.1994H15.0739V17.0879H15.864V17.1994H15.7843ZM15.6612 17.1994H15.3715C15.4087 17.2211 15.4399 17.2522 15.4624 17.2898C15.4848 17.3273 15.4977 17.3701 15.4999 17.4141C15.5621 17.443 15.6172 17.486 15.6612 17.5399V17.1994Z"
            fill="white" />
        <path d="M16.024 17.1994V17.8348H15.9009V17.1994H15.81V17.0879H16.1063V17.1994H16.024Z"
            fill="white" />
        <path
            d="M16.6178 17.1994H16.0635V17.0879H16.8311V17.1994H16.7462V17.8348H16.6402C16.6297 17.8022 16.5744 17.7519 16.4809 17.6833C16.4302 17.649 16.3756 17.6214 16.3183 17.601C16.2623 17.5771 16.2029 17.5629 16.1425 17.5589L16.1096 17.4325C16.1851 17.384 16.2649 17.343 16.3479 17.3101C16.3992 17.285 16.4908 17.249 16.6178 17.1994ZM16.6251 17.3353C16.602 17.3434 16.5777 17.3523 16.5513 17.3632L16.3407 17.4583L16.3169 17.4685C16.4172 17.5053 16.5113 17.5578 16.5961 17.6241L16.6251 17.6466V17.3353Z"
            fill="white" />
        <path d="M16.9858 17.1994V17.8348H16.8627V17.1994H16.7719V17.0879H17.0675V17.1994H16.9858Z"
            fill="white" />
        <path
            d="M17.0247 17.1994V17.088H17.3881C17.3886 17.0848 17.3886 17.0816 17.3881 17.0784C17.3899 17.0526 17.3829 17.027 17.3683 17.0059C17.3538 16.9848 17.3326 16.9696 17.3084 16.9629C17.3005 16.9621 17.2926 16.9621 17.2847 16.9629C17.2684 16.9632 17.2523 16.9657 17.2367 16.9704L17.1893 16.9826C17.1699 16.9856 17.1513 16.9925 17.1346 17.003C17.1138 17.0179 17.0918 17.0309 17.0688 17.0417L17.0293 16.9473C17.0868 16.9093 17.1493 16.8802 17.2149 16.861C17.2446 16.8519 17.2754 16.8471 17.3064 16.8467C17.3432 16.8487 17.3788 16.8604 17.4098 16.8807C17.4433 16.903 17.4705 16.9342 17.4884 16.971C17.5064 17.0078 17.5145 17.0489 17.5119 17.09H17.583V17.2015L17.0247 17.1994ZM17.4526 17.9416C17.4021 17.8948 17.3489 17.8513 17.2933 17.8111C17.2508 17.7846 17.2055 17.7632 17.1583 17.7472C17.1301 17.7349 17.1008 17.7256 17.0707 17.7194V17.5705H17.1181H17.1662C17.2124 17.5721 17.2584 17.5645 17.3018 17.5481C17.3677 17.5196 17.4012 17.4856 17.4012 17.4468C17.4013 17.4326 17.3978 17.4185 17.3913 17.4059C17.3847 17.3934 17.3753 17.3827 17.3637 17.3748C17.3391 17.3598 17.3141 17.3456 17.2887 17.332C17.2824 17.3286 17.2754 17.3267 17.2683 17.3265C17.2515 17.3271 17.2349 17.3311 17.2195 17.3381C17.1978 17.349 17.1879 17.3605 17.1893 17.3734C17.1939 17.4067 17.2274 17.4203 17.29 17.4156L17.2241 17.5209C17.1946 17.5216 17.1658 17.5122 17.1418 17.4944C17.1195 17.4815 17.1008 17.4628 17.0875 17.4402C17.0742 17.4175 17.0669 17.3917 17.0661 17.3653C17.0664 17.3399 17.0738 17.3151 17.0875 17.2939C17.1011 17.2728 17.1205 17.2563 17.1432 17.2463C17.1875 17.222 17.2371 17.2098 17.2873 17.211C17.3081 17.2103 17.3288 17.2142 17.3479 17.2225L17.3993 17.249C17.4372 17.2655 17.4695 17.2934 17.4919 17.329C17.5143 17.3646 17.5259 17.4064 17.525 17.4489C17.5256 17.4794 17.5189 17.5095 17.5054 17.5367C17.492 17.5638 17.4723 17.5871 17.448 17.6045C17.3974 17.6391 17.3397 17.6612 17.2794 17.6691C17.3012 17.68 17.3321 17.6976 17.3736 17.7228C17.4328 17.7679 17.4891 17.817 17.5421 17.8696L17.4526 17.9416Z"
            fill="white" />
        <path
            d="M18.3171 17.1995V17.835H18.1939V17.5829C18.1926 17.5577 18.1831 17.5338 18.167 17.5149C18.1603 17.5049 18.1515 17.4965 18.1412 17.4905C18.1309 17.4845 18.1195 17.481 18.1077 17.4803C18.0964 17.4815 18.0856 17.4854 18.0761 17.4918C18.0666 17.4982 18.0587 17.5068 18.0531 17.517C18.0358 17.5411 18.0268 17.5705 18.0274 17.6006H17.8957C17.8965 17.5681 17.8873 17.5362 17.8694 17.5095C17.8631 17.4984 17.8543 17.4892 17.8438 17.4825C17.8332 17.4759 17.8212 17.4721 17.8088 17.4714C17.7886 17.4717 17.7691 17.4792 17.7535 17.4925C17.7457 17.4982 17.7392 17.5055 17.7342 17.5139C17.7292 17.5223 17.7259 17.5317 17.7245 17.5414L17.7206 17.5747V17.589C17.7206 17.6542 17.7594 17.6869 17.8371 17.6869C17.8592 17.6859 17.8812 17.6832 17.9029 17.6787L17.8602 17.8072C17.8345 17.8106 17.8193 17.8119 17.8141 17.8119C17.7544 17.8104 17.6975 17.7862 17.6541 17.744C17.6324 17.7229 17.6163 17.6965 17.6073 17.6672C17.5965 17.6383 17.5907 17.6077 17.5902 17.5768C17.5887 17.5461 17.5934 17.5155 17.6041 17.4869C17.6147 17.4582 17.631 17.4322 17.652 17.4104C17.6729 17.3887 17.6981 17.3717 17.7257 17.3605C17.7534 17.3494 17.7831 17.3443 17.8127 17.3457C17.8441 17.3462 17.8749 17.3548 17.9022 17.3709C17.9295 17.3869 17.9524 17.4098 17.9688 17.4374C17.9845 17.4113 18.006 17.3893 18.0315 17.3734C18.057 17.3574 18.0859 17.3479 18.1156 17.3457C18.1315 17.3464 18.147 17.3504 18.1614 17.3574C18.1757 17.3644 18.1886 17.3743 18.1992 17.3865V17.1989H17.529V17.0874H18.3849V17.1989L18.3171 17.1995Z"
            fill="white" />
        <path
            d="M19.2408 17.1994H18.6864V17.0879H19.4541V17.1994H19.3685V17.8348H19.2598C19.2493 17.8022 19.194 17.7519 19.0999 17.6833C19.0494 17.649 18.995 17.6214 18.9379 17.601C18.882 17.5771 18.8226 17.5629 18.7621 17.5589L18.7292 17.4325C18.8046 17.3839 18.8844 17.3429 18.9675 17.3101C19.0222 17.285 19.1137 17.249 19.2408 17.1994ZM19.248 17.3353C19.2249 17.3434 19.2006 17.3523 19.1743 17.3632L18.9636 17.4583L18.9399 17.4685C19.0401 17.5053 19.1342 17.5578 19.219 17.6241L19.248 17.6466V17.3353Z"
            fill="white" />
        <path
            d="M19.6602 17.1995C19.6282 17.2378 19.608 17.2852 19.6022 17.3354C19.6164 17.405 19.6362 17.4732 19.6615 17.5393C19.68 17.586 19.6907 17.6357 19.6931 17.6861C19.6933 17.7223 19.6814 17.7574 19.6595 17.7856C19.6375 17.8139 19.6068 17.8334 19.5726 17.8411C19.5298 17.8547 19.4856 17.8627 19.4409 17.8649L19.458 17.7554C19.5305 17.7391 19.5667 17.7126 19.5667 17.6759C19.5611 17.6205 19.5457 17.5665 19.5212 17.5169C19.4969 17.4676 19.4815 17.4142 19.4758 17.3592C19.4803 17.3027 19.4984 17.2482 19.5285 17.2008H19.4008V17.0894H19.7438V17.2008L19.6602 17.1995Z"
            fill="white" />
        <path d="M19.9242 17.1994V17.8348H19.8004V17.1994H19.7102V17.0879H20.0058V17.1994H19.9242Z"
            fill="white" />
        <path
            d="M20.2079 17.5006C20.1823 17.5017 20.1566 17.4972 20.1327 17.4875C20.1088 17.4778 20.0871 17.463 20.069 17.4442C20.0515 17.4248 20.0379 17.4021 20.0289 17.3772C20.02 17.3524 20.0159 17.3259 20.017 17.2994C20.0165 17.2742 20.0209 17.2492 20.0301 17.2258C20.0393 17.2024 20.053 17.1812 20.0703 17.1635C20.0876 17.1457 20.1082 17.1316 20.1308 17.1222C20.1534 17.1127 20.1776 17.1081 20.202 17.1084C20.2363 17.1077 20.27 17.1181 20.2983 17.1382C20.3265 17.1584 20.3479 17.1872 20.3594 17.2206C20.3725 17.25 20.3795 17.282 20.3798 17.3144C20.3825 17.364 20.3665 17.4127 20.335 17.4503C20.3184 17.4674 20.2985 17.4806 20.2766 17.4893C20.2547 17.4979 20.2313 17.5018 20.2079 17.5006ZM20.3429 17.9084C20.245 17.8164 20.1385 17.7347 20.0249 17.6644V17.4884C20.1817 17.594 20.3235 17.7216 20.4463 17.8676V17.9988L20.3429 17.9084ZM20.2336 17.2403C20.2284 17.2362 20.2225 17.2331 20.2162 17.2314C20.2098 17.2296 20.2032 17.2292 20.1967 17.2301C20.15 17.2376 20.127 17.2614 20.127 17.3015C20.1275 17.3224 20.1357 17.3423 20.15 17.3572C20.1564 17.3651 20.1643 17.3715 20.1733 17.3759C20.1823 17.3804 20.1921 17.3828 20.202 17.383H20.2191C20.2342 17.3798 20.2478 17.3713 20.2574 17.3589C20.267 17.3465 20.2721 17.331 20.2718 17.3151C20.272 17.3005 20.2685 17.2861 20.2619 17.2733C20.2552 17.2604 20.2455 17.2496 20.2336 17.2417V17.2403Z"
            fill="white" />
        <path
            d="M21.2218 17.0129C21.1181 16.9362 20.9966 16.8892 20.8695 16.877C20.8246 16.8733 20.7795 16.8809 20.7381 16.8993C20.6967 16.9176 20.6602 16.9461 20.6319 16.9823C20.6123 17.0149 20.6025 17.0527 20.6036 17.0911H20.6898V17.2025H20.6036V17.838H20.4778V17.2025H20.3962V17.0911H20.4778C20.4775 17.0503 20.485 17.01 20.4999 16.9723C20.5148 16.9346 20.5369 16.9004 20.5647 16.8715C20.6257 16.812 20.7043 16.7754 20.7879 16.7675L20.8432 16.7607H20.8695C20.9467 16.7614 21.023 16.7785 21.0934 16.811C21.1611 16.8461 21.227 16.8846 21.2909 16.9266L21.2218 17.0129Z"
            fill="white" />
        <path
            d="M21.1171 17.1994V17.2035C21.1737 17.2073 21.2286 17.2245 21.2777 17.2538C21.3118 17.2693 21.341 17.2944 21.3618 17.3263C21.3827 17.3582 21.3944 17.3955 21.3956 17.4339C21.3964 17.4757 21.3823 17.5163 21.3561 17.5481C21.3297 17.5806 21.2936 17.6031 21.2534 17.612C21.2179 17.6218 21.1809 17.6235 21.1447 17.6168V17.4965C21.1579 17.4974 21.1711 17.4974 21.1842 17.4965C21.2461 17.4965 21.2764 17.4733 21.2764 17.4285C21.2764 17.3836 21.2231 17.3395 21.1171 17.3252V17.8329H21.0078C20.994 17.8032 20.9766 17.7756 20.9558 17.7507C20.9501 17.7439 20.9343 17.7228 20.9084 17.6874C20.8956 17.6714 20.8813 17.6569 20.8656 17.6439C20.8493 17.6316 20.8346 17.6169 20.8221 17.6004C20.814 17.5925 20.804 17.5866 20.7932 17.5835C20.7511 17.5665 20.7066 17.5566 20.6615 17.5542L20.6292 17.4278C20.6562 17.4074 20.7175 17.37 20.8123 17.3143L20.8992 17.262L20.992 17.2062V17.1974H20.6029V17.0859H21.4529V17.1974L21.1171 17.1994ZM20.994 17.3462C20.9736 17.3619 20.9433 17.383 20.9018 17.4095C20.8882 17.4161 20.8759 17.4253 20.8656 17.4366C20.8524 17.4502 20.8393 17.4625 20.8274 17.474C20.8406 17.4863 20.861 17.5033 20.89 17.5257C20.9189 17.5481 20.9518 17.5936 20.994 17.6433V17.3462Z"
            fill="white" />
        <path
            d="M21.6366 17.5006C21.6109 17.5018 21.5853 17.4973 21.5613 17.4876C21.5374 17.4779 21.5157 17.4631 21.4977 17.4442C21.4801 17.4248 21.4665 17.4021 21.4576 17.3772C21.4486 17.3523 21.4446 17.3259 21.4457 17.2994C21.4451 17.2742 21.4496 17.2492 21.4588 17.2258C21.4679 17.2024 21.4816 17.1812 21.499 17.1635C21.5162 17.1457 21.5368 17.1316 21.5594 17.1221C21.582 17.1127 21.6063 17.108 21.6307 17.1084C21.6649 17.1077 21.6985 17.1182 21.7266 17.1383C21.7547 17.1584 21.776 17.1872 21.7874 17.2206C21.801 17.2498 21.8082 17.2819 21.8084 17.3144C21.8109 17.3639 21.7948 17.4126 21.7637 17.4503C21.747 17.4673 21.7271 17.4806 21.7053 17.4893C21.6834 17.4979 21.66 17.5018 21.6366 17.5006ZM21.7683 17.9084C21.6704 17.8167 21.5641 17.7349 21.4509 17.6644V17.4884C21.6649 17.6474 21.8058 17.7738 21.8716 17.8676V17.9988L21.7683 17.9084ZM21.6596 17.2403C21.6545 17.2361 21.6485 17.2331 21.6422 17.2314C21.6359 17.2296 21.6293 17.2292 21.6228 17.2301C21.576 17.2376 21.553 17.2614 21.553 17.3015C21.5535 17.3224 21.5617 17.3423 21.576 17.3572C21.5824 17.3651 21.5903 17.3715 21.5993 17.3759C21.6083 17.3804 21.6181 17.3828 21.628 17.383H21.6451C21.6602 17.3798 21.6738 17.3713 21.6834 17.3589C21.693 17.3465 21.6981 17.331 21.6978 17.3151C21.6983 17.3007 21.6952 17.2865 21.689 17.2737C21.6828 17.2609 21.6736 17.2499 21.6623 17.2416L21.6596 17.2403Z"
            fill="white" />
        <path d="M8.02478 17.8891L8.25455 17.9693L8.34607 17.8891L8.11695 17.8062L8.02478 17.8891Z"
            fill="white" />
        <path
            d="M8.10111 17.2318V17.0884H6.2998V17.2318H6.60265V17.5519H6.866C6.866 17.5519 6.93974 17.5274 6.95752 17.4887V17.6151C6.9586 17.6415 6.94964 17.6673 6.93254 17.687C6.91544 17.7067 6.89156 17.7187 6.866 17.7205H6.48349C6.46045 17.7205 6.4374 17.7103 6.4374 17.6151V17.3167H6.30573V17.6994C6.30573 17.7313 6.32482 17.8428 6.4216 17.8428H6.93974C6.97778 17.8376 7.01287 17.8189 7.03895 17.7899C7.06504 17.7608 7.08048 17.7233 7.08261 17.6838V17.3167H6.96015C6.94764 17.3732 6.95488 17.4112 6.89892 17.4255H6.74618V17.2318H7.18992V17.8435H7.34266V17.2318H7.44932V17.8435H7.94968C7.99095 17.8422 8.0301 17.8243 8.05867 17.7935C8.08725 17.7628 8.10296 17.7216 8.10243 17.679V17.3167H7.97997C7.97997 17.3521 7.97536 17.4044 7.9194 17.4044H7.58297V17.2318H8.10111ZM7.9036 17.5308C7.92664 17.5376 7.95758 17.4996 7.97997 17.4676V17.6151C7.97997 17.6715 7.93717 17.7205 7.9036 17.7205H7.58297V17.5308H7.9036Z"
            fill="white" />
        <path d="M8.5758 17.4048H8.26965V17.5733H8.5758V17.4048Z" fill="white" />
        <path
            d="M8.74438 17.0886V17.232H9.24804V17.3169H8.74438V17.6568C8.75492 17.7676 8.81022 17.8423 8.9149 17.8423H9.37049V17.2306H9.47781V17.8423H9.61541V17.0879L8.74438 17.0886ZM9.24804 17.7417H8.94255C8.89647 17.7349 8.86618 17.6785 8.86618 17.6153V17.4468H9.24804V17.7417Z"
            fill="white" />
        <path
            d="M10.2757 17.2318H10.8999V17.3167H10.7149C10.7149 17.3335 10.7084 17.3496 10.6969 17.3614C10.6854 17.3733 10.6699 17.38 10.6536 17.38C10.6374 17.38 10.6218 17.3733 10.6103 17.3614C10.5989 17.3496 10.5924 17.3335 10.5924 17.3167H10.2744V17.6783C10.2744 17.7137 10.2797 17.8285 10.3732 17.8428H10.6233V17.7205H10.4548C10.4365 17.7165 10.4201 17.7058 10.409 17.6902C10.3978 17.6747 10.3926 17.6555 10.3942 17.6362V17.4466H10.5621V17.5519H10.7149V17.4676C10.705 17.4289 10.8755 17.4323 10.8834 17.4676V17.8428H11.021V17.2311H11.1125V17.8428H11.2501V17.0884H10.2757V17.2318Z"
            fill="white" />
        <path
            d="M10.0565 17.1309H9.73389V17.3286C9.73764 17.3689 9.75575 17.4063 9.78471 17.4335C9.81366 17.4608 9.8514 17.476 9.89058 17.4761H10.1506V17.2321C10.1476 17.207 10.1368 17.1836 10.1198 17.1654C10.1028 17.1472 10.0806 17.135 10.0565 17.1309ZM9.95773 17.3422C9.89914 17.3422 9.85174 17.3198 9.85174 17.2926C9.85174 17.2654 9.89914 17.243 9.95773 17.243C10.0163 17.243 10.0637 17.2654 10.0637 17.2926C10.0637 17.3198 10.0183 17.3422 9.95971 17.3422H9.95773Z"
            fill="white" />
        <path d="M9.75562 17.5508V17.6752L10.148 17.843V17.7112L9.75562 17.5508Z" fill="white" />
        <path
            d="M13.3536 17.1309H13.0284V17.3286C13.0323 17.3689 13.0504 17.4061 13.0794 17.4334C13.1083 17.4606 13.1459 17.4758 13.1851 17.4761H13.4484V17.2321C13.4454 17.2069 13.4346 17.1834 13.4174 17.1651C13.4003 17.1468 13.3779 17.1348 13.3536 17.1309ZM13.2549 17.3422C13.1956 17.3422 13.1482 17.3198 13.1482 17.2926C13.1482 17.2654 13.1956 17.243 13.2549 17.243C13.3141 17.243 13.3609 17.2654 13.3609 17.2926C13.3609 17.3198 13.3135 17.3422 13.2549 17.3422Z"
            fill="white" />
        <path d="M13.0501 17.5508V17.6752L13.4432 17.843V17.7112L13.0501 17.5508Z" fill="white" />
        <path
            d="M14.1878 17.3167V17.2318H14.4412V17.0884H13.5616V17.2318H14.0653V17.3167H13.5616V17.6566C13.5728 17.7674 13.6275 17.8421 13.7322 17.8421H14.1878V17.467H14.3102C14.3306 17.467 14.3359 17.4568 14.3405 17.488V17.5512C14.3333 17.5832 14.3306 17.6042 14.3102 17.6144H14.2648V17.7409H14.3563C14.3777 17.7371 14.3976 17.7272 14.4138 17.7123C14.43 17.6974 14.4418 17.6781 14.4478 17.6566V17.3167H14.1878ZM14.0653 17.7415H13.7598C13.7137 17.7347 13.6834 17.6783 13.6834 17.6151V17.4466H14.0633V17.4676L14.0653 17.7415Z"
            fill="white" />
        <path
            d="M11.6636 17.0886V17.232H12.1672V17.3169H11.6636V17.6568C11.6741 17.7676 11.7294 17.8423 11.8341 17.8423H12.2897V17.2306H12.449L12.3911 17.3502V17.4345H12.4977C12.555 17.4413 12.5748 17.4801 12.5748 17.582C12.5748 17.65 12.559 17.703 12.5089 17.7084H12.4089V17.8348H12.5162C12.5464 17.8348 12.6867 17.8491 12.6992 17.7084C12.7143 17.4243 12.7275 17.3502 12.5313 17.3292L12.5596 17.2306H12.7756V17.8423H12.9132V17.0879L11.6636 17.0886ZM12.1672 17.7417H11.8611C11.8157 17.7349 11.7847 17.6785 11.7847 17.6153V17.4468H12.1672V17.7417Z"
            fill="white" />
    </g>
    <defs>
        <clipPath id="clip0_1078_7009">
            <rect width="20" height="13" fill="white" transform="translate(2 5)" />
        </clipPath>
    </defs>
</svg>
