<svg width="25" height="24" viewBox="0 0 25 24" fill="none" xmlns="http://www.w3.org/2000/svg">
    <g clip-path="url(#clip0_1088_7039)">
        <path
            d="M12.5 0C5.87253 0 0.5 5.37253 0.5 12C0.5 18.6275 5.87253 24 12.5 24C19.1275 24 24.5 18.6275 24.5 12C24.5 5.37253 19.1275 0 12.5 0Z"
            fill="#40B3E0" />
        <path
            d="M1.25 12C1.25 5.78674 6.28674 0.75 12.5 0.75C18.7133 0.75 23.75 5.78674 23.75 12C23.75 18.2133 18.7133 23.25 12.5 23.25C6.28674 23.25 1.25 18.2133 1.25 12Z"
            stroke="white" stroke-opacity="0.5" stroke-width="1.5" />
        <path
            d="M18.339 6.90272L16.1957 17.709C16.1957 17.709 15.896 18.4584 15.0716 18.0987L10.1256 14.3067L8.32706 13.4375L5.2995 12.4182C5.2995 12.4182 4.83488 12.2534 4.78988 11.8937C4.74497 11.534 5.3145 11.3392 5.3145 11.3392L17.3498 6.61791C17.3498 6.61791 18.339 6.18328 18.339 6.90272Z"
            fill="white" />
        <path
            d="M9.74543 17.5877C9.74543 17.5877 9.60106 17.5742 9.42115 17.0046C9.24134 16.4351 8.32709 13.4375 8.32709 13.4375L15.5962 8.82126C15.5962 8.82126 16.0159 8.56645 16.0009 8.82126C16.0009 8.82126 16.0758 8.86616 15.851 9.07598C15.6262 9.28588 10.1406 14.2169 10.1406 14.2169"
            fill="#D2E5F1" />
        <path
            d="M12.022 15.7606L10.0656 17.5443C10.0656 17.5443 9.91271 17.6604 9.74536 17.5876L10.12 14.2744"
            fill="#B5CFE4" />
    </g>
    <defs>
        <clipPath id="clip0_1088_7039">
            <rect width="24" height="24" fill="white" transform="translate(0.5)" />
        </clipPath>
    </defs>
</svg>
