<svg width="18" height="24" viewBox="0 0 18 24" fill="none" xmlns="http://www.w3.org/2000/svg">
    <g clip-path="url(#clip0_1078_7000)">
        <path
            d="M9.18068 20.0395C8.38625 20.5455 7.61154 21.0613 6.81402 21.539C6.4504 21.7572 6.06273 21.6678 5.77245 21.38C5.56721 21.1754 5.48771 20.9442 5.58755 20.6533C5.67545 20.4028 5.74487 20.1461 5.79525 19.8854C5.86674 19.5058 5.76752 19.1557 5.54872 18.8377C5.50188 18.7705 5.45135 18.7052 5.41129 18.6337C5.07293 18.0297 5.25474 17.4627 5.90989 17.2562C6.92065 16.94 7.89319 17.067 8.78993 17.6525C8.90149 17.7252 9.00565 17.809 9.11412 17.8861C9.11905 17.8898 9.13261 17.8818 9.17945 17.8682C9.17945 17.7006 9.17945 17.5206 9.17945 17.3406C9.17945 17.1145 9.27991 16.9937 9.51103 16.9937H12.1298C12.3467 16.9937 12.4422 17.1015 12.4416 17.3191C12.4391 18.8594 12.4391 20.4002 12.4416 21.9414C12.4416 22.175 12.3455 22.2786 12.1107 22.2767C11.1862 22.2687 11.2583 22.3716 11.2595 21.4755C11.2595 20.4894 11.2595 19.5033 11.2595 18.5172C11.2595 18.1671 11.2429 18.1696 10.7887 18.1566C10.5138 18.1492 10.38 18.2078 10.385 18.5264C10.4035 19.6358 10.393 20.7452 10.3917 21.8545C10.3917 22.2021 10.3227 22.2718 9.98313 22.2736C9.14493 22.2773 9.17205 22.3445 9.17883 21.4786C9.18376 20.9794 9.18068 20.4802 9.18068 20.0395ZM6.75855 20.1985C6.84915 20.1942 6.90524 20.2065 6.94345 20.1874C7.55001 19.8881 8.09225 19.4731 8.53971 18.9659C8.68331 18.805 8.5656 18.7002 8.43494 18.6263C7.95276 18.3532 7.40561 18.2158 6.85162 18.2288C6.55825 18.2337 6.50833 18.3551 6.68768 18.5874C6.94715 18.9221 7.00262 19.2864 6.89168 19.6857C6.84915 19.8429 6.81033 20 6.75855 20.1985Z"
            fill="#4B4A4A" />
        <path
            d="M1.86188 18.1501C1.38423 18.1501 0.912752 18.1409 0.444351 18.1532C0.174404 18.1606 0.0536063 18.0713 0.0523737 17.7834C0.0474431 16.9939 0.0388146 16.9939 0.835712 16.9939C1.46251 16.9939 2.08868 16.9939 2.71548 16.9939C2.91147 16.9939 3.12533 16.9773 3.12225 16.7332C3.11917 16.4892 2.91948 16.3899 2.69083 16.4097C2.24215 16.4479 1.7947 16.5286 1.34602 16.5329C1.06992 16.53 0.797315 16.4708 0.544811 16.3591C0.131878 16.181 0.0455942 15.5296 0.38272 15.2343C0.454212 15.1727 0.64527 15.1431 0.709984 15.1918C1.31089 15.6473 1.95741 15.4649 2.60393 15.3669C2.81511 15.3262 3.0313 15.3183 3.2449 15.3434C3.98448 15.463 4.34256 16.0707 4.13301 16.8072C4.11945 16.8559 4.10959 16.9058 4.08863 16.9921H4.61867C4.85287 16.9921 4.97983 17.0839 4.97736 17.3409C4.96688 18.2278 5.06426 18.1477 4.19772 18.1471C3.88956 18.1471 3.5814 18.1538 3.27325 18.1471C3.09883 18.1415 3.01747 18.1847 3.00885 18.3825C2.97433 19.1566 3.08589 19.2571 3.84149 19.0863C4.05104 19.0389 4.25874 18.9797 4.47075 18.944C4.72714 18.9002 4.95148 19.0376 4.96072 19.2842C4.97859 19.755 5.02235 20.2395 4.93237 20.6955C4.77275 21.5306 4.14349 21.9639 3.38048 22.1993C2.76971 22.3879 2.14046 22.3553 1.53153 22.1796C0.635409 21.9245 0.0529901 21.1159 0.00430101 20.0521C-0.0141885 19.6552 0.0289537 19.254 0.0659327 18.8571C0.0875038 18.6358 0.224326 18.5082 0.467771 18.5347C0.538648 18.5421 0.611373 18.5347 0.682866 18.5347C1.0958 18.5347 1.13093 18.5883 1.15127 18.9902C1.16891 19.419 1.21172 19.8465 1.27946 20.2703C1.36143 20.7535 1.68068 21.0364 2.16819 21.0573C2.52254 21.0693 2.87714 21.0428 3.22579 20.9784C3.39651 20.9374 3.54847 20.8402 3.65721 20.7023C3.76199 20.5723 3.78972 20.3806 3.85135 20.216C3.70503 20.2033 3.5581 20.1992 3.4113 20.2037C3.15676 20.2259 2.90346 20.2955 2.65015 20.2943C2.11149 20.2943 1.91488 20.078 1.91057 19.5381C1.90502 19.1067 1.90564 18.6752 1.90194 18.2438C1.89211 18.2112 1.87868 18.1798 1.86188 18.1501Z"
            fill="#4B4A4A" />
        <path
            d="M17.6082 19.4312C17.6082 20.0888 17.6119 20.7458 17.6082 21.4034C17.5995 22.0376 17.1416 22.4172 16.5432 22.2323C15.6329 21.9482 14.709 21.9242 13.7697 21.9784C13.1041 22.0148 12.8798 21.7935 12.8718 21.1223C12.8718 21.102 12.8718 21.081 12.8718 21.0607C12.8718 20.1492 12.8718 20.1572 13.7241 19.8225C13.8881 19.7578 14.1371 19.5976 14.1352 19.486C14.1297 19.2192 13.8486 19.2235 13.6366 19.1957C13.0505 19.1193 12.8872 18.9455 12.8748 18.3619C12.8681 18.0229 12.8785 17.6839 12.8748 17.3449C12.8748 17.0984 12.9981 16.9955 13.2366 16.9961C14.5716 16.9986 15.9069 16.9986 17.2427 16.9961C17.5065 16.9961 17.6125 17.112 17.6075 17.3702C17.6032 18.0549 17.6082 18.7427 17.6082 19.4312ZM15.2662 18.1498C15.0196 18.1498 14.7731 18.1418 14.5266 18.1542C14.4483 18.1585 14.3719 18.2158 14.2955 18.2478C14.3392 18.3243 14.3651 18.4327 14.431 18.4716C14.5867 18.5476 14.7473 18.6131 14.9118 18.6675C15.5712 18.9289 15.6797 19.6438 15.1158 20.0789C14.9481 20.2083 14.7374 20.2817 14.5611 20.4037C14.4699 20.4653 14.4126 20.5787 14.3398 20.6687C14.4409 20.7162 14.5383 20.7951 14.6431 20.8056C15.1515 20.8567 15.6624 20.8844 16.1709 20.9288C16.3786 20.9479 16.4569 20.8592 16.4464 20.6669C16.4359 20.4623 16.4162 20.2576 16.41 20.0506C16.3952 19.5575 16.3885 19.0645 16.3749 18.5745C16.3675 18.2971 16.2516 18.1301 15.9435 18.1431C15.7155 18.1579 15.4899 18.1498 15.2637 18.1498H15.2662Z"
            fill="#4B4A4A" />
        <path
            d="M15.1183 23.9999C15.013 24.001 14.9086 23.9813 14.811 23.9418C14.7135 23.9024 14.6247 23.8439 14.5498 23.7699C14.475 23.696 14.4156 23.6079 14.375 23.5108C14.3344 23.4137 14.3134 23.3095 14.3134 23.2042C14.3107 23.0987 14.3294 22.9937 14.3684 22.8956C14.4074 22.7975 14.4659 22.7083 14.5403 22.6335C14.6147 22.5586 14.7035 22.4996 14.8014 22.46C14.8992 22.4203 15.0041 22.401 15.1096 22.403C15.215 22.4008 15.3197 22.4196 15.4177 22.4583C15.5157 22.497 15.605 22.5549 15.6804 22.6285C15.7558 22.7021 15.8158 22.79 15.8568 22.8871C15.8979 22.9841 15.9192 23.0884 15.9195 23.1937C15.9197 23.4067 15.8354 23.6111 15.6853 23.7622C15.5351 23.9133 15.3313 23.9987 15.1183 23.9999Z"
            fill="#4B4A4A" />
        <path
            d="M15.7882 11.419L15.7845 11.4245C15.0535 12.3537 14.1339 13.1175 13.0863 13.6654C11.9541 14.2096 10.621 14.405 9.36556 14.4309C9.72312 14.2758 10.0203 14.0083 10.2121 13.669C10.4038 13.3297 10.4797 12.9371 10.4281 12.5508C10.3765 12.1644 10.2003 11.8055 9.92625 11.5284C9.65219 11.2513 9.29521 11.0711 8.90948 11.0153C11.2441 10.9321 13.1202 9.24274 13.2114 7.14048C13.2138 7.08748 13.2151 7.03386 13.2151 6.97962C13.2151 6.86745 13.2101 6.75652 13.1997 6.64743C13.1997 6.45883 13.1997 6.24559 13.2151 6.06624C13.2459 5.62989 13.8493 5.32666 13.8493 5.32666H16.2819C16.8181 5.40925 16.9826 5.98612 16.9826 5.98612C17.284 9.02949 15.8683 11.2932 15.7882 11.419Z"
            fill="#144A96" />
        <path
            d="M4.44035 2.56287C4.71972 1.46121 4.05313 0.341654 2.95146 0.0622766C1.8498 -0.217101 0.730243 0.449494 0.450866 1.55116C0.171488 2.65282 0.838083 3.77238 1.93975 4.05176C3.04141 4.33113 4.16097 3.66454 4.44035 2.56287Z"
            fill="#FED600" />
        <path
            d="M16.9693 2.53732C17.2343 1.43209 16.5531 0.321359 15.4478 0.0564254C14.3426 -0.208508 13.2319 0.472685 12.9669 1.57791C12.702 2.68314 13.3832 3.79387 14.4884 4.05881C15.5937 4.32374 16.7044 3.64255 16.9693 2.53732Z"
            fill="#144A96" />
        <path
            d="M10.4453 12.7885C10.446 13.1383 10.3441 13.4806 10.1522 13.773C9.96024 14.0653 9.68673 14.295 9.36554 14.4335C8.84906 14.4439 8.34492 14.4248 7.87158 14.3885C6.85158 14.312 5.83988 14.1493 4.84732 13.9022C3.13211 13.1207 1.74663 11.8375 0.930006 10.2659L0.907819 10.224C0.291502 9.0148 0.397509 5.99484 0.397509 5.99484C0.410451 5.50179 1.01013 5.31689 1.01013 5.31689H3.43657C3.9062 5.36928 4.14102 5.93013 4.14102 5.93013L4.24394 6.67711C4.16444 7.0469 4.24086 7.4888 4.35241 7.8703C4.42617 8.16597 4.53609 8.45142 4.67968 8.7202C4.67968 8.72328 4.68276 8.72574 4.68399 8.72883L4.68831 8.73684C5.37673 10.0182 6.79426 10.9217 8.45709 11.011C8.54707 11.016 8.63767 11.0184 8.72888 11.0184C8.7901 11.0184 8.8505 11.0172 8.91008 11.0147C9.33687 11.0755 9.7273 11.2885 10.0094 11.6145C10.2916 11.9405 10.4464 12.3574 10.4453 12.7885Z"
            fill="#FED600" />
    </g>
    <defs>
        <clipPath id="clip0_1078_7000">
            <rect width="17.61" height="24" fill="white" />
        </clipPath>
    </defs>
</svg>
