<svg width="24" height="24" viewBox="0 0 24 24" fill="none" xmlns="http://www.w3.org/2000/svg">
    <g clip-path="url(#clip0_1088_7029)">
        <path
            d="M0 24L1.65516 18C0.579328 16.1379 0 14.069 0 11.9172C0 5.37933 5.37933 0 11.9586 0C18.5379 0 24 5.37933 24 11.9172C24 18.4551 18.5379 24 11.9586 24C9.88964 24 7.90345 23.3379 6.12412 22.3448L0 24Z"
            fill="#EDEDED" />
        <path
            d="M6.45516 20.193L6.82758 20.3999C8.35861 21.3516 10.1379 21.9309 12 21.9309C17.4207 21.9309 21.931 17.4206 21.931 11.9171C21.931 6.41364 17.4207 2.06885 11.9586 2.06885C6.49655 2.06885 2.06897 6.45503 2.06897 11.9171C2.06897 13.8205 2.60691 15.6826 3.6 17.255L3.8483 17.6275L2.89659 21.1033L6.45516 20.193Z"
            fill="#55CD6C" />
        <path
            d="M8.77241 6.37245L7.98622 6.33105C7.73793 6.33105 7.48968 6.41384 7.32416 6.57935C6.95174 6.91038 6.33107 7.53105 6.16555 8.35868C5.87591 9.60007 6.33107 11.0897 7.40694 12.5794C8.48282 14.069 10.5518 16.469 14.1931 17.5035C15.3517 17.8345 16.2621 17.6276 17.0069 17.1724C17.5863 16.8 17.9586 16.2207 18.0828 15.6L18.2069 15.0207C18.2483 14.8552 18.1656 14.6483 18 14.5655L15.3931 13.3655C15.2276 13.2828 15.0207 13.3241 14.8966 13.4897L13.8621 14.8138C13.7793 14.8966 13.6552 14.9379 13.5311 14.8966C12.8276 14.6483 10.469 13.6552 9.18622 11.1724C9.14483 11.0483 9.14483 10.9241 9.22761 10.8414L10.2207 9.7242C10.3035 9.60007 10.3448 9.43456 10.3035 9.31038L9.10349 6.62074C9.06205 6.49657 8.93793 6.37245 8.77241 6.37245Z"
            fill="#FEFEFE" />
    </g>
    <defs>
        <clipPath id="clip0_1088_7029">
            <rect width="24" height="24" fill="white" />
        </clipPath>
    </defs>
</svg>
