<svg width="320" height="141" viewBox="0 0 320 141" fill="none" xmlns="http://www.w3.org/2000/svg">
<mask id="mask0_3514_64410" style="mask-type:alpha" maskUnits="userSpaceOnUse" x="0" y="0" width="320" height="141">
<rect y="0.599609" width="320" height="140.004" rx="15" fill="url(#paint0_radial_3514_64410)"/>
</mask>
<g mask="url(#mask0_3514_64410)">
<rect y="0.599609" width="320" height="140.004" rx="15" fill="white"/>
<rect x="1.5" y="2.09961" width="317" height="137.004" rx="13.5" stroke="#7D5E41" stroke-opacity="0.3" stroke-width="3"/>
<path opacity="0.1" d="M113 234.213C-26.1999 220.213 -35.3332 293.38 -22.4999 331.713V376.713H351.5V121.213C340 113.047 315.2 103.413 308 130.213C299 163.713 287 251.713 113 234.213Z" fill="#7D5E41"/>
<circle opacity="0.1" cx="-74.5" cy="184.1" r="101.5" fill="#7D5E41"/>
<circle opacity="0.1" cx="322.5" cy="11.0996" r="101.5" fill="#7D5E41"/>
<g opacity="0.4" filter="url(#filter0_f_3514_64410)">
<circle cx="22" cy="63.5996" r="6" fill="#7D5E41"/>
</g>
<circle cx="22" cy="63.5996" r="3" fill="#7D5E41" stroke="#7D5E41"/>
<path d="M37.1484 59.8242L34.3242 67.5996H33.1699L36.4219 59.0684H37.166L37.1484 59.8242ZM39.5156 67.5996L36.6855 59.8242L36.668 59.0684H37.4121L40.6758 67.5996H39.5156ZM39.3691 64.4414V65.3672H34.5762V64.4414H39.3691ZM45.6504 66.3691V58.5996H46.7402V67.5996H45.7441L45.6504 66.3691ZM41.3848 64.5V64.377C41.3848 63.8926 41.4434 63.4531 41.5605 63.0586C41.6816 62.6602 41.8516 62.3184 42.0703 62.0332C42.293 61.748 42.5566 61.5293 42.8613 61.377C43.1699 61.2207 43.5137 61.1426 43.8926 61.1426C44.291 61.1426 44.6387 61.2129 44.9355 61.3535C45.2363 61.4902 45.4902 61.6914 45.6973 61.957C45.9082 62.2188 46.0742 62.5352 46.1953 62.9062C46.3164 63.2773 46.4004 63.6973 46.4473 64.166V64.7051C46.4043 65.1699 46.3203 65.5879 46.1953 65.959C46.0742 66.3301 45.9082 66.6465 45.6973 66.9082C45.4902 67.1699 45.2363 67.3711 44.9355 67.5117C44.6348 67.6484 44.2832 67.7168 43.8809 67.7168C43.5098 67.7168 43.1699 67.6367 42.8613 67.4766C42.5566 67.3164 42.293 67.0918 42.0703 66.8027C41.8516 66.5137 41.6816 66.1738 41.5605 65.7832C41.4434 65.3887 41.3848 64.9609 41.3848 64.5ZM42.4746 64.377V64.5C42.4746 64.8164 42.5059 65.1133 42.5684 65.3906C42.6348 65.668 42.7363 65.9121 42.873 66.123C43.0098 66.334 43.1836 66.5 43.3945 66.6211C43.6055 66.7383 43.8574 66.7969 44.1504 66.7969C44.5098 66.7969 44.8047 66.7207 45.0352 66.5684C45.2695 66.416 45.457 66.2148 45.5977 65.9648C45.7383 65.7148 45.8477 65.4434 45.9258 65.1504V63.7383C45.8789 63.5234 45.8105 63.3164 45.7207 63.1172C45.6348 62.9141 45.5215 62.7344 45.3809 62.5781C45.2441 62.418 45.0742 62.291 44.8711 62.1973C44.6719 62.1035 44.4355 62.0566 44.1621 62.0566C43.8652 62.0566 43.6094 62.1191 43.3945 62.2441C43.1836 62.3652 43.0098 62.5332 42.873 62.748C42.7363 62.959 42.6348 63.2051 42.5684 63.4863C42.5059 63.7637 42.4746 64.0605 42.4746 64.377ZM50.3555 66.6211L52.0898 61.2598H53.1973L50.918 67.5996H50.1914L50.3555 66.6211ZM48.9082 61.2598L50.6953 66.6504L50.8184 67.5996H50.0918L47.7949 61.2598H48.9082ZM57.8848 66.5156V63.252C57.8848 63.002 57.834 62.7852 57.7324 62.6016C57.6348 62.4141 57.4863 62.2695 57.2871 62.168C57.0879 62.0664 56.8418 62.0156 56.5488 62.0156C56.2754 62.0156 56.0352 62.0625 55.8281 62.1562C55.625 62.25 55.4648 62.373 55.3477 62.5254C55.2344 62.6777 55.1777 62.8418 55.1777 63.0176H54.0938C54.0938 62.791 54.1523 62.5664 54.2695 62.3438C54.3867 62.1211 54.5547 61.9199 54.7734 61.7402C54.9961 61.5566 55.2617 61.4121 55.5703 61.3066C55.8828 61.1973 56.2305 61.1426 56.6133 61.1426C57.0742 61.1426 57.4805 61.2207 57.832 61.377C58.1875 61.5332 58.4648 61.7695 58.6641 62.0859C58.8672 62.3984 58.9688 62.791 58.9688 63.2637V66.2168C58.9688 66.4277 58.9863 66.6523 59.0215 66.8906C59.0605 67.1289 59.1172 67.334 59.1914 67.5059V67.5996H58.0605C58.0059 67.4746 57.9629 67.3086 57.9316 67.1016C57.9004 66.8906 57.8848 66.6953 57.8848 66.5156ZM58.0723 63.7559L58.084 64.5176H56.9883C56.6797 64.5176 56.4043 64.543 56.1621 64.5938C55.9199 64.6406 55.7168 64.7129 55.5527 64.8105C55.3887 64.9082 55.2637 65.0312 55.1777 65.1797C55.0918 65.3242 55.0488 65.4941 55.0488 65.6895C55.0488 65.8887 55.0938 66.0703 55.1836 66.2344C55.2734 66.3984 55.4082 66.5293 55.5879 66.627C55.7715 66.7207 55.9961 66.7676 56.2617 66.7676C56.5938 66.7676 56.8867 66.6973 57.1406 66.5566C57.3945 66.416 57.5957 66.2441 57.7441 66.041C57.8965 65.8379 57.9785 65.6406 57.9902 65.4492L58.4531 65.9707C58.4258 66.1348 58.3516 66.3164 58.2305 66.5156C58.1094 66.7148 57.9473 66.9062 57.7441 67.0898C57.5449 67.2695 57.3066 67.4199 57.0293 67.541C56.7559 67.6582 56.4473 67.7168 56.1035 67.7168C55.6738 67.7168 55.2969 67.6328 54.9727 67.4648C54.6523 67.2969 54.4023 67.0723 54.2227 66.791C54.0469 66.5059 53.959 66.1875 53.959 65.8359C53.959 65.4961 54.0254 65.1973 54.1582 64.9395C54.291 64.6777 54.4824 64.4609 54.7324 64.2891C54.9824 64.1133 55.2832 63.9805 55.6348 63.8906C55.9863 63.8008 56.3789 63.7559 56.8125 63.7559H58.0723ZM61.7578 62.6133V67.5996H60.6738V61.2598H61.6992L61.7578 62.6133ZM61.5 64.1895L61.0488 64.1719C61.0527 63.7383 61.1172 63.3379 61.2422 62.9707C61.3672 62.5996 61.543 62.2773 61.7695 62.0039C61.9961 61.7305 62.2656 61.5195 62.5781 61.3711C62.8945 61.2188 63.2441 61.1426 63.627 61.1426C63.9395 61.1426 64.2207 61.1855 64.4707 61.2715C64.7207 61.3535 64.9336 61.4863 65.1094 61.6699C65.2891 61.8535 65.4258 62.0918 65.5195 62.3848C65.6133 62.6738 65.6602 63.0273 65.6602 63.4453V67.5996H64.5703V63.4336C64.5703 63.1016 64.5215 62.8359 64.4238 62.6367C64.3262 62.4336 64.1836 62.2871 63.9961 62.1973C63.8086 62.1035 63.5781 62.0566 63.3047 62.0566C63.0352 62.0566 62.7891 62.1133 62.5664 62.2266C62.3477 62.3398 62.1582 62.4961 61.998 62.6953C61.8418 62.8945 61.7188 63.123 61.6289 63.3809C61.543 63.6348 61.5 63.9043 61.5 64.1895ZM69.8438 66.8262C70.1016 66.8262 70.3398 66.7734 70.5586 66.668C70.7773 66.5625 70.957 66.418 71.0977 66.2344C71.2383 66.0469 71.3184 65.834 71.3379 65.5957H72.3691C72.3496 65.9707 72.2227 66.3203 71.9883 66.6445C71.7578 66.9648 71.4551 67.2246 71.0801 67.4238C70.7051 67.6191 70.293 67.7168 69.8438 67.7168C69.3672 67.7168 68.9512 67.6328 68.5957 67.4648C68.2441 67.2969 67.9512 67.0664 67.7168 66.7734C67.4863 66.4805 67.3125 66.1445 67.1953 65.7656C67.082 65.3828 67.0254 64.9785 67.0254 64.5527V64.3066C67.0254 63.8809 67.082 63.4785 67.1953 63.0996C67.3125 62.7168 67.4863 62.3789 67.7168 62.0859C67.9512 61.793 68.2441 61.5625 68.5957 61.3945C68.9512 61.2266 69.3672 61.1426 69.8438 61.1426C70.3398 61.1426 70.7734 61.2441 71.1445 61.4473C71.5156 61.6465 71.8066 61.9199 72.0176 62.2676C72.2324 62.6113 72.3496 63.002 72.3691 63.4395H71.3379C71.3184 63.1777 71.2441 62.9414 71.1152 62.7305C70.9902 62.5195 70.8184 62.3516 70.5996 62.2266C70.3848 62.0977 70.1328 62.0332 69.8438 62.0332C69.5117 62.0332 69.2324 62.0996 69.0059 62.2324C68.7832 62.3613 68.6055 62.5371 68.4727 62.7598C68.3438 62.9785 68.25 63.2227 68.1914 63.4922C68.1367 63.7578 68.1094 64.0293 68.1094 64.3066V64.5527C68.1094 64.8301 68.1367 65.1035 68.1914 65.373C68.2461 65.6426 68.3379 65.8867 68.4668 66.1055C68.5996 66.3242 68.7773 66.5 69 66.6328C69.2266 66.7617 69.5078 66.8262 69.8438 66.8262ZM76.2188 67.7168C75.7773 67.7168 75.377 67.6426 75.0176 67.4941C74.6621 67.3418 74.3555 67.1289 74.0977 66.8555C73.8438 66.582 73.6484 66.2578 73.5117 65.8828C73.375 65.5078 73.3066 65.0977 73.3066 64.6523V64.4062C73.3066 63.8906 73.3828 63.4316 73.5352 63.0293C73.6875 62.623 73.8945 62.2793 74.1562 61.998C74.418 61.7168 74.7148 61.5039 75.0469 61.3594C75.3789 61.2148 75.7227 61.1426 76.0781 61.1426C76.5312 61.1426 76.9219 61.2207 77.25 61.377C77.582 61.5332 77.8535 61.752 78.0645 62.0332C78.2754 62.3105 78.4316 62.6387 78.5332 63.0176C78.6348 63.3926 78.6855 63.8027 78.6855 64.248V64.7344H73.9512V63.8496H77.6016V63.7676C77.5859 63.4863 77.5273 63.2129 77.4258 62.9473C77.3281 62.6816 77.1719 62.4629 76.957 62.291C76.7422 62.1191 76.4492 62.0332 76.0781 62.0332C75.832 62.0332 75.6055 62.0859 75.3984 62.1914C75.1914 62.293 75.0137 62.4453 74.8652 62.6484C74.7168 62.8516 74.6016 63.0996 74.5195 63.3926C74.4375 63.6855 74.3965 64.0234 74.3965 64.4062V64.6523C74.3965 64.9531 74.4375 65.2363 74.5195 65.502C74.6055 65.7637 74.7285 65.9941 74.8887 66.1934C75.0527 66.3926 75.25 66.5488 75.4805 66.6621C75.7148 66.7754 75.9805 66.832 76.2773 66.832C76.6602 66.832 76.9844 66.7539 77.25 66.5977C77.5156 66.4414 77.748 66.2324 77.9473 65.9707L78.6035 66.4922C78.4668 66.6992 78.293 66.8965 78.082 67.084C77.8711 67.2715 77.6113 67.4238 77.3027 67.541C76.998 67.6582 76.6367 67.7168 76.2188 67.7168ZM87.6387 65.4434C87.6387 65.2441 87.6074 65.0684 87.5449 64.916C87.4863 64.7598 87.3809 64.6191 87.2285 64.4941C87.0801 64.3691 86.873 64.25 86.6074 64.1367C86.3457 64.0234 86.0137 63.9082 85.6113 63.791C85.1895 63.666 84.8086 63.5273 84.4688 63.375C84.1289 63.2188 83.8379 63.041 83.5957 62.8418C83.3535 62.6426 83.168 62.4141 83.0391 62.1562C82.9102 61.8984 82.8457 61.6035 82.8457 61.2715C82.8457 60.9395 82.9141 60.6328 83.0508 60.3516C83.1875 60.0703 83.3828 59.8262 83.6367 59.6191C83.8945 59.4082 84.2012 59.2441 84.5566 59.127C84.9121 59.0098 85.3086 58.9512 85.7461 58.9512C86.3867 58.9512 86.9297 59.0742 87.375 59.3203C87.8242 59.5625 88.166 59.8809 88.4004 60.2754C88.6348 60.666 88.752 61.084 88.752 61.5293H87.627C87.627 61.209 87.5586 60.9258 87.4219 60.6797C87.2852 60.4297 87.0781 60.2344 86.8008 60.0938C86.5234 59.9492 86.1719 59.877 85.7461 59.877C85.3438 59.877 85.0117 59.9375 84.75 60.0586C84.4883 60.1797 84.293 60.3438 84.1641 60.5508C84.0391 60.7578 83.9766 60.9941 83.9766 61.2598C83.9766 61.4395 84.0137 61.6035 84.0879 61.752C84.166 61.8965 84.2852 62.0312 84.4453 62.1562C84.6094 62.2812 84.8164 62.3965 85.0664 62.502C85.3203 62.6074 85.623 62.709 85.9746 62.8066C86.459 62.9434 86.877 63.0957 87.2285 63.2637C87.5801 63.4316 87.8691 63.6211 88.0957 63.832C88.3262 64.0391 88.4961 64.2754 88.6055 64.541C88.7188 64.8027 88.7754 65.0996 88.7754 65.4316C88.7754 65.7793 88.7051 66.0938 88.5645 66.375C88.4238 66.6562 88.2227 66.8965 87.9609 67.0957C87.6992 67.2949 87.3848 67.4492 87.0176 67.5586C86.6543 67.6641 86.248 67.7168 85.7988 67.7168C85.4043 67.7168 85.0156 67.6621 84.6328 67.5527C84.2539 67.4434 83.9082 67.2793 83.5957 67.0605C83.2871 66.8418 83.0391 66.5723 82.8516 66.252C82.668 65.9277 82.5762 65.5527 82.5762 65.127H83.7012C83.7012 65.4199 83.7578 65.6719 83.8711 65.8828C83.9844 66.0898 84.1387 66.2617 84.334 66.3984C84.5332 66.5352 84.7578 66.6367 85.0078 66.7031C85.2617 66.7656 85.5254 66.7969 85.7988 66.7969C86.1934 66.7969 86.5273 66.7422 86.8008 66.6328C87.0742 66.5234 87.2812 66.3672 87.4219 66.1641C87.5664 65.9609 87.6387 65.7207 87.6387 65.4434ZM92.6836 67.7168C92.2422 67.7168 91.8418 67.6426 91.4824 67.4941C91.127 67.3418 90.8203 67.1289 90.5625 66.8555C90.3086 66.582 90.1133 66.2578 89.9766 65.8828C89.8398 65.5078 89.7715 65.0977 89.7715 64.6523V64.4062C89.7715 63.8906 89.8477 63.4316 90 63.0293C90.1523 62.623 90.3594 62.2793 90.6211 61.998C90.8828 61.7168 91.1797 61.5039 91.5117 61.3594C91.8438 61.2148 92.1875 61.1426 92.543 61.1426C92.9961 61.1426 93.3867 61.2207 93.7148 61.377C94.0469 61.5332 94.3184 61.752 94.5293 62.0332C94.7402 62.3105 94.8965 62.6387 94.998 63.0176C95.0996 63.3926 95.1504 63.8027 95.1504 64.248V64.7344H90.416V63.8496H94.0664V63.7676C94.0508 63.4863 93.9922 63.2129 93.8906 62.9473C93.793 62.6816 93.6367 62.4629 93.4219 62.291C93.207 62.1191 92.9141 62.0332 92.543 62.0332C92.2969 62.0332 92.0703 62.0859 91.8633 62.1914C91.6562 62.293 91.4785 62.4453 91.3301 62.6484C91.1816 62.8516 91.0664 63.0996 90.9844 63.3926C90.9023 63.6855 90.8613 64.0234 90.8613 64.4062V64.6523C90.8613 64.9531 90.9023 65.2363 90.9844 65.502C91.0703 65.7637 91.1934 65.9941 91.3535 66.1934C91.5176 66.3926 91.7148 66.5488 91.9453 66.6621C92.1797 66.7754 92.4453 66.832 92.7422 66.832C93.125 66.832 93.4492 66.7539 93.7148 66.5977C93.9805 66.4414 94.2129 66.2324 94.4121 65.9707L95.0684 66.4922C94.9316 66.6992 94.7578 66.8965 94.5469 67.084C94.3359 67.2715 94.0762 67.4238 93.7676 67.541C93.4629 67.6582 93.1016 67.7168 92.6836 67.7168ZM100.154 66.5156V63.252C100.154 63.002 100.104 62.7852 100.002 62.6016C99.9043 62.4141 99.7559 62.2695 99.5566 62.168C99.3574 62.0664 99.1113 62.0156 98.8184 62.0156C98.5449 62.0156 98.3047 62.0625 98.0977 62.1562C97.8945 62.25 97.7344 62.373 97.6172 62.5254C97.5039 62.6777 97.4473 62.8418 97.4473 63.0176H96.3633C96.3633 62.791 96.4219 62.5664 96.5391 62.3438C96.6562 62.1211 96.8242 61.9199 97.043 61.7402C97.2656 61.5566 97.5312 61.4121 97.8398 61.3066C98.1523 61.1973 98.5 61.1426 98.8828 61.1426C99.3438 61.1426 99.75 61.2207 100.102 61.377C100.457 61.5332 100.734 61.7695 100.934 62.0859C101.137 62.3984 101.238 62.791 101.238 63.2637V66.2168C101.238 66.4277 101.256 66.6523 101.291 66.8906C101.33 67.1289 101.387 67.334 101.461 67.5059V67.5996H100.33C100.275 67.4746 100.232 67.3086 100.201 67.1016C100.17 66.8906 100.154 66.6953 100.154 66.5156ZM100.342 63.7559L100.354 64.5176H99.2578C98.9492 64.5176 98.6738 64.543 98.4316 64.5938C98.1895 64.6406 97.9863 64.7129 97.8223 64.8105C97.6582 64.9082 97.5332 65.0312 97.4473 65.1797C97.3613 65.3242 97.3184 65.4941 97.3184 65.6895C97.3184 65.8887 97.3633 66.0703 97.4531 66.2344C97.543 66.3984 97.6777 66.5293 97.8574 66.627C98.041 66.7207 98.2656 66.7676 98.5312 66.7676C98.8633 66.7676 99.1562 66.6973 99.4102 66.5566C99.6641 66.416 99.8652 66.2441 100.014 66.041C100.166 65.8379 100.248 65.6406 100.26 65.4492L100.723 65.9707C100.695 66.1348 100.621 66.3164 100.5 66.5156C100.379 66.7148 100.217 66.9062 100.014 67.0898C99.8145 67.2695 99.5762 67.4199 99.2988 67.541C99.0254 67.6582 98.7168 67.7168 98.373 67.7168C97.9434 67.7168 97.5664 67.6328 97.2422 67.4648C96.9219 67.2969 96.6719 67.0723 96.4922 66.791C96.3164 66.5059 96.2285 66.1875 96.2285 65.8359C96.2285 65.4961 96.2949 65.1973 96.4277 64.9395C96.5605 64.6777 96.752 64.4609 97.002 64.2891C97.252 64.1133 97.5527 63.9805 97.9043 63.8906C98.2559 63.8008 98.6484 63.7559 99.082 63.7559H100.342ZM104.027 62.2559V67.5996H102.943V61.2598H103.998L104.027 62.2559ZM106.008 61.2246L106.002 62.2324C105.912 62.2129 105.826 62.2012 105.744 62.1973C105.666 62.1895 105.576 62.1855 105.475 62.1855C105.225 62.1855 105.004 62.2246 104.812 62.3027C104.621 62.3809 104.459 62.4902 104.326 62.6309C104.193 62.7715 104.088 62.9395 104.01 63.1348C103.936 63.3262 103.887 63.5371 103.863 63.7676L103.559 63.9434C103.559 63.5605 103.596 63.2012 103.67 62.8652C103.748 62.5293 103.867 62.2324 104.027 61.9746C104.188 61.7129 104.391 61.5098 104.637 61.3652C104.887 61.2168 105.184 61.1426 105.527 61.1426C105.605 61.1426 105.695 61.1523 105.797 61.1719C105.898 61.1875 105.969 61.2051 106.008 61.2246ZM109.43 66.8262C109.688 66.8262 109.926 66.7734 110.145 66.668C110.363 66.5625 110.543 66.418 110.684 66.2344C110.824 66.0469 110.904 65.834 110.924 65.5957H111.955C111.936 65.9707 111.809 66.3203 111.574 66.6445C111.344 66.9648 111.041 67.2246 110.666 67.4238C110.291 67.6191 109.879 67.7168 109.43 67.7168C108.953 67.7168 108.537 67.6328 108.182 67.4648C107.83 67.2969 107.537 67.0664 107.303 66.7734C107.072 66.4805 106.898 66.1445 106.781 65.7656C106.668 65.3828 106.611 64.9785 106.611 64.5527V64.3066C106.611 63.8809 106.668 63.4785 106.781 63.0996C106.898 62.7168 107.072 62.3789 107.303 62.0859C107.537 61.793 107.83 61.5625 108.182 61.3945C108.537 61.2266 108.953 61.1426 109.43 61.1426C109.926 61.1426 110.359 61.2441 110.73 61.4473C111.102 61.6465 111.393 61.9199 111.604 62.2676C111.818 62.6113 111.936 63.002 111.955 63.4395H110.924C110.904 63.1777 110.83 62.9414 110.701 62.7305C110.576 62.5195 110.404 62.3516 110.186 62.2266C109.971 62.0977 109.719 62.0332 109.43 62.0332C109.098 62.0332 108.818 62.0996 108.592 62.2324C108.369 62.3613 108.191 62.5371 108.059 62.7598C107.93 62.9785 107.836 63.2227 107.777 63.4922C107.723 63.7578 107.695 64.0293 107.695 64.3066V64.5527C107.695 64.8301 107.723 65.1035 107.777 65.373C107.832 65.6426 107.924 65.8867 108.053 66.1055C108.186 66.3242 108.363 66.5 108.586 66.6328C108.812 66.7617 109.094 66.8262 109.43 66.8262ZM114.258 58.5996V67.5996H113.174V58.5996H114.258ZM114 64.1895L113.549 64.1719C113.553 63.7383 113.617 63.3379 113.742 62.9707C113.867 62.5996 114.043 62.2773 114.27 62.0039C114.496 61.7305 114.766 61.5195 115.078 61.3711C115.395 61.2188 115.744 61.1426 116.127 61.1426C116.439 61.1426 116.721 61.1855 116.971 61.2715C117.221 61.3535 117.434 61.4863 117.609 61.6699C117.789 61.8535 117.926 62.0918 118.02 62.3848C118.113 62.6738 118.16 63.0273 118.16 63.4453V67.5996H117.07V63.4336C117.07 63.1016 117.021 62.8359 116.924 62.6367C116.826 62.4336 116.684 62.2871 116.496 62.1973C116.309 62.1035 116.078 62.0566 115.805 62.0566C115.535 62.0566 115.289 62.1133 115.066 62.2266C114.848 62.3398 114.658 62.4961 114.498 62.6953C114.342 62.8945 114.219 63.123 114.129 63.3809C114.043 63.6348 114 63.9043 114 64.1895Z" fill="#101010" fill-opacity="0.9"/>
<g opacity="0.4" filter="url(#filter1_f_3514_64410)">
<circle cx="135" cy="63.5996" r="6" fill="#7D5E41"/>
</g>
<circle cx="135" cy="63.5996" r="3" fill="#7D5E41" stroke="#7D5E41"/>
<path d="M152.141 64.8867H153.266C153.207 65.4258 153.053 65.9082 152.803 66.334C152.553 66.7598 152.199 67.0977 151.742 67.3477C151.285 67.5938 150.715 67.7168 150.031 67.7168C149.531 67.7168 149.076 67.623 148.666 67.4355C148.26 67.248 147.91 66.9824 147.617 66.6387C147.324 66.291 147.098 65.875 146.938 65.3906C146.781 64.9023 146.703 64.3594 146.703 63.7617V62.9121C146.703 62.3145 146.781 61.7734 146.938 61.2891C147.098 60.8008 147.326 60.3828 147.623 60.0352C147.924 59.6875 148.285 59.4199 148.707 59.2324C149.129 59.0449 149.604 58.9512 150.131 58.9512C150.775 58.9512 151.32 59.0723 151.766 59.3145C152.211 59.5566 152.557 59.8926 152.803 60.3223C153.053 60.748 153.207 61.2422 153.266 61.8047H152.141C152.086 61.4062 151.984 61.0645 151.836 60.7793C151.688 60.4902 151.477 60.2676 151.203 60.1113C150.93 59.9551 150.572 59.877 150.131 59.877C149.752 59.877 149.418 59.9492 149.129 60.0938C148.844 60.2383 148.604 60.4434 148.408 60.709C148.217 60.9746 148.072 61.293 147.975 61.6641C147.877 62.0352 147.828 62.4473 147.828 62.9004V63.7617C147.828 64.1797 147.871 64.5723 147.957 64.9395C148.047 65.3066 148.182 65.6289 148.361 65.9062C148.541 66.1836 148.77 66.4023 149.047 66.5625C149.324 66.7188 149.652 66.7969 150.031 66.7969C150.512 66.7969 150.895 66.7207 151.18 66.5684C151.465 66.416 151.68 66.1973 151.824 65.9121C151.973 65.627 152.078 65.2852 152.141 64.8867ZM155.82 58.5996V67.5996H154.73V58.5996H155.82ZM160.191 67.7168C159.75 67.7168 159.35 67.6426 158.99 67.4941C158.635 67.3418 158.328 67.1289 158.07 66.8555C157.816 66.582 157.621 66.2578 157.484 65.8828C157.348 65.5078 157.279 65.0977 157.279 64.6523V64.4062C157.279 63.8906 157.355 63.4316 157.508 63.0293C157.66 62.623 157.867 62.2793 158.129 61.998C158.391 61.7168 158.688 61.5039 159.02 61.3594C159.352 61.2148 159.695 61.1426 160.051 61.1426C160.504 61.1426 160.895 61.2207 161.223 61.377C161.555 61.5332 161.826 61.752 162.037 62.0332C162.248 62.3105 162.404 62.6387 162.506 63.0176C162.607 63.3926 162.658 63.8027 162.658 64.248V64.7344H157.924V63.8496H161.574V63.7676C161.559 63.4863 161.5 63.2129 161.398 62.9473C161.301 62.6816 161.145 62.4629 160.93 62.291C160.715 62.1191 160.422 62.0332 160.051 62.0332C159.805 62.0332 159.578 62.0859 159.371 62.1914C159.164 62.293 158.986 62.4453 158.838 62.6484C158.689 62.8516 158.574 63.0996 158.492 63.3926C158.41 63.6855 158.369 64.0234 158.369 64.4062V64.6523C158.369 64.9531 158.41 65.2363 158.492 65.502C158.578 65.7637 158.701 65.9941 158.861 66.1934C159.025 66.3926 159.223 66.5488 159.453 66.6621C159.688 66.7754 159.953 66.832 160.25 66.832C160.633 66.832 160.957 66.7539 161.223 66.5977C161.488 66.4414 161.721 66.2324 161.92 65.9707L162.576 66.4922C162.439 66.6992 162.266 66.8965 162.055 67.084C161.844 67.2715 161.584 67.4238 161.275 67.541C160.971 67.6582 160.609 67.7168 160.191 67.7168ZM167.662 66.5156V63.252C167.662 63.002 167.611 62.7852 167.51 62.6016C167.412 62.4141 167.264 62.2695 167.064 62.168C166.865 62.0664 166.619 62.0156 166.326 62.0156C166.053 62.0156 165.812 62.0625 165.605 62.1562C165.402 62.25 165.242 62.373 165.125 62.5254C165.012 62.6777 164.955 62.8418 164.955 63.0176H163.871C163.871 62.791 163.93 62.5664 164.047 62.3438C164.164 62.1211 164.332 61.9199 164.551 61.7402C164.773 61.5566 165.039 61.4121 165.348 61.3066C165.66 61.1973 166.008 61.1426 166.391 61.1426C166.852 61.1426 167.258 61.2207 167.609 61.377C167.965 61.5332 168.242 61.7695 168.441 62.0859C168.645 62.3984 168.746 62.791 168.746 63.2637V66.2168C168.746 66.4277 168.764 66.6523 168.799 66.8906C168.838 67.1289 168.895 67.334 168.969 67.5059V67.5996H167.838C167.783 67.4746 167.74 67.3086 167.709 67.1016C167.678 66.8906 167.662 66.6953 167.662 66.5156ZM167.85 63.7559L167.861 64.5176H166.766C166.457 64.5176 166.182 64.543 165.939 64.5938C165.697 64.6406 165.494 64.7129 165.33 64.8105C165.166 64.9082 165.041 65.0312 164.955 65.1797C164.869 65.3242 164.826 65.4941 164.826 65.6895C164.826 65.8887 164.871 66.0703 164.961 66.2344C165.051 66.3984 165.186 66.5293 165.365 66.627C165.549 66.7207 165.773 66.7676 166.039 66.7676C166.371 66.7676 166.664 66.6973 166.918 66.5566C167.172 66.416 167.373 66.2441 167.521 66.041C167.674 65.8379 167.756 65.6406 167.768 65.4492L168.23 65.9707C168.203 66.1348 168.129 66.3164 168.008 66.5156C167.887 66.7148 167.725 66.9062 167.521 67.0898C167.322 67.2695 167.084 67.4199 166.807 67.541C166.533 67.6582 166.225 67.7168 165.881 67.7168C165.451 67.7168 165.074 67.6328 164.75 67.4648C164.43 67.2969 164.18 67.0723 164 66.791C163.824 66.5059 163.736 66.1875 163.736 65.8359C163.736 65.4961 163.803 65.1973 163.936 64.9395C164.068 64.6777 164.26 64.4609 164.51 64.2891C164.76 64.1133 165.061 63.9805 165.412 63.8906C165.764 63.8008 166.156 63.7559 166.59 63.7559H167.85ZM171.535 62.6133V67.5996H170.451V61.2598H171.477L171.535 62.6133ZM171.277 64.1895L170.826 64.1719C170.83 63.7383 170.895 63.3379 171.02 62.9707C171.145 62.5996 171.32 62.2773 171.547 62.0039C171.773 61.7305 172.043 61.5195 172.355 61.3711C172.672 61.2188 173.021 61.1426 173.404 61.1426C173.717 61.1426 173.998 61.1855 174.248 61.2715C174.498 61.3535 174.711 61.4863 174.887 61.6699C175.066 61.8535 175.203 62.0918 175.297 62.3848C175.391 62.6738 175.438 63.0273 175.438 63.4453V67.5996H174.348V63.4336C174.348 63.1016 174.299 62.8359 174.201 62.6367C174.104 62.4336 173.961 62.2871 173.773 62.1973C173.586 62.1035 173.355 62.0566 173.082 62.0566C172.812 62.0566 172.566 62.1133 172.344 62.2266C172.125 62.3398 171.936 62.4961 171.775 62.6953C171.619 62.8945 171.496 63.123 171.406 63.3809C171.32 63.6348 171.277 63.9043 171.277 64.1895ZM185.105 59.0684H186.23V64.8398C186.23 65.4805 186.088 66.0137 185.803 66.4395C185.518 66.8652 185.139 67.1855 184.666 67.4004C184.197 67.6113 183.688 67.7168 183.137 67.7168C182.559 67.7168 182.035 67.6113 181.566 67.4004C181.102 67.1855 180.732 66.8652 180.459 66.4395C180.189 66.0137 180.055 65.4805 180.055 64.8398V59.0684H181.174V64.8398C181.174 65.2852 181.256 65.6523 181.42 65.9414C181.584 66.2305 181.812 66.4453 182.105 66.5859C182.402 66.7266 182.746 66.7969 183.137 66.7969C183.531 66.7969 183.875 66.7266 184.168 66.5859C184.465 66.4453 184.695 66.2305 184.859 65.9414C185.023 65.6523 185.105 65.2852 185.105 64.8398V59.0684ZM189.219 59.0684V67.5996H188.088V59.0684H189.219Z" fill="#101010" fill-opacity="0.9"/>
<g opacity="0.4" filter="url(#filter2_f_3514_64410)">
<circle cx="207" cy="63.5996" r="6" fill="#7D5E41"/>
</g>
<circle cx="207" cy="63.5996" r="3" fill="#7D5E41" stroke="#7D5E41"/>
<path d="M222.031 63.6094H219.869L219.857 62.7012H221.82C222.145 62.7012 222.428 62.6465 222.67 62.5371C222.912 62.4277 223.1 62.2715 223.232 62.0684C223.369 61.8613 223.438 61.6152 223.438 61.3301C223.438 61.0176 223.377 60.7637 223.256 60.5684C223.139 60.3691 222.957 60.2246 222.711 60.1348C222.469 60.041 222.16 59.9941 221.785 59.9941H220.121V67.5996H218.99V59.0684H221.785C222.223 59.0684 222.613 59.1133 222.957 59.2031C223.301 59.2891 223.592 59.4258 223.83 59.6133C224.072 59.7969 224.256 60.0312 224.381 60.3164C224.506 60.6016 224.568 60.9434 224.568 61.3418C224.568 61.6934 224.479 62.0117 224.299 62.2969C224.119 62.5781 223.869 62.8086 223.549 62.9883C223.232 63.168 222.861 63.2832 222.436 63.334L222.031 63.6094ZM221.979 67.5996H219.424L220.062 66.6797H221.979C222.338 66.6797 222.643 66.6172 222.893 66.4922C223.146 66.3672 223.34 66.1914 223.473 65.9648C223.605 65.7344 223.672 65.4629 223.672 65.1504C223.672 64.834 223.615 64.5605 223.502 64.3301C223.389 64.0996 223.211 63.9219 222.969 63.7969C222.727 63.6719 222.414 63.6094 222.031 63.6094H220.42L220.432 62.7012H222.635L222.875 63.0293C223.285 63.0645 223.633 63.1816 223.918 63.3809C224.203 63.5762 224.42 63.8262 224.568 64.1309C224.721 64.4355 224.797 64.7715 224.797 65.1387C224.797 65.6699 224.68 66.1191 224.445 66.4863C224.215 66.8496 223.889 67.127 223.467 67.3184C223.045 67.5059 222.549 67.5996 221.979 67.5996ZM228.934 67.7168C228.492 67.7168 228.092 67.6426 227.732 67.4941C227.377 67.3418 227.07 67.1289 226.812 66.8555C226.559 66.582 226.363 66.2578 226.227 65.8828C226.09 65.5078 226.021 65.0977 226.021 64.6523V64.4062C226.021 63.8906 226.098 63.4316 226.25 63.0293C226.402 62.623 226.609 62.2793 226.871 61.998C227.133 61.7168 227.43 61.5039 227.762 61.3594C228.094 61.2148 228.438 61.1426 228.793 61.1426C229.246 61.1426 229.637 61.2207 229.965 61.377C230.297 61.5332 230.568 61.752 230.779 62.0332C230.99 62.3105 231.146 62.6387 231.248 63.0176C231.35 63.3926 231.4 63.8027 231.4 64.248V64.7344H226.666V63.8496H230.316V63.7676C230.301 63.4863 230.242 63.2129 230.141 62.9473C230.043 62.6816 229.887 62.4629 229.672 62.291C229.457 62.1191 229.164 62.0332 228.793 62.0332C228.547 62.0332 228.32 62.0859 228.113 62.1914C227.906 62.293 227.729 62.4453 227.58 62.6484C227.432 62.8516 227.316 63.0996 227.234 63.3926C227.152 63.6855 227.111 64.0234 227.111 64.4062V64.6523C227.111 64.9531 227.152 65.2363 227.234 65.502C227.32 65.7637 227.443 65.9941 227.604 66.1934C227.768 66.3926 227.965 66.5488 228.195 66.6621C228.43 66.7754 228.695 66.832 228.992 66.832C229.375 66.832 229.699 66.7539 229.965 66.5977C230.23 66.4414 230.463 66.2324 230.662 65.9707L231.318 66.4922C231.182 66.6992 231.008 66.8965 230.797 67.084C230.586 67.2715 230.326 67.4238 230.018 67.541C229.713 67.6582 229.352 67.7168 228.934 67.7168ZM236.357 65.918C236.357 65.7617 236.322 65.6172 236.252 65.4844C236.186 65.3477 236.047 65.2246 235.836 65.1152C235.629 65.002 235.316 64.9043 234.898 64.8223C234.547 64.748 234.229 64.6602 233.943 64.5586C233.662 64.457 233.422 64.334 233.223 64.1895C233.027 64.0449 232.877 63.875 232.771 63.6797C232.666 63.4844 232.613 63.2559 232.613 62.9941C232.613 62.7441 232.668 62.5078 232.777 62.2852C232.891 62.0625 233.049 61.8652 233.252 61.6934C233.459 61.5215 233.707 61.3867 233.996 61.2891C234.285 61.1914 234.607 61.1426 234.963 61.1426C235.471 61.1426 235.904 61.2324 236.264 61.4121C236.623 61.5918 236.898 61.832 237.09 62.1328C237.281 62.4297 237.377 62.7598 237.377 63.123H236.293C236.293 62.9473 236.24 62.7773 236.135 62.6133C236.033 62.4453 235.883 62.3066 235.684 62.1973C235.488 62.0879 235.248 62.0332 234.963 62.0332C234.662 62.0332 234.418 62.0801 234.23 62.1738C234.047 62.2637 233.912 62.3789 233.826 62.5195C233.744 62.6602 233.703 62.8086 233.703 62.9648C233.703 63.082 233.723 63.1875 233.762 63.2812C233.805 63.3711 233.879 63.4551 233.984 63.5332C234.09 63.6074 234.238 63.6777 234.43 63.7441C234.621 63.8105 234.865 63.877 235.162 63.9434C235.682 64.0605 236.109 64.2012 236.445 64.3652C236.781 64.5293 237.031 64.7305 237.195 64.9688C237.359 65.207 237.441 65.4961 237.441 65.8359C237.441 66.1133 237.383 66.3672 237.266 66.5977C237.152 66.8281 236.986 67.0273 236.768 67.1953C236.553 67.3594 236.295 67.4883 235.994 67.582C235.697 67.6719 235.363 67.7168 234.992 67.7168C234.434 67.7168 233.961 67.6172 233.574 67.418C233.188 67.2188 232.895 66.9609 232.695 66.6445C232.496 66.3281 232.396 65.9941 232.396 65.6426H233.486C233.502 65.9395 233.588 66.1758 233.744 66.3516C233.9 66.5234 234.092 66.6465 234.318 66.7207C234.545 66.791 234.77 66.8262 234.992 66.8262C235.289 66.8262 235.537 66.7871 235.736 66.709C235.939 66.6309 236.094 66.5234 236.199 66.3867C236.305 66.25 236.357 66.0938 236.357 65.918ZM241.52 61.2598V62.0918H238.092V61.2598H241.52ZM239.252 59.7188H240.336V66.0293C240.336 66.2441 240.369 66.4062 240.436 66.5156C240.502 66.625 240.588 66.6973 240.693 66.7324C240.799 66.7676 240.912 66.7852 241.033 66.7852C241.123 66.7852 241.217 66.7773 241.314 66.7617C241.416 66.7422 241.492 66.7266 241.543 66.7148L241.549 67.5996C241.463 67.627 241.35 67.6523 241.209 67.6758C241.072 67.7031 240.906 67.7168 240.711 67.7168C240.445 67.7168 240.201 67.6641 239.979 67.5586C239.756 67.4531 239.578 67.2773 239.445 67.0312C239.316 66.7812 239.252 66.4453 239.252 66.0234V59.7188ZM250.812 59.0684H251.938V64.8398C251.938 65.4805 251.795 66.0137 251.51 66.4395C251.225 66.8652 250.846 67.1855 250.373 67.4004C249.904 67.6113 249.395 67.7168 248.844 67.7168C248.266 67.7168 247.742 67.6113 247.273 67.4004C246.809 67.1855 246.439 66.8652 246.166 66.4395C245.896 66.0137 245.762 65.4805 245.762 64.8398V59.0684H246.881V64.8398C246.881 65.2852 246.963 65.6523 247.127 65.9414C247.291 66.2305 247.52 66.4453 247.812 66.5859C248.109 66.7266 248.453 66.7969 248.844 66.7969C249.238 66.7969 249.582 66.7266 249.875 66.5859C250.172 66.4453 250.402 66.2305 250.566 65.9414C250.73 65.6523 250.812 65.2852 250.812 64.8398V59.0684ZM254.926 59.0684V67.5996H253.795V59.0684H254.926ZM260.592 59.0684L257.035 68.332H256.104L259.666 59.0684H260.592ZM266.82 59.0684H267.945V64.8398C267.945 65.4805 267.803 66.0137 267.518 66.4395C267.232 66.8652 266.854 67.1855 266.381 67.4004C265.912 67.6113 265.402 67.7168 264.852 67.7168C264.273 67.7168 263.75 67.6113 263.281 67.4004C262.816 67.1855 262.447 66.8652 262.174 66.4395C261.904 66.0137 261.77 65.4805 261.77 64.8398V59.0684H262.889V64.8398C262.889 65.2852 262.971 65.6523 263.135 65.9414C263.299 66.2305 263.527 66.4453 263.82 66.5859C264.117 66.7266 264.461 66.7969 264.852 66.7969C265.246 66.7969 265.59 66.7266 265.883 66.5859C266.18 66.4453 266.41 66.2305 266.574 65.9414C266.738 65.6523 266.82 65.2852 266.82 64.8398V59.0684ZM270.453 59.0684L272.504 62.3379L274.555 59.0684H275.873L273.178 63.293L275.938 67.5996H274.607L272.504 64.2656L270.4 67.5996H269.07L271.83 63.293L269.135 59.0684H270.453Z" fill="#101010" fill-opacity="0.9"/>
<g opacity="0.4" filter="url(#filter3_f_3514_64410)">
<circle cx="22" cy="95.5996" r="6" fill="#7D5E41"/>
</g>
<circle cx="22" cy="95.5996" r="3" fill="#7D5E41" stroke="#7D5E41"/>
<path d="M36.2344 97.0215L37.9277 91.0684H38.748L38.2734 93.3828L36.4512 99.5996H35.6367L36.2344 97.0215ZM34.4824 91.0684L35.8301 96.9043L36.2344 99.5996H35.4258L33.3574 91.0684H34.4824ZM40.9395 96.8984L42.2578 91.0684H43.3887L41.3262 99.5996H40.5176L40.9395 96.8984ZM38.8711 91.0684L40.5176 97.0215L41.1152 99.5996H40.3008L38.543 93.3828L38.0625 91.0684H38.8711ZM44.0039 96.5V96.3652C44.0039 95.9082 44.0703 95.4844 44.2031 95.0938C44.3359 94.6992 44.5273 94.3574 44.7773 94.0684C45.0273 93.7754 45.3301 93.5488 45.6855 93.3887C46.041 93.2246 46.4395 93.1426 46.8809 93.1426C47.3262 93.1426 47.7266 93.2246 48.082 93.3887C48.4414 93.5488 48.7461 93.7754 48.9961 94.0684C49.25 94.3574 49.4434 94.6992 49.5762 95.0938C49.709 95.4844 49.7754 95.9082 49.7754 96.3652V96.5C49.7754 96.957 49.709 97.3809 49.5762 97.7715C49.4434 98.1621 49.25 98.5039 48.9961 98.7969C48.7461 99.0859 48.4434 99.3125 48.0879 99.4766C47.7363 99.6367 47.3379 99.7168 46.8926 99.7168C46.4473 99.7168 46.0469 99.6367 45.6914 99.4766C45.3359 99.3125 45.0312 99.0859 44.7773 98.7969C44.5273 98.5039 44.3359 98.1621 44.2031 97.7715C44.0703 97.3809 44.0039 96.957 44.0039 96.5ZM45.0879 96.3652V96.5C45.0879 96.8164 45.125 97.1152 45.1992 97.3965C45.2734 97.6738 45.3848 97.9199 45.5332 98.1348C45.6855 98.3496 45.875 98.5195 46.1016 98.6445C46.3281 98.7656 46.5918 98.8262 46.8926 98.8262C47.1895 98.8262 47.4492 98.7656 47.6719 98.6445C47.8984 98.5195 48.0859 98.3496 48.2344 98.1348C48.3828 97.9199 48.4941 97.6738 48.5684 97.3965C48.6465 97.1152 48.6855 96.8164 48.6855 96.5V96.3652C48.6855 96.0527 48.6465 95.7578 48.5684 95.4805C48.4941 95.1992 48.3809 94.9512 48.2285 94.7363C48.0801 94.5176 47.8926 94.3457 47.666 94.2207C47.4434 94.0957 47.1816 94.0332 46.8809 94.0332C46.584 94.0332 46.3223 94.0957 46.0957 94.2207C45.873 94.3457 45.6855 94.5176 45.5332 94.7363C45.3848 94.9512 45.2734 95.1992 45.1992 95.4805C45.125 95.7578 45.0879 96.0527 45.0879 96.3652ZM52.2188 94.2559V99.5996H51.1348V93.2598H52.1895L52.2188 94.2559ZM54.1992 93.2246L54.1934 94.2324C54.1035 94.2129 54.0176 94.2012 53.9355 94.1973C53.8574 94.1895 53.7676 94.1855 53.666 94.1855C53.416 94.1855 53.1953 94.2246 53.0039 94.3027C52.8125 94.3809 52.6504 94.4902 52.5176 94.6309C52.3848 94.7715 52.2793 94.9395 52.2012 95.1348C52.127 95.3262 52.0781 95.5371 52.0547 95.7676L51.75 95.9434C51.75 95.5605 51.7871 95.2012 51.8613 94.8652C51.9395 94.5293 52.0586 94.2324 52.2188 93.9746C52.3789 93.7129 52.582 93.5098 52.8281 93.3652C53.0781 93.2168 53.375 93.1426 53.7188 93.1426C53.7969 93.1426 53.8867 93.1523 53.9883 93.1719C54.0898 93.1875 54.1602 93.2051 54.1992 93.2246ZM59.0801 98.3691V90.5996H60.1699V99.5996H59.1738L59.0801 98.3691ZM54.8145 96.5V96.377C54.8145 95.8926 54.873 95.4531 54.9902 95.0586C55.1113 94.6602 55.2812 94.3184 55.5 94.0332C55.7227 93.748 55.9863 93.5293 56.291 93.377C56.5996 93.2207 56.9434 93.1426 57.3223 93.1426C57.7207 93.1426 58.0684 93.2129 58.3652 93.3535C58.666 93.4902 58.9199 93.6914 59.127 93.957C59.3379 94.2188 59.5039 94.5352 59.625 94.9062C59.7461 95.2773 59.8301 95.6973 59.877 96.166V96.7051C59.834 97.1699 59.75 97.5879 59.625 97.959C59.5039 98.3301 59.3379 98.6465 59.127 98.9082C58.9199 99.1699 58.666 99.3711 58.3652 99.5117C58.0645 99.6484 57.7129 99.7168 57.3105 99.7168C56.9395 99.7168 56.5996 99.6367 56.291 99.4766C55.9863 99.3164 55.7227 99.0918 55.5 98.8027C55.2812 98.5137 55.1113 98.1738 54.9902 97.7832C54.873 97.3887 54.8145 96.9609 54.8145 96.5ZM55.9043 96.377V96.5C55.9043 96.8164 55.9355 97.1133 55.998 97.3906C56.0645 97.668 56.166 97.9121 56.3027 98.123C56.4395 98.334 56.6133 98.5 56.8242 98.6211C57.0352 98.7383 57.2871 98.7969 57.5801 98.7969C57.9395 98.7969 58.2344 98.7207 58.4648 98.5684C58.6992 98.416 58.8867 98.2148 59.0273 97.9648C59.168 97.7148 59.2773 97.4434 59.3555 97.1504V95.7383C59.3086 95.5234 59.2402 95.3164 59.1504 95.1172C59.0645 94.9141 58.9512 94.7344 58.8105 94.5781C58.6738 94.418 58.5039 94.291 58.3008 94.1973C58.1016 94.1035 57.8652 94.0566 57.5918 94.0566C57.2949 94.0566 57.0391 94.1191 56.8242 94.2441C56.6133 94.3652 56.4395 94.5332 56.3027 94.748C56.166 94.959 56.0645 95.2051 55.998 95.4863C55.9355 95.7637 55.9043 96.0605 55.9043 96.377ZM68.0391 95.6094H65.877L65.8652 94.7012H67.8281C68.1523 94.7012 68.4355 94.6465 68.6777 94.5371C68.9199 94.4277 69.1074 94.2715 69.2402 94.0684C69.377 93.8613 69.4453 93.6152 69.4453 93.3301C69.4453 93.0176 69.3848 92.7637 69.2637 92.5684C69.1465 92.3691 68.9648 92.2246 68.7188 92.1348C68.4766 92.041 68.168 91.9941 67.793 91.9941H66.1289V99.5996H64.998V91.0684H67.793C68.2305 91.0684 68.6211 91.1133 68.9648 91.2031C69.3086 91.2891 69.5996 91.4258 69.8379 91.6133C70.0801 91.7969 70.2637 92.0312 70.3887 92.3164C70.5137 92.6016 70.5762 92.9434 70.5762 93.3418C70.5762 93.6934 70.4863 94.0117 70.3066 94.2969C70.127 94.5781 69.877 94.8086 69.5566 94.9883C69.2402 95.168 68.8691 95.2832 68.4434 95.334L68.0391 95.6094ZM67.9863 99.5996H65.4316L66.0703 98.6797H67.9863C68.3457 98.6797 68.6504 98.6172 68.9004 98.4922C69.1543 98.3672 69.3477 98.1914 69.4805 97.9648C69.6133 97.7344 69.6797 97.4629 69.6797 97.1504C69.6797 96.834 69.623 96.5605 69.5098 96.3301C69.3965 96.0996 69.2188 95.9219 68.9766 95.7969C68.7344 95.6719 68.4219 95.6094 68.0391 95.6094H66.4277L66.4395 94.7012H68.6426L68.8828 95.0293C69.293 95.0645 69.6406 95.1816 69.9258 95.3809C70.2109 95.5762 70.4277 95.8262 70.5762 96.1309C70.7285 96.4355 70.8047 96.7715 70.8047 97.1387C70.8047 97.6699 70.6875 98.1191 70.4531 98.4863C70.2227 98.8496 69.8965 99.127 69.4746 99.3184C69.0527 99.5059 68.5566 99.5996 67.9863 99.5996ZM74.0918 98.9434L75.8555 93.2598H77.0156L74.4727 100.578C74.4141 100.734 74.3359 100.902 74.2383 101.082C74.1445 101.266 74.0234 101.439 73.875 101.604C73.7266 101.768 73.5469 101.9 73.3359 102.002C73.1289 102.107 72.8809 102.16 72.5918 102.16C72.5059 102.16 72.3965 102.148 72.2637 102.125C72.1309 102.102 72.0371 102.082 71.9824 102.066L71.9766 101.188C72.0078 101.191 72.0566 101.195 72.123 101.199C72.1934 101.207 72.2422 101.211 72.2695 101.211C72.5156 101.211 72.7246 101.178 72.8965 101.111C73.0684 101.049 73.2129 100.941 73.3301 100.789C73.4512 100.641 73.5547 100.436 73.6406 100.174L74.0918 98.9434ZM72.7969 93.2598L74.4434 98.1816L74.7246 99.3242L73.9453 99.7227L71.6133 93.2598H72.7969ZM83.3789 97.0215L85.0723 91.0684H85.8926L85.418 93.3828L83.5957 99.5996H82.7812L83.3789 97.0215ZM81.627 91.0684L82.9746 96.9043L83.3789 99.5996H82.5703L80.502 91.0684H81.627ZM88.084 96.8984L89.4023 91.0684H90.5332L88.4707 99.5996H87.6621L88.084 96.8984ZM86.0156 91.0684L87.6621 97.0215L88.2598 99.5996H87.4453L85.6875 93.3828L85.207 91.0684H86.0156ZM91.1484 96.5V96.3652C91.1484 95.9082 91.2148 95.4844 91.3477 95.0938C91.4805 94.6992 91.6719 94.3574 91.9219 94.0684C92.1719 93.7754 92.4746 93.5488 92.8301 93.3887C93.1855 93.2246 93.584 93.1426 94.0254 93.1426C94.4707 93.1426 94.8711 93.2246 95.2266 93.3887C95.5859 93.5488 95.8906 93.7754 96.1406 94.0684C96.3945 94.3574 96.5879 94.6992 96.7207 95.0938C96.8535 95.4844 96.9199 95.9082 96.9199 96.3652V96.5C96.9199 96.957 96.8535 97.3809 96.7207 97.7715C96.5879 98.1621 96.3945 98.5039 96.1406 98.7969C95.8906 99.0859 95.5879 99.3125 95.2324 99.4766C94.8809 99.6367 94.4824 99.7168 94.0371 99.7168C93.5918 99.7168 93.1914 99.6367 92.8359 99.4766C92.4805 99.3125 92.1758 99.0859 91.9219 98.7969C91.6719 98.5039 91.4805 98.1621 91.3477 97.7715C91.2148 97.3809 91.1484 96.957 91.1484 96.5ZM92.2324 96.3652V96.5C92.2324 96.8164 92.2695 97.1152 92.3438 97.3965C92.418 97.6738 92.5293 97.9199 92.6777 98.1348C92.8301 98.3496 93.0195 98.5195 93.2461 98.6445C93.4727 98.7656 93.7363 98.8262 94.0371 98.8262C94.334 98.8262 94.5938 98.7656 94.8164 98.6445C95.043 98.5195 95.2305 98.3496 95.3789 98.1348C95.5273 97.9199 95.6387 97.6738 95.7129 97.3965C95.791 97.1152 95.8301 96.8164 95.8301 96.5V96.3652C95.8301 96.0527 95.791 95.7578 95.7129 95.4805C95.6387 95.1992 95.5254 94.9512 95.373 94.7363C95.2246 94.5176 95.0371 94.3457 94.8105 94.2207C94.5879 94.0957 94.3262 94.0332 94.0254 94.0332C93.7285 94.0332 93.4668 94.0957 93.2402 94.2207C93.0176 94.3457 92.8301 94.5176 92.6777 94.7363C92.5293 94.9512 92.418 95.1992 92.3438 95.4805C92.2695 95.7578 92.2324 96.0527 92.2324 96.3652ZM99.3633 94.2559V99.5996H98.2793V93.2598H99.334L99.3633 94.2559ZM101.344 93.2246L101.338 94.2324C101.248 94.2129 101.162 94.2012 101.08 94.1973C101.002 94.1895 100.912 94.1855 100.811 94.1855C100.561 94.1855 100.34 94.2246 100.148 94.3027C99.957 94.3809 99.7949 94.4902 99.6621 94.6309C99.5293 94.7715 99.4238 94.9395 99.3457 95.1348C99.2715 95.3262 99.2227 95.5371 99.1992 95.7676L98.8945 95.9434C98.8945 95.5605 98.9316 95.2012 99.0059 94.8652C99.084 94.5293 99.2031 94.2324 99.3633 93.9746C99.5234 93.7129 99.7266 93.5098 99.9727 93.3652C100.223 93.2168 100.52 93.1426 100.863 93.1426C100.941 93.1426 101.031 93.1523 101.133 93.1719C101.234 93.1875 101.305 93.2051 101.344 93.2246ZM106.225 98.3691V90.5996H107.314V99.5996H106.318L106.225 98.3691ZM101.959 96.5V96.377C101.959 95.8926 102.018 95.4531 102.135 95.0586C102.256 94.6602 102.426 94.3184 102.645 94.0332C102.867 93.748 103.131 93.5293 103.436 93.377C103.744 93.2207 104.088 93.1426 104.467 93.1426C104.865 93.1426 105.213 93.2129 105.51 93.3535C105.811 93.4902 106.064 93.6914 106.271 93.957C106.482 94.2188 106.648 94.5352 106.77 94.9062C106.891 95.2773 106.975 95.6973 107.021 96.166V96.7051C106.979 97.1699 106.895 97.5879 106.77 97.959C106.648 98.3301 106.482 98.6465 106.271 98.9082C106.064 99.1699 105.811 99.3711 105.51 99.5117C105.209 99.6484 104.857 99.7168 104.455 99.7168C104.084 99.7168 103.744 99.6367 103.436 99.4766C103.131 99.3164 102.867 99.0918 102.645 98.8027C102.426 98.5137 102.256 98.1738 102.135 97.7832C102.018 97.3887 101.959 96.9609 101.959 96.5ZM103.049 96.377V96.5C103.049 96.8164 103.08 97.1133 103.143 97.3906C103.209 97.668 103.311 97.9121 103.447 98.123C103.584 98.334 103.758 98.5 103.969 98.6211C104.18 98.7383 104.432 98.7969 104.725 98.7969C105.084 98.7969 105.379 98.7207 105.609 98.5684C105.844 98.416 106.031 98.2148 106.172 97.9648C106.312 97.7148 106.422 97.4434 106.5 97.1504V95.7383C106.453 95.5234 106.385 95.3164 106.295 95.1172C106.209 94.9141 106.096 94.7344 105.955 94.5781C105.818 94.418 105.648 94.291 105.445 94.1973C105.246 94.1035 105.01 94.0566 104.736 94.0566C104.439 94.0566 104.184 94.1191 103.969 94.2441C103.758 94.3652 103.584 94.5332 103.447 94.748C103.311 94.959 103.209 95.2051 103.143 95.4863C103.08 95.7637 103.049 96.0605 103.049 96.377ZM112.5 91.0684H113.596L116.391 98.0234L119.18 91.0684H120.281L116.812 99.5996H115.957L112.5 91.0684ZM112.143 91.0684H113.109L113.268 96.2715V99.5996H112.143V91.0684ZM119.666 91.0684H120.633V99.5996H119.508V96.2715L119.666 91.0684ZM122.168 96.5V96.3652C122.168 95.9082 122.234 95.4844 122.367 95.0938C122.5 94.6992 122.691 94.3574 122.941 94.0684C123.191 93.7754 123.494 93.5488 123.85 93.3887C124.205 93.2246 124.604 93.1426 125.045 93.1426C125.49 93.1426 125.891 93.2246 126.246 93.3887C126.605 93.5488 126.91 93.7754 127.16 94.0684C127.414 94.3574 127.607 94.6992 127.74 95.0938C127.873 95.4844 127.939 95.9082 127.939 96.3652V96.5C127.939 96.957 127.873 97.3809 127.74 97.7715C127.607 98.1621 127.414 98.5039 127.16 98.7969C126.91 99.0859 126.607 99.3125 126.252 99.4766C125.9 99.6367 125.502 99.7168 125.057 99.7168C124.611 99.7168 124.211 99.6367 123.855 99.4766C123.5 99.3125 123.195 99.0859 122.941 98.7969C122.691 98.5039 122.5 98.1621 122.367 97.7715C122.234 97.3809 122.168 96.957 122.168 96.5ZM123.252 96.3652V96.5C123.252 96.8164 123.289 97.1152 123.363 97.3965C123.438 97.6738 123.549 97.9199 123.697 98.1348C123.85 98.3496 124.039 98.5195 124.266 98.6445C124.492 98.7656 124.756 98.8262 125.057 98.8262C125.354 98.8262 125.613 98.7656 125.836 98.6445C126.062 98.5195 126.25 98.3496 126.398 98.1348C126.547 97.9199 126.658 97.6738 126.732 97.3965C126.811 97.1152 126.85 96.8164 126.85 96.5V96.3652C126.85 96.0527 126.811 95.7578 126.732 95.4805C126.658 95.1992 126.545 94.9512 126.393 94.7363C126.244 94.5176 126.057 94.3457 125.83 94.2207C125.607 94.0957 125.346 94.0332 125.045 94.0332C124.748 94.0332 124.486 94.0957 124.26 94.2207C124.037 94.3457 123.85 94.5176 123.697 94.7363C123.549 94.9512 123.438 95.1992 123.363 95.4805C123.289 95.7578 123.252 96.0527 123.252 96.3652ZM133.295 98.3691V90.5996H134.385V99.5996H133.389L133.295 98.3691ZM129.029 96.5V96.377C129.029 95.8926 129.088 95.4531 129.205 95.0586C129.326 94.6602 129.496 94.3184 129.715 94.0332C129.938 93.748 130.201 93.5293 130.506 93.377C130.814 93.2207 131.158 93.1426 131.537 93.1426C131.936 93.1426 132.283 93.2129 132.58 93.3535C132.881 93.4902 133.135 93.6914 133.342 93.957C133.553 94.2188 133.719 94.5352 133.84 94.9062C133.961 95.2773 134.045 95.6973 134.092 96.166V96.7051C134.049 97.1699 133.965 97.5879 133.84 97.959C133.719 98.3301 133.553 98.6465 133.342 98.9082C133.135 99.1699 132.881 99.3711 132.58 99.5117C132.279 99.6484 131.928 99.7168 131.525 99.7168C131.154 99.7168 130.814 99.6367 130.506 99.4766C130.201 99.3164 129.938 99.0918 129.715 98.8027C129.496 98.5137 129.326 98.1738 129.205 97.7832C129.088 97.3887 129.029 96.9609 129.029 96.5ZM130.119 96.377V96.5C130.119 96.8164 130.15 97.1133 130.213 97.3906C130.279 97.668 130.381 97.9121 130.518 98.123C130.654 98.334 130.828 98.5 131.039 98.6211C131.25 98.7383 131.502 98.7969 131.795 98.7969C132.154 98.7969 132.449 98.7207 132.68 98.5684C132.914 98.416 133.102 98.2148 133.242 97.9648C133.383 97.7148 133.492 97.4434 133.57 97.1504V95.7383C133.523 95.5234 133.455 95.3164 133.365 95.1172C133.279 94.9141 133.166 94.7344 133.025 94.5781C132.889 94.418 132.719 94.291 132.516 94.1973C132.316 94.1035 132.08 94.0566 131.807 94.0566C131.51 94.0566 131.254 94.1191 131.039 94.2441C130.828 94.3652 130.654 94.5332 130.518 94.748C130.381 94.959 130.279 95.2051 130.213 95.4863C130.15 95.7637 130.119 96.0605 130.119 96.377ZM138.703 99.7168C138.262 99.7168 137.861 99.6426 137.502 99.4941C137.146 99.3418 136.84 99.1289 136.582 98.8555C136.328 98.582 136.133 98.2578 135.996 97.8828C135.859 97.5078 135.791 97.0977 135.791 96.6523V96.4062C135.791 95.8906 135.867 95.4316 136.02 95.0293C136.172 94.623 136.379 94.2793 136.641 93.998C136.902 93.7168 137.199 93.5039 137.531 93.3594C137.863 93.2148 138.207 93.1426 138.562 93.1426C139.016 93.1426 139.406 93.2207 139.734 93.377C140.066 93.5332 140.338 93.752 140.549 94.0332C140.76 94.3105 140.916 94.6387 141.018 95.0176C141.119 95.3926 141.17 95.8027 141.17 96.248V96.7344H136.436V95.8496H140.086V95.7676C140.07 95.4863 140.012 95.2129 139.91 94.9473C139.812 94.6816 139.656 94.4629 139.441 94.291C139.227 94.1191 138.934 94.0332 138.562 94.0332C138.316 94.0332 138.09 94.0859 137.883 94.1914C137.676 94.293 137.498 94.4453 137.35 94.6484C137.201 94.8516 137.086 95.0996 137.004 95.3926C136.922 95.6855 136.881 96.0234 136.881 96.4062V96.6523C136.881 96.9531 136.922 97.2363 137.004 97.502C137.09 97.7637 137.213 97.9941 137.373 98.1934C137.537 98.3926 137.734 98.5488 137.965 98.6621C138.199 98.7754 138.465 98.832 138.762 98.832C139.145 98.832 139.469 98.7539 139.734 98.5977C140 98.4414 140.232 98.2324 140.432 97.9707L141.088 98.4922C140.951 98.6992 140.777 98.8965 140.566 99.084C140.355 99.2715 140.096 99.4238 139.787 99.541C139.482 99.6582 139.121 99.7168 138.703 99.7168Z" fill="#101010" fill-opacity="0.9"/>
<g opacity="0.4" filter="url(#filter4_f_3514_64410)">
<circle cx="158" cy="95.5996" r="6" fill="#7D5E41"/>
</g>
<circle cx="158" cy="95.5996" r="3" fill="#7D5E41" stroke="#7D5E41"/>
<path d="M173.271 91.0215V99.5996H172.188V92.375L170.002 93.1719V92.1934L173.102 91.0215H173.271ZM181.814 94.6543V95.9551C181.814 96.6543 181.752 97.2441 181.627 97.7246C181.502 98.2051 181.322 98.5918 181.088 98.8848C180.854 99.1777 180.57 99.3906 180.238 99.5234C179.91 99.6523 179.539 99.7168 179.125 99.7168C178.797 99.7168 178.494 99.6758 178.217 99.5938C177.939 99.5117 177.689 99.3809 177.467 99.2012C177.248 99.0176 177.061 98.7793 176.904 98.4863C176.748 98.1934 176.629 97.8379 176.547 97.4199C176.465 97.002 176.424 96.5137 176.424 95.9551V94.6543C176.424 93.9551 176.486 93.3691 176.611 92.8965C176.74 92.4238 176.922 92.0449 177.156 91.7598C177.391 91.4707 177.672 91.2637 178 91.1387C178.332 91.0137 178.703 90.9512 179.113 90.9512C179.445 90.9512 179.75 90.9922 180.027 91.0742C180.309 91.1523 180.559 91.2793 180.777 91.4551C180.996 91.627 181.182 91.8574 181.334 92.1465C181.49 92.4316 181.609 92.7812 181.691 93.1953C181.773 93.6094 181.814 94.0957 181.814 94.6543ZM180.725 96.1309V94.4727C180.725 94.0898 180.701 93.7539 180.654 93.4648C180.611 93.1719 180.547 92.9219 180.461 92.7148C180.375 92.5078 180.266 92.3398 180.133 92.2109C180.004 92.082 179.854 91.9883 179.682 91.9297C179.514 91.8672 179.324 91.8359 179.113 91.8359C178.855 91.8359 178.627 91.8848 178.428 91.9824C178.229 92.0762 178.061 92.2266 177.924 92.4336C177.791 92.6406 177.689 92.9121 177.619 93.248C177.549 93.584 177.514 93.9922 177.514 94.4727V96.1309C177.514 96.5137 177.535 96.8516 177.578 97.1445C177.625 97.4375 177.693 97.6914 177.783 97.9062C177.873 98.1172 177.982 98.291 178.111 98.4277C178.24 98.5645 178.389 98.666 178.557 98.7324C178.729 98.7949 178.918 98.8262 179.125 98.8262C179.391 98.8262 179.623 98.7754 179.822 98.6738C180.021 98.5723 180.188 98.4141 180.32 98.1992C180.457 97.9805 180.559 97.7012 180.625 97.3613C180.691 97.0176 180.725 96.6074 180.725 96.1309ZM188.564 94.6543V95.9551C188.564 96.6543 188.502 97.2441 188.377 97.7246C188.252 98.2051 188.072 98.5918 187.838 98.8848C187.604 99.1777 187.32 99.3906 186.988 99.5234C186.66 99.6523 186.289 99.7168 185.875 99.7168C185.547 99.7168 185.244 99.6758 184.967 99.5938C184.689 99.5117 184.439 99.3809 184.217 99.2012C183.998 99.0176 183.811 98.7793 183.654 98.4863C183.498 98.1934 183.379 97.8379 183.297 97.4199C183.215 97.002 183.174 96.5137 183.174 95.9551V94.6543C183.174 93.9551 183.236 93.3691 183.361 92.8965C183.49 92.4238 183.672 92.0449 183.906 91.7598C184.141 91.4707 184.422 91.2637 184.75 91.1387C185.082 91.0137 185.453 90.9512 185.863 90.9512C186.195 90.9512 186.5 90.9922 186.777 91.0742C187.059 91.1523 187.309 91.2793 187.527 91.4551C187.746 91.627 187.932 91.8574 188.084 92.1465C188.24 92.4316 188.359 92.7812 188.441 93.1953C188.523 93.6094 188.564 94.0957 188.564 94.6543ZM187.475 96.1309V94.4727C187.475 94.0898 187.451 93.7539 187.404 93.4648C187.361 93.1719 187.297 92.9219 187.211 92.7148C187.125 92.5078 187.016 92.3398 186.883 92.2109C186.754 92.082 186.604 91.9883 186.432 91.9297C186.264 91.8672 186.074 91.8359 185.863 91.8359C185.605 91.8359 185.377 91.8848 185.178 91.9824C184.979 92.0762 184.811 92.2266 184.674 92.4336C184.541 92.6406 184.439 92.9121 184.369 93.248C184.299 93.584 184.264 93.9922 184.264 94.4727V96.1309C184.264 96.5137 184.285 96.8516 184.328 97.1445C184.375 97.4375 184.443 97.6914 184.533 97.9062C184.623 98.1172 184.732 98.291 184.861 98.4277C184.99 98.5645 185.139 98.666 185.307 98.7324C185.479 98.7949 185.668 98.8262 185.875 98.8262C186.141 98.8262 186.373 98.7754 186.572 98.6738C186.771 98.5723 186.938 98.4141 187.07 98.1992C187.207 97.9805 187.309 97.7012 187.375 97.3613C187.441 97.0176 187.475 96.6074 187.475 96.1309ZM189.865 93.1602V92.709C189.865 92.3848 189.936 92.0898 190.076 91.8242C190.217 91.5586 190.418 91.3457 190.68 91.1855C190.941 91.0254 191.252 90.9453 191.611 90.9453C191.979 90.9453 192.291 91.0254 192.549 91.1855C192.811 91.3457 193.012 91.5586 193.152 91.8242C193.293 92.0898 193.363 92.3848 193.363 92.709V93.1602C193.363 93.4766 193.293 93.7676 193.152 94.0332C193.016 94.2988 192.816 94.5117 192.555 94.6719C192.297 94.832 191.986 94.9121 191.623 94.9121C191.26 94.9121 190.945 94.832 190.68 94.6719C190.418 94.5117 190.217 94.2988 190.076 94.0332C189.936 93.7676 189.865 93.4766 189.865 93.1602ZM190.68 92.709V93.1602C190.68 93.3398 190.713 93.5098 190.779 93.6699C190.85 93.8301 190.955 93.9609 191.096 94.0625C191.236 94.1602 191.412 94.209 191.623 94.209C191.834 94.209 192.008 94.1602 192.145 94.0625C192.281 93.9609 192.383 93.8301 192.449 93.6699C192.516 93.5098 192.549 93.3398 192.549 93.1602V92.709C192.549 92.5254 192.514 92.3535 192.443 92.1934C192.377 92.0293 192.273 91.8984 192.133 91.8008C191.996 91.6992 191.822 91.6484 191.611 91.6484C191.404 91.6484 191.23 91.6992 191.09 91.8008C190.953 91.8984 190.85 92.0293 190.779 92.1934C190.713 92.3535 190.68 92.5254 190.68 92.709ZM194.02 97.9648V97.5078C194.02 97.1875 194.09 96.8945 194.23 96.6289C194.371 96.3633 194.572 96.1504 194.834 95.9902C195.096 95.8301 195.406 95.75 195.766 95.75C196.133 95.75 196.445 95.8301 196.703 95.9902C196.965 96.1504 197.166 96.3633 197.307 96.6289C197.447 96.8945 197.518 97.1875 197.518 97.5078V97.9648C197.518 98.2852 197.447 98.5781 197.307 98.8438C197.17 99.1094 196.971 99.3223 196.709 99.4824C196.451 99.6426 196.141 99.7227 195.777 99.7227C195.414 99.7227 195.102 99.6426 194.84 99.4824C194.578 99.3223 194.375 99.1094 194.23 98.8438C194.09 98.5781 194.02 98.2852 194.02 97.9648ZM194.834 97.5078V97.9648C194.834 98.1445 194.867 98.3164 194.934 98.4805C195.004 98.6406 195.109 98.7715 195.25 98.873C195.391 98.9707 195.566 99.0195 195.777 99.0195C195.988 99.0195 196.162 98.9707 196.299 98.873C196.439 98.7715 196.543 98.6406 196.609 98.4805C196.676 98.3203 196.709 98.1484 196.709 97.9648V97.5078C196.709 97.3242 196.674 97.1523 196.604 96.9922C196.537 96.832 196.434 96.7031 196.293 96.6055C196.156 96.5039 195.98 96.4531 195.766 96.4531C195.559 96.4531 195.385 96.5039 195.244 96.6055C195.107 96.7031 195.004 96.832 194.934 96.9922C194.867 97.1523 194.834 97.3242 194.834 97.5078ZM196.035 92.2812L191.869 98.9492L191.26 98.5625L195.426 91.8945L196.035 92.2812ZM203.137 91.0684V99.5996H202.006V91.0684H203.137ZM206.711 94.9062V95.832H202.891V94.9062H206.711ZM207.291 91.0684V91.9941H202.891V91.0684H207.291ZM209.406 94.2559V99.5996H208.322V93.2598H209.377L209.406 94.2559ZM211.387 93.2246L211.381 94.2324C211.291 94.2129 211.205 94.2012 211.123 94.1973C211.045 94.1895 210.955 94.1855 210.854 94.1855C210.604 94.1855 210.383 94.2246 210.191 94.3027C210 94.3809 209.838 94.4902 209.705 94.6309C209.572 94.7715 209.467 94.9395 209.389 95.1348C209.314 95.3262 209.266 95.5371 209.242 95.7676L208.938 95.9434C208.938 95.5605 208.975 95.2012 209.049 94.8652C209.127 94.5293 209.246 94.2324 209.406 93.9746C209.566 93.7129 209.77 93.5098 210.016 93.3652C210.266 93.2168 210.562 93.1426 210.906 93.1426C210.984 93.1426 211.074 93.1523 211.176 93.1719C211.277 93.1875 211.348 93.2051 211.387 93.2246ZM214.902 99.7168C214.461 99.7168 214.061 99.6426 213.701 99.4941C213.346 99.3418 213.039 99.1289 212.781 98.8555C212.527 98.582 212.332 98.2578 212.195 97.8828C212.059 97.5078 211.99 97.0977 211.99 96.6523V96.4062C211.99 95.8906 212.066 95.4316 212.219 95.0293C212.371 94.623 212.578 94.2793 212.84 93.998C213.102 93.7168 213.398 93.5039 213.73 93.3594C214.062 93.2148 214.406 93.1426 214.762 93.1426C215.215 93.1426 215.605 93.2207 215.934 93.377C216.266 93.5332 216.537 93.752 216.748 94.0332C216.959 94.3105 217.115 94.6387 217.217 95.0176C217.318 95.3926 217.369 95.8027 217.369 96.248V96.7344H212.635V95.8496H216.285V95.7676C216.27 95.4863 216.211 95.2129 216.109 94.9473C216.012 94.6816 215.855 94.4629 215.641 94.291C215.426 94.1191 215.133 94.0332 214.762 94.0332C214.516 94.0332 214.289 94.0859 214.082 94.1914C213.875 94.293 213.697 94.4453 213.549 94.6484C213.4 94.8516 213.285 95.0996 213.203 95.3926C213.121 95.6855 213.08 96.0234 213.08 96.4062V96.6523C213.08 96.9531 213.121 97.2363 213.203 97.502C213.289 97.7637 213.412 97.9941 213.572 98.1934C213.736 98.3926 213.934 98.5488 214.164 98.6621C214.398 98.7754 214.664 98.832 214.961 98.832C215.344 98.832 215.668 98.7539 215.934 98.5977C216.199 98.4414 216.432 98.2324 216.631 97.9707L217.287 98.4922C217.15 98.6992 216.977 98.8965 216.766 99.084C216.555 99.2715 216.295 99.4238 215.986 99.541C215.682 99.6582 215.32 99.7168 214.902 99.7168ZM221.266 99.7168C220.824 99.7168 220.424 99.6426 220.064 99.4941C219.709 99.3418 219.402 99.1289 219.145 98.8555C218.891 98.582 218.695 98.2578 218.559 97.8828C218.422 97.5078 218.354 97.0977 218.354 96.6523V96.4062C218.354 95.8906 218.43 95.4316 218.582 95.0293C218.734 94.623 218.941 94.2793 219.203 93.998C219.465 93.7168 219.762 93.5039 220.094 93.3594C220.426 93.2148 220.77 93.1426 221.125 93.1426C221.578 93.1426 221.969 93.2207 222.297 93.377C222.629 93.5332 222.9 93.752 223.111 94.0332C223.322 94.3105 223.479 94.6387 223.58 95.0176C223.682 95.3926 223.732 95.8027 223.732 96.248V96.7344H218.998V95.8496H222.648V95.7676C222.633 95.4863 222.574 95.2129 222.473 94.9473C222.375 94.6816 222.219 94.4629 222.004 94.291C221.789 94.1191 221.496 94.0332 221.125 94.0332C220.879 94.0332 220.652 94.0859 220.445 94.1914C220.238 94.293 220.061 94.4453 219.912 94.6484C219.764 94.8516 219.648 95.0996 219.566 95.3926C219.484 95.6855 219.443 96.0234 219.443 96.4062V96.6523C219.443 96.9531 219.484 97.2363 219.566 97.502C219.652 97.7637 219.775 97.9941 219.936 98.1934C220.1 98.3926 220.297 98.5488 220.527 98.6621C220.762 98.7754 221.027 98.832 221.324 98.832C221.707 98.832 222.031 98.7539 222.297 98.5977C222.562 98.4414 222.795 98.2324 222.994 97.9707L223.65 98.4922C223.514 98.6992 223.34 98.8965 223.129 99.084C222.918 99.2715 222.658 99.4238 222.35 99.541C222.045 99.6582 221.684 99.7168 221.266 99.7168Z" fill="#101010" fill-opacity="0.9"/>
<g opacity="0.4" filter="url(#filter5_f_3514_64410)">
<circle cx="241" cy="95.5996" r="6" fill="#7D5E41"/>
</g>
<circle cx="241" cy="95.5996" r="3" fill="#7D5E41" stroke="#7D5E41"/>
<path d="M259.553 91.0684V99.5996H258.416L254.121 93.0195V99.5996H252.99V91.0684H254.121L258.434 97.666V91.0684H259.553ZM261.105 96.5V96.3652C261.105 95.9082 261.172 95.4844 261.305 95.0938C261.438 94.6992 261.629 94.3574 261.879 94.0684C262.129 93.7754 262.432 93.5488 262.787 93.3887C263.143 93.2246 263.541 93.1426 263.982 93.1426C264.428 93.1426 264.828 93.2246 265.184 93.3887C265.543 93.5488 265.848 93.7754 266.098 94.0684C266.352 94.3574 266.545 94.6992 266.678 95.0938C266.811 95.4844 266.877 95.9082 266.877 96.3652V96.5C266.877 96.957 266.811 97.3809 266.678 97.7715C266.545 98.1621 266.352 98.5039 266.098 98.7969C265.848 99.0859 265.545 99.3125 265.189 99.4766C264.838 99.6367 264.439 99.7168 263.994 99.7168C263.549 99.7168 263.148 99.6367 262.793 99.4766C262.438 99.3125 262.133 99.0859 261.879 98.7969C261.629 98.5039 261.438 98.1621 261.305 97.7715C261.172 97.3809 261.105 96.957 261.105 96.5ZM262.189 96.3652V96.5C262.189 96.8164 262.227 97.1152 262.301 97.3965C262.375 97.6738 262.486 97.9199 262.635 98.1348C262.787 98.3496 262.977 98.5195 263.203 98.6445C263.43 98.7656 263.693 98.8262 263.994 98.8262C264.291 98.8262 264.551 98.7656 264.773 98.6445C265 98.5195 265.188 98.3496 265.336 98.1348C265.484 97.9199 265.596 97.6738 265.67 97.3965C265.748 97.1152 265.787 96.8164 265.787 96.5V96.3652C265.787 96.0527 265.748 95.7578 265.67 95.4805C265.596 95.1992 265.482 94.9512 265.33 94.7363C265.182 94.5176 264.994 94.3457 264.768 94.2207C264.545 94.0957 264.283 94.0332 263.982 94.0332C263.686 94.0332 263.424 94.0957 263.197 94.2207C262.975 94.3457 262.787 94.5176 262.635 94.7363C262.486 94.9512 262.375 95.1992 262.301 95.4805C262.227 95.7578 262.189 96.0527 262.189 96.3652ZM274.535 91.8242L271.711 99.5996H270.557L273.809 91.0684H274.553L274.535 91.8242ZM276.902 99.5996L274.072 91.8242L274.055 91.0684H274.799L278.062 99.5996H276.902ZM276.756 96.4414V97.3672H271.963V96.4414H276.756ZM283.037 98.3691V90.5996H284.127V99.5996H283.131L283.037 98.3691ZM278.771 96.5V96.377C278.771 95.8926 278.83 95.4531 278.947 95.0586C279.068 94.6602 279.238 94.3184 279.457 94.0332C279.68 93.748 279.943 93.5293 280.248 93.377C280.557 93.2207 280.9 93.1426 281.279 93.1426C281.678 93.1426 282.025 93.2129 282.322 93.3535C282.623 93.4902 282.877 93.6914 283.084 93.957C283.295 94.2188 283.461 94.5352 283.582 94.9062C283.703 95.2773 283.787 95.6973 283.834 96.166V96.7051C283.791 97.1699 283.707 97.5879 283.582 97.959C283.461 98.3301 283.295 98.6465 283.084 98.9082C282.877 99.1699 282.623 99.3711 282.322 99.5117C282.021 99.6484 281.67 99.7168 281.268 99.7168C280.896 99.7168 280.557 99.6367 280.248 99.4766C279.943 99.3164 279.68 99.0918 279.457 98.8027C279.238 98.5137 279.068 98.1738 278.947 97.7832C278.83 97.3887 278.771 96.9609 278.771 96.5ZM279.861 96.377V96.5C279.861 96.8164 279.893 97.1133 279.955 97.3906C280.021 97.668 280.123 97.9121 280.26 98.123C280.396 98.334 280.57 98.5 280.781 98.6211C280.992 98.7383 281.244 98.7969 281.537 98.7969C281.896 98.7969 282.191 98.7207 282.422 98.5684C282.656 98.416 282.844 98.2148 282.984 97.9648C283.125 97.7148 283.234 97.4434 283.312 97.1504V95.7383C283.266 95.5234 283.197 95.3164 283.107 95.1172C283.021 94.9141 282.908 94.7344 282.768 94.5781C282.631 94.418 282.461 94.291 282.258 94.1973C282.059 94.1035 281.822 94.0566 281.549 94.0566C281.252 94.0566 280.996 94.1191 280.781 94.2441C280.57 94.3652 280.396 94.5332 280.26 94.748C280.123 94.959 280.021 95.2051 279.955 95.4863C279.893 95.7637 279.861 96.0605 279.861 96.377ZM289.506 97.918C289.506 97.7617 289.471 97.6172 289.4 97.4844C289.334 97.3477 289.195 97.2246 288.984 97.1152C288.777 97.002 288.465 96.9043 288.047 96.8223C287.695 96.748 287.377 96.6602 287.092 96.5586C286.811 96.457 286.57 96.334 286.371 96.1895C286.176 96.0449 286.025 95.875 285.92 95.6797C285.814 95.4844 285.762 95.2559 285.762 94.9941C285.762 94.7441 285.816 94.5078 285.926 94.2852C286.039 94.0625 286.197 93.8652 286.4 93.6934C286.607 93.5215 286.855 93.3867 287.145 93.2891C287.434 93.1914 287.756 93.1426 288.111 93.1426C288.619 93.1426 289.053 93.2324 289.412 93.4121C289.771 93.5918 290.047 93.832 290.238 94.1328C290.43 94.4297 290.525 94.7598 290.525 95.123H289.441C289.441 94.9473 289.389 94.7773 289.283 94.6133C289.182 94.4453 289.031 94.3066 288.832 94.1973C288.637 94.0879 288.396 94.0332 288.111 94.0332C287.811 94.0332 287.566 94.0801 287.379 94.1738C287.195 94.2637 287.061 94.3789 286.975 94.5195C286.893 94.6602 286.852 94.8086 286.852 94.9648C286.852 95.082 286.871 95.1875 286.91 95.2812C286.953 95.3711 287.027 95.4551 287.133 95.5332C287.238 95.6074 287.387 95.6777 287.578 95.7441C287.77 95.8105 288.014 95.877 288.311 95.9434C288.83 96.0605 289.258 96.2012 289.594 96.3652C289.93 96.5293 290.18 96.7305 290.344 96.9688C290.508 97.207 290.59 97.4961 290.59 97.8359C290.59 98.1133 290.531 98.3672 290.414 98.5977C290.301 98.8281 290.135 99.0273 289.916 99.1953C289.701 99.3594 289.443 99.4883 289.143 99.582C288.846 99.6719 288.512 99.7168 288.141 99.7168C287.582 99.7168 287.109 99.6172 286.723 99.418C286.336 99.2188 286.043 98.9609 285.844 98.6445C285.645 98.3281 285.545 97.9941 285.545 97.6426H286.635C286.65 97.9395 286.736 98.1758 286.893 98.3516C287.049 98.5234 287.24 98.6465 287.467 98.7207C287.693 98.791 287.918 98.8262 288.141 98.8262C288.438 98.8262 288.686 98.7871 288.885 98.709C289.088 98.6309 289.242 98.5234 289.348 98.3867C289.453 98.25 289.506 98.0938 289.506 97.918Z" fill="#101010" fill-opacity="0.9"/>
<path d="M18.7578 34.7949L21.0234 25.2246H22.2891L22.5781 26.8184L20.1641 36.5996H18.8047L18.7578 34.7949ZM17.5938 25.2246L19.4688 34.7949L19.3125 36.5996H17.7969L15.2734 25.2246H17.5938ZM24.5703 34.7559L26.4219 25.2246H28.7422L26.2266 36.5996H24.7109L24.5703 34.7559ZM23 25.2246L25.2812 34.834L25.2188 36.5996H23.8594L21.4297 26.8105L21.7422 25.2246H23ZM32.0703 24.5996V36.5996H29.8203V24.5996H32.0703ZM31.75 32.0762H31.1328C31.138 31.4876 31.2161 30.946 31.3672 30.4512C31.5182 29.9512 31.7344 29.5189 32.0156 29.1543C32.2969 28.7845 32.6328 28.498 33.0234 28.2949C33.4193 28.0918 33.8568 27.9902 34.3359 27.9902C34.7526 27.9902 35.1302 28.0501 35.4688 28.1699C35.8125 28.2845 36.1068 28.472 36.3516 28.7324C36.6016 28.9876 36.7943 29.3236 36.9297 29.7402C37.0651 30.1569 37.1328 30.6621 37.1328 31.2559V36.5996H34.8672V31.2402C34.8672 30.8652 34.8125 30.571 34.7031 30.3574C34.599 30.1387 34.4453 29.985 34.2422 29.8965C34.0443 29.8027 33.7995 29.7559 33.5078 29.7559C33.1849 29.7559 32.9089 29.8158 32.6797 29.9355C32.4557 30.0553 32.276 30.222 32.1406 30.4355C32.0052 30.6439 31.9062 30.8887 31.8438 31.1699C31.7812 31.4512 31.75 31.7533 31.75 32.0762ZM43.4062 34.6934V30.9277C43.4062 30.6569 43.362 30.4251 43.2734 30.2324C43.1849 30.0345 43.0469 29.8809 42.8594 29.7715C42.6771 29.6621 42.4401 29.6074 42.1484 29.6074C41.8984 29.6074 41.6823 29.6517 41.5 29.7402C41.3177 29.8236 41.1771 29.946 41.0781 30.1074C40.9792 30.2637 40.9297 30.4486 40.9297 30.6621H38.6797C38.6797 30.3027 38.763 29.9616 38.9297 29.6387C39.0964 29.3158 39.3385 29.0319 39.6562 28.7871C39.974 28.5371 40.3516 28.3418 40.7891 28.2012C41.2318 28.0605 41.7266 27.9902 42.2734 27.9902C42.9297 27.9902 43.513 28.0996 44.0234 28.3184C44.5339 28.5371 44.9349 28.8652 45.2266 29.3027C45.5234 29.7402 45.6719 30.2871 45.6719 30.9434V34.5605C45.6719 35.0241 45.7005 35.4043 45.7578 35.7012C45.8151 35.9928 45.8984 36.248 46.0078 36.4668V36.5996H43.7344C43.625 36.3704 43.5417 36.084 43.4844 35.7402C43.4323 35.3913 43.4062 35.0423 43.4062 34.6934ZM43.7031 31.4512L43.7188 32.7246H42.4609C42.1641 32.7246 41.9062 32.7585 41.6875 32.8262C41.4688 32.8939 41.2891 32.9902 41.1484 33.1152C41.0078 33.235 40.9036 33.3757 40.8359 33.5371C40.7734 33.6986 40.7422 33.8757 40.7422 34.0684C40.7422 34.2611 40.7865 34.4355 40.875 34.5918C40.9635 34.7428 41.0911 34.8626 41.2578 34.9512C41.4245 35.0345 41.6198 35.0762 41.8438 35.0762C42.1823 35.0762 42.4766 35.0085 42.7266 34.873C42.9766 34.7376 43.1693 34.571 43.3047 34.373C43.4453 34.1751 43.5182 33.9876 43.5234 33.8105L44.1172 34.7637C44.0339 34.9772 43.9193 35.1986 43.7734 35.4277C43.6328 35.6569 43.4531 35.873 43.2344 36.0762C43.0156 36.2741 42.7526 36.4382 42.4453 36.5684C42.138 36.6934 41.7734 36.7559 41.3516 36.7559C40.8151 36.7559 40.3281 36.6491 39.8906 36.4355C39.4583 36.2168 39.1146 35.9173 38.8594 35.5371C38.6094 35.1517 38.4844 34.7142 38.4844 34.2246C38.4844 33.7819 38.5677 33.3887 38.7344 33.0449C38.901 32.7012 39.1458 32.4121 39.4688 32.1777C39.7969 31.9382 40.2057 31.7585 40.6953 31.6387C41.1849 31.5137 41.7526 31.4512 42.3984 31.4512H43.7031ZM51.5469 28.1465V29.7402H46.625V28.1465H51.5469ZM47.8438 26.0605H50.0938V34.0527C50.0938 34.2975 50.125 34.485 50.1875 34.6152C50.2552 34.7454 50.3542 34.8366 50.4844 34.8887C50.6146 34.9355 50.7786 34.959 50.9766 34.959C51.1172 34.959 51.2422 34.9538 51.3516 34.9434C51.4661 34.9277 51.5625 34.9121 51.6406 34.8965L51.6484 36.5527C51.4557 36.6152 51.2474 36.6647 51.0234 36.7012C50.7995 36.7376 50.5521 36.7559 50.2812 36.7559C49.7865 36.7559 49.3542 36.6751 48.9844 36.5137C48.6198 36.347 48.3385 36.0814 48.1406 35.7168C47.9427 35.3522 47.8438 34.873 47.8438 34.2793V26.0605ZM59.6953 34.7949L61.9609 25.2246H63.2266L63.5156 26.8184L61.1016 36.5996H59.7422L59.6953 34.7949ZM58.5312 25.2246L60.4062 34.7949L60.25 36.5996H58.7344L56.2109 25.2246H58.5312ZM65.5078 34.7559L67.3594 25.2246H69.6797L67.1641 36.5996H65.6484L65.5078 34.7559ZM63.9375 25.2246L66.2188 34.834L66.1562 36.5996H64.7969L62.3672 26.8105L62.6797 25.2246H63.9375ZM74.4531 36.7559C73.7969 36.7559 73.2083 36.6517 72.6875 36.4434C72.1667 36.2298 71.724 35.9355 71.3594 35.5605C71 35.1855 70.724 34.7507 70.5312 34.2559C70.3385 33.7559 70.2422 33.2246 70.2422 32.6621V32.3496C70.2422 31.709 70.3333 31.123 70.5156 30.5918C70.6979 30.0605 70.9583 29.5996 71.2969 29.209C71.6406 28.8184 72.0573 28.5189 72.5469 28.3105C73.0365 28.097 73.5885 27.9902 74.2031 27.9902C74.8021 27.9902 75.3333 28.0892 75.7969 28.2871C76.2604 28.485 76.6484 28.7663 76.9609 29.1309C77.2786 29.4954 77.5182 29.9329 77.6797 30.4434C77.8411 30.9486 77.9219 31.5111 77.9219 32.1309V33.0684H71.2031V31.5684H75.7109V31.3965C75.7109 31.084 75.6536 30.8053 75.5391 30.5605C75.4297 30.3105 75.263 30.1126 75.0391 29.9668C74.8151 29.821 74.5286 29.748 74.1797 29.748C73.8828 29.748 73.6276 29.8132 73.4141 29.9434C73.2005 30.0736 73.026 30.2559 72.8906 30.4902C72.7604 30.7246 72.6615 31.0007 72.5938 31.3184C72.5312 31.6309 72.5 31.9746 72.5 32.3496V32.6621C72.5 33.0007 72.5469 33.3132 72.6406 33.5996C72.7396 33.8861 72.8776 34.1335 73.0547 34.3418C73.237 34.5501 73.4557 34.7116 73.7109 34.8262C73.9714 34.9408 74.2656 34.998 74.5938 34.998C75 34.998 75.3776 34.9199 75.7266 34.7637C76.0807 34.6022 76.3854 34.36 76.6406 34.0371L77.7344 35.2246C77.5573 35.4798 77.3151 35.7246 77.0078 35.959C76.7057 36.1934 76.3411 36.3861 75.9141 36.5371C75.487 36.6829 75 36.7559 74.4531 36.7559ZM87.7578 32.5449H84.8594V30.7168H87.7578C88.2057 30.7168 88.5703 30.6439 88.8516 30.498C89.1328 30.347 89.3385 30.1387 89.4688 29.873C89.599 29.6074 89.6641 29.3079 89.6641 28.9746C89.6641 28.6361 89.599 28.321 89.4688 28.0293C89.3385 27.7376 89.1328 27.5033 88.8516 27.3262C88.5703 27.1491 88.2057 27.0605 87.7578 27.0605H85.6719V36.5996H83.3281V25.2246H87.7578C88.6484 25.2246 89.4115 25.3861 90.0469 25.709C90.6875 26.0267 91.1771 26.4668 91.5156 27.0293C91.8542 27.5918 92.0234 28.235 92.0234 28.959C92.0234 29.6934 91.8542 30.3288 91.5156 30.8652C91.1771 31.4017 90.6875 31.8158 90.0469 32.1074C89.4115 32.3991 88.6484 32.5449 87.7578 32.5449ZM95.75 29.9902V36.5996H93.5V28.1465H95.6172L95.75 29.9902ZM98.2969 28.0918L98.2578 30.1777C98.1484 30.1621 98.0156 30.1491 97.8594 30.1387C97.7083 30.123 97.5703 30.1152 97.4453 30.1152C97.1276 30.1152 96.8516 30.1569 96.6172 30.2402C96.388 30.3184 96.1953 30.4355 96.0391 30.5918C95.888 30.748 95.7734 30.9382 95.6953 31.1621C95.6224 31.3861 95.5807 31.6413 95.5703 31.9277L95.1172 31.7871C95.1172 31.2402 95.1719 30.7376 95.2812 30.2793C95.3906 29.8158 95.5495 29.4121 95.7578 29.0684C95.9714 28.7246 96.2318 28.459 96.5391 28.2715C96.8464 28.084 97.1979 27.9902 97.5938 27.9902C97.7188 27.9902 97.8464 28.0007 97.9766 28.0215C98.1068 28.0371 98.2135 28.0605 98.2969 28.0918ZM98.7656 32.459V32.2949C98.7656 31.6751 98.8542 31.1048 99.0312 30.584C99.2083 30.0579 99.4661 29.6022 99.8047 29.2168C100.143 28.8314 100.56 28.5319 101.055 28.3184C101.549 28.0996 102.117 27.9902 102.758 27.9902C103.398 27.9902 103.969 28.0996 104.469 28.3184C104.969 28.5319 105.388 28.8314 105.727 29.2168C106.07 29.6022 106.331 30.0579 106.508 30.584C106.685 31.1048 106.773 31.6751 106.773 32.2949V32.459C106.773 33.0736 106.685 33.6439 106.508 34.1699C106.331 34.6908 106.07 35.1465 105.727 35.5371C105.388 35.9225 104.971 36.222 104.477 36.4355C103.982 36.6491 103.414 36.7559 102.773 36.7559C102.133 36.7559 101.562 36.6491 101.062 36.4355C100.568 36.222 100.148 35.9225 99.8047 35.5371C99.4661 35.1465 99.2083 34.6908 99.0312 34.1699C98.8542 33.6439 98.7656 33.0736 98.7656 32.459ZM101.016 32.2949V32.459C101.016 32.8132 101.047 33.1439 101.109 33.4512C101.172 33.7585 101.271 34.0293 101.406 34.2637C101.547 34.4928 101.729 34.6725 101.953 34.8027C102.177 34.9329 102.451 34.998 102.773 34.998C103.086 34.998 103.354 34.9329 103.578 34.8027C103.802 34.6725 103.982 34.4928 104.117 34.2637C104.253 34.0293 104.352 33.7585 104.414 33.4512C104.482 33.1439 104.516 32.8132 104.516 32.459V32.2949C104.516 31.9512 104.482 31.6283 104.414 31.3262C104.352 31.0189 104.25 30.748 104.109 30.5137C103.974 30.2741 103.794 30.0866 103.57 29.9512C103.346 29.8158 103.076 29.748 102.758 29.748C102.44 29.748 102.169 29.8158 101.945 29.9512C101.727 30.0866 101.547 30.2741 101.406 30.5137C101.271 30.748 101.172 31.0189 101.109 31.3262C101.047 31.6283 101.016 31.9512 101.016 32.2949ZM110.906 34.959L112.781 28.1465H115.133L112.281 36.5996H110.859L110.906 34.959ZM109.617 28.1465L111.5 34.9668L111.539 36.5996H110.109L107.258 28.1465H109.617ZM118.516 28.1465V36.5996H116.258V28.1465H118.516ZM116.117 25.9434C116.117 25.6152 116.232 25.3444 116.461 25.1309C116.69 24.9173 116.997 24.8105 117.383 24.8105C117.763 24.8105 118.068 24.9173 118.297 25.1309C118.531 25.3444 118.648 25.6152 118.648 25.9434C118.648 26.2715 118.531 26.5423 118.297 26.7559C118.068 26.9694 117.763 27.0762 117.383 27.0762C116.997 27.0762 116.69 26.9694 116.461 26.7559C116.232 26.5423 116.117 26.2715 116.117 25.9434ZM125.367 34.7559V24.5996H127.633V36.5996H125.594L125.367 34.7559ZM120.023 32.4746V32.3105C120.023 31.6647 120.096 31.0788 120.242 30.5527C120.388 30.0215 120.602 29.5658 120.883 29.1855C121.164 28.8053 121.51 28.5111 121.922 28.3027C122.333 28.0944 122.802 27.9902 123.328 27.9902C123.823 27.9902 124.255 28.0944 124.625 28.3027C125 28.5111 125.318 28.8079 125.578 29.1934C125.844 29.5736 126.057 30.0241 126.219 30.5449C126.38 31.0605 126.497 31.6257 126.57 32.2402V32.5996C126.497 33.1882 126.38 33.735 126.219 34.2402C126.057 34.7454 125.844 35.1882 125.578 35.5684C125.318 35.9434 125 36.235 124.625 36.4434C124.25 36.6517 123.812 36.7559 123.312 36.7559C122.786 36.7559 122.318 36.6491 121.906 36.4355C121.5 36.222 121.156 35.9225 120.875 35.5371C120.599 35.1517 120.388 34.6986 120.242 34.1777C120.096 33.6569 120.023 33.0892 120.023 32.4746ZM122.273 32.3105V32.4746C122.273 32.8236 122.299 33.1491 122.352 33.4512C122.409 33.7533 122.5 34.0215 122.625 34.2559C122.755 34.485 122.922 34.6647 123.125 34.7949C123.333 34.9199 123.586 34.9824 123.883 34.9824C124.268 34.9824 124.586 34.8965 124.836 34.7246C125.086 34.5475 125.276 34.3053 125.406 33.998C125.542 33.6908 125.62 33.3366 125.641 32.9355V31.9121C125.625 31.584 125.578 31.2897 125.5 31.0293C125.427 30.7637 125.318 30.5371 125.172 30.3496C125.031 30.1621 124.854 30.0163 124.641 29.9121C124.432 29.8079 124.185 29.7559 123.898 29.7559C123.607 29.7559 123.357 29.8236 123.148 29.959C122.94 30.0892 122.771 30.2689 122.641 30.498C122.516 30.7272 122.422 30.998 122.359 31.3105C122.302 31.6178 122.273 31.9512 122.273 32.3105ZM133.281 36.7559C132.625 36.7559 132.036 36.6517 131.516 36.4434C130.995 36.2298 130.552 35.9355 130.188 35.5605C129.828 35.1855 129.552 34.7507 129.359 34.2559C129.167 33.7559 129.07 33.2246 129.07 32.6621V32.3496C129.07 31.709 129.161 31.123 129.344 30.5918C129.526 30.0605 129.786 29.5996 130.125 29.209C130.469 28.8184 130.885 28.5189 131.375 28.3105C131.865 28.097 132.417 27.9902 133.031 27.9902C133.63 27.9902 134.161 28.0892 134.625 28.2871C135.089 28.485 135.477 28.7663 135.789 29.1309C136.107 29.4954 136.346 29.9329 136.508 30.4434C136.669 30.9486 136.75 31.5111 136.75 32.1309V33.0684H130.031V31.5684H134.539V31.3965C134.539 31.084 134.482 30.8053 134.367 30.5605C134.258 30.3105 134.091 30.1126 133.867 29.9668C133.643 29.821 133.357 29.748 133.008 29.748C132.711 29.748 132.456 29.8132 132.242 29.9434C132.029 30.0736 131.854 30.2559 131.719 30.4902C131.589 30.7246 131.49 31.0007 131.422 31.3184C131.359 31.6309 131.328 31.9746 131.328 32.3496V32.6621C131.328 33.0007 131.375 33.3132 131.469 33.5996C131.568 33.8861 131.706 34.1335 131.883 34.3418C132.065 34.5501 132.284 34.7116 132.539 34.8262C132.799 34.9408 133.094 34.998 133.422 34.998C133.828 34.998 134.206 34.9199 134.555 34.7637C134.909 34.6022 135.214 34.36 135.469 34.0371L136.562 35.2246C136.385 35.4798 136.143 35.7246 135.836 35.959C135.534 36.1934 135.169 36.3861 134.742 36.5371C134.315 36.6829 133.828 36.7559 133.281 36.7559ZM141.867 33.123H139.875C139.88 32.6543 139.917 32.2507 139.984 31.9121C140.057 31.5684 140.18 31.2585 140.352 30.9824C140.529 30.7064 140.763 30.4329 141.055 30.1621C141.299 29.9434 141.513 29.735 141.695 29.5371C141.878 29.3392 142.021 29.1361 142.125 28.9277C142.229 28.7142 142.281 28.4772 142.281 28.2168C142.281 27.9147 142.234 27.6647 142.141 27.4668C142.052 27.2637 141.917 27.11 141.734 27.0059C141.557 26.9017 141.333 26.8496 141.062 26.8496C140.839 26.8496 140.63 26.8991 140.438 26.998C140.245 27.0918 140.086 27.2376 139.961 27.4355C139.841 27.6335 139.779 27.8939 139.773 28.2168H137.508C137.523 27.5033 137.688 26.9147 138 26.4512C138.318 25.9824 138.742 25.6361 139.273 25.4121C139.805 25.1829 140.401 25.0684 141.062 25.0684C141.792 25.0684 142.417 25.1882 142.938 25.4277C143.458 25.6621 143.857 26.0085 144.133 26.4668C144.409 26.9199 144.547 27.472 144.547 28.123C144.547 28.5762 144.458 28.9798 144.281 29.334C144.104 29.6829 143.872 30.0085 143.586 30.3105C143.299 30.6126 142.984 30.9251 142.641 31.248C142.344 31.5137 142.141 31.7923 142.031 32.084C141.927 32.3757 141.872 32.722 141.867 33.123ZM139.641 35.5371C139.641 35.2038 139.755 34.9277 139.984 34.709C140.214 34.485 140.521 34.373 140.906 34.373C141.286 34.373 141.591 34.485 141.82 34.709C142.055 34.9277 142.172 35.2038 142.172 35.5371C142.172 35.86 142.055 36.1335 141.82 36.3574C141.591 36.5814 141.286 36.6934 140.906 36.6934C140.521 36.6934 140.214 36.5814 139.984 36.3574C139.755 36.1335 139.641 35.86 139.641 35.5371Z" fill="#101010"/>
</g>
<defs>
<filter id="filter0_f_3514_64410" x="2" y="43.5996" width="40" height="40" filterUnits="userSpaceOnUse" color-interpolation-filters="sRGB">
<feFlood flood-opacity="0" result="BackgroundImageFix"/>
<feBlend mode="normal" in="SourceGraphic" in2="BackgroundImageFix" result="shape"/>
<feGaussianBlur stdDeviation="7" result="effect1_foregroundBlur_3514_64410"/>
</filter>
<filter id="filter1_f_3514_64410" x="115" y="43.5996" width="40" height="40" filterUnits="userSpaceOnUse" color-interpolation-filters="sRGB">
<feFlood flood-opacity="0" result="BackgroundImageFix"/>
<feBlend mode="normal" in="SourceGraphic" in2="BackgroundImageFix" result="shape"/>
<feGaussianBlur stdDeviation="7" result="effect1_foregroundBlur_3514_64410"/>
</filter>
<filter id="filter2_f_3514_64410" x="187" y="43.5996" width="40" height="40" filterUnits="userSpaceOnUse" color-interpolation-filters="sRGB">
<feFlood flood-opacity="0" result="BackgroundImageFix"/>
<feBlend mode="normal" in="SourceGraphic" in2="BackgroundImageFix" result="shape"/>
<feGaussianBlur stdDeviation="7" result="effect1_foregroundBlur_3514_64410"/>
</filter>
<filter id="filter3_f_3514_64410" x="2" y="75.5996" width="40" height="40" filterUnits="userSpaceOnUse" color-interpolation-filters="sRGB">
<feFlood flood-opacity="0" result="BackgroundImageFix"/>
<feBlend mode="normal" in="SourceGraphic" in2="BackgroundImageFix" result="shape"/>
<feGaussianBlur stdDeviation="7" result="effect1_foregroundBlur_3514_64410"/>
</filter>
<filter id="filter4_f_3514_64410" x="138" y="75.5996" width="40" height="40" filterUnits="userSpaceOnUse" color-interpolation-filters="sRGB">
<feFlood flood-opacity="0" result="BackgroundImageFix"/>
<feBlend mode="normal" in="SourceGraphic" in2="BackgroundImageFix" result="shape"/>
<feGaussianBlur stdDeviation="7" result="effect1_foregroundBlur_3514_64410"/>
</filter>
<filter id="filter5_f_3514_64410" x="221" y="75.5996" width="40" height="40" filterUnits="userSpaceOnUse" color-interpolation-filters="sRGB">
<feFlood flood-opacity="0" result="BackgroundImageFix"/>
<feBlend mode="normal" in="SourceGraphic" in2="BackgroundImageFix" result="shape"/>
<feGaussianBlur stdDeviation="7" result="effect1_foregroundBlur_3514_64410"/>
</filter>
<radialGradient id="paint0_radial_3514_64410" cx="0" cy="0" r="1" gradientUnits="userSpaceOnUse" gradientTransform="translate(223.03 93.9355) rotate(-165.333) scale(245.077 182.541)">
<stop stop-color="#0D8026"/>
<stop offset="1" stop-color="#30B173"/>
</radialGradient>
</defs>
</svg>
