<svg width="18" height="18" viewBox="0 0 18 18" fill="none" xmlns="http://www.w3.org/2000/svg">
<path d="M16.1702 8.05506L15.1577 6.87006C14.9702 6.64506 14.8127 6.22506 14.8127 5.92506V4.65006C14.8127 3.85506 14.1602 3.20256 13.3652 3.20256H12.0902C11.7902 3.20256 11.3627 3.04506 11.1377 2.85756L9.95266 1.84506C9.43516 1.40256 8.58766 1.40256 8.07016 1.84506L6.87016 2.85756C6.64516 3.04506 6.22516 3.20256 5.92516 3.20256H4.62766C3.83266 3.20256 3.18016 3.85506 3.18016 4.65006V5.92506C3.18016 6.21756 3.03016 6.63756 2.84266 6.86256L1.83016 8.05506C1.39516 8.58006 1.39516 9.42006 1.83016 9.93006L2.84266 11.1226C3.03016 11.3401 3.18016 11.7676 3.18016 12.0601V13.3426C3.18016 14.1376 3.83266 14.7901 4.62766 14.7901H5.93266C6.22516 14.7901 6.65266 14.9476 6.87766 15.1351L8.06266 16.1476C8.58016 16.5901 9.42766 16.5901 9.94516 16.1476L11.1302 15.1351C11.3552 14.9476 11.7752 14.7901 12.0752 14.7901H13.3502C14.1452 14.7901 14.7977 14.1376 14.7977 13.3426V12.0676C14.7977 11.7676 14.9552 11.3476 15.1427 11.1226L16.1552 9.93756C16.6127 9.42756 16.6127 8.58006 16.1702 8.05506ZM8.43766 6.09756C8.43766 5.79006 8.69266 5.53506 9.00016 5.53506C9.30766 5.53506 9.56266 5.79006 9.56266 6.09756V9.72006C9.56266 10.0276 9.30766 10.2826 9.00016 10.2826C8.69266 10.2826 8.43766 10.0276 8.43766 9.72006V6.09756ZM9.00016 12.6526C8.58766 12.6526 8.25016 12.3151 8.25016 11.9026C8.25016 11.4901 8.58016 11.1526 9.00016 11.1526C9.41266 11.1526 9.75016 11.4901 9.75016 11.9026C9.75016 12.3151 9.42016 12.6526 9.00016 12.6526Z" fill="#614730"/>
</svg>
