<svg width="333" height="83" viewBox="0 0 333 83" fill="none" xmlns="http://www.w3.org/2000/svg">
<g clip-path="url(#clip0_4726_32902)">
<rect x="1.5" y="1" width="330" height="81" rx="15" fill="#F4EDE3"/>
<path d="M200 50.5C106.4 34.9 55.3333 61.3333 41.5 76.5L37 82H331.5V9C326.667 29.3333 293.6 66.1 200 50.5Z" fill="#614730" fill-opacity="0.05"/>
<g clip-path="url(#clip1_4726_32902)">
<rect x="16.5" y="16" width="51" height="51" rx="10" fill="#614730" fill-opacity="0.8"/>
<g opacity="0.1">
<path d="M47.8131 28.238C46.4854 28.0887 45.1504 28.0094 43.814 28.0005C39.8573 27.9592 37.1241 30.2819 37.0764 34.602L37.0341 38.3285L32.5583 38.2821L32.5 43.3299L36.9228 47.6448L36.8275 56.3366L53.6604 73H64.201C66.1368 73 67.9934 72.2507 69.3622 70.9168C70.731 69.583 71.5 67.7739 71.5 65.8876V51.5802L47.8131 28.238Z" fill="#101010"/>
</g>
<path d="M47.4533 32.8663L44.7605 32.8347C42.6539 32.8347 42.2337 33.8257 42.2181 35.3176L42.187 38.6124L47.2094 38.6651L46.5038 43.8156L42.1299 43.7681L41.9898 57L36.7442 56.942L36.8843 43.7101L32.5 43.6574L32.5571 38.5017L36.9414 38.5492L36.9829 34.743C37.0296 30.3306 39.7069 27.9584 43.5827 28.0006C44.8918 28.0096 46.1995 28.0905 47.5 28.243L47.4533 32.8663Z" fill="white"/>
</g>
<rect x="16.5" y="16" width="51" height="51" rx="10" stroke="white" stroke-opacity="0.61" stroke-width="2"/>
<path d="M86.804 19.7727H88.3722V25.9091C88.3693 26.4716 88.25 26.956 88.0142 27.3622C87.7784 27.7656 87.4489 28.0767 87.0256 28.2955C86.6051 28.5114 86.1151 28.6193 85.5554 28.6193C85.044 28.6193 84.5838 28.5284 84.1747 28.3466C83.7685 28.1619 83.446 27.8892 83.2074 27.5284C82.9688 27.1676 82.8494 26.7187 82.8494 26.1818H84.4219C84.4247 26.4176 84.4759 26.6207 84.5753 26.7912C84.6776 26.9616 84.8182 27.0923 84.9972 27.1832C85.1761 27.2741 85.3821 27.3196 85.6151 27.3196C85.8679 27.3196 86.0824 27.267 86.2585 27.1619C86.4347 27.054 86.5682 26.8949 86.6591 26.6847C86.7528 26.4744 86.8011 26.2159 86.804 25.9091V19.7727ZM92.8743 28.6278C92.2351 28.6278 91.6811 28.4872 91.2124 28.206C90.7436 27.9247 90.38 27.5312 90.1214 27.0256C89.8658 26.5199 89.7379 25.929 89.7379 25.2528C89.7379 24.5767 89.8658 23.9844 90.1214 23.4759C90.38 22.9673 90.7436 22.5724 91.2124 22.2912C91.6811 22.0099 92.2351 21.8693 92.8743 21.8693C93.5135 21.8693 94.0675 22.0099 94.5362 22.2912C95.005 22.5724 95.3672 22.9673 95.6229 23.4759C95.8814 23.9844 96.0107 24.5767 96.0107 25.2528C96.0107 25.929 95.8814 26.5199 95.6229 27.0256C95.3672 27.5312 95.005 27.9247 94.5362 28.206C94.0675 28.4872 93.5135 28.6278 92.8743 28.6278ZM92.8828 27.392C93.2294 27.392 93.5192 27.2969 93.7521 27.1065C93.9851 26.9134 94.1584 26.6548 94.272 26.331C94.3885 26.0071 94.4467 25.6463 94.4467 25.2486C94.4467 24.848 94.3885 24.4858 94.272 24.1619C94.1584 23.8352 93.9851 23.5753 93.7521 23.3821C93.5192 23.1889 93.2294 23.0923 92.8828 23.0923C92.5277 23.0923 92.2322 23.1889 91.9964 23.3821C91.7635 23.5753 91.5888 23.8352 91.4723 24.1619C91.3587 24.4858 91.3018 24.848 91.3018 25.2486C91.3018 25.6463 91.3587 26.0071 91.4723 26.331C91.5888 26.6548 91.7635 26.9134 91.9964 27.1065C92.2322 27.2969 92.5277 27.392 92.8828 27.392ZM97.32 28.5V21.9545H98.8626V28.5H97.32ZM98.0955 21.0256C97.8512 21.0256 97.641 20.9446 97.4648 20.7827C97.2887 20.6179 97.2006 20.4205 97.2006 20.1903C97.2006 19.9574 97.2887 19.7599 97.4648 19.598C97.641 19.4332 97.8512 19.3509 98.0955 19.3509C98.3427 19.3509 98.5529 19.4332 98.7262 19.598C98.9023 19.7599 98.9904 19.9574 98.9904 20.1903C98.9904 20.4205 98.9023 20.6179 98.7262 20.7827C98.5529 20.9446 98.3427 21.0256 98.0955 21.0256ZM101.991 24.6648V28.5H100.449V21.9545H101.923V23.0668H102C102.151 22.7003 102.391 22.4091 102.72 22.1932C103.053 21.9773 103.463 21.8693 103.952 21.8693C104.403 21.8693 104.797 21.9659 105.132 22.1591C105.47 22.3523 105.732 22.6321 105.916 22.9986C106.104 23.3651 106.196 23.8097 106.193 24.3324V28.5H104.651V24.571C104.651 24.1335 104.537 23.7912 104.31 23.544C104.085 23.2969 103.774 23.1733 103.376 23.1733C103.107 23.1733 102.866 23.233 102.656 23.3523C102.449 23.4687 102.286 23.6378 102.166 23.8594C102.05 24.081 101.991 24.3494 101.991 24.6648ZM118.604 24.1364C118.604 25.0767 118.428 25.8821 118.076 26.5526C117.727 27.2202 117.249 27.7315 116.644 28.0866C116.042 28.4418 115.359 28.6193 114.594 28.6193C113.83 28.6193 113.146 28.4418 112.54 28.0866C111.938 27.7287 111.461 27.2159 111.109 26.5483C110.759 25.8778 110.585 25.0739 110.585 24.1364C110.585 23.196 110.759 22.392 111.109 21.7244C111.461 21.054 111.938 20.5412 112.54 20.1861C113.146 19.831 113.83 19.6534 114.594 19.6534C115.359 19.6534 116.042 19.831 116.644 20.1861C117.249 20.5412 117.727 21.054 118.076 21.7244C118.428 22.392 118.604 23.196 118.604 24.1364ZM117.015 24.1364C117.015 23.4744 116.911 22.9162 116.704 22.4616C116.499 22.0043 116.215 21.6591 115.852 21.4261C115.488 21.1903 115.069 21.0724 114.594 21.0724C114.12 21.0724 113.701 21.1903 113.337 21.4261C112.974 21.6591 112.688 22.0043 112.481 22.4616C112.276 22.9162 112.174 23.4744 112.174 24.1364C112.174 24.7983 112.276 25.358 112.481 25.8153C112.688 26.2699 112.974 26.6151 113.337 26.8509C113.701 27.0838 114.12 27.2003 114.594 27.2003C115.069 27.2003 115.488 27.0838 115.852 26.8509C116.215 26.6151 116.499 26.2699 116.704 25.8153C116.911 25.358 117.015 24.7983 117.015 24.1364ZM124.203 25.7472V21.9545H125.745V28.5H124.25V27.3366H124.181C124.034 27.7031 123.791 28.0028 123.453 28.2358C123.118 28.4687 122.704 28.5852 122.213 28.5852C121.784 28.5852 121.404 28.4901 121.075 28.2997C120.748 28.1065 120.493 27.8267 120.308 27.4602C120.123 27.0909 120.031 26.6449 120.031 26.1222V21.9545H121.574V25.8835C121.574 26.2983 121.687 26.6278 121.914 26.8722C122.142 27.1165 122.44 27.2386 122.809 27.2386C123.037 27.2386 123.257 27.1832 123.47 27.0724C123.683 26.9616 123.858 26.7969 123.994 26.5781C124.133 26.3565 124.203 26.0795 124.203 25.7472ZM127.332 28.5V21.9545H128.827V23.0455H128.896C129.015 22.6676 129.219 22.3764 129.509 22.1719C129.802 21.9645 130.136 21.8608 130.511 21.8608C130.596 21.8608 130.691 21.8651 130.796 21.8736C130.904 21.8793 130.994 21.8892 131.065 21.9034V23.3224C130.999 23.2997 130.896 23.2798 130.754 23.2628C130.614 23.2429 130.479 23.233 130.349 23.233C130.067 23.233 129.815 23.294 129.59 23.4162C129.369 23.5355 129.194 23.7017 129.066 23.9148C128.938 24.1278 128.874 24.3736 128.874 24.652V28.5H127.332ZM140.981 22.5597C140.91 22.3295 140.812 22.1236 140.687 21.9418C140.565 21.7571 140.417 21.5994 140.244 21.4688C140.073 21.3381 139.877 21.2401 139.656 21.1747C139.434 21.1065 139.192 21.0724 138.931 21.0724C138.462 21.0724 138.045 21.1903 137.678 21.4261C137.312 21.6619 137.023 22.0085 136.813 22.4659C136.606 22.9205 136.502 23.4744 136.502 24.1278C136.502 24.7869 136.606 25.3452 136.813 25.8026C137.021 26.2599 137.309 26.608 137.678 26.8466C138.048 27.0824 138.477 27.2003 138.965 27.2003C139.408 27.2003 139.792 27.1151 140.116 26.9446C140.442 26.7741 140.694 26.5327 140.87 26.2202C141.046 25.9048 141.134 25.5355 141.134 25.1122L141.492 25.1676H139.123V23.9318H142.664V24.9801C142.664 25.7273 142.505 26.3736 142.187 26.919C141.869 27.4645 141.431 27.8849 140.874 28.1804C140.317 28.473 139.678 28.6193 138.957 28.6193C138.153 28.6193 137.447 28.4389 136.839 28.0781C136.234 27.7145 135.761 27.1989 135.42 26.5312C135.082 25.8608 134.913 25.0653 134.913 24.1449C134.913 23.4403 135.012 22.8111 135.211 22.2571C135.413 21.7031 135.694 21.233 136.055 20.8466C136.415 20.4574 136.839 20.1619 137.325 19.9602C137.81 19.7557 138.339 19.6534 138.91 19.6534C139.393 19.6534 139.843 19.7244 140.261 19.8665C140.678 20.0057 141.049 20.2045 141.373 20.4631C141.7 20.7216 141.968 21.0284 142.178 21.3835C142.388 21.7386 142.526 22.1307 142.592 22.5597H140.981ZM144.125 28.5V21.9545H145.62V23.0455H145.689C145.808 22.6676 146.012 22.3764 146.302 22.1719C146.595 21.9645 146.929 21.8608 147.304 21.8608C147.389 21.8608 147.484 21.8651 147.589 21.8736C147.697 21.8793 147.787 21.8892 147.858 21.9034V23.3224C147.792 23.2997 147.689 23.2798 147.547 23.2628C147.407 23.2429 147.272 23.233 147.142 23.233C146.86 23.233 146.608 23.294 146.383 23.4162C146.162 23.5355 145.987 23.7017 145.859 23.9148C145.731 24.1278 145.667 24.3736 145.667 24.652V28.5H144.125ZM151.468 28.6278C150.829 28.6278 150.275 28.4872 149.806 28.206C149.337 27.9247 148.974 27.5312 148.715 27.0256C148.46 26.5199 148.332 25.929 148.332 25.2528C148.332 24.5767 148.46 23.9844 148.715 23.4759C148.974 22.9673 149.337 22.5724 149.806 22.2912C150.275 22.0099 150.829 21.8693 151.468 21.8693C152.107 21.8693 152.661 22.0099 153.13 22.2912C153.599 22.5724 153.961 22.9673 154.217 23.4759C154.475 23.9844 154.604 24.5767 154.604 25.2528C154.604 25.929 154.475 26.5199 154.217 27.0256C153.961 27.5312 153.599 27.9247 153.13 28.206C152.661 28.4872 152.107 28.6278 151.468 28.6278ZM151.477 27.392C151.823 27.392 152.113 27.2969 152.346 27.1065C152.579 26.9134 152.752 26.6548 152.866 26.331C152.982 26.0071 153.04 25.6463 153.04 25.2486C153.04 24.848 152.982 24.4858 152.866 24.1619C152.752 23.8352 152.579 23.5753 152.346 23.3821C152.113 23.1889 151.823 23.0923 151.477 23.0923C151.121 23.0923 150.826 23.1889 150.59 23.3821C150.357 23.5753 150.183 23.8352 150.066 24.1619C149.952 24.4858 149.896 24.848 149.896 25.2486C149.896 25.6463 149.952 26.0071 150.066 26.331C150.183 26.6548 150.357 26.9134 150.59 27.1065C150.826 27.2969 151.121 27.392 151.477 27.392ZM160.086 25.7472V21.9545H161.628V28.5H160.132V27.3366H160.064C159.917 27.7031 159.674 28.0028 159.336 28.2358C159 28.4687 158.587 28.5852 158.096 28.5852C157.667 28.5852 157.287 28.4901 156.958 28.2997C156.631 28.1065 156.375 27.8267 156.191 27.4602C156.006 27.0909 155.914 26.6449 155.914 26.1222V21.9545H157.456V25.8835C157.456 26.2983 157.57 26.6278 157.797 26.8722C158.025 27.1165 158.323 27.2386 158.692 27.2386C158.919 27.2386 159.14 27.1832 159.353 27.0724C159.566 26.9616 159.74 26.7969 159.877 26.5781C160.016 26.3565 160.086 26.0795 160.086 25.7472ZM163.214 30.9545V21.9545H164.732V23.0369H164.821C164.901 22.8778 165.013 22.7088 165.158 22.5298C165.303 22.348 165.499 22.1932 165.746 22.0653C165.993 21.9347 166.308 21.8693 166.692 21.8693C167.197 21.8693 167.653 21.9986 168.06 22.2571C168.469 22.5128 168.793 22.892 169.031 23.3949C169.273 23.8949 169.393 24.5085 169.393 25.2358C169.393 25.9545 169.276 26.5653 169.04 27.0682C168.804 27.571 168.483 27.9545 168.077 28.2188C167.67 28.483 167.21 28.6151 166.696 28.6151C166.321 28.6151 166.01 28.5526 165.763 28.4276C165.516 28.3026 165.317 28.152 165.166 27.9759C165.018 27.7969 164.903 27.6278 164.821 27.4688H164.757V30.9545H163.214ZM164.727 25.2273C164.727 25.6506 164.787 26.0213 164.906 26.3395C165.028 26.6577 165.203 26.9062 165.43 27.0852C165.661 27.2614 165.939 27.3494 166.266 27.3494C166.607 27.3494 166.892 27.2585 167.122 27.0767C167.352 26.892 167.526 26.6406 167.642 26.3224C167.761 26.0014 167.821 25.6364 167.821 25.2273C167.821 24.821 167.763 24.4602 167.646 24.1449C167.53 23.8295 167.357 23.5824 167.126 23.4034C166.896 23.2244 166.609 23.1349 166.266 23.1349C165.936 23.1349 165.656 23.2216 165.426 23.3949C165.196 23.5682 165.021 23.8111 164.902 24.1236C164.786 24.4361 164.727 24.804 164.727 25.2273Z" fill="#614730"/>
<path d="M86.5313 40.5H87.5V46.2187C87.5 46.7292 87.4063 47.1628 87.2188 47.5195C87.0313 47.8763 86.7669 48.1471 86.4258 48.332C86.0846 48.5169 85.6823 48.6094 85.2188 48.6094C84.7813 48.6094 84.3919 48.5299 84.0508 48.3711C83.7096 48.2096 83.4414 47.9805 83.2461 47.6836C83.0508 47.3867 82.9531 47.0339 82.9531 46.625H83.9062C83.9062 46.8516 83.9622 47.0495 84.0742 47.2187C84.1888 47.3854 84.3451 47.5156 84.543 47.6094C84.7409 47.7031 84.9661 47.75 85.2188 47.75C85.4974 47.75 85.7344 47.6914 85.9297 47.5742C86.125 47.457 86.2734 47.2852 86.375 47.0586C86.4792 46.8294 86.5313 46.5495 86.5313 46.2187V40.5ZM91.7539 48.625C91.2122 48.625 90.737 48.4961 90.3281 48.2383C89.9219 47.9805 89.6042 47.6198 89.375 47.1562C89.1484 46.6927 89.0352 46.151 89.0352 45.5312C89.0352 44.9062 89.1484 44.3607 89.375 43.8945C89.6042 43.4284 89.9219 43.0664 90.3281 42.8086C90.737 42.5508 91.2122 42.4219 91.7539 42.4219C92.2956 42.4219 92.7695 42.5508 93.1758 42.8086C93.5846 43.0664 93.9023 43.4284 94.1289 43.8945C94.3581 44.3607 94.4727 44.9062 94.4727 45.5312C94.4727 46.151 94.3581 46.6927 94.1289 47.1562C93.9023 47.6198 93.5846 47.9805 93.1758 48.2383C92.7695 48.4961 92.2956 48.625 91.7539 48.625ZM91.7539 47.7969C92.1654 47.7969 92.5039 47.6914 92.7695 47.4805C93.0352 47.2695 93.2318 46.9922 93.3594 46.6484C93.487 46.3047 93.5508 45.9323 93.5508 45.5312C93.5508 45.1302 93.487 44.7565 93.3594 44.4102C93.2318 44.0638 93.0352 43.7839 92.7695 43.5703C92.5039 43.3568 92.1654 43.25 91.7539 43.25C91.3424 43.25 91.0039 43.3568 90.7383 43.5703C90.4727 43.7839 90.276 44.0638 90.1484 44.4102C90.0208 44.7565 89.957 45.1302 89.957 45.5312C89.957 45.9323 90.0208 46.3047 90.1484 46.6484C90.276 46.9922 90.4727 47.2695 90.7383 47.4805C91.0039 47.6914 91.3424 47.7969 91.7539 47.7969ZM95.8799 48.5V42.5H96.8018V48.5H95.8799ZM96.3486 41.5C96.1689 41.5 96.014 41.4388 95.8838 41.3164C95.7562 41.194 95.6924 41.0469 95.6924 40.875C95.6924 40.7031 95.7562 40.556 95.8838 40.4336C96.014 40.3112 96.1689 40.25 96.3486 40.25C96.5283 40.25 96.682 40.3112 96.8096 40.4336C96.9398 40.556 97.0049 40.7031 97.0049 40.875C97.0049 41.0469 96.9398 41.194 96.8096 41.3164C96.682 41.4388 96.5283 41.5 96.3486 41.5ZM99.4121 44.8906V48.5H98.4902V42.5H99.3809V43.4375H99.459C99.5996 43.1328 99.8132 42.888 100.1 42.7031C100.386 42.5156 100.756 42.4219 101.209 42.4219C101.615 42.4219 101.971 42.5052 102.275 42.6719C102.58 42.8359 102.817 43.0859 102.986 43.4219C103.156 43.7552 103.24 44.1771 103.24 44.6875V48.5H102.318V44.75C102.318 44.2786 102.196 43.9115 101.951 43.6484C101.706 43.3828 101.37 43.25 100.943 43.25C100.649 43.25 100.386 43.3138 100.154 43.4414C99.9251 43.569 99.7441 43.7552 99.6113 44C99.4785 44.2448 99.4121 44.5417 99.4121 44.8906ZM110.456 48.625C109.914 48.625 109.439 48.4961 109.03 48.2383C108.624 47.9805 108.306 47.6198 108.077 47.1562C107.851 46.6927 107.737 46.151 107.737 45.5312C107.737 44.9062 107.851 44.3607 108.077 43.8945C108.306 43.4284 108.624 43.0664 109.03 42.8086C109.439 42.5508 109.914 42.4219 110.456 42.4219C110.998 42.4219 111.472 42.5508 111.878 42.8086C112.287 43.0664 112.604 43.4284 112.831 43.8945C113.06 44.3607 113.175 44.9062 113.175 45.5312C113.175 46.151 113.06 46.6927 112.831 47.1562C112.604 47.6198 112.287 47.9805 111.878 48.2383C111.472 48.4961 110.998 48.625 110.456 48.625ZM110.456 47.7969C110.868 47.7969 111.206 47.6914 111.472 47.4805C111.737 47.2695 111.934 46.9922 112.062 46.6484C112.189 46.3047 112.253 45.9323 112.253 45.5312C112.253 45.1302 112.189 44.7565 112.062 44.4102C111.934 44.0638 111.737 43.7839 111.472 43.5703C111.206 43.3568 110.868 43.25 110.456 43.25C110.045 43.25 109.706 43.3568 109.44 43.5703C109.175 43.7839 108.978 44.0638 108.851 44.4102C108.723 44.7565 108.659 45.1302 108.659 45.5312C108.659 45.9323 108.723 46.3047 108.851 46.6484C108.978 46.9922 109.175 47.2695 109.44 47.4805C109.706 47.6914 110.045 47.7969 110.456 47.7969ZM118.363 46.0469V42.5H119.285V48.5H118.363V47.4844H118.301C118.16 47.7891 117.941 48.0482 117.645 48.2617C117.348 48.4727 116.973 48.5781 116.52 48.5781C116.145 48.5781 115.811 48.4961 115.52 48.332C115.228 48.1654 114.999 47.9154 114.832 47.582C114.665 47.2461 114.582 46.8229 114.582 46.3125V42.5H115.504V46.25C115.504 46.6875 115.626 47.0365 115.871 47.2969C116.118 47.5573 116.434 47.6875 116.816 47.6875C117.046 47.6875 117.279 47.6289 117.516 47.5117C117.755 47.3945 117.956 47.2148 118.117 46.9727C118.281 46.7305 118.363 46.4219 118.363 46.0469ZM120.974 48.5V42.5H121.864V43.4062H121.927C122.036 43.1094 122.234 42.8685 122.521 42.6836C122.807 42.4987 123.13 42.4062 123.489 42.4062C123.557 42.4062 123.642 42.4076 123.743 42.4102C123.845 42.4128 123.922 42.4167 123.974 42.4219V43.3594C123.942 43.3516 123.871 43.3398 123.759 43.3242C123.649 43.306 123.534 43.2969 123.411 43.2969C123.119 43.2969 122.859 43.3581 122.63 43.4805C122.403 43.6003 122.224 43.7669 122.091 43.9805C121.961 44.1914 121.896 44.4323 121.896 44.7031V48.5H120.974ZM130.582 50.875C130.137 50.875 129.754 50.8177 129.434 50.7031C129.113 50.5911 128.846 50.4427 128.633 50.2578C128.422 50.0755 128.254 49.8802 128.129 49.6719L128.863 49.1563C128.947 49.2656 129.052 49.3906 129.18 49.5312C129.307 49.6745 129.482 49.7982 129.703 49.9023C129.927 50.0091 130.22 50.0625 130.582 50.0625C131.066 50.0625 131.466 49.9453 131.781 49.7109C132.096 49.4766 132.254 49.1094 132.254 48.6094V47.3906H132.176C132.108 47.5 132.012 47.6354 131.887 47.7969C131.764 47.9557 131.587 48.0977 131.355 48.2227C131.126 48.3451 130.816 48.4062 130.426 48.4062C129.941 48.4062 129.507 48.2917 129.121 48.0625C128.738 47.8333 128.435 47.5 128.211 47.0625C127.99 46.625 127.879 46.0937 127.879 45.4687C127.879 44.8542 127.987 44.319 128.203 43.8633C128.419 43.4049 128.72 43.0508 129.105 42.8008C129.491 42.5482 129.936 42.4219 130.441 42.4219C130.832 42.4219 131.142 42.487 131.371 42.6172C131.603 42.7448 131.78 42.8906 131.902 43.0547C132.027 43.2161 132.124 43.349 132.191 43.4531H132.285V42.5H133.176V48.6719C133.176 49.1875 133.059 49.6068 132.824 49.9297C132.592 50.2552 132.28 50.4935 131.887 50.6445C131.496 50.7982 131.061 50.875 130.582 50.875ZM130.551 47.5781C130.921 47.5781 131.233 47.4935 131.488 47.3242C131.743 47.1549 131.938 46.9115 132.07 46.5938C132.203 46.276 132.27 45.8958 132.27 45.4531C132.27 45.0208 132.204 44.6393 132.074 44.3086C131.944 43.9779 131.751 43.7187 131.496 43.5312C131.241 43.3437 130.926 43.25 130.551 43.25C130.16 43.25 129.835 43.349 129.574 43.5469C129.316 43.7448 129.122 44.0104 128.992 44.3438C128.865 44.6771 128.801 45.0469 128.801 45.4531C128.801 45.8698 128.866 46.2383 128.996 46.5586C129.129 46.8763 129.324 47.1263 129.582 47.3086C129.842 47.4883 130.165 47.5781 130.551 47.5781ZM134.863 48.5V42.5H135.754V43.4062H135.816C135.926 43.1094 136.124 42.8685 136.41 42.6836C136.697 42.4987 137.02 42.4062 137.379 42.4062C137.447 42.4062 137.531 42.4076 137.633 42.4102C137.734 42.4128 137.811 42.4167 137.863 42.4219V43.3594C137.832 43.3516 137.76 43.3398 137.648 43.3242C137.539 43.306 137.423 43.2969 137.301 43.2969C137.009 43.2969 136.749 43.3581 136.52 43.4805C136.293 43.6003 136.113 43.7669 135.98 43.9805C135.85 44.1914 135.785 44.4323 135.785 44.7031V48.5H134.863ZM141.211 48.625C140.669 48.625 140.194 48.4961 139.785 48.2383C139.379 47.9805 139.061 47.6198 138.832 47.1562C138.605 46.6927 138.492 46.151 138.492 45.5312C138.492 44.9062 138.605 44.3607 138.832 43.8945C139.061 43.4284 139.379 43.0664 139.785 42.8086C140.194 42.5508 140.669 42.4219 141.211 42.4219C141.753 42.4219 142.227 42.5508 142.633 42.8086C143.042 43.0664 143.359 43.4284 143.586 43.8945C143.815 44.3607 143.93 44.9062 143.93 45.5312C143.93 46.151 143.815 46.6927 143.586 47.1562C143.359 47.6198 143.042 47.9805 142.633 48.2383C142.227 48.4961 141.753 48.625 141.211 48.625ZM141.211 47.7969C141.622 47.7969 141.961 47.6914 142.227 47.4805C142.492 47.2695 142.689 46.9922 142.816 46.6484C142.944 46.3047 143.008 45.9323 143.008 45.5312C143.008 45.1302 142.944 44.7565 142.816 44.4102C142.689 44.0638 142.492 43.7839 142.227 43.5703C141.961 43.3568 141.622 43.25 141.211 43.25C140.799 43.25 140.461 43.3568 140.195 43.5703C139.93 43.7839 139.733 44.0638 139.605 44.4102C139.478 44.7565 139.414 45.1302 139.414 45.5312C139.414 45.9323 139.478 46.3047 139.605 46.6484C139.733 46.9922 139.93 47.2695 140.195 47.4805C140.461 47.6914 140.799 47.7969 141.211 47.7969ZM149.118 46.0469V42.5H150.04V48.5H149.118V47.4844H149.056C148.915 47.7891 148.696 48.0482 148.399 48.2617C148.103 48.4727 147.728 48.5781 147.274 48.5781C146.899 48.5781 146.566 48.4961 146.274 48.332C145.983 48.1654 145.754 47.9154 145.587 47.582C145.42 47.2461 145.337 46.8229 145.337 46.3125V42.5H146.259V46.25C146.259 46.6875 146.381 47.0365 146.626 47.2969C146.873 47.5573 147.188 47.6875 147.571 47.6875C147.8 47.6875 148.034 47.6289 148.271 47.5117C148.51 47.3945 148.711 47.2148 148.872 46.9727C149.036 46.7305 149.118 46.4219 149.118 46.0469ZM151.729 50.75V42.5H152.619V43.4531H152.729C152.796 43.349 152.89 43.2161 153.01 43.0547C153.132 42.8906 153.307 42.7448 153.533 42.6172C153.762 42.487 154.072 42.4219 154.463 42.4219C154.968 42.4219 155.413 42.5482 155.799 42.8008C156.184 43.0534 156.485 43.4115 156.701 43.875C156.917 44.3385 157.025 44.8854 157.025 45.5156C157.025 46.151 156.917 46.7018 156.701 47.168C156.485 47.6315 156.186 47.9909 155.803 48.2461C155.42 48.4987 154.979 48.625 154.479 48.625C154.093 48.625 153.785 48.5612 153.553 48.4336C153.321 48.3034 153.143 48.1562 153.018 47.9922C152.893 47.8255 152.796 47.6875 152.729 47.5781H152.65V50.75H151.729ZM152.635 45.5C152.635 45.9531 152.701 46.3529 152.834 46.6992C152.967 47.043 153.161 47.3125 153.416 47.5078C153.671 47.7005 153.984 47.7969 154.354 47.7969C154.739 47.7969 155.061 47.6953 155.318 47.4922C155.579 47.2865 155.774 47.0104 155.904 46.6641C156.037 46.3151 156.104 45.9271 156.104 45.5C156.104 45.0781 156.038 44.6979 155.908 44.3594C155.781 44.0182 155.587 43.7487 155.326 43.5508C155.068 43.3503 154.744 43.25 154.354 43.25C153.979 43.25 153.663 43.3451 153.408 43.5352C153.153 43.7227 152.96 43.9857 152.83 44.3242C152.7 44.6602 152.635 45.0521 152.635 45.5ZM164.197 42.5V43.2812H160.963V42.5H164.197ZM161.932 48.5V41.6719C161.932 41.3281 162.012 41.0417 162.174 40.8125C162.335 40.5833 162.545 40.4115 162.803 40.2969C163.061 40.1823 163.333 40.125 163.619 40.125C163.846 40.125 164.031 40.1432 164.174 40.1797C164.317 40.2161 164.424 40.25 164.494 40.2812L164.229 41.0781C164.182 41.0625 164.117 41.043 164.033 41.0195C163.952 40.9961 163.846 40.9844 163.713 40.9844C163.408 40.9844 163.188 41.0612 163.053 41.2148C162.92 41.3685 162.854 41.5937 162.854 41.8906V48.5H161.932ZM167.68 48.625C167.138 48.625 166.663 48.4961 166.254 48.2383C165.848 47.9805 165.53 47.6198 165.301 47.1562C165.074 46.6927 164.961 46.151 164.961 45.5312C164.961 44.9062 165.074 44.3607 165.301 43.8945C165.53 43.4284 165.848 43.0664 166.254 42.8086C166.663 42.5508 167.138 42.4219 167.68 42.4219C168.221 42.4219 168.695 42.5508 169.102 42.8086C169.51 43.0664 169.828 43.4284 170.055 43.8945C170.284 44.3607 170.398 44.9062 170.398 45.5312C170.398 46.151 170.284 46.6927 170.055 47.1562C169.828 47.6198 169.51 47.9805 169.102 48.2383C168.695 48.4961 168.221 48.625 167.68 48.625ZM167.68 47.7969C168.091 47.7969 168.43 47.6914 168.695 47.4805C168.961 47.2695 169.158 46.9922 169.285 46.6484C169.413 46.3047 169.477 45.9323 169.477 45.5312C169.477 45.1302 169.413 44.7565 169.285 44.4102C169.158 44.0638 168.961 43.7839 168.695 43.5703C168.43 43.3568 168.091 43.25 167.68 43.25C167.268 43.25 166.93 43.3568 166.664 43.5703C166.398 43.7839 166.202 44.0638 166.074 44.4102C165.947 44.7565 165.883 45.1302 165.883 45.5312C165.883 45.9323 165.947 46.3047 166.074 46.6484C166.202 46.9922 166.398 47.2695 166.664 47.4805C166.93 47.6914 167.268 47.7969 167.68 47.7969ZM171.806 48.5V42.5H172.696V43.4062H172.759C172.868 43.1094 173.066 42.8685 173.353 42.6836C173.639 42.4987 173.962 42.4062 174.321 42.4062C174.389 42.4062 174.474 42.4076 174.575 42.4102C174.677 42.4128 174.754 42.4167 174.806 42.4219V43.3594C174.774 43.3516 174.703 43.3398 174.591 43.3242C174.481 43.306 174.366 43.2969 174.243 43.2969C173.951 43.2969 173.691 43.3581 173.462 43.4805C173.235 43.6003 173.056 43.7669 172.923 43.9805C172.793 44.1914 172.728 44.4323 172.728 44.7031V48.5H171.806ZM178.992 48.5V42.5H179.883V43.4375H179.961C180.086 43.1172 180.288 42.8685 180.566 42.6914C180.845 42.5117 181.18 42.4219 181.57 42.4219C181.966 42.4219 182.296 42.5117 182.559 42.6914C182.824 42.8685 183.031 43.1172 183.18 43.4375H183.242C183.396 43.1276 183.626 42.8815 183.934 42.6992C184.241 42.5143 184.609 42.4219 185.039 42.4219C185.576 42.4219 186.014 42.5898 186.355 42.9258C186.697 43.2591 186.867 43.7786 186.867 44.4844V48.5H185.945V44.4844C185.945 44.0417 185.824 43.7253 185.582 43.5352C185.34 43.3451 185.055 43.25 184.727 43.25C184.305 43.25 183.978 43.3776 183.746 43.6328C183.514 43.8854 183.398 44.2057 183.398 44.5937V48.5H182.461V44.3906C182.461 44.0495 182.35 43.7747 182.129 43.5664C181.908 43.3555 181.622 43.25 181.273 43.25C181.034 43.25 180.81 43.3138 180.602 43.4414C180.396 43.569 180.229 43.7461 180.102 43.9727C179.977 44.1966 179.914 44.4557 179.914 44.75V48.5H178.992ZM190.99 48.625C190.449 48.625 189.973 48.4961 189.564 48.2383C189.158 47.9805 188.84 47.6198 188.611 47.1562C188.385 46.6927 188.271 46.151 188.271 45.5312C188.271 44.9062 188.385 44.3607 188.611 43.8945C188.84 43.4284 189.158 43.0664 189.564 42.8086C189.973 42.5508 190.449 42.4219 190.99 42.4219C191.532 42.4219 192.006 42.5508 192.412 42.8086C192.821 43.0664 193.139 43.4284 193.365 43.8945C193.594 44.3607 193.709 44.9062 193.709 45.5312C193.709 46.151 193.594 46.6927 193.365 47.1562C193.139 47.6198 192.821 47.9805 192.412 48.2383C192.006 48.4961 191.532 48.625 190.99 48.625ZM190.99 47.7969C191.402 47.7969 191.74 47.6914 192.006 47.4805C192.271 47.2695 192.468 46.9922 192.596 46.6484C192.723 46.3047 192.787 45.9323 192.787 45.5312C192.787 45.1302 192.723 44.7565 192.596 44.4102C192.468 44.0638 192.271 43.7839 192.006 43.5703C191.74 43.3568 191.402 43.25 190.99 43.25C190.579 43.25 190.24 43.3568 189.975 43.5703C189.709 43.7839 189.512 44.0638 189.385 44.4102C189.257 44.7565 189.193 45.1302 189.193 45.5312C189.193 45.9323 189.257 46.3047 189.385 46.6484C189.512 46.9922 189.709 47.2695 189.975 47.4805C190.24 47.6914 190.579 47.7969 190.99 47.7969ZM195.116 48.5V42.5H196.007V43.4062H196.069C196.179 43.1094 196.377 42.8685 196.663 42.6836C196.95 42.4987 197.272 42.4062 197.632 42.4062C197.7 42.4062 197.784 42.4076 197.886 42.4102C197.987 42.4128 198.064 42.4167 198.116 42.4219V43.3594C198.085 43.3516 198.013 43.3398 197.901 43.3242C197.792 43.306 197.676 43.2969 197.554 43.2969C197.262 43.2969 197.002 43.3581 196.772 43.4805C196.546 43.6003 196.366 43.7669 196.233 43.9805C196.103 44.1914 196.038 44.4323 196.038 44.7031V48.5H195.116ZM201.542 48.625C200.964 48.625 200.465 48.4974 200.046 48.2422C199.629 47.9844 199.308 47.625 199.081 47.1641C198.857 46.7005 198.745 46.1615 198.745 45.5469C198.745 44.9323 198.857 44.3906 199.081 43.9219C199.308 43.4505 199.623 43.0833 200.026 42.8203C200.433 42.5547 200.907 42.4219 201.448 42.4219C201.761 42.4219 202.069 42.474 202.374 42.5781C202.679 42.6823 202.956 42.8516 203.206 43.0859C203.456 43.3177 203.655 43.625 203.804 44.0078C203.952 44.3906 204.026 44.862 204.026 45.4219V45.8125H199.401V45.0156H203.089C203.089 44.6771 203.021 44.375 202.886 44.1094C202.753 43.8437 202.563 43.6341 202.315 43.4805C202.071 43.3268 201.782 43.25 201.448 43.25C201.081 43.25 200.763 43.3411 200.495 43.5234C200.229 43.7031 200.025 43.9375 199.882 44.2266C199.739 44.5156 199.667 44.8255 199.667 45.1562V45.6875C199.667 46.1406 199.745 46.5247 199.901 46.8398C200.06 47.1523 200.28 47.3906 200.562 47.5547C200.843 47.7161 201.17 47.7969 201.542 47.7969C201.784 47.7969 202.003 47.763 202.198 47.6953C202.396 47.625 202.567 47.5208 202.71 47.3828C202.853 47.2422 202.964 47.0677 203.042 46.8594L203.933 47.1094C203.839 47.4115 203.681 47.6771 203.46 47.9062C203.239 48.1328 202.965 48.3099 202.64 48.4375C202.314 48.5625 201.948 48.625 201.542 48.625ZM208.522 48.5V42.5H209.444V48.5H208.522ZM208.991 41.5C208.812 41.5 208.657 41.4388 208.526 41.3164C208.399 41.194 208.335 41.0469 208.335 40.875C208.335 40.7031 208.399 40.556 208.526 40.4336C208.657 40.3112 208.812 40.25 208.991 40.25C209.171 40.25 209.325 40.3112 209.452 40.4336C209.582 40.556 209.647 40.7031 209.647 40.875C209.647 41.0469 209.582 41.194 209.452 41.3164C209.325 41.4388 209.171 41.5 208.991 41.5ZM212.055 44.8906V48.5H211.133V42.5H212.023V43.4375H212.102C212.242 43.1328 212.456 42.888 212.742 42.7031C213.029 42.5156 213.398 42.4219 213.852 42.4219C214.258 42.4219 214.613 42.5052 214.918 42.6719C215.223 42.8359 215.46 43.0859 215.629 43.4219C215.798 43.7552 215.883 44.1771 215.883 44.6875V48.5H214.961V44.75C214.961 44.2786 214.839 43.9115 214.594 43.6484C214.349 43.3828 214.013 43.25 213.586 43.25C213.292 43.25 213.029 43.3138 212.797 43.4414C212.568 43.569 212.387 43.7552 212.254 44C212.121 44.2448 212.055 44.5417 212.055 44.8906ZM220.239 42.5V43.2812H217.005V42.5H220.239ZM217.974 48.5V41.6719C217.974 41.3281 218.054 41.0417 218.216 40.8125C218.377 40.5833 218.587 40.4115 218.845 40.2969C219.103 40.1823 219.375 40.125 219.661 40.125C219.888 40.125 220.073 40.1432 220.216 40.1797C220.359 40.2161 220.466 40.25 220.536 40.2812L220.271 41.0781C220.224 41.0625 220.159 41.043 220.075 41.0195C219.994 40.9961 219.888 40.9844 219.755 40.9844C219.45 40.9844 219.23 41.0612 219.095 41.2148C218.962 41.3685 218.896 41.5937 218.896 41.8906V48.5H217.974ZM223.722 48.625C223.18 48.625 222.705 48.4961 222.296 48.2383C221.89 47.9805 221.572 47.6198 221.343 47.1562C221.116 46.6927 221.003 46.151 221.003 45.5312C221.003 44.9062 221.116 44.3607 221.343 43.8945C221.572 43.4284 221.89 43.0664 222.296 42.8086C222.705 42.5508 223.18 42.4219 223.722 42.4219C224.263 42.4219 224.737 42.5508 225.144 42.8086C225.552 43.0664 225.87 43.4284 226.097 43.8945C226.326 44.3607 226.44 44.9062 226.44 45.5312C226.44 46.151 226.326 46.6927 226.097 47.1562C225.87 47.6198 225.552 47.9805 225.144 48.2383C224.737 48.4961 224.263 48.625 223.722 48.625ZM223.722 47.7969C224.133 47.7969 224.472 47.6914 224.737 47.4805C225.003 47.2695 225.2 46.9922 225.327 46.6484C225.455 46.3047 225.519 45.9323 225.519 45.5312C225.519 45.1302 225.455 44.7565 225.327 44.4102C225.2 44.0638 225.003 43.7839 224.737 43.5703C224.472 43.3568 224.133 43.25 223.722 43.25C223.31 43.25 222.972 43.3568 222.706 43.5703C222.44 43.7839 222.244 44.0638 222.116 44.4102C221.989 44.7565 221.925 45.1302 221.925 45.5312C221.925 45.9323 221.989 46.3047 222.116 46.6484C222.244 46.9922 222.44 47.2695 222.706 47.4805C222.972 47.6914 223.31 47.7969 223.722 47.7969ZM233.207 48.6094C232.681 48.6094 232.228 48.513 231.848 48.3203C231.467 48.1276 231.174 47.8633 230.969 47.5273C230.763 47.1914 230.66 46.8073 230.66 46.375C230.66 46.0417 230.73 45.7461 230.871 45.4883C231.014 45.2279 231.211 44.987 231.461 44.7656C231.714 44.5417 232.004 44.3177 232.332 44.0937L233.488 43.2344C233.715 43.0859 233.896 42.9271 234.031 42.7578C234.169 42.5885 234.238 42.3672 234.238 42.0937C234.238 41.8906 234.148 41.694 233.969 41.5039C233.792 41.3138 233.559 41.2188 233.27 41.2188C233.066 41.2188 232.887 41.2708 232.73 41.375C232.577 41.4766 232.456 41.6068 232.367 41.7656C232.281 41.9219 232.238 42.0833 232.238 42.25C232.238 42.4375 232.289 42.6276 232.391 42.8203C232.495 43.0104 232.626 43.2057 232.785 43.4062C232.947 43.6042 233.113 43.8073 233.285 44.0156L236.957 48.5H235.848L232.816 44.8437C232.535 44.5052 232.28 44.1979 232.051 43.9219C231.822 43.6458 231.639 43.3737 231.504 43.1055C231.368 42.8372 231.301 42.5469 231.301 42.2344C231.301 41.875 231.38 41.5599 231.539 41.2891C231.701 41.0156 231.926 40.8034 232.215 40.6523C232.507 40.4987 232.848 40.4219 233.238 40.4219C233.639 40.4219 233.984 40.5 234.273 40.6562C234.563 40.8099 234.785 41.0143 234.941 41.2695C235.098 41.5221 235.176 41.7969 235.176 42.0937C235.176 42.4766 235.081 42.8086 234.891 43.0898C234.701 43.3711 234.441 43.6328 234.113 43.875L232.52 45.0625C232.16 45.3281 231.917 45.5859 231.789 45.8359C231.661 46.0859 231.598 46.2656 231.598 46.375C231.598 46.625 231.663 46.8581 231.793 47.0742C231.923 47.2904 232.107 47.4648 232.344 47.5977C232.581 47.7305 232.858 47.7969 233.176 47.7969C233.478 47.7969 233.772 47.7331 234.059 47.6055C234.345 47.4753 234.604 47.2878 234.836 47.043C235.07 46.7982 235.255 46.5039 235.391 46.1602C235.529 45.8164 235.598 45.4297 235.598 45H236.488C236.488 45.5312 236.427 45.9648 236.305 46.3008C236.182 46.6367 236.044 46.8997 235.891 47.0898C235.737 47.2799 235.613 47.4219 235.52 47.5156C235.488 47.5547 235.46 47.5937 235.434 47.6328C235.408 47.6719 235.379 47.7109 235.348 47.75C235.09 48.0391 234.764 48.2552 234.371 48.3984C233.978 48.5391 233.59 48.6094 233.207 48.6094ZM85.9375 63.5H83.4688V55.5H86.0469C86.8229 55.5 87.487 55.6602 88.0391 55.9805C88.5911 56.2982 89.0143 56.7552 89.3086 57.3516C89.6029 57.9453 89.75 58.6562 89.75 59.4844C89.75 60.3177 89.6016 61.0352 89.3047 61.6367C89.0078 62.2357 88.5755 62.6966 88.0078 63.0195C87.4401 63.3398 86.75 63.5 85.9375 63.5ZM84.4375 62.6406H85.875C86.5365 62.6406 87.0846 62.513 87.5195 62.2578C87.9544 62.0026 88.2786 61.6393 88.4922 61.168C88.7057 60.6966 88.8125 60.1354 88.8125 59.4844C88.8125 58.8385 88.707 58.2826 88.4961 57.8164C88.2852 57.3477 87.9701 56.9883 87.5508 56.7383C87.1315 56.4857 86.6094 56.3594 85.9844 56.3594H84.4375V62.6406ZM91.25 63.5V57.5H92.1719V63.5H91.25ZM91.7188 56.5C91.5391 56.5 91.3841 56.4388 91.2539 56.3164C91.1263 56.194 91.0625 56.0469 91.0625 55.875C91.0625 55.7031 91.1263 55.556 91.2539 55.4336C91.3841 55.3112 91.5391 55.25 91.7188 55.25C91.8984 55.25 92.0521 55.3112 92.1797 55.4336C92.3099 55.556 92.375 55.7031 92.375 55.875C92.375 56.0469 92.3099 56.194 92.1797 56.3164C92.0521 56.4388 91.8984 56.5 91.7188 56.5ZM98.1104 58.8437L97.2822 59.0781C97.2301 58.9401 97.1533 58.806 97.0518 58.6758C96.9528 58.543 96.8174 58.4336 96.6455 58.3477C96.4736 58.2617 96.2536 58.2187 95.9854 58.2187C95.6182 58.2187 95.3122 58.3034 95.0674 58.4727C94.8252 58.6393 94.7041 58.8516 94.7041 59.1094C94.7041 59.3385 94.7874 59.5195 94.9541 59.6523C95.1208 59.7852 95.3812 59.8958 95.7354 59.9844L96.626 60.2031C97.1624 60.3333 97.5622 60.5326 97.8252 60.8008C98.0882 61.0664 98.2197 61.4089 98.2197 61.8281C98.2197 62.1719 98.1208 62.4792 97.9229 62.75C97.7275 63.0208 97.4541 63.2344 97.1025 63.3906C96.751 63.5469 96.3421 63.625 95.876 63.625C95.264 63.625 94.7575 63.4922 94.3564 63.2266C93.9554 62.9609 93.7015 62.5729 93.5947 62.0625L94.4697 61.8437C94.5531 62.1667 94.7106 62.4089 94.9424 62.5703C95.1768 62.7318 95.4827 62.8125 95.8604 62.8125C96.29 62.8125 96.6312 62.7214 96.8838 62.5391C97.139 62.3542 97.2666 62.1328 97.2666 61.875C97.2666 61.6667 97.1937 61.4922 97.0479 61.3516C96.902 61.2083 96.6781 61.1016 96.376 61.0312L95.376 60.7969C94.8265 60.6667 94.4229 60.4648 94.165 60.1914C93.9098 59.9154 93.7822 59.5703 93.7822 59.1562C93.7822 58.8177 93.8773 58.5182 94.0674 58.2578C94.2601 57.9974 94.5218 57.793 94.8525 57.6445C95.1859 57.4961 95.5635 57.4219 95.9854 57.4219C96.5791 57.4219 97.0452 57.5521 97.3838 57.8125C97.7249 58.0729 97.9671 58.4167 98.1104 58.8437ZM102.045 63.625C101.482 63.625 100.998 63.4922 100.592 63.2266C100.186 62.9609 99.873 62.5951 99.6543 62.1289C99.4355 61.6628 99.3262 61.1302 99.3262 60.5312C99.3262 59.9219 99.4382 59.3841 99.6621 58.918C99.8887 58.4492 100.204 58.0833 100.607 57.8203C101.014 57.5547 101.488 57.4219 102.029 57.4219C102.451 57.4219 102.831 57.5 103.17 57.6562C103.508 57.8125 103.786 58.0312 104.002 58.3125C104.218 58.5937 104.352 58.9219 104.404 59.2969H103.482C103.412 59.0234 103.256 58.7812 103.014 58.5703C102.774 58.3568 102.451 58.25 102.045 58.25C101.686 58.25 101.37 58.3437 101.1 58.5312C100.831 58.7161 100.622 58.9779 100.471 59.3164C100.322 59.6523 100.248 60.0469 100.248 60.5C100.248 60.9635 100.321 61.3672 100.467 61.7109C100.615 62.0547 100.824 62.3216 101.092 62.5117C101.363 62.7018 101.68 62.7969 102.045 62.7969C102.285 62.7969 102.502 62.7552 102.697 62.6719C102.893 62.5885 103.058 62.4688 103.193 62.3125C103.329 62.1562 103.425 61.9687 103.482 61.75H104.404C104.352 62.1042 104.223 62.4232 104.018 62.707C103.814 62.9883 103.545 63.2122 103.209 63.3789C102.876 63.543 102.488 63.625 102.045 63.625ZM109.533 61.0469V57.5H110.455V63.5H109.533V62.4844H109.471C109.33 62.7891 109.111 63.0482 108.814 63.2617C108.518 63.4727 108.143 63.5781 107.689 63.5781C107.314 63.5781 106.981 63.4961 106.689 63.332C106.398 63.1654 106.169 62.9154 106.002 62.582C105.835 62.2461 105.752 61.8229 105.752 61.3125V57.5H106.674V61.25C106.674 61.6875 106.796 62.0365 107.041 62.2969C107.288 62.5573 107.604 62.6875 107.986 62.6875C108.215 62.6875 108.449 62.6289 108.686 62.5117C108.925 62.3945 109.126 62.2148 109.287 61.9727C109.451 61.7305 109.533 61.4219 109.533 61.0469ZM116.394 58.8437L115.565 59.0781C115.513 58.9401 115.437 58.806 115.335 58.6758C115.236 58.543 115.101 58.4336 114.929 58.3477C114.757 58.2617 114.537 58.2187 114.269 58.2187C113.901 58.2187 113.595 58.3034 113.351 58.4727C113.108 58.6393 112.987 58.8516 112.987 59.1094C112.987 59.3385 113.071 59.5195 113.237 59.6523C113.404 59.7852 113.664 59.8958 114.019 59.9844L114.909 60.2031C115.446 60.3333 115.845 60.5326 116.108 60.8008C116.371 61.0664 116.503 61.4089 116.503 61.8281C116.503 62.1719 116.404 62.4792 116.206 62.75C116.011 63.0208 115.737 63.2344 115.386 63.3906C115.034 63.5469 114.625 63.625 114.159 63.625C113.547 63.625 113.041 63.4922 112.64 63.2266C112.239 62.9609 111.985 62.5729 111.878 62.0625L112.753 61.8437C112.836 62.1667 112.994 62.4089 113.226 62.5703C113.46 62.7318 113.766 62.8125 114.144 62.8125C114.573 62.8125 114.914 62.7214 115.167 62.5391C115.422 62.3542 115.55 62.1328 115.55 61.875C115.55 61.6667 115.477 61.4922 115.331 61.3516C115.185 61.2083 114.961 61.1016 114.659 61.0312L113.659 60.7969C113.11 60.6667 112.706 60.4648 112.448 60.1914C112.193 59.9154 112.065 59.5703 112.065 59.1562C112.065 58.8177 112.16 58.5182 112.351 58.2578C112.543 57.9974 112.805 57.793 113.136 57.6445C113.469 57.4961 113.847 57.4219 114.269 57.4219C114.862 57.4219 115.328 57.5521 115.667 57.8125C116.008 58.0729 116.25 58.4167 116.394 58.8437ZM122.141 58.8437L121.313 59.0781C121.26 58.9401 121.184 58.806 121.082 58.6758C120.983 58.543 120.848 58.4336 120.676 58.3477C120.504 58.2617 120.284 58.2187 120.016 58.2187C119.648 58.2187 119.342 58.3034 119.098 58.4727C118.855 58.6393 118.734 58.8516 118.734 59.1094C118.734 59.3385 118.818 59.5195 118.984 59.6523C119.151 59.7852 119.411 59.8958 119.766 59.9844L120.656 60.2031C121.193 60.3333 121.592 60.5326 121.855 60.8008C122.118 61.0664 122.25 61.4089 122.25 61.8281C122.25 62.1719 122.151 62.4792 121.953 62.75C121.758 63.0208 121.484 63.2344 121.133 63.3906C120.781 63.5469 120.372 63.625 119.906 63.625C119.294 63.625 118.788 63.4922 118.387 63.2266C117.986 62.9609 117.732 62.5729 117.625 62.0625L118.5 61.8437C118.583 62.1667 118.741 62.4089 118.973 62.5703C119.207 62.7318 119.513 62.8125 119.891 62.8125C120.32 62.8125 120.661 62.7214 120.914 62.5391C121.169 62.3542 121.297 62.1328 121.297 61.875C121.297 61.6667 121.224 61.4922 121.078 61.3516C120.932 61.2083 120.708 61.1016 120.406 61.0312L119.406 60.7969C118.857 60.6667 118.453 60.4648 118.195 60.1914C117.94 59.9154 117.813 59.5703 117.813 59.1562C117.813 58.8177 117.908 58.5182 118.098 58.2578C118.29 57.9974 118.552 57.793 118.883 57.6445C119.216 57.4961 119.594 57.4219 120.016 57.4219C120.609 57.4219 121.076 57.5521 121.414 57.8125C121.755 58.0729 121.997 58.4167 122.141 58.8437ZM123.638 63.5V57.5H124.56V63.5H123.638ZM124.106 56.5C123.927 56.5 123.772 56.4388 123.642 56.3164C123.514 56.194 123.45 56.0469 123.45 55.875C123.45 55.7031 123.514 55.556 123.642 55.4336C123.772 55.3112 123.927 55.25 124.106 55.25C124.286 55.25 124.44 55.3112 124.567 55.4336C124.698 55.556 124.763 55.7031 124.763 55.875C124.763 56.0469 124.698 56.194 124.567 56.3164C124.44 56.4388 124.286 56.5 124.106 56.5ZM128.686 63.625C128.144 63.625 127.669 63.4961 127.26 63.2383C126.854 62.9805 126.536 62.6198 126.307 62.1562C126.08 61.6927 125.967 61.151 125.967 60.5312C125.967 59.9062 126.08 59.3607 126.307 58.8945C126.536 58.4284 126.854 58.0664 127.26 57.8086C127.669 57.5508 128.144 57.4219 128.686 57.4219C129.227 57.4219 129.701 57.5508 130.107 57.8086C130.516 58.0664 130.834 58.4284 131.061 58.8945C131.29 59.3607 131.404 59.9062 131.404 60.5312C131.404 61.151 131.29 61.6927 131.061 62.1562C130.834 62.6198 130.516 62.9805 130.107 63.2383C129.701 63.4961 129.227 63.625 128.686 63.625ZM128.686 62.7969C129.097 62.7969 129.436 62.6914 129.701 62.4805C129.967 62.2695 130.163 61.9922 130.291 61.6484C130.419 61.3047 130.482 60.9323 130.482 60.5312C130.482 60.1302 130.419 59.7565 130.291 59.4102C130.163 59.0638 129.967 58.7839 129.701 58.5703C129.436 58.3568 129.097 58.25 128.686 58.25C128.274 58.25 127.936 58.3568 127.67 58.5703C127.404 58.7839 127.208 59.0638 127.08 59.4102C126.952 59.7565 126.889 60.1302 126.889 60.5312C126.889 60.9323 126.952 61.3047 127.08 61.6484C127.208 61.9922 127.404 62.2695 127.67 62.4805C127.936 62.6914 128.274 62.7969 128.686 62.7969ZM133.733 59.8906V63.5H132.812V57.5H133.702V58.4375H133.78C133.921 58.1328 134.134 57.888 134.421 57.7031C134.707 57.5156 135.077 57.4219 135.53 57.4219C135.937 57.4219 136.292 57.5052 136.597 57.6719C136.901 57.8359 137.138 58.0859 137.308 58.4219C137.477 58.7552 137.562 59.1771 137.562 59.6875V63.5H136.64V59.75C136.64 59.2786 136.517 58.9115 136.272 58.6484C136.028 58.3828 135.692 58.25 135.265 58.25C134.97 58.25 134.707 58.3138 134.476 58.4414C134.246 58.569 134.065 58.7552 133.933 59C133.8 59.2448 133.733 59.5417 133.733 59.8906ZM139.918 63.5625C139.725 63.5625 139.56 63.4935 139.422 63.3555C139.284 63.2174 139.215 63.0521 139.215 62.8594C139.215 62.6667 139.284 62.5013 139.422 62.3633C139.56 62.2253 139.725 62.1562 139.918 62.1562C140.111 62.1562 140.276 62.2253 140.414 62.3633C140.552 62.5013 140.621 62.6667 140.621 62.8594C140.621 62.987 140.589 63.1042 140.523 63.2109C140.461 63.3177 140.376 63.4036 140.27 63.4687C140.165 63.5313 140.048 63.5625 139.918 63.5625Z" fill="#614730"/>
<rect x="277.5" y="27.5" width="39" height="28" rx="14" fill="#614730" fill-opacity="0.5" stroke="white" stroke-opacity="0.61" stroke-width="2"/>
<path d="M302.75 37.75L306.5 41.5M306.5 41.5L302.75 45.25M306.5 41.5H288.5" stroke="white" stroke-width="1.5" stroke-linecap="round" stroke-linejoin="round"/>
</g>
<rect x="1.5" y="1" width="330" height="81" rx="15" stroke="white" stroke-opacity="0.61" stroke-width="2"/>
<defs>
<clipPath id="clip0_4726_32902">
<rect x="1.5" y="1" width="330" height="81" rx="15" fill="white"/>
</clipPath>
<clipPath id="clip1_4726_32902">
<rect x="16.5" y="16" width="51" height="51" rx="10" fill="white"/>
</clipPath>
</defs>
</svg>
