<svg width="360" height="174" viewBox="0 0 360 174" fill="none" xmlns="http://www.w3.org/2000/svg">
<path fill-rule="evenodd" clip-rule="evenodd" d="M388.146 156.016C389.132 154.12 391.639 148.196 388.386 142.148C387.112 139.784 384.545 137.545 381.642 135.597C378.804 133.686 375.655 132.056 373.092 130.854C373.208 130.545 373.325 130.132 373.353 129.658C373.391 129.111 373.304 128.482 372.966 127.843L372.957 127.834C372.609 127.179 371.857 126.566 371.049 126.051C370.297 125.575 369.484 125.176 368.881 124.907L368.82 123.806C368.981 123.696 369.119 123.565 369.22 123.412C369.332 123.238 369.403 123.04 369.403 122.831C369.403 122.6 369.32 122.377 369.182 122.198C369.064 122.036 368.907 121.892 368.711 121.788L368.659 120.84C368.78 120.756 368.884 120.652 368.959 120.539C369.05 120.399 369.106 120.238 369.106 120.071C369.106 119.883 369.04 119.704 368.931 119.556C368.839 119.434 368.713 119.324 368.571 119.237L368.514 118.232L368.089 110.545C368.089 110.452 367.997 110.379 367.879 110.379C367.767 110.371 367.662 110.449 367.662 110.545L367.236 118.232L367.181 119.237C367.032 119.324 366.906 119.434 366.816 119.556C366.707 119.704 366.643 119.883 366.643 120.071C366.643 120.236 366.7 120.398 366.792 120.539C366.864 120.652 366.97 120.758 367.091 120.84L367.039 121.788C366.847 121.892 366.686 122.036 366.565 122.198C366.43 122.377 366.352 122.6 366.352 122.831C366.352 123.042 366.418 123.238 366.531 123.412C366.629 123.565 366.764 123.696 366.93 123.806L366.87 124.907C366.271 125.178 365.453 125.575 364.706 126.051C363.888 126.566 363.146 127.179 362.79 127.834V127.84C362.451 128.478 362.365 129.108 362.399 129.658C362.425 130.134 362.546 130.545 362.66 130.854C360.097 132.056 356.952 133.686 354.109 135.597C353.569 135.96 353.14 136.374 352.628 136.755L352.623 134.504H353.491C354.083 134.504 354.56 134.027 354.56 133.438C354.56 132.848 354.083 132.366 353.491 132.366H352.604L352.512 116.435H352.825C353.334 116.435 353.751 116.016 353.751 115.504C353.751 114.993 353.334 114.573 352.825 114.573H352.504L352.435 101.631H352.825C353.278 101.631 353.65 101.259 353.65 100.805C353.65 100.411 353.377 100.079 353.012 99.9921V97.4349L353.021 97.334C353.017 97.2731 353.017 97.2122 353.012 97.1461V96.1198H353.355C353.593 96.1198 353.78 95.9267 353.78 95.6953C353.78 95.4639 353.593 95.2622 353.355 95.2622H352.881C353.119 94.5715 353.403 93.2425 352.811 91.8838C352.533 91.2593 351.978 90.6609 351.347 90.1408C350.735 89.6293 350.048 89.1962 349.496 88.8726C349.522 88.7891 349.54 88.676 349.548 88.5542C349.557 88.4064 349.54 88.2394 349.465 88.0689V88.0637C349.387 87.888 349.221 87.7279 349.048 87.5922C348.888 87.4566 348.71 87.3557 348.585 87.2826L348.571 86.9903C348.571 86.9903 348.632 86.9295 348.654 86.8895C348.68 86.8373 348.694 86.7885 348.694 86.7277C348.694 86.6703 348.68 86.6094 348.651 86.5624C348.62 86.5189 348.587 86.4789 348.543 86.4493L348.53 86.2006C348.53 86.2006 348.587 86.1484 348.599 86.1223C348.621 86.0788 348.63 86.0388 348.63 85.9918C348.63 85.9449 348.616 85.8961 348.594 85.8526C348.594 85.8526 348.55 85.7952 348.516 85.7744L348.502 85.503L348.412 83.4537L348.364 83.405C348.338 83.405 348.32 83.4224 348.32 83.4224L348.225 85.503L348.211 85.7744C348.18 85.797 348.154 85.8266 348.154 85.8266C348.108 85.8961 348.097 85.9449 348.097 85.9918C348.097 86.0388 348.106 86.0788 348.128 86.1223C348.142 86.1484 348.163 86.1745 348.194 86.2006L348.18 86.4493C348.141 86.4806 348.102 86.5189 348.08 86.5624C348.049 86.6111 348.032 86.672 348.032 86.7277C348.032 86.7885 348.045 86.8373 348.071 86.8895C348.094 86.9295 348.123 86.959 348.158 86.9903L348.14 87.2826C348.014 87.3574 347.836 87.4583 347.672 87.5922C347.497 87.7279 347.336 87.8897 347.259 88.0637C347.189 88.2376 347.167 88.4046 347.172 88.5525C347.181 88.6743 347.207 88.7891 347.233 88.8709C346.672 89.1944 345.989 89.6276 345.374 90.139C344.748 90.6592 344.192 91.2576 343.914 91.8821C343.323 93.2407 343.61 94.5698 343.845 95.2604H343.44C343.205 95.2604 343.015 95.457 343.015 95.6936C343.015 95.9302 343.207 96.118 343.44 96.118H343.774V99.9991C343.414 100.086 343.148 100.415 343.148 100.803C343.148 101.257 343.518 101.629 343.973 101.629H344.364L344.289 114.572H343.968C343.456 114.572 343.042 114.991 343.042 115.502C343.042 116.014 343.456 116.433 343.968 116.433H344.281L344.215 127.434C342.755 125.943 341.112 124.501 339.331 123.169C335.603 120.38 331.457 117.99 328.09 116.237C328.243 115.782 328.398 115.174 328.433 114.48C328.476 113.676 328.372 112.754 327.921 111.827L327.916 111.813C327.45 110.851 326.473 109.955 325.399 109.2C324.414 108.501 323.345 107.919 322.549 107.526L322.475 105.905C322.684 105.757 322.866 105.561 322.992 105.336C323.148 105.079 323.227 104.785 323.227 104.48C323.227 104.136 323.127 103.824 322.954 103.55C322.793 103.313 322.581 103.108 322.325 102.955L322.255 101.565C322.42 101.443 322.556 101.29 322.655 101.123C322.781 100.918 322.842 100.681 322.842 100.429C322.842 100.157 322.764 99.8999 322.624 99.6773H322.615C322.498 99.4981 322.338 99.3415 322.141 99.218L322.072 97.7411L321.512 86.4824C321.503 86.3467 321.389 86.2423 321.242 86.2336C321.081 86.2284 320.952 86.338 320.948 86.4824L320.391 97.7411L320.317 99.218C320.125 99.3398 319.961 99.4981 319.834 99.6773C319.696 99.8999 319.613 100.157 319.613 100.429C319.613 100.683 319.682 100.918 319.805 101.123C319.905 101.288 320.037 101.441 320.204 101.565L320.135 102.955C319.879 103.108 319.661 103.313 319.506 103.55C319.328 103.824 319.224 104.136 319.224 104.48C319.224 104.786 319.31 105.079 319.468 105.336C319.594 105.559 319.777 105.755 319.985 105.905L319.907 107.526C319.12 107.919 318.046 108.501 317.06 109.2C315.992 109.957 315.009 110.852 314.544 111.813C314.088 112.743 313.979 113.671 314.022 114.48C314.062 115.174 314.217 115.782 314.37 116.237C311.141 117.915 307.205 120.239 303.603 122.875C303.338 122.603 303.269 122.132 302.864 122.132H301.657L301.531 100.392H301.961C302.651 100.392 303.226 99.8234 303.226 99.1241C303.226 98.4248 302.651 97.8524 301.961 97.8524H301.517L301.417 80.1902H301.956C302.574 80.1902 303.082 79.6875 303.082 79.0665C303.082 78.5237 302.708 78.0749 302.209 77.9566V74.4687L302.226 74.3295C302.217 74.2425 302.212 74.1643 302.209 74.0755V72.6682H302.683C302.999 72.6682 303.26 72.4108 303.26 72.0872C303.26 71.7636 302.999 71.5062 302.683 71.5062H302.039C302.352 70.5581 302.743 68.7437 301.935 66.8945C301.562 66.0386 300.801 65.221 299.941 64.5077C299.103 63.8136 298.169 63.2187 297.408 62.7855C297.448 62.6672 297.477 62.5194 297.491 62.3437C297.5 62.1419 297.474 61.9157 297.373 61.6791H297.368C297.27 61.4391 297.047 61.2164 296.808 61.032C296.581 60.8528 296.343 60.7137 296.165 60.6128L296.142 60.2109C296.199 60.1709 296.234 60.1239 296.263 60.0665C296.294 60.0057 296.315 59.9361 296.315 59.8526C296.315 59.7743 296.293 59.696 296.254 59.6212C296.22 59.5638 296.172 59.5168 296.111 59.4768L296.097 59.1324C296.132 59.0976 296.163 59.0628 296.189 59.0193C296.211 58.9706 296.229 58.9097 296.229 58.8488C296.229 58.7827 296.211 58.7183 296.177 58.6644C296.154 58.6157 296.116 58.5722 296.116 58.5722L296.059 58.1791L295.933 55.3766C295.928 55.3418 295.902 55.3157 295.872 55.3157C295.838 55.3105 295.803 55.3418 295.803 55.3766L295.677 58.1791L295.66 58.5461C295.616 58.5722 295.58 58.6157 295.554 58.6644C295.52 58.7166 295.502 58.7827 295.502 58.8488C295.502 58.9097 295.516 58.9706 295.545 59.0193C295.568 59.0628 295.597 59.0976 295.632 59.1324L295.618 59.4768C295.561 59.5168 295.509 59.5638 295.475 59.6212C295.44 59.696 295.414 59.7743 295.414 59.8526C295.414 59.9361 295.431 60.0057 295.466 60.0665C295.497 60.1239 295.535 60.1709 295.583 60.2109L295.566 60.6128C295.388 60.7137 295.149 60.8528 294.923 61.032C294.684 61.2164 294.463 61.4391 294.357 61.6791C294.262 61.9105 294.231 62.1419 294.24 62.3437C294.254 62.5176 294.283 62.6672 294.318 62.7855C293.557 63.2187 292.623 63.8119 291.789 64.5077C290.928 65.221 290.167 66.0369 289.794 66.8945C288.986 68.7437 289.372 70.5563 289.693 71.5062H289.142C288.829 71.5062 288.564 71.7688 288.564 72.0872C288.564 72.4055 288.829 72.6682 289.142 72.6682H289.602V77.9653C289.107 78.0871 288.742 78.5341 288.742 79.0665C288.742 79.6875 289.254 80.1902 289.871 80.1902H290.406L290.306 97.8524H289.866C289.176 97.8524 288.602 98.4248 288.602 99.1241C288.602 99.8234 289.176 100.392 289.866 100.392H290.292L290.217 113.145C288.118 110.981 285.73 108.906 283.153 106.982C277.856 103.017 271.969 99.6251 267.18 97.1218C267.402 96.4833 267.62 95.6188 267.672 94.6307C267.736 93.4895 267.575 92.1883 266.945 90.8627L266.933 90.8453C266.276 89.4814 264.882 88.2046 263.366 87.1295C261.961 86.1379 260.441 85.3116 259.321 84.7515L259.203 82.4482C259.507 82.2343 259.765 81.9542 259.947 81.6446C260.164 81.2775 260.286 80.8617 260.286 80.4303C260.286 79.945 260.137 79.4944 259.884 79.1065C259.663 78.7707 259.359 78.482 258.997 78.2628L258.897 76.2866C259.127 76.1161 259.322 75.8969 259.462 75.6621C259.635 75.3646 259.732 75.0323 259.732 74.6792C259.732 74.2895 259.615 73.9277 259.416 73.6128C259.238 73.3554 259.011 73.1327 258.733 72.957L258.629 70.859L257.842 54.8617C257.833 54.6686 257.664 54.5207 257.451 54.512C257.23 54.5033 257.043 54.6599 257.038 54.8617L256.244 70.859L256.139 72.957C255.865 73.1327 255.63 73.3554 255.461 73.6128C255.257 73.9277 255.139 74.2947 255.139 74.6792C255.139 75.0341 255.239 75.3698 255.412 75.6621C255.551 75.8987 255.746 76.1161 255.973 76.2866L255.877 78.2628C255.512 78.482 255.208 78.769 254.99 79.1065C254.734 79.4961 254.586 79.945 254.586 80.4303C254.586 80.8635 254.707 81.2775 254.924 81.6446C255.108 81.9542 255.364 82.2395 255.668 82.4569L255.556 84.7515C254.43 85.3116 252.913 86.1362 251.507 87.1295C249.991 88.2046 248.597 89.4814 247.934 90.8453C247.296 92.1743 247.139 93.486 247.199 94.6307C247.251 95.6188 247.473 96.4833 247.691 97.1218C243.407 99.3641 238.266 102.393 233.43 105.837L233.368 95.0586H234.684C235.566 95.0586 236.292 94.3332 236.292 93.446C236.292 92.5588 235.566 91.8282 234.684 91.8282H233.147V84.4418L233.169 84.2974C233.16 84.2052 233.155 84.1131 233.147 84.0226V82.5196H233.655C233.998 82.5196 234.272 82.2395 234.272 81.9038C234.272 81.568 233.999 81.2792 233.655 81.2792H232.965C233.307 80.2703 233.726 78.3254 232.861 76.3527C232.462 75.4307 231.646 74.5609 230.727 73.8007C229.831 73.0614 228.834 72.4247 228.024 71.9567C228.059 71.8349 228.094 71.6732 228.102 71.4888C228.116 71.2748 228.088 71.0295 227.976 70.7807C227.869 70.5233 227.633 70.2867 227.376 70.0866C227.137 69.8988 226.876 69.7457 226.689 69.6361L226.667 69.2081C226.724 69.1647 226.762 69.1159 226.796 69.0551C226.831 68.989 226.854 68.9107 226.854 68.8272C226.854 68.7402 226.828 68.6515 226.784 68.5819C226.745 68.5158 226.698 68.4636 226.637 68.4201L226.62 68.053C226.66 68.0183 226.689 67.9835 226.712 67.9348C226.743 67.8773 226.76 67.813 226.76 67.7469C226.76 67.6773 226.743 67.6112 226.708 67.5451C226.674 67.5016 226.639 67.4616 226.591 67.4268L226.573 67.0336L226.438 64.0346C226.438 64.0033 226.407 63.9737 226.407 63.9737C226.338 63.9685 226.304 63.9998 226.298 64.0346L226.169 67.0336L226.151 67.4268C226.108 67.4616 226.065 67.5016 226.039 67.5451C226.004 67.6112 225.982 67.6756 225.982 67.7469C225.982 67.813 225.999 67.8773 226.03 67.9348C226.053 67.9835 226.082 68.0183 226.125 68.053L226.108 68.4201C226.044 68.4636 225.991 68.5158 225.961 68.5819C225.914 68.6515 225.892 68.7384 225.892 68.8272C225.892 68.9159 225.909 68.989 225.949 69.0551C225.975 69.1159 226.023 69.1647 226.075 69.2081L226.053 69.6361C225.861 69.7457 225.601 69.8988 225.366 70.0866C225.11 70.2884 224.875 70.5233 224.766 70.7807C224.657 71.0295 224.628 71.2748 224.64 71.4888C224.649 71.6732 224.688 71.8332 224.723 71.9567C223.91 72.4247 222.916 73.0631 222.017 73.8007C221.103 74.5609 220.287 75.4307 219.882 76.3527C219.023 78.3237 219.435 80.2685 219.779 81.2792H219.192C218.854 81.2792 218.575 81.5593 218.575 81.9038C218.575 82.2482 218.854 82.5196 219.192 82.5196H219.678V91.8299H218.162C217.28 91.8299 216.559 92.5605 216.559 93.4477C216.559 94.3349 217.28 95.0603 218.162 95.0603H219.478L219.452 99.759C216.697 96.372 213.508 93.1155 209.914 90.139C203.649 84.955 196.688 80.5103 191.023 77.2416C191.284 76.4031 191.54 75.2707 191.604 73.9816C191.682 72.4873 191.492 70.7738 190.739 69.0464L190.731 69.0203C189.949 67.2407 188.303 65.5672 186.511 64.165C184.847 62.8621 183.049 61.7835 181.719 61.0494L181.589 58.0416C181.951 57.7529 182.246 57.3945 182.468 56.984C182.72 56.5073 182.864 55.9663 182.864 55.3888C182.864 54.759 182.699 54.1745 182.39 53.6631C182.134 53.2212 181.773 52.842 181.342 52.5619L181.224 49.9751C181.498 49.7524 181.724 49.4689 181.894 49.1627V49.1575C182.098 48.773 182.215 48.3312 182.215 47.8685C182.215 47.3622 182.077 46.8804 181.833 46.475C181.629 46.1341 181.356 45.8418 181.034 45.6192L180.908 42.8706L180.043 23.4775C182.129 23.5262 184.237 23.2235 186.17 22.0963C188.256 20.8907 189.83 19.1424 190.824 17.1314C189.994 18.2239 188.942 19.1772 187.682 19.9061C182.589 22.8599 176.081 21.1082 173.143 15.9903C170.201 10.8724 171.948 4.3245 177.041 1.37066C178.297 0.636544 179.644 0.191206 181.003 0.0242045C178.774 -0.120182 176.479 0.379083 174.404 1.58463C168.768 4.85334 166.84 12.1005 170.089 17.7612C172.028 21.136 175.386 22.9835 178.957 23.3992L178.089 42.8706L177.963 45.6192C177.638 45.8418 177.368 46.1341 177.164 46.475C176.92 46.8821 176.785 47.3675 176.785 47.8685C176.785 48.3312 176.897 48.773 177.107 49.1575C177.271 49.4671 177.498 49.7524 177.773 49.9751L177.658 52.5619C177.224 52.842 176.863 53.2212 176.602 53.6631C176.303 54.1745 176.133 54.7608 176.133 55.3888C176.133 55.9663 176.271 56.5073 176.529 56.984C176.751 57.3945 177.046 57.7529 177.411 58.0469L177.276 61.0494C175.948 61.7835 174.153 62.8638 172.484 64.165C170.694 65.5689 169.043 67.2424 168.265 69.0203C167.509 70.7547 167.313 72.4769 167.391 73.9816C167.452 75.2707 167.713 76.4031 167.969 77.2416C162.307 80.5103 155.346 84.9567 149.081 90.139C145.489 93.1155 142.298 96.372 139.54 99.759L139.514 95.0603H140.83C141.717 95.0603 142.438 94.3349 142.438 93.4477C142.438 92.5605 141.717 91.8299 140.83 91.8299H139.296V84.4436L139.313 84.2992C139.308 84.207 139.299 84.1148 139.296 84.0243V82.5213H139.804C140.147 82.5213 140.422 82.2412 140.422 81.9055C140.422 81.5697 140.149 81.281 139.804 81.281H139.114C139.457 80.272 139.87 78.3271 139.011 76.3544C138.606 75.4324 137.79 74.5626 136.873 73.8024C135.983 73.0631 134.98 72.4264 134.17 71.9585C134.205 71.8367 134.245 71.6749 134.253 71.4905C134.267 71.2765 134.236 71.0312 134.132 70.7825H134.127C134.02 70.525 133.779 70.2884 133.523 70.0884C133.285 69.9005 133.029 69.7474 132.837 69.6378L132.82 69.2099C132.871 69.1664 132.915 69.1177 132.949 69.0568C132.98 68.9907 133.001 68.9124 133.001 68.8289C133.001 68.7419 132.975 68.6532 132.932 68.5836C132.896 68.5175 132.845 68.4653 132.788 68.4218L132.766 68.0548C132.806 68.02 132.835 67.9852 132.861 67.9365C132.892 67.8791 132.909 67.8147 132.909 67.7486C132.909 67.679 132.889 67.6129 132.858 67.5468C132.823 67.5033 132.788 67.4633 132.737 67.4285L132.723 67.0354L132.588 64.0363C132.588 64.005 132.557 63.9754 132.557 63.9754C132.482 63.9702 132.453 64.0015 132.448 64.0363L132.318 67.0354L132.301 67.4285C132.252 67.4633 132.214 67.5033 132.183 67.5468C132.149 67.6129 132.131 67.6773 132.131 67.7486C132.131 67.8147 132.145 67.8791 132.174 67.9365C132.197 67.9852 132.232 68.02 132.275 68.0548L132.252 68.4218C132.195 68.4653 132.143 68.5175 132.105 68.5836C132.062 68.6532 132.034 68.7402 132.034 68.8289C132.034 68.9176 132.057 68.9907 132.095 69.0568C132.126 69.1177 132.164 69.1664 132.216 69.2099L132.199 69.6378C132.007 69.7474 131.747 69.9005 131.517 70.0884C131.256 70.2902 131.023 70.525 130.909 70.7825C130.801 71.0312 130.774 71.2765 130.782 71.4905C130.791 71.6749 130.831 71.8349 130.865 71.9585C130.058 72.4264 129.058 73.0648 128.162 73.8024C127.246 74.5626 126.433 75.4324 126.028 76.3544C125.169 78.3254 125.586 80.2703 125.925 81.281H125.333C124.999 81.281 124.717 81.5611 124.717 81.9055C124.717 82.2499 124.999 82.5213 125.333 82.5213H125.824V91.8316H124.304C123.422 91.8316 122.701 92.5623 122.701 93.4495C122.701 94.3367 123.422 95.0621 124.304 95.0621H125.62L125.56 105.841C120.728 102.396 115.593 99.3676 111.303 97.1253C111.521 96.4868 111.742 95.6222 111.794 94.6342C111.86 93.493 111.699 92.1917 111.068 90.8662L111.059 90.8488C110.395 89.4849 109.005 88.2081 107.488 87.133C106.08 86.1414 104.56 85.3151 103.443 84.755L103.325 82.4517C103.63 82.2377 103.886 81.9577 104.069 81.648C104.282 81.281 104.403 80.8652 104.403 80.4338C104.403 79.9484 104.259 79.4979 104.007 79.11C103.78 78.7742 103.476 78.4854 103.116 78.2663L103.021 76.2901C103.247 76.1196 103.443 75.9004 103.581 75.6655C103.756 75.3681 103.86 75.0358 103.86 74.6827C103.86 74.293 103.737 73.9312 103.533 73.6163H103.528C103.358 73.3588 103.128 73.1362 102.855 72.9605L102.755 70.8625L101.959 54.8651C101.95 54.672 101.784 54.5242 101.572 54.5155C101.35 54.5068 101.158 54.6633 101.15 54.8651L100.359 70.8625L100.259 72.9605C99.9807 73.1362 99.7507 73.3588 99.5778 73.6163C99.3772 73.9312 99.2561 74.2982 99.2561 74.6827C99.2561 75.0376 99.3564 75.3733 99.5345 75.6655C99.6729 75.9021 99.8648 76.1196 100.095 76.2901L99.9945 78.2663C99.6331 78.4854 99.3339 78.7725 99.1074 79.11C98.8514 79.4996 98.7079 79.9484 98.7079 80.4338C98.7079 80.8669 98.829 81.281 99.0469 81.648C99.2302 81.9577 99.4809 82.243 99.7905 82.4604L99.6729 84.755C98.5523 85.3151 97.0304 86.1397 95.6279 87.133C94.1113 88.2081 92.7122 89.4849 92.0602 90.8488C91.4134 92.1778 91.2613 93.4895 91.3218 94.6342C91.3737 95.6222 91.5916 96.4868 91.8129 97.1253C87.0243 99.6303 81.1376 103.021 75.8406 106.985C73.269 108.908 70.8738 110.985 68.7761 113.149L68.7018 100.396H69.1272C69.8172 100.396 70.3913 99.8269 70.3913 99.1275C70.3913 98.4282 69.8172 97.8559 69.1272 97.8559H68.6879L68.5842 80.1937H69.1237C69.7411 80.1937 70.2495 79.691 70.2495 79.0699C70.2495 78.5272 69.876 78.0784 69.3814 77.9601V74.4722L69.3952 74.333C69.39 74.246 69.3814 74.1677 69.3814 74.079V72.6717H69.8501C70.1717 72.6717 70.4277 72.4142 70.4277 72.0907C70.4277 71.7671 70.1717 71.5096 69.8501 71.5096H69.2067C69.5232 70.5616 69.9158 68.7471 69.1064 66.8979C68.7329 66.0421 67.972 65.2245 67.1073 64.5112C66.2685 63.8171 65.3382 63.2222 64.579 62.789C64.6136 62.6707 64.6481 62.5229 64.6568 62.3472C64.6654 62.1454 64.6395 61.9192 64.5444 61.6826H64.5392C64.4354 61.4426 64.2141 61.2199 63.9737 61.0355C63.7523 60.8563 63.5137 60.7172 63.3355 60.6163L63.3096 60.2144C63.3632 60.1744 63.4013 60.1274 63.4307 60.07C63.4652 60.0091 63.4825 59.9395 63.4825 59.856C63.4825 59.7778 63.4601 59.6995 63.4255 59.6247C63.3857 59.5673 63.339 59.5203 63.2785 59.4803L63.2646 59.1359C63.3044 59.1011 63.3338 59.0663 63.3563 59.0228C63.3822 58.9741 63.3995 58.9132 63.3995 58.8523C63.3995 58.7862 63.3771 58.7218 63.3425 58.6679C63.32 58.6192 63.2854 58.5757 63.2387 58.5496L63.2249 58.1826L63.1004 55.3801C63.1004 55.3453 63.0692 55.3192 63.0692 55.3192C63.0035 55.3139 62.9741 55.3453 62.9707 55.3801L62.8444 58.1826L62.8306 58.5496C62.7822 58.5757 62.7476 58.6192 62.7216 58.6679C62.687 58.7201 62.6697 58.7862 62.6697 58.8523C62.6697 58.9132 62.687 58.9741 62.713 59.0228C62.7389 59.0663 62.7701 59.1011 62.8046 59.1359L62.7873 59.4803C62.7303 59.5203 62.6784 59.5673 62.649 59.6247C62.6092 59.6995 62.5833 59.7778 62.5833 59.856C62.5833 59.9395 62.6092 60.0091 62.6352 60.07C62.6698 60.1274 62.7043 60.1744 62.7562 60.2144L62.7389 60.6163C62.5556 60.7172 62.3187 60.8563 62.0956 61.0355C61.8518 61.2199 61.6304 61.4426 61.5266 61.6826C61.4315 61.914 61.4004 62.1454 61.4142 62.3472C61.4229 62.5211 61.454 62.6707 61.4938 62.789C60.7277 63.2222 59.8025 63.8154 58.9637 64.5112C58.1042 65.2245 57.3381 66.0403 56.9698 66.8979C56.157 68.7471 56.5478 70.5598 56.866 71.5096H56.3178C56.0013 71.5096 55.7402 71.7723 55.7402 72.0907C55.7402 72.409 56.0013 72.6717 56.3178 72.6717H56.7744V77.9688C56.2832 78.0906 55.9183 78.5376 55.9183 79.0699C55.9183 79.691 56.4268 80.1937 57.0441 80.1937H57.5837L57.4782 97.8559H57.0441C56.3541 97.8559 55.7748 98.4282 55.7748 99.1275C55.7748 99.8269 56.3524 100.396 57.0441 100.396H57.4661L57.345 122.136H56.1379C55.7298 122.136 55.6607 122.607 55.3943 122.884C51.7973 120.243 47.8595 117.919 44.6325 116.24C44.7882 115.786 44.9421 115.177 44.9749 114.483C45.0234 113.679 44.9092 112.757 44.4665 111.83L44.4578 111.816C43.9978 110.854 43.0156 109.958 41.9468 109.203C40.9559 108.504 39.8872 107.923 39.0968 107.53L39.0138 105.909C39.2317 105.761 39.4098 105.564 39.5344 105.34C39.69 105.082 39.7695 104.788 39.7695 104.484C39.7695 104.139 39.6727 103.828 39.4946 103.553C39.3389 103.316 39.121 103.111 38.8686 102.958L38.7942 101.568C38.9637 101.446 39.0934 101.293 39.1937 101.126C39.3147 100.921 39.3856 100.684 39.3856 100.432C39.3856 100.161 39.3026 99.9034 39.1643 99.6807H39.1608C39.0432 99.5015 38.8772 99.345 38.6835 99.2215L38.6126 97.7446L38.0523 86.4859C38.0437 86.3502 37.9312 86.2458 37.7825 86.2371C37.6269 86.2319 37.4954 86.3415 37.4868 86.4859L36.9265 97.7446L36.8573 99.2215C36.6654 99.3433 36.5011 99.5015 36.38 99.6807C36.2365 99.9034 36.1535 100.161 36.1535 100.432C36.1535 100.686 36.2226 100.921 36.3454 101.126C36.4457 101.292 36.5806 101.445 36.7414 101.568L36.6723 102.958C36.4163 103.111 36.2036 103.316 36.0514 103.553C35.8733 103.828 35.7644 104.139 35.7644 104.484C35.7644 104.79 35.8508 105.082 36.0082 105.34C36.1379 105.562 36.3126 105.759 36.5287 105.909L36.4509 107.53C35.6606 107.923 34.5867 108.504 33.6009 109.203C32.5322 109.96 31.5499 110.856 31.0847 111.816C30.6333 112.747 30.5192 113.674 30.5676 114.483C30.6022 115.177 30.7596 115.786 30.91 116.24C27.543 117.994 23.3925 120.384 19.6657 123.172C17.8845 124.505 16.2468 125.947 14.782 127.438L14.7163 116.437H15.0328C15.5412 116.437 15.9597 116.017 15.9597 115.506C15.9597 114.994 15.5412 114.575 15.0328 114.575H14.7111L14.6368 101.633H15.0328C15.4807 101.633 15.8542 101.26 15.8542 100.806C15.8542 100.413 15.5844 100.081 15.2161 99.9939V97.4366L15.2299 97.3358C15.2213 97.2749 15.2161 97.214 15.2161 97.1479V96.1215H15.5637C15.7989 96.1215 15.9856 95.9284 15.9856 95.6971C15.9856 95.4657 15.7989 95.2639 15.5637 95.2639H15.0916C15.325 94.5733 15.6087 93.2442 15.0172 91.8856C14.7388 91.2611 14.1871 90.6626 13.5524 90.1425C12.9402 89.6311 12.2537 89.1979 11.6968 88.8743C11.7228 88.7908 11.7487 88.6778 11.7574 88.556C11.7626 88.4081 11.7453 88.2411 11.6744 88.0706L11.6657 88.0654C11.5913 87.8897 11.4305 87.7297 11.2524 87.594C11.0916 87.4583 10.9186 87.3574 10.7889 87.2843L10.7751 86.9921C10.8097 86.9608 10.8356 86.9312 10.8581 86.8912C10.884 86.839 10.9013 86.7903 10.9013 86.7294C10.9013 86.672 10.8788 86.6111 10.8494 86.5641C10.8235 86.5207 10.7889 86.4806 10.7457 86.4511L10.7405 86.2023C10.7405 86.2023 10.7889 86.1501 10.8062 86.124C10.8235 86.0805 10.8373 86.0405 10.8373 85.9936C10.8373 85.9466 10.8235 85.8979 10.7976 85.8544C10.7976 85.8544 10.7543 85.797 10.7197 85.7761L10.7059 85.5047L10.616 83.4555L10.5728 83.4068C10.5468 83.4068 10.5191 83.4242 10.5191 83.4242L10.4275 85.5047L10.4188 85.7761C10.3842 85.7987 10.3583 85.8283 10.3583 85.8283C10.3151 85.8979 10.3012 85.9466 10.3012 85.9936C10.3012 86.0405 10.3151 86.0805 10.3324 86.124C10.3497 86.1501 10.367 86.1762 10.3981 86.2023L10.3843 86.4511C10.3445 86.4824 10.3116 86.5207 10.2839 86.5641C10.2528 86.6128 10.2407 86.6737 10.2407 86.7294C10.2407 86.7903 10.2545 86.839 10.2805 86.8912C10.2978 86.9312 10.3237 86.9608 10.3635 86.9921L10.3497 87.2843C10.22 87.3591 10.0453 87.46 9.881 87.594C9.70288 87.7297 9.54205 87.8915 9.46423 88.0654C9.38987 88.2394 9.37258 88.4064 9.38122 88.5542C9.38122 88.676 9.41235 88.7908 9.43829 88.8726C8.87798 89.1962 8.20007 89.6293 7.58269 90.1408C6.9532 90.6609 6.39289 91.2593 6.11792 91.8838C5.53167 93.2425 5.81009 94.5715 6.04874 95.2622H5.64061C5.41061 95.2622 5.21865 95.4587 5.21865 95.6953C5.21865 95.9319 5.41061 96.1198 5.64061 96.1198H5.98303V100.001C5.62159 100.088 5.35354 100.417 5.35354 100.805C5.35354 101.259 5.72708 101.631 6.17844 101.631H6.56928L6.49492 114.573H6.17326C5.66483 114.573 5.24805 114.993 5.24805 115.504C5.24805 116.016 5.66483 116.435 6.17326 116.435H6.48627L6.38943 132.366H5.50746C4.9212 132.366 4.43871 132.846 4.43871 133.438C4.43871 134.029 4.9212 134.504 5.50746 134.504H6.38597L6.37214 136.755C5.8637 136.374 5.43309 135.96 4.89007 135.597C2.05392 133.686 -1.09698 132.056 -3.65643 130.854C-3.54402 130.545 -3.42124 130.132 -3.39184 129.658C-3.36071 129.111 -3.4489 128.482 -3.78267 127.843L-3.79132 127.834C-4.14411 127.179 -4.886 126.566 -5.6988 126.051C-6.45107 125.575 -7.26733 125.176 -7.87088 124.907L-7.92795 123.806C-7.76712 123.696 -7.62877 123.565 -7.52847 123.412C-7.41606 123.238 -7.35034 123.04 -7.35034 122.831C-7.35034 122.6 -7.42816 122.377 -7.56306 122.198C-7.67892 122.036 -7.84494 121.892 -8.0369 121.788L-8.08878 120.84C-7.96773 120.756 -7.86223 120.652 -7.7896 120.539C-7.69794 120.399 -7.64606 120.238 -7.64606 120.071C-7.64606 119.883 -7.70659 119.704 -7.81554 119.556C-7.9072 119.434 -8.03344 119.324 -8.17698 119.237L-8.23751 118.232L-8.65947 110.545C-8.66466 110.452 -8.75113 110.379 -8.86353 110.379C-8.98459 110.371 -9.08489 110.449 -9.09008 110.545L-9.5155 118.232L-9.56738 119.237C-9.71438 119.324 -9.84062 119.434 -9.93228 119.556C-10.0412 119.704 -10.1052 119.883 -10.1052 120.071C-10.1052 120.236 -10.0533 120.398 -9.96168 120.539C-9.87867 120.652 -9.77836 120.758 -9.65731 120.84L-9.70919 121.788C-9.90115 121.892 -10.0654 122.036 -10.183 122.198C-10.3179 122.377 -10.4009 122.6 -10.4009 122.831C-10.4009 123.042 -10.33 123.238 -10.2176 123.412C-10.1173 123.565 -9.97897 123.696 -9.81814 123.806L-9.87867 124.907C-10.4788 125.178 -11.295 125.575 -12.0473 126.051C-12.8549 126.566 -13.6072 127.179 -13.96 127.834V127.84C-14.3024 128.478 -14.3906 129.108 -14.356 129.658C-14.3249 130.134 -14.209 130.545 -14.0862 130.854C-16.6543 132.056 -19.8035 133.686 -22.6379 135.597C-25.5398 137.547 -28.113 139.784 -29.3859 142.148C-32.6405 148.196 -30.1295 154.12 -29.1455 156.016H-29.6712C-30.2142 156.016 -30.6483 156.374 -30.6483 156.82C-30.6483 157.265 -30.2142 157.62 -29.6712 157.62H-29.436V173.842H11.434V173.732H57.1877V173.833H63.1453V173.847H134.059V174H224.37V173.847H295.373V173.833H301.799V173.732H347.3V173.842H388.165V157.62H388.656C389.196 157.62 389.638 157.262 389.638 156.82C389.638 156.378 389.196 156.016 388.656 156.016H388.13H388.146ZM7.51351 99.973H6.20093V98.4526C6.20093 98.4526 6.17499 98.3308 6.29258 98.1864C6.40154 98.0386 6.36176 97.915 6.30642 97.7759C6.11965 97.2383 6.02799 96.8017 6.29777 96.5164C6.79237 96.8835 7.67089 97.0278 7.40975 97.7759C7.35268 97.915 7.30945 98.0386 7.42704 98.1864C7.53945 98.3308 7.51351 98.4526 7.51351 98.4526V99.973ZM12.1361 99.973H9.09069V98.4526C9.09069 98.4526 9.06475 98.3308 9.17716 98.1864C9.29821 98.0386 9.25152 97.915 9.19445 97.7759C8.85896 96.8052 10.4275 96.8487 10.6056 96.1198H10.6143C10.7924 96.8504 12.3609 96.8052 12.022 97.7759C11.9701 97.915 11.9268 98.0386 12.0392 98.1864C12.1517 98.3308 12.1344 98.4526 12.1344 98.4526V99.973H12.1361ZM13.7046 98.4526C13.7046 98.4526 13.6821 98.3308 13.8015 98.1864C13.9139 98.0386 13.8655 97.915 13.8188 97.7759C13.5542 97.0191 14.4396 96.8835 14.9359 96.5129C15.2178 96.793 15.1192 97.2349 14.9325 97.7759C14.8754 97.915 14.8322 98.0386 14.9498 98.1864C15.0639 98.3308 15.0362 98.4526 15.0362 98.4526V99.973H13.7064V98.4526H13.7046ZM58.8669 77.9322H57.0718V75.8569C57.0718 75.8569 57.0372 75.6916 57.1929 75.4933C57.3485 75.2915 57.288 75.1263 57.2188 74.9297C56.9629 74.1991 56.8314 73.6006 57.2015 73.2162C57.8794 73.7102 59.0744 73.9068 58.7182 74.9297C58.649 75.1263 58.5833 75.2933 58.7441 75.4933C58.9049 75.6899 58.8652 75.8569 58.8652 75.8569V77.9322H58.8669ZM65.1721 77.9322H61.0148V75.8569C61.0148 75.8569 60.9802 75.6916 61.1358 75.4933C61.3001 75.2915 61.2309 75.1263 61.1617 74.9297C60.7052 73.6093 62.8427 73.6667 63.0865 72.6699H63.0952C63.3425 73.6667 65.4852 73.6093 65.02 74.9297C64.9508 75.1263 64.8851 75.2933 65.0424 75.4933C65.2033 75.6899 65.1721 75.8569 65.1721 75.8569V77.9322ZM67.3148 75.8569C67.3148 75.8569 67.2837 75.6916 67.4411 75.4933C67.6019 75.2915 67.5362 75.1263 67.4635 74.9297C67.1073 73.9033 68.3196 73.7102 68.9871 73.2075C69.3745 73.5919 69.2396 74.1956 68.9836 74.9297C68.9093 75.1263 68.8487 75.2933 69.0044 75.4933C69.1652 75.6899 69.1306 75.8569 69.1306 75.8569V77.9322H67.3148V75.8569ZM137.226 85.543C137.39 85.3238 137.326 85.1498 137.243 84.9359C136.865 83.8434 138.156 83.6381 138.876 83.1006C139.286 83.5111 139.146 84.1583 138.867 84.9359C138.793 85.1498 138.724 85.3255 138.893 85.543C139.063 85.757 139.026 85.9327 139.026 85.9327V91.8334H137.084V85.9327C137.084 85.9327 137.053 85.757 137.222 85.543H137.226ZM130.492 85.543C130.656 85.3238 130.587 85.1498 130.514 84.9359C130.02 83.5285 132.309 83.5947 132.569 82.5231H132.577C132.842 83.5947 135.128 83.5285 134.637 84.9359C134.558 85.1498 134.494 85.3255 134.658 85.543C134.827 85.757 134.793 85.9327 134.793 85.9327V91.8334H130.352V85.9327C130.352 85.9327 130.317 85.757 130.49 85.543H130.492ZM126.134 85.9327C126.134 85.9327 126.103 85.757 126.272 85.543C126.442 85.3238 126.367 85.1498 126.298 84.9359C126.025 84.1618 125.881 83.5198 126.281 83.1093C127.007 83.6434 128.28 83.8521 127.898 84.9359C127.823 85.1498 127.754 85.3255 127.924 85.543C128.093 85.757 128.059 85.9327 128.059 85.9327V91.8334H126.134V85.9327ZM231.078 85.543C231.243 85.3238 231.179 85.1498 231.101 84.9359C230.719 83.8434 232.01 83.6381 232.73 83.1006C233.14 83.5111 232.994 84.1583 232.725 84.9359C232.647 85.1498 232.578 85.3255 232.751 85.543C232.915 85.757 232.886 85.9327 232.886 85.9327V91.8334H230.943V85.9327C230.943 85.9327 230.909 85.757 231.078 85.543ZM224.339 85.543C224.509 85.3238 224.439 85.1498 224.365 84.9359C223.874 83.5285 226.16 83.5947 226.419 82.5231H226.428C226.698 83.5947 228.982 83.5285 228.488 84.9359C228.413 85.1498 228.344 85.3255 228.514 85.543C228.678 85.757 228.649 85.9327 228.649 85.9327V91.8334H224.204V85.9327C224.204 85.9327 224.17 85.757 224.339 85.543ZM219.99 85.9327C219.99 85.9327 219.959 85.757 220.125 85.543C220.294 85.3238 220.228 85.1498 220.151 84.9359C219.877 84.1618 219.737 83.5198 220.133 83.1093C220.86 83.6434 222.136 83.8521 221.755 84.9359C221.676 85.1498 221.612 85.3255 221.781 85.543C221.946 85.757 221.916 85.9327 221.916 85.9327V91.8334H219.991V85.9327H219.99ZM291.687 77.934H289.889V75.8586C289.889 75.8586 289.858 75.6934 290.015 75.4951C290.171 75.2933 290.105 75.128 290.041 74.9314C289.785 74.2008 289.65 73.6024 290.024 73.2179C290.696 73.712 291.891 73.9085 291.54 74.9314C291.471 75.128 291.407 75.295 291.558 75.4951C291.718 75.6916 291.687 75.8586 291.687 75.8586V77.934ZM297.987 77.934H293.83V75.8586C293.83 75.8586 293.799 75.6934 293.956 75.4951C294.117 75.2933 294.051 75.128 293.982 74.9314C293.522 73.6111 295.66 73.6685 295.907 72.6717H295.916C296.163 73.6685 298.3 73.6111 297.84 74.9314C297.771 75.128 297.707 75.295 297.863 75.4951C298.018 75.6916 297.989 75.8586 297.989 75.8586V77.934H297.987ZM300.133 75.8586C300.133 75.8586 300.102 75.6934 300.255 75.4951C300.415 75.2933 300.35 75.128 300.28 74.9314C299.921 73.9051 301.128 73.712 301.806 73.2092C302.188 73.5937 302.058 74.1973 301.801 74.9314C301.726 75.128 301.666 75.295 301.823 75.4951C301.979 75.6916 301.949 75.8586 301.949 75.8586V77.934H300.133V75.8586ZM345.296 99.9765H343.98V98.456C343.98 98.456 343.954 98.3343 344.07 98.1899C344.187 98.042 344.144 97.9185 344.087 97.7794C343.9 97.2418 343.805 96.8052 344.078 96.5199C344.573 96.8869 345.451 97.0313 345.187 97.7794C345.135 97.9185 345.092 98.042 345.204 98.1899C345.327 98.3343 345.296 98.456 345.296 98.456V99.9765ZM349.915 99.9765H346.869V98.456C346.869 98.456 346.849 98.3343 346.961 98.1899C347.082 98.042 347.03 97.9185 346.978 97.7794C346.643 96.8087 348.208 96.8521 348.39 96.1233H348.395C348.573 96.8539 350.147 96.8087 349.808 97.7794C349.756 97.9185 349.707 98.042 349.825 98.1899C349.937 98.3343 349.917 98.456 349.917 98.456V99.9765H349.915ZM351.489 98.456C351.489 98.456 351.463 98.3343 351.58 98.1899C351.698 98.042 351.649 97.9185 351.594 97.7794C351.333 97.0226 352.22 96.8869 352.72 96.5164C353.002 96.7965 352.898 97.2383 352.711 97.7794C352.663 97.9185 352.616 98.042 352.728 98.1899C352.846 98.3343 352.824 98.456 352.824 98.456V99.9765H351.49V98.456H351.489Z" fill="url(#paint0_linear_2672_76700)" fill-opacity="0.15"/>
<defs>
<linearGradient id="paint0_linear_2672_76700" x1="179.5" y1="-13.92" x2="179.5" y2="141.52" gradientUnits="userSpaceOnUse">
<stop stop-color="white"/>
<stop offset="0.712365" stop-color="white" stop-opacity="0.239717"/>
<stop offset="1" stop-color="white" stop-opacity="0"/>
</linearGradient>
</defs>
</svg>
