<svg width="18" height="18" viewBox="0 0 18 18" fill="none" xmlns="http://www.w3.org/2000/svg">
<path opacity="0.2" d="M9 16.5C13.1421 16.5 16.5 13.1421 16.5 9C16.5 4.85786 13.1421 1.5 9 1.5C4.85786 1.5 1.5 4.85786 1.5 9C1.5 13.1421 4.85786 16.5 9 16.5Z" fill="#614730"/>
<path d="M9.79499 9.00002L11.52 7.27502C11.7375 7.05752 11.7375 6.69752 11.52 6.48002C11.3025 6.26252 10.9425 6.26252 10.725 6.48002L8.99999 8.20502L7.27499 6.48002C7.05749 6.26252 6.69749 6.26252 6.47999 6.48002C6.26249 6.69752 6.26249 7.05752 6.47999 7.27502L8.20499 9.00002L6.47999 10.725C6.26249 10.9425 6.26249 11.3025 6.47999 11.52C6.59249 11.6325 6.73499 11.685 6.87749 11.685C7.01999 11.685 7.16249 11.6325 7.27499 11.52L8.99999 9.79502L10.725 11.52C10.8375 11.6325 10.98 11.685 11.1225 11.685C11.265 11.685 11.4075 11.6325 11.52 11.52C11.7375 11.3025 11.7375 10.9425 11.52 10.725L9.79499 9.00002Z" fill="#614730"/>
</svg>
