<svg width="320" height="219" viewBox="0 0 320 219" fill="none" xmlns="http://www.w3.org/2000/svg">
    <g clip-path="url(#clip0_3619_66810)">
        <mask id="mask0_3619_66810" style="mask-type:alpha" maskUnits="userSpaceOnUse" x="0" y="0" width="320" height="219">
            <rect y="0.599609" width="320" height="218" rx="15" fill="url(#paint0_radial_3619_66810)"/>
        </mask>
        <g mask="url(#mask0_3619_66810)">
            <rect y="0.599609" width="320" height="218" rx="15" fill="white"/>
            <rect x="1.5" y="2.09961" width="317" height="215" rx="13.5" stroke="#7D5E41" stroke-opacity="0.3" stroke-width="3"/>
            <mask id="mask1_3619_66810" style="mask-type:luminance" maskUnits="userSpaceOnUse" x="2" y="14" width="175" height="148">
                <path d="M176.133 14.5996H2.86768V161.6H176.133V14.5996Z" fill="white"/>
            </mask>
            <g mask="url(#mask1_3619_66810)">
                <path d="M62.7475 94.6333H-22.356V152.377H62.7475V94.6333Z" fill="#F3EBE3"/>
                <path fill-rule="evenodd" clip-rule="evenodd" d="M10.6545 147.472H29.7368V124.203C29.7368 118.931 23.6185 115.825 20.195 112.354C16.7701 115.825 10.6545 118.931 10.6545 124.203V147.472Z" fill="#DBC7B4"/>
                <path fill-rule="evenodd" clip-rule="evenodd" d="M20.1992 113.21C18.98 114.389 17.5895 115.44 16.2853 116.503C13.9741 118.452 11.2781 120.917 11.2781 124.196V147.465H29.1424V124.203C29.1448 123.471 29.0144 122.745 28.7574 122.06C27.4518 118.546 23.0036 115.845 20.1992 113.21Z" fill="#F3EBE3"/>
                <path fill-rule="evenodd" clip-rule="evenodd" d="M12.0449 147.471H28.3475V124.203C28.3522 123.565 28.2359 122.932 28.005 122.338C27.257 120.28 25.2459 118.503 23.5978 117.131C22.4854 116.188 21.3086 115.268 20.1962 114.281C19.1002 115.268 17.9289 116.188 16.7945 117.131C14.6985 118.889 12.0463 121.202 12.0463 124.203L12.0449 147.471Z" fill="#DBC7B4"/>
                <path fill-rule="evenodd" clip-rule="evenodd" d="M37.6744 152.378H52.5208V130.866C52.5208 127.63 50.1039 125.081 48.1997 123.174C47.1724 122.145 46.1023 121.16 45.0983 120.067C44.0927 121.165 43.0227 122.145 41.9953 123.174C40.091 125.081 37.6744 127.63 37.6744 130.866V152.378Z" fill="#DBC7B4"/>
                <path fill-rule="evenodd" clip-rule="evenodd" d="M44.5201 79.8069H-4.17115C-10.062 52.1021 16.5591 50.4529 20.1525 38.2607C23.7898 50.4529 50.3822 52.1021 44.5201 79.8069Z" fill="#F3EBE3"/>
                <path d="M44.5198 79.8071H-4.17139V94.6334H44.5198V79.8071Z" fill="#F3EBE3"/>
                <path fill-rule="evenodd" clip-rule="evenodd" d="M13.0933 89.6846H16.5373V87.5427C16.5373 86.7073 15.9811 86.043 15.5318 85.5504C15.2961 85.2941 15.04 85.0361 14.8043 84.7573C14.5687 85.0318 14.3344 85.2941 14.0769 85.5504C13.6494 86.043 13.0933 86.7073 13.0933 87.5427V89.6846Z" fill="#DBC7B4"/>
                <path fill-rule="evenodd" clip-rule="evenodd" d="M2.58819 89.6846H5.60211V87.5427C5.60211 86.7073 5.11029 86.043 4.72533 85.5504C4.51161 85.2941 4.2979 85.0361 4.08282 84.7573C3.89102 85.0318 3.67183 85.2941 3.4636 85.5504C3.07864 86.043 2.58545 86.7073 2.58545 87.5427L2.58819 89.6846Z" fill="#DBC7B4"/>
                <path fill-rule="evenodd" clip-rule="evenodd" d="M7.745 89.6846H11.0603V87.5427C11.0603 86.7073 10.526 86.043 10.1013 85.5504C9.88624 85.2941 9.63003 85.0361 9.41635 84.7573C9.18068 85.0318 8.94506 85.2941 8.71079 85.5504C8.28199 86.043 7.75182 86.7073 7.75182 87.5427L7.745 89.6846Z" fill="#DBC7B4"/>
                <path fill-rule="evenodd" clip-rule="evenodd" d="M21.9922 89.6846H18.355V87.5427C18.355 86.7073 18.9331 86.043 19.4044 85.5504C19.6606 85.2941 19.9167 85.0361 20.1743 84.7573C20.4099 85.0318 20.688 85.2941 20.9223 85.5504C21.3936 86.043 21.9922 86.7073 21.9922 87.5427V89.6846Z" fill="#DBC7B4"/>
                <path fill-rule="evenodd" clip-rule="evenodd" d="M27.2559 89.6846H23.8104V87.5427C23.8104 86.7073 24.368 86.043 24.816 85.5504C25.0516 85.2941 25.2872 85.0361 25.5229 84.7573C25.7585 85.0318 26.0147 85.2941 26.2503 85.5504C26.6997 86.043 27.2559 86.7073 27.2559 87.5427V89.6846Z" fill="#DBC7B4"/>
                <path fill-rule="evenodd" clip-rule="evenodd" d="M37.7596 89.6846H34.7211V87.5427C34.7211 86.7073 35.2129 86.043 35.5979 85.5504C35.8116 85.2941 36.0472 85.0361 36.239 84.7573C36.4541 85.0318 36.6678 85.2941 36.8815 85.5504C37.2665 86.043 37.7583 86.7073 37.7583 87.5427L37.7596 89.6846Z" fill="#DBC7B4"/>
                <path fill-rule="evenodd" clip-rule="evenodd" d="M42.0169 89.6846H40.177V87.5427C40.177 86.7073 40.4757 86.043 40.7113 85.5504C40.8401 85.2941 40.9689 85.0361 41.0962 84.7573C41.225 85.0318 41.3538 85.2941 41.4812 85.5504C41.7169 86.043 42.0169 86.7073 42.0169 87.5427V89.6846Z" fill="#DBC7B4"/>
                <path fill-rule="evenodd" clip-rule="evenodd" d="M32.5821 89.6846H29.2668V87.5427C29.2668 86.7073 29.8011 86.043 30.2258 85.5504C30.4614 85.2941 30.6971 85.0361 30.9327 84.7573C31.1464 85.0318 31.3821 85.2941 31.6177 85.5504C32.0465 86.043 32.5767 86.7073 32.5767 87.5427L32.5821 89.6846Z" fill="#DBC7B4"/>
                <path d="M44.5198 79.8071H-4.17139V80.7497H44.5198V79.8071Z" fill="#DBC7B4"/>
                <path d="M44.5198 92.6841H-4.17139V94.6336H44.5198V92.6841Z" fill="#DBC7B4"/>
                <path d="M61.2282 86.792H51.666V94.6334H61.2282V86.792Z" fill="#F3EBE3"/>
                <path d="M54.9809 88.5703H53.1835V94.6333H54.9809V88.5703Z" fill="#DBC7B4"/>
                <path d="M59.7088 88.5703H57.9333V94.6333H59.7088V88.5703Z" fill="#DBC7B4"/>
                <path fill-rule="evenodd" clip-rule="evenodd" d="M20.4525 26.9483V32.523C20.6238 32.737 20.7265 33.1446 20.7265 33.5946C20.7394 33.9256 20.6732 34.2548 20.5334 34.555C20.8334 34.8541 21.0252 35.5155 21.0252 36.2907C21.0252 37.1263 20.7909 37.8329 20.4484 38.0895V45.3326H19.8922V38.0895C19.5497 37.8329 19.2936 37.129 19.2936 36.2907C19.2936 35.5196 19.5073 34.8541 19.8059 34.555C19.6592 34.2565 19.5859 33.9272 19.5922 33.5946C19.5922 33.1446 19.721 32.737 19.8922 32.523V26.9277C18.9751 26.8297 18.0916 26.527 17.3066 26.042C16.5216 25.5569 15.8551 24.9019 15.3561 24.1251C14.8571 23.3482 14.5383 22.4692 14.423 21.5527C14.3078 20.6361 14.399 19.7054 14.6902 18.8289C14.9812 17.9523 15.4648 17.1523 16.1052 16.4875C16.7456 15.8227 17.5266 15.3101 18.3908 14.9873C19.255 14.6646 20.1805 14.5399 21.0991 14.6224C22.0178 14.7049 22.9063 14.9925 23.6994 15.4641C22.8399 15.2171 21.9285 15.2171 21.069 15.4641C20.4329 15.6319 19.8361 15.9239 19.3129 16.3234C18.7897 16.7228 18.3505 17.2218 18.0204 17.7917C17.6904 18.3616 17.4759 18.9912 17.3895 19.6444C17.303 20.2975 17.3463 20.9613 17.5167 21.5977C17.6871 22.234 17.9814 22.8304 18.3825 23.3526C18.7837 23.8747 19.2839 24.3124 19.8545 24.6403C20.425 24.9684 21.0546 25.1802 21.7072 25.2638C22.3597 25.3475 23.0223 25.3012 23.6569 25.1276C24.5269 24.8982 25.3197 24.4396 25.953 23.7994C25.5483 24.5195 25.005 25.152 24.3545 25.6602C23.7041 26.1685 22.9594 26.5424 22.1636 26.7604C21.6056 26.9075 21.0292 26.9723 20.4525 26.9524V26.9483Z" fill="#F3EBE3"/>
                <path d="M176.132 127.887H131.57V161.6H176.132V127.887Z" fill="#F3EBE3"/>
                <path d="M176.132 122.487H131.57V127.886H176.132V122.487Z" fill="#F3EBE3"/>
                <path fill-rule="evenodd" clip-rule="evenodd" d="M159.553 123.491C159.371 123.49 159.189 123.526 159.021 123.596C158.852 123.666 158.698 123.768 158.569 123.898C158.44 124.027 158.337 124.181 158.268 124.35C158.198 124.519 158.162 124.7 158.163 124.883V127.884H160.964V124.883C160.96 124.512 160.81 124.157 160.545 123.896C160.281 123.635 159.924 123.489 159.553 123.491Z" fill="#DBC7B4"/>
                <path fill-rule="evenodd" clip-rule="evenodd" d="M164.73 123.491C164.426 123.488 164.134 123.606 163.917 123.82C163.701 124.032 163.577 124.323 163.574 124.627V127.884H165.863V124.627C165.861 124.326 165.741 124.039 165.529 123.826C165.317 123.613 165.03 123.493 164.73 123.491Z" fill="#DBC7B4"/>
                <path fill-rule="evenodd" clip-rule="evenodd" d="M169.309 123.491C169.006 123.492 168.716 123.611 168.5 123.823C168.284 124.036 168.159 124.324 168.153 124.627V127.884H170.464V124.627C170.461 124.323 170.337 124.033 170.12 123.82C169.904 123.607 169.612 123.489 169.309 123.491Z" fill="#DBC7B4"/>
                <path fill-rule="evenodd" clip-rule="evenodd" d="M173.48 123.491C173.176 123.488 172.884 123.606 172.667 123.82C172.45 124.032 172.327 124.323 172.324 124.627V127.884H174.613V124.627C174.611 124.326 174.491 124.039 174.279 123.826C174.067 123.613 173.78 123.493 173.48 123.491Z" fill="#DBC7B4"/>
                <path fill-rule="evenodd" clip-rule="evenodd" d="M153.862 123.491C154.096 123.489 154.329 123.535 154.545 123.624C154.762 123.713 154.959 123.844 155.125 124.01C155.29 124.176 155.421 124.373 155.51 124.59C155.599 124.807 155.644 125.04 155.643 125.274V127.89H152.07V125.274C152.071 125.039 152.119 124.806 152.21 124.589C152.301 124.372 152.433 124.175 152.6 124.01C152.767 123.844 152.965 123.713 153.183 123.624C153.4 123.535 153.633 123.489 153.868 123.491H153.862Z" fill="#DBC7B4"/>
                <path fill-rule="evenodd" clip-rule="evenodd" d="M148.153 123.491C148.524 123.489 148.882 123.635 149.146 123.896C149.411 124.157 149.561 124.512 149.566 124.883V127.884H146.763V124.883C146.763 124.7 146.798 124.519 146.868 124.35C146.937 124.181 147.04 124.027 147.169 123.898C147.298 123.768 147.452 123.666 147.621 123.596C147.789 123.526 147.971 123.49 148.153 123.491Z" fill="#DBC7B4"/>
                <path fill-rule="evenodd" clip-rule="evenodd" d="M142.994 123.491C143.297 123.492 143.586 123.612 143.802 123.824C144.018 124.036 144.142 124.324 144.149 124.627V127.884H141.838V124.627C141.842 124.323 141.965 124.032 142.182 123.82C142.399 123.606 142.69 123.488 142.994 123.491Z" fill="#DBC7B4"/>
                <path fill-rule="evenodd" clip-rule="evenodd" d="M138.394 123.491C138.698 123.488 138.99 123.606 139.207 123.82C139.423 124.032 139.547 124.323 139.55 124.627V127.884H137.261V124.627C137.263 124.326 137.383 124.039 137.595 123.826C137.807 123.613 138.094 123.493 138.394 123.491Z" fill="#DBC7B4"/>
                <path d="M135.379 122.487H131.57V127.886H135.379V122.487Z" fill="#DBC7B4"/>
                <path fill-rule="evenodd" clip-rule="evenodd" d="M135.399 115.975H156.771C159.358 103.826 147.679 103.098 146.095 97.7412C144.512 103.092 132.831 103.826 135.398 115.975H135.399Z" fill="#F3EBE3"/>
                <path d="M156.771 115.975H135.4V122.488H156.771V115.975Z" fill="#F3EBE3"/>
                <path fill-rule="evenodd" clip-rule="evenodd" d="M146.888 120.324H145.304V119.381C145.304 119.016 145.561 118.717 145.753 118.503C145.86 118.396 145.989 118.289 146.096 118.16C146.203 118.289 146.309 118.396 146.416 118.503C146.631 118.717 146.888 119.016 146.888 119.381V120.324Z" fill="#DBC7B4"/>
                <path fill-rule="evenodd" clip-rule="evenodd" d="M149.197 120.324H147.7V119.381C147.7 119.016 147.936 118.717 148.129 118.503C148.236 118.396 148.342 118.289 148.45 118.16C148.556 118.289 148.663 118.396 148.77 118.503C148.963 118.717 149.197 119.016 149.197 119.381V120.324Z" fill="#DBC7B4"/>
                <path fill-rule="evenodd" clip-rule="evenodd" d="M153.82 120.324H152.492V119.381C152.492 119.016 152.706 118.717 152.877 118.503C152.964 118.396 153.048 118.289 153.151 118.16C153.231 118.283 153.323 118.398 153.425 118.503C153.596 118.717 153.812 119.016 153.812 119.381L153.82 120.324Z" fill="#DBC7B4"/>
                <path fill-rule="evenodd" clip-rule="evenodd" d="M155.68 120.324H154.889V119.381C154.901 119.077 154.973 118.779 155.102 118.503C155.172 118.396 155.23 118.281 155.273 118.16C155.338 118.289 155.38 118.396 155.444 118.503C155.591 118.773 155.672 119.074 155.68 119.381V120.324Z" fill="#DBC7B4"/>
                <path fill-rule="evenodd" clip-rule="evenodd" d="M151.551 120.324H150.096V119.381C150.096 119.016 150.332 118.717 150.507 118.503C150.614 118.396 150.721 118.289 150.828 118.16C150.916 118.284 151.017 118.399 151.128 118.503C151.319 118.717 151.555 119.016 151.555 119.381L151.551 120.324Z" fill="#DBC7B4"/>
                <path fill-rule="evenodd" clip-rule="evenodd" d="M145.304 120.324H146.888V119.381C146.888 119.016 146.631 118.717 146.416 118.503C146.309 118.396 146.203 118.289 146.096 118.16C145.989 118.289 145.86 118.396 145.753 118.503C145.561 118.717 145.304 119.016 145.304 119.381V120.324Z" fill="#DBC7B4"/>
                <path fill-rule="evenodd" clip-rule="evenodd" d="M142.994 120.324H144.492V119.381C144.492 119.016 144.256 118.717 144.064 118.503C143.951 118.394 143.844 118.28 143.742 118.16C143.636 118.289 143.529 118.396 143.422 118.503C143.23 118.717 142.994 119.016 142.994 119.381V120.324Z" fill="#DBC7B4"/>
                <path fill-rule="evenodd" clip-rule="evenodd" d="M138.373 120.324H139.7V119.381C139.7 119.016 139.486 118.717 139.315 118.503C139.218 118.394 139.126 118.279 139.041 118.16C138.954 118.289 138.847 118.396 138.767 118.503C138.595 118.717 138.382 119.016 138.382 119.381L138.373 120.324Z" fill="#DBC7B4"/>
                <path fill-rule="evenodd" clip-rule="evenodd" d="M136.509 120.324H137.301V119.381C137.293 119.074 137.212 118.773 137.065 118.503C137.023 118.396 136.958 118.289 136.894 118.16C136.852 118.289 136.787 118.396 136.744 118.503C136.598 118.773 136.517 119.074 136.509 119.381V120.324Z" fill="#DBC7B4"/>
                <path fill-rule="evenodd" clip-rule="evenodd" d="M140.641 120.324H142.096V119.381C142.096 119.016 141.86 118.717 141.668 118.503C141.582 118.396 141.475 118.289 141.368 118.16C141.28 118.284 141.18 118.399 141.069 118.503C140.877 118.717 140.641 119.016 140.641 119.381V120.324Z" fill="#DBC7B4"/>
                <path d="M156.771 115.975H135.4V116.402H156.771V115.975Z" fill="#DBC7B4"/>
                <path d="M170.227 116.81H160.665V122.488H170.227V116.81Z" fill="#F3EBE3"/>
                <path d="M168.709 118.116H166.934V122.488H168.709V118.116Z" fill="#DBC7B4"/>
                <path d="M163.981 118.116H162.183V122.488H163.981V118.116Z" fill="#DBC7B4"/>
                <path d="M168.346 85.0142H162.548V93.971H168.346V85.0142Z" fill="#F3EBE3"/>
                <path d="M167.425 87.0488H166.335V93.9697H167.425V87.0488Z" fill="#DBC7B4"/>
                <path d="M164.557 87.0488H163.467V93.9697H164.557V87.0488Z" fill="#DBC7B4"/>
                <path fill-rule="evenodd" clip-rule="evenodd" d="M163.404 83.9849H167.489C167.981 81.6715 165.756 81.5151 165.458 80.5137C165.158 81.5206 162.911 81.6715 163.403 83.9849H163.404Z" fill="#F3EBE3"/>
                <path d="M167.491 83.9849H163.404V85.0139H167.491V83.9849Z" fill="#F3EBE3"/>
                <path fill-rule="evenodd" clip-rule="evenodd" d="M166.27 84.4126C166.216 84.4118 166.165 84.4313 166.125 84.4673C166.086 84.5033 166.061 84.5528 166.056 84.6062V85.018H166.467V84.6062C166.467 84.5808 166.462 84.5558 166.453 84.5321C166.443 84.5088 166.429 84.4876 166.411 84.4694C166.393 84.4516 166.371 84.4372 166.348 84.4275C166.324 84.4177 166.299 84.4126 166.274 84.4126H166.27Z" fill="#DBC7B4"/>
                <path fill-rule="evenodd" clip-rule="evenodd" d="M166.998 84.4128C166.976 84.4132 166.955 84.4183 166.935 84.4272C166.916 84.4365 166.899 84.4496 166.885 84.4657C166.871 84.4818 166.86 84.5005 166.854 84.5212C166.848 84.5416 166.846 84.5632 166.848 84.5843V85.0139H167.169V84.5843C167.171 84.5615 167.168 84.5382 167.16 84.5166C167.152 84.4945 167.14 84.475 167.123 84.4585C167.107 84.442 167.087 84.4297 167.065 84.4217C167.044 84.4136 167.021 84.4107 166.998 84.4128Z" fill="#DBC7B4"/>
                <path fill-rule="evenodd" clip-rule="evenodd" d="M165.457 84.4128C165.525 84.4145 165.589 84.442 165.637 84.4903C165.685 84.5382 165.712 84.603 165.714 84.6708V85.0139H165.2V84.6708C165.198 84.6364 165.204 84.6026 165.217 84.5708C165.229 84.5386 165.248 84.5098 165.272 84.4856C165.296 84.4611 165.325 84.4424 165.357 84.4297C165.389 84.4174 165.423 84.4115 165.457 84.4128Z" fill="#DBC7B4"/>
                <path fill-rule="evenodd" clip-rule="evenodd" d="M164.644 84.4126C164.669 84.4126 164.694 84.4177 164.717 84.4275C164.741 84.4372 164.762 84.4516 164.78 84.4694C164.798 84.4876 164.812 84.5088 164.822 84.5321C164.832 84.5558 164.837 84.5808 164.837 84.6062V85.018H164.426V84.6062C164.43 84.5528 164.455 84.5033 164.495 84.4673C164.534 84.4313 164.586 84.4118 164.64 84.4126H164.644Z" fill="#DBC7B4"/>
                <path fill-rule="evenodd" clip-rule="evenodd" d="M163.896 84.4131C163.918 84.4131 163.941 84.4173 163.962 84.4258C163.982 84.4347 164.001 84.447 164.018 84.4631C164.033 84.4792 164.046 84.4978 164.054 84.519C164.063 84.5398 164.068 84.5622 164.067 84.5847V85.0142H163.745V84.5847C163.743 84.5635 163.745 84.5419 163.751 84.5211C163.757 84.5004 163.768 84.4817 163.782 84.4652C163.797 84.4491 163.814 84.4364 163.834 84.4271C163.853 84.4182 163.874 84.4135 163.896 84.4131Z" fill="#DBC7B4"/>
                <path d="M167.491 83.9849H163.404V84.07H167.491V83.9849Z" fill="#DBC7B4"/>
                <path d="M168.346 93.9697H162.548V116.81H168.346V93.9697Z" fill="#F3EBE3"/>
                <path fill-rule="evenodd" clip-rule="evenodd" d="M170.463 93.9697H160.43V95.6846H160.451C160.728 95.6859 161.002 95.7414 161.257 95.849C161.512 95.9561 161.744 96.1129 161.939 96.3099C162.134 96.5069 162.288 96.7403 162.392 96.997C162.497 97.2537 162.549 97.5286 162.547 97.8057H168.345C168.344 97.527 168.398 97.2508 168.504 96.9928C168.61 96.7348 168.766 96.5005 168.962 96.3031C169.159 96.1061 169.394 95.9498 169.651 95.8434C169.909 95.7375 170.185 95.6833 170.463 95.6846V93.9697Z" fill="#F3EBE3"/>
                <path d="M135.379 127.887H131.57V161.6H135.379V127.887Z" fill="#DBC7B4"/>
                <path d="M127.055 70.7651H113.085V111.133H127.055V70.7651Z" fill="#F3EBE3"/>
                <path fill-rule="evenodd" clip-rule="evenodd" d="M115.138 68.3009H125.002C126.199 62.6878 120.808 62.3667 120.081 59.8804C119.331 62.3667 113.962 62.6878 115.139 68.3009H115.138Z" fill="#F3EBE3"/>
                <path d="M125.002 68.3008H115.14V70.765H125.002V68.3008Z" fill="#F3EBE3"/>
                <path fill-rule="evenodd" clip-rule="evenodd" d="M122.028 69.3078C121.904 69.3091 121.785 69.359 121.696 69.4472C121.608 69.5357 121.558 69.6552 121.557 69.7797V70.7651H122.516V69.7797C122.515 69.7166 122.502 69.6539 122.476 69.5959C122.451 69.5378 122.414 69.4853 122.369 69.4412C122.323 69.3972 122.269 69.3629 122.21 69.34C122.151 69.3171 122.088 69.3061 122.025 69.3078H122.028Z" fill="#DBC7B4"/>
                <path fill-rule="evenodd" clip-rule="evenodd" d="M123.826 69.3077C123.773 69.3048 123.721 69.3128 123.671 69.3306C123.622 69.3484 123.576 69.3764 123.538 69.4124C123.5 69.4484 123.469 69.492 123.448 69.5403C123.427 69.5886 123.415 69.6407 123.415 69.6932V70.765H124.207V69.6932C124.207 69.6428 124.197 69.5924 124.178 69.5458C124.159 69.4988 124.131 69.456 124.095 69.4204C124.059 69.3844 124.016 69.356 123.97 69.337C123.923 69.3175 123.873 69.3077 123.822 69.3077H123.826Z" fill="#DBC7B4"/>
                <path fill-rule="evenodd" clip-rule="evenodd" d="M120.082 69.3081C120.239 69.3115 120.39 69.3759 120.501 69.4877C120.612 69.5992 120.677 69.75 120.68 69.908V70.7654H119.461V69.908C119.466 69.7466 119.533 69.5932 119.649 69.4814C119.765 69.3691 119.921 69.3069 120.082 69.3081Z" fill="#DBC7B4"/>
                <path fill-rule="evenodd" clip-rule="evenodd" d="M118.113 69.3078C118.238 69.3091 118.357 69.359 118.445 69.4472C118.533 69.5357 118.583 69.6552 118.584 69.7797V70.7651H117.625V69.7797C117.626 69.7166 117.64 69.6539 117.665 69.5959C117.691 69.5378 117.727 69.4853 117.773 69.4412C117.819 69.3972 117.872 69.3629 117.932 69.34C117.991 69.3171 118.054 69.3061 118.117 69.3078H118.113Z" fill="#DBC7B4"/>
                <path fill-rule="evenodd" clip-rule="evenodd" d="M116.338 69.3077C116.388 69.3077 116.439 69.3175 116.485 69.337C116.532 69.356 116.575 69.3844 116.61 69.4204C116.646 69.456 116.675 69.4988 116.694 69.5458C116.713 69.5924 116.723 69.6428 116.723 69.6932V70.765H115.931V69.6932C115.931 69.6407 115.943 69.5886 115.964 69.5403C115.985 69.492 116.016 69.4484 116.054 69.4124C116.093 69.3764 116.138 69.3484 116.187 69.3306C116.237 69.3128 116.289 69.3048 116.342 69.3077H116.338Z" fill="#DBC7B4"/>
                <path d="M125.002 68.3008H115.14V68.4944H125.002V68.3008Z" fill="#DBC7B4"/>
                <path d="M131.57 111.132H62.7476V152.378H131.57V111.132Z" fill="#F3EBE3"/>
                <path d="M108.7 100.997H62.7476V111.131H108.7V100.997Z" fill="#F3EBE3"/>
                <path fill-rule="evenodd" clip-rule="evenodd" d="M94.8801 104.339C94.2819 104.339 93.7079 104.574 93.2834 104.996C92.8585 105.418 92.6175 105.991 92.6128 106.589V111.132H97.1338V106.589C97.1338 105.992 96.897 105.42 96.4755 104.998C96.0544 104.576 95.4829 104.339 94.8868 104.339H94.8801Z" fill="#DBC7B4"/>
                <path fill-rule="evenodd" clip-rule="evenodd" d="M103.16 104.339C102.673 104.343 102.207 104.538 101.863 104.883C101.519 105.228 101.324 105.694 101.32 106.182V111.132H104.999V106.182C104.996 105.694 104.801 105.228 104.457 104.883C104.112 104.538 103.647 104.343 103.16 104.339Z" fill="#DBC7B4"/>
                <path fill-rule="evenodd" clip-rule="evenodd" d="M85.7229 104.339C86.099 104.339 86.4723 104.413 86.8201 104.558C87.1679 104.702 87.4839 104.914 87.7504 105.18C88.0164 105.447 88.2278 105.764 88.3718 106.112C88.5159 106.46 88.59 106.834 88.59 107.211V111.132H82.8566V107.211C82.8566 106.449 83.1586 105.72 83.6962 105.181C84.2334 104.642 84.9624 104.34 85.7229 104.339Z" fill="#DBC7B4"/>
                <path fill-rule="evenodd" clip-rule="evenodd" d="M76.5676 104.339C77.1657 104.339 77.7397 104.574 78.1642 104.996C78.5891 105.418 78.8302 105.991 78.8348 106.589V111.132H74.3138V106.589C74.3138 105.992 74.5507 105.42 74.9722 104.998C75.3933 104.576 75.9647 104.339 76.5608 104.339H76.5676Z" fill="#DBC7B4"/>
                <path fill-rule="evenodd" clip-rule="evenodd" d="M68.2848 104.339C68.7715 104.343 69.2375 104.538 69.5819 104.883C69.9263 105.228 70.1212 105.694 70.1246 106.182V111.132H66.4449V106.182C66.4488 105.694 66.6436 105.228 66.988 104.883C67.332 104.538 67.798 104.343 68.2848 104.339Z" fill="#DBC7B4"/>
                <path d="M66.4488 100.997H62.7476V111.131H66.4488V100.997Z" fill="#DBC7B4"/>
                <path fill-rule="evenodd" clip-rule="evenodd" d="M68.6519 90.5609H102.795C106.924 71.1492 88.2736 69.9923 85.745 61.4214C83.1774 69.9923 64.5228 71.1492 68.6519 90.5609Z" fill="#F3EBE3"/>
                <path d="M102.796 90.563H68.6522V100.997H102.796V90.563Z" fill="#F3EBE3"/>
                <path fill-rule="evenodd" clip-rule="evenodd" d="M90.6867 97.5054H88.2703V96.0057C88.2703 95.4266 88.6812 94.9559 88.9756 94.6132C89.1468 94.4196 89.3183 94.2481 89.4895 94.0562C89.6386 94.2481 89.8318 94.4196 89.9813 94.6132C90.3016 94.9559 90.6867 95.4266 90.6867 96.0057V97.5054Z" fill="#DBC7B4"/>
                <path fill-rule="evenodd" clip-rule="evenodd" d="M98.0678 97.5054H95.9501V96.0057C95.9501 95.4266 96.2924 94.9559 96.5487 94.6132C96.6995 94.4196 96.8486 94.2481 96.9977 94.0562C97.1473 94.2481 97.2981 94.4196 97.4472 94.6132C97.7213 94.9559 98.0678 95.4266 98.0678 96.0057V97.5054Z" fill="#DBC7B4"/>
                <path fill-rule="evenodd" clip-rule="evenodd" d="M101.042 97.5054H99.7792V96.0057C99.7889 95.5194 99.9139 95.0419 100.143 94.6132C100.229 94.4196 100.315 94.2481 100.4 94.0562C100.486 94.2481 100.593 94.4196 100.674 94.6132C100.903 95.0419 101.028 95.5194 101.038 96.0057L101.042 97.5054Z" fill="#DBC7B4"/>
                <path fill-rule="evenodd" clip-rule="evenodd" d="M94.4306 97.5054H92.1019V96.0057C92.1019 95.4266 92.4866 94.9559 92.7869 94.6132C92.9581 94.4196 93.1292 94.2481 93.2784 94.0562C93.4279 94.2481 93.599 94.4196 93.7702 94.6132C94.0705 94.9559 94.4336 95.4266 94.4336 96.0057L94.4306 97.5054Z" fill="#DBC7B4"/>
                <path fill-rule="evenodd" clip-rule="evenodd" d="M84.4408 97.5054H87.0067V96.0057C87.0067 95.4266 86.5793 94.9559 86.2586 94.6132C86.0875 94.4196 85.8943 94.2481 85.7231 94.0562C85.5533 94.2481 85.3601 94.4196 85.1889 94.6132C84.8682 94.9559 84.4408 95.4266 84.4408 96.0057V97.5054Z" fill="#DBC7B4"/>
                <path fill-rule="evenodd" clip-rule="evenodd" d="M80.7611 97.5054H83.1775V96.0057C83.1775 95.4266 82.7666 94.9559 82.4722 94.6132C82.3006 94.4196 82.1294 94.2481 81.9583 94.0562C81.8092 94.2481 81.616 94.4196 81.4665 94.6132C81.1458 94.9559 80.7611 95.4266 80.7611 96.0057V97.5054Z" fill="#DBC7B4"/>
                <path fill-rule="evenodd" clip-rule="evenodd" d="M73.3799 97.5054H75.5196V96.0057C75.5196 95.4266 75.1773 94.9559 74.899 94.6132C74.7482 94.4196 74.5991 94.2481 74.4496 94.0562C74.2992 94.2481 74.1496 94.4196 74.0005 94.6132C73.7264 94.9559 73.3799 95.4266 73.3799 96.0057V97.5054Z" fill="#DBC7B4"/>
                <path fill-rule="evenodd" clip-rule="evenodd" d="M70.4053 97.5054H71.6889V96.0057C71.6732 95.5173 71.5415 95.0398 71.3038 94.6132C71.2191 94.4196 71.1326 94.2481 71.0479 94.0562C70.9615 94.2481 70.8547 94.4196 70.7738 94.6132C70.6243 94.9559 70.4095 95.4266 70.4095 96.0057L70.4053 97.5054Z" fill="#DBC7B4"/>
                <path fill-rule="evenodd" clip-rule="evenodd" d="M77.0169 97.5054H79.3456V96.0057C79.3456 95.4266 78.9605 94.9559 78.6606 94.6132C78.4894 94.4196 78.3399 94.2481 78.1687 94.0562C78.0196 94.2481 77.8485 94.4196 77.6769 94.6132C77.377 94.9559 77.0139 95.4266 77.0139 96.0057L77.0169 97.5054Z" fill="#DBC7B4"/>
                <path d="M102.796 90.563H68.6522V91.2268H102.796V90.563Z" fill="#DBC7B4"/>
                <path d="M102.796 99.7759H68.6522V100.976H102.796V99.7759Z" fill="#DBC7B4"/>
                <path fill-rule="evenodd" clip-rule="evenodd" d="M99.9074 131.744C98.7704 131.749 97.6817 132.205 96.8797 133.012C96.0778 133.819 95.6279 134.912 95.6292 136.051V152.378H104.208V136.051C104.207 134.909 103.754 133.814 102.948 133.006C102.142 132.198 101.048 131.744 99.9074 131.744Z" fill="#DBC7B4"/>
                <path fill-rule="evenodd" clip-rule="evenodd" d="M113.579 131.744C112.69 131.749 111.838 132.105 111.209 132.735C110.58 133.364 110.224 134.217 110.219 135.108V152.378H116.932V135.108C116.931 134.216 116.577 133.362 115.947 132.731C115.318 132.101 114.465 131.746 113.575 131.744H113.579Z" fill="#DBC7B4"/>
                <path fill-rule="evenodd" clip-rule="evenodd" d="M125.961 131.744H125.94C125.212 131.75 124.515 132.044 124.002 132.562C123.489 133.079 123.201 133.779 123.2 134.509V152.378H128.7V134.509C128.7 133.779 128.411 133.079 127.898 132.562C127.385 132.044 126.689 131.75 125.961 131.744Z" fill="#DBC7B4"/>
                <path fill-rule="evenodd" clip-rule="evenodd" d="M99.9074 131.744C101.048 131.744 102.142 132.198 102.948 133.006C103.754 133.814 104.207 134.909 104.208 136.051V152.378H95.6292V136.051C95.6279 134.912 96.0778 133.819 96.8797 133.012C97.6817 132.205 98.7704 131.749 99.9074 131.744Z" fill="#DBC7B4"/>
                <path d="M131.57 119.51H62.7476V120.624H131.57V119.51Z" fill="#DBC7B4"/>
                <path fill-rule="evenodd" clip-rule="evenodd" d="M120.206 54.339V57.138C120.312 57.2964 120.364 57.4841 120.356 57.6743C120.358 57.8446 120.322 58.0132 120.249 58.167C120.398 58.3165 120.505 58.6376 120.505 59.0231C120.505 59.4527 120.378 59.8162 120.206 59.9454V63.5882H119.932V59.9454C119.761 59.8162 119.632 59.4527 119.632 59.0231C119.632 58.6376 119.739 58.3165 119.889 58.167C119.817 58.0128 119.78 57.8446 119.782 57.6743C119.773 57.4841 119.826 57.296 119.932 57.138V54.3101C119.308 54.2475 118.719 53.9937 118.244 53.5835C117.769 53.1732 117.432 52.6264 117.279 52.0174C117.114 51.4202 117.132 50.7871 117.33 50.2001C117.528 49.6131 117.898 49.0993 118.392 48.7253C118.885 48.3513 119.479 48.1342 120.097 48.1023C120.715 48.0703 121.328 48.2249 121.857 48.5461C121.485 48.4427 121.093 48.4267 120.713 48.4995C120.333 48.5722 119.975 48.7317 119.666 48.9656C119.358 49.1994 119.108 49.5013 118.934 49.8479C118.761 50.1944 118.67 50.5763 118.669 50.9637C118.667 51.3512 118.755 51.7338 118.925 52.0819C119.094 52.43 119.342 52.7342 119.648 52.9708C119.955 53.2075 120.311 53.3702 120.691 53.4464C121.07 53.5225 121.462 53.5101 121.835 53.4101C122.268 53.2839 122.664 53.0563 122.991 52.746C122.714 53.2383 122.309 53.6462 121.818 53.9266C121.328 54.2071 120.771 54.3495 120.206 54.339Z" fill="#F3EBE3"/>
                <path d="M66.4488 111.132H62.7476V152.378H66.4488V111.132Z" fill="#DBC7B4"/>
                <path fill-rule="evenodd" clip-rule="evenodd" d="M83.4981 131.744C84.3886 131.745 85.2422 132.1 85.8717 132.731C86.5012 133.361 86.8558 134.216 86.8571 135.108V152.378H80.1447V135.108C80.1493 134.218 80.5047 133.365 81.1334 132.735C81.7621 132.105 82.6131 131.749 83.5024 131.744H83.4981Z" fill="#DBC7B4"/>
                <path fill-rule="evenodd" clip-rule="evenodd" d="M71.1327 131.744C71.494 131.745 71.8516 131.817 72.185 131.957C72.5179 132.097 72.8204 132.3 73.075 132.557C73.3296 132.814 73.5308 133.119 73.6677 133.453C73.8045 133.788 73.8744 134.147 73.8727 134.509V152.378H68.3752V134.509C68.3769 133.776 68.668 133.074 69.1852 132.556C69.7021 132.038 70.4027 131.746 71.1344 131.744H71.1327Z" fill="#DBC7B4"/>
                <path fill-rule="evenodd" clip-rule="evenodd" d="M44.5201 79.8069H-4.17115C-10.062 52.1021 16.5591 50.4529 20.1525 38.2607C23.7898 50.4529 50.3822 52.1021 44.5201 79.8069Z" fill="#DBC7B4"/>
                <path fill-rule="evenodd" clip-rule="evenodd" d="M44.5202 79.8069H25.6791C20.9513 73.7219 17.8922 64.2516 17.8922 53.5812C17.8922 48.0531 18.7046 42.8462 20.1595 38.2607C23.7967 50.4529 50.389 52.1021 44.527 79.8069H44.5202Z" fill="#F3EBE3"/>
                <path fill-rule="evenodd" clip-rule="evenodd" d="M102.795 90.5609H68.652C64.5229 71.1492 83.1733 69.9923 85.7231 61.4214C88.2695 69.9923 106.925 71.1492 102.795 90.5609Z" fill="#DBC7B4"/>
                <path fill-rule="evenodd" clip-rule="evenodd" d="M102.795 90.5609H89.5738C86.2584 86.3186 84.1187 79.6558 84.1187 72.1753C84.1187 68.2965 84.6969 64.6292 85.7229 61.4185C88.2694 69.9898 106.924 71.1463 102.795 90.5583V90.5609Z" fill="#F3EBE3"/>
                <path fill-rule="evenodd" clip-rule="evenodd" d="M156.772 115.975H135.401C132.834 103.826 144.515 103.098 146.098 97.7412C147.681 103.093 159.361 103.826 156.774 115.975H156.772Z" fill="#DBC7B4"/>
                <path fill-rule="evenodd" clip-rule="evenodd" d="M156.772 115.975H148.514C146.438 113.318 145.089 109.161 145.089 104.469C145.079 102.189 145.418 99.9218 146.094 97.7456C147.678 103.096 159.359 103.831 156.771 115.979L156.772 115.975Z" fill="#F3EBE3"/>
            </g>
            <mask id="mask2_3619_66810" style="mask-type:alpha" maskUnits="userSpaceOnUse" x="3" y="3" width="314" height="213">
                <rect x="3" y="3.59961" width="314" height="212" rx="11" fill="white"/>
                <rect x="4.5" y="5.09961" width="311" height="209" rx="9.5" stroke="#7D5E41" stroke-opacity="0.3" stroke-width="3"/>
            </mask>
            <g mask="url(#mask2_3619_66810)">
                <path d="M113 134.213C-26.1997 120.213 -35.333 193.38 -22.4997 231.713V276.713H351.5V21.2132C340 13.0465 315.2 3.41318 308 30.2132C299 63.7132 287 151.713 113 134.213Z" fill="#F2E7DC"/>
                <g clip-path="url(#clip1_3619_66810)">
                    <path opacity="0.1" d="M59.3741 324.106L-33.3456 270.643C-42.5488 265.323 -41.4032 256.03 -30.7997 249.895L179.372 128.547C190.014 122.399 206.104 121.737 215.32 127.058L308.027 180.521C317.001 186.236 316.084 195.121 305.481 201.269L95.2578 322.617C84.6161 328.752 68.5264 329.427 59.3741 324.106Z" fill="#7D5E41"/>
                    <path d="M311.413 158.537C310.063 157.532 310.063 157.532 308.79 156.704L215.218 102.669C205.913 97.2971 189.67 97.9718 178.94 104.171L-32.5437 226.27C-34.0526 227.142 -35.4686 228.165 -36.7698 229.325C-38.8953 231.252 -40.5827 233.613 -41.7179 236.248C-42.8532 238.883 -43.41 241.731 -43.3508 244.6C-43.3508 254.783 -37.8773 258.436 -37.8773 258.436C-36.9991 259.146 -36.0811 259.805 -35.1278 260.409L58.4447 314.432C67.7498 319.804 84.1451 319.206 94.8758 313.007L306.397 190.908C306.957 190.577 307.492 190.233 308.001 189.89C308.001 189.89 317.905 184.021 317.905 173.507C317.963 170.692 317.414 167.897 316.294 165.313C315.173 162.73 313.508 160.418 311.413 158.537Z" fill="#D3C2B2"/>
                    <path d="M74.3817 318.747C68.723 318.908 63.1175 317.615 58.1011 314.992L-35.4587 260.969C-36.4406 260.346 -37.3881 259.67 -38.2974 258.945C-38.4883 258.818 -44.0001 254.974 -44.0001 244.612C-44.0751 241.642 -43.5037 238.691 -42.3257 235.963C-41.1476 233.236 -39.3909 230.797 -37.1772 228.815H-37.0754C-35.7742 227.669 -34.3629 226.654 -32.862 225.786L178.66 103.687C189.556 97.3986 206.116 96.724 215.574 102.185L309.147 156.208C310.42 157.073 310.42 157.073 311.833 158.092C314.004 160.031 315.727 162.421 316.881 165.094C318.036 167.767 318.593 170.66 318.515 173.57C318.515 184.314 308.714 190.258 308.332 190.5C307.95 190.742 307.288 191.188 306.716 191.519L95.1813 313.566C88.8017 317.034 81.6427 318.818 74.3817 318.747ZM-36.5025 229.897C-38.5156 231.788 -40.1096 234.081 -41.1818 236.626C-42.2539 239.172 -42.7804 241.914 -42.7271 244.676C-42.7271 254.312 -37.6354 257.952 -37.5336 257.991C-36.663 258.685 -35.758 259.335 -34.8223 259.938L58.7503 313.961C67.9408 319.256 83.9923 318.62 94.5448 312.535L306.066 190.373C306.618 190.042 307.14 189.711 307.632 189.38C307.759 189.304 317.255 183.537 317.255 173.519C317.312 170.806 316.79 168.111 315.723 165.616C314.656 163.12 313.07 160.88 311.069 159.046C309.732 158.053 309.732 158.053 308.523 157.226L214.976 103.216C205.862 97.9587 189.874 98.6334 179.334 104.731L-32.2764 226.855C-33.7431 227.708 -35.1205 228.706 -36.388 229.833C-36.4228 229.86 -36.4614 229.882 -36.5025 229.897Z" fill="#D3C2B2"/>
                    <path d="M309.427 156.946L306.97 168.403L214.671 115.118C205.455 109.81 189.365 110.472 178.723 116.62L-24.6388 234.073L-35.5859 227.899C-37.694 229.81 -39.3669 232.151 -40.4913 234.764C-41.6158 237.378 -42.1655 240.202 -42.1033 243.047C-42.1033 253.09 -36.6806 256.756 -36.6806 256.756C-35.8087 257.454 -34.8993 258.104 -33.9566 258.704L58.7631 312.166C67.9663 317.487 84.0561 316.825 94.6977 310.677L304.87 189.342C305.443 189.011 305.965 188.68 306.474 188.337C306.474 188.337 316.428 182.583 316.428 172.17C316.495 169.267 315.9 166.387 314.687 163.749C313.474 161.111 311.675 158.784 309.427 156.946Z" fill="#7D5E41"/>
                    <path d="M309.198 157.074L306.728 168.53L214.454 115.258C205.238 109.937 189.148 110.599 178.507 116.747L-24.9316 234.2L-35.8788 228.026C-37.9868 229.937 -39.6597 232.278 -40.7842 234.892C-41.9086 237.505 -42.4583 240.33 -42.3961 243.174C-42.3961 253.23 -36.9735 256.883 -36.9735 256.883C-36.102 257.586 -35.1926 258.241 -34.2494 258.844L58.4575 312.37C67.6735 317.678 83.7632 317.016 94.4048 310.881L304.577 189.533C305.137 189.202 305.659 188.871 306.168 188.527C306.168 188.527 316.135 182.774 316.135 172.361C316.22 169.453 315.639 166.564 314.437 163.914C313.234 161.265 311.443 158.925 309.198 157.074Z" fill="#DAD0C7"/>
                    <path d="M307.276 167.028L306.97 168.441L285.254 155.915C247.525 159.67 174.153 188.133 174.153 188.133L79.639 264.839L75.311 297.642C75.0914 299.305 75.4318 300.993 76.2785 302.441C76.8172 303.366 77.1554 304.394 77.2713 305.458L77.4114 306.82V310.435C77.4127 311.577 77.0859 312.695 76.4698 313.656C75.8537 314.618 74.9743 315.382 73.9363 315.858C81.1599 315.98 88.2917 314.226 94.634 310.766L304.806 189.431C305.379 189.1 305.901 188.769 306.41 188.425C306.41 188.4 311.947 184.199 307.276 167.028Z" fill="#7D5E41"/>
                    <path d="M74.3055 316.138C68.825 316.293 63.3959 315.044 58.534 312.51L-34.173 258.983C-35.1336 258.384 -36.0561 257.725 -36.9352 257.01C-37.1516 256.87 -42.4852 253.192 -42.4852 243.008C-42.5348 240.116 -41.9679 237.247 -40.8222 234.591C-39.6765 231.935 -37.9782 229.554 -35.8405 227.606C-35.7886 227.569 -35.7262 227.549 -35.6623 227.549C-35.5984 227.549 -35.536 227.569 -35.4841 227.606L-24.7024 233.69L178.583 116.327C189.289 110.141 205.556 109.479 214.836 114.838L306.754 167.893L309.121 156.844C309.132 156.793 309.155 156.746 309.188 156.706C309.222 156.666 309.264 156.635 309.312 156.615C309.36 156.591 309.412 156.578 309.465 156.578C309.518 156.578 309.571 156.591 309.618 156.615C311.894 158.503 313.713 160.882 314.936 163.574C316.16 166.267 316.757 169.201 316.683 172.157C316.683 182.634 306.665 188.54 306.563 188.591C305.965 188.998 305.455 189.316 304.972 189.596L94.7995 311.021C88.5141 314.44 81.4607 316.202 74.3055 316.138ZM-35.6114 228.306C-37.6188 230.2 -39.2101 232.49 -40.2839 235.033C-41.3578 237.575 -41.8907 240.313 -41.8487 243.072C-41.8487 252.81 -36.617 256.476 -36.5661 256.514C-35.7003 257.215 -34.795 257.865 -33.8547 258.462L58.8522 311.988C67.9663 317.245 83.9415 316.57 94.494 310.499L304.666 189.151C305.15 188.871 305.634 188.565 306.245 188.158C306.359 188.094 316.059 182.366 316.059 172.259C316.128 169.492 315.595 166.742 314.496 164.201C313.397 161.66 311.758 159.389 309.694 157.544L307.339 168.491C307.331 168.541 307.31 168.588 307.279 168.628C307.248 168.668 307.208 168.7 307.161 168.721C307.115 168.742 307.065 168.753 307.015 168.753C306.964 168.753 306.914 168.742 306.868 168.721L214.581 115.436C205.48 110.179 189.505 110.841 178.94 116.925L-24.5369 234.352C-24.5864 234.377 -24.6408 234.39 -24.6961 234.39C-24.7513 234.39 -24.8058 234.377 -24.8552 234.352L-35.6114 228.306Z" fill="#D3C2B2"/>
                    <path d="M58.6994 299.157L-34.0203 245.631C-43.2235 240.31 -42.0779 231.018 -31.4744 224.882L178.698 103.534C189.339 97.3863 205.429 96.7244 214.645 102.045L307.39 155.572C316.364 161.287 315.448 170.172 304.844 176.32L94.634 297.668C83.9924 303.803 67.9026 304.503 58.6994 299.157Z" fill="#7D5E41"/>
                    <path opacity="0.6" d="M-31.4363 224.818C-42.0779 230.967 -43.2235 240.259 -33.9821 245.58L-15.8302 256.132L32.1844 188.158L-31.4363 224.818Z" fill="white"/>
                    <path opacity="0.6" d="M304.743 176.346C315.384 170.197 316.301 161.3 307.288 155.597L294.699 148.329L254.386 205.394L304.743 176.346Z" fill="white"/>
                    <path opacity="0.6" d="M214.467 102.109C205.264 96.7878 189.174 97.4498 178.532 103.598L115.828 139.8L19.2261 276.499L58.483 299.157C67.6989 304.478 83.7887 303.803 94.4303 297.668L190.027 242.474L267.573 132.659L214.467 102.109Z" fill="white"/>
                    <path d="M74.3055 303.052C68.8245 303.197 63.3968 301.944 58.5339 299.412L-34.173 245.949C-38.2845 243.569 -40.5376 240.272 -40.5376 236.657C-40.5376 232.303 -37.2789 227.924 -31.6271 224.64L178.583 103.254C189.289 97.0679 205.556 96.406 214.836 101.765L307.594 155.291C311.718 157.926 313.958 161.363 313.869 164.978C313.78 169.217 310.636 173.354 304.959 176.6L94.7995 297.935C88.5141 301.355 81.4607 303.116 74.3055 303.052ZM58.8522 298.877C67.9663 304.134 83.9415 303.472 94.494 297.388L304.666 176.04C310.089 172.909 313.118 168.975 313.208 164.966C313.284 161.58 311.158 158.334 307.238 155.839L214.531 102.312C205.429 97.0552 189.454 97.7298 178.889 103.814L-31.2707 225.149C-36.7697 228.319 -39.9139 232.507 -39.9139 236.606C-39.9139 239.979 -37.7626 243.085 -33.8548 245.338L58.8522 298.877Z" fill="#101010"/>
                    <path d="M64.1603 295.033L-26.8664 242.474C-33.3838 238.655 -32.5691 232.15 -25.0461 227.797L184.12 107.009C191.643 102.669 203.011 102.198 209.579 105.966L300.606 158.512C307.123 162.331 306.296 168.848 298.785 173.189L89.5678 293.976C82.0448 298.317 70.6776 298.788 64.1603 295.033Z" fill="#EBDDCF"/>
                    <path opacity="0.9" d="M298.849 173.023C306.372 168.682 307.187 162.114 300.669 158.346L292.968 153.904L266.109 191.913L298.849 173.023Z" fill="white"/>
                    <path opacity="0.9" d="M209.808 105.927C203.303 102.109 191.923 102.63 184.35 106.971L111.997 148.748L24.8142 272.222L64.3384 295.045C70.8558 298.801 82.2357 298.33 89.7969 293.989L202.018 229.197L266.097 138.476L209.808 105.927Z" fill="white"/>
                    <path opacity="0.9" d="M-25.0335 227.937C-32.5437 232.278 -33.3711 238.846 -26.8537 242.614L-10.6367 251.983L27.971 197.336L-25.0335 227.937Z" fill="white"/>
                    <path d="M75.1964 297.872C71.3064 297.993 67.4501 297.117 63.9947 295.326L-27.032 242.779C-29.9597 241.074 -31.5763 238.719 -31.5763 236.122C-31.5763 233.016 -29.2596 229.897 -25.2117 227.555L183.993 106.768C191.631 102.376 203.087 101.905 209.732 105.711L300.746 158.27C303.686 159.963 305.303 162.318 305.303 164.915C305.303 168.021 302.986 171.152 298.938 173.494L89.7332 294.32C85.2668 296.716 80.2646 297.938 75.1964 297.872ZM198.543 103.738C193.579 103.697 188.686 104.919 184.324 107.29L-24.8807 228.128C-28.6995 230.356 -30.9398 233.22 -30.9398 236.148C-30.9398 238.502 -29.4378 240.666 -26.7137 242.245L64.313 294.804C70.6776 298.508 81.9938 298.037 89.415 293.747L298.683 172.909C302.502 170.681 304.743 167.817 304.743 164.889C304.743 162.534 303.24 160.37 300.504 158.792L209.49 106.233C206.113 104.481 202.345 103.622 198.543 103.738Z" fill="#101010"/>
                    <path d="M200.808 117.269C199.844 117.759 198.778 118.014 197.696 118.014C196.614 118.014 195.548 117.759 194.584 117.269C192.865 116.276 192.865 114.723 194.584 113.68C195.548 113.19 196.614 112.935 197.696 112.935C198.778 112.935 199.844 113.19 200.808 113.68C202.527 114.672 202.527 116.276 200.808 117.269Z" fill="#7D5E41"/>
                    <path d="M200.808 117.269C199.844 117.759 198.778 118.014 197.696 118.014C196.614 118.014 195.548 117.759 194.584 117.269C192.865 116.276 192.865 114.723 194.584 113.68C195.548 113.19 196.614 112.935 197.696 112.935C198.778 112.935 199.844 113.19 200.808 113.68C202.527 114.672 202.527 116.276 200.808 117.269Z" fill="white"/>
                    <path d="M199.497 117.485C198.963 117.756 198.372 117.897 197.773 117.897C197.173 117.897 196.582 117.756 196.048 117.485C195.84 117.414 195.659 117.279 195.531 117.1C195.403 116.921 195.334 116.706 195.334 116.486C195.334 116.266 195.403 116.051 195.531 115.872C195.659 115.693 195.84 115.558 196.048 115.487C196.582 115.216 197.173 115.075 197.773 115.075C198.372 115.075 198.963 115.216 199.497 115.487C199.706 115.558 199.886 115.693 200.014 115.872C200.142 116.051 200.211 116.266 200.211 116.486C200.211 116.706 200.142 116.921 200.014 117.1C199.886 117.279 199.706 117.414 199.497 117.485Z" fill="#EBDDCF"/>
                    <path d="M199.497 117.485C198.963 117.756 198.372 117.897 197.773 117.897C197.173 117.897 196.582 117.756 196.048 117.485C195.84 117.414 195.659 117.279 195.531 117.1C195.403 116.921 195.334 116.706 195.334 116.486C195.334 116.266 195.403 116.051 195.531 115.872C195.659 115.693 195.84 115.558 196.048 115.487C196.582 115.216 197.173 115.075 197.773 115.075C198.372 115.075 198.963 115.216 199.497 115.487C199.706 115.558 199.886 115.693 200.014 115.872C200.142 116.051 200.211 116.266 200.211 116.486C200.211 116.706 200.142 116.921 200.014 117.1C199.886 117.279 199.706 117.414 199.497 117.485Z" fill="white"/>
                    <path d="M249.701 216.175C249.701 216.175 247.639 212.471 244.304 214.329L221.57 227.619C220.434 228.43 219.505 229.496 218.858 230.732C218.21 231.968 217.861 233.339 217.84 234.734C217.811 235.533 218.01 236.323 218.413 237.013C218.468 237.097 218.527 237.177 218.591 237.255C219.035 237.861 219.608 238.361 220.268 238.72C220.928 239.079 221.66 239.287 222.41 239.33C222.41 239.33 223.161 239.202 223.225 239.177C223.45 239.101 223.668 239.002 223.874 238.884L246.557 225.582C247.693 224.771 248.622 223.704 249.27 222.468C249.917 221.232 250.266 219.862 250.287 218.466C250.317 217.662 250.113 216.866 249.701 216.175Z" fill="#101010"/>
                    <path d="M222.193 239.661C221.439 239.579 220.71 239.341 220.052 238.962C219.395 238.583 218.823 238.071 218.375 237.458C218.302 237.373 218.234 237.284 218.171 237.191C217.736 236.447 217.519 235.596 217.547 234.734C217.572 233.284 217.937 231.86 218.611 230.576C219.285 229.291 220.25 228.183 221.43 227.339L244.151 214.126C247.741 212.127 249.969 216.035 249.994 216.086C250.415 216.816 250.622 217.65 250.592 218.492C250.568 219.942 250.205 221.367 249.53 222.651C248.856 223.936 247.89 225.044 246.71 225.888L223.963 239.177C223.743 239.31 223.508 239.417 223.263 239.495C223.263 239.495 222.41 239.661 222.333 239.661H222.193ZM218.68 236.835L218.833 237.051C219.239 237.613 219.762 238.079 220.367 238.418C220.971 238.757 221.642 238.959 222.333 239.011L223.084 238.871C223.283 238.804 223.475 238.719 223.657 238.617L246.404 225.327C247.49 224.544 248.377 223.519 248.996 222.332C249.615 221.145 249.948 219.83 249.969 218.492C250.005 217.742 249.819 216.998 249.434 216.353V216.264C249.167 215.819 247.346 213.031 244.508 214.609L221.761 227.886C220.676 228.672 219.789 229.701 219.17 230.889C218.551 232.078 218.218 233.394 218.196 234.734C218.164 235.47 218.346 236.199 218.718 236.835H218.68Z" fill="#101010"/>
                    <path d="M249.154 216.252C249.154 216.252 247.232 212.802 244.062 214.533L221.557 227.53C220.498 228.288 219.633 229.285 219.029 230.439C218.425 231.593 218.101 232.872 218.082 234.175C218.045 234.919 218.226 235.658 218.604 236.3L218.769 236.542C219.368 237.255 221.379 239.381 223.657 238.057L232.479 230.496L244.062 223.813C245.057 223.099 245.882 222.174 246.478 221.105C247.074 220.036 247.427 218.848 247.512 217.627L249.154 216.252Z" fill="#EBDDCF"/>
                    <path opacity="0.9" d="M249.154 216.252C249.154 216.252 247.232 212.802 244.062 214.533L221.557 227.53C220.498 228.288 219.633 229.285 219.029 230.439C218.425 231.593 218.101 232.872 218.082 234.175C218.045 234.919 218.226 235.658 218.604 236.3L218.769 236.542C219.368 237.255 221.379 239.381 223.657 238.057L232.479 230.496L244.062 223.813C245.057 223.099 245.882 222.174 246.478 221.105C247.074 220.036 247.427 218.848 247.512 217.627L249.154 216.252Z" fill="white"/>
                    <path d="M222.206 238.795C221.494 238.72 220.804 238.499 220.18 238.147C219.556 237.794 219.011 237.317 218.579 236.745L218.4 236.491C217.986 235.791 217.783 234.987 217.815 234.174C217.838 232.817 218.178 231.484 218.808 230.282C219.438 229.079 220.34 228.041 221.443 227.249L243.948 214.253C247.321 212.394 249.421 216.06 249.434 216.099C249.473 216.161 249.488 216.235 249.476 216.308C249.464 216.38 249.427 216.446 249.371 216.493L247.868 217.766C247.772 219.027 247.4 220.25 246.777 221.35C246.154 222.45 245.297 223.4 244.266 224.131L232.695 230.814L223.925 238.311C223.407 238.626 222.812 238.793 222.206 238.795ZM218.922 236.134C218.969 236.205 219.02 236.274 219.075 236.338C219.75 237.166 221.544 238.948 223.556 237.789L232.326 230.254L243.948 223.545C244.897 222.854 245.683 221.964 246.253 220.937C246.822 219.91 247.161 218.772 247.245 217.601C247.245 217.56 247.255 217.519 247.273 217.482C247.29 217.444 247.315 217.411 247.347 217.384L248.747 216.188C248.543 215.803 248.266 215.462 247.93 215.184C247.595 214.907 247.208 214.698 246.792 214.571C246.375 214.443 245.938 214.399 245.505 214.44C245.071 214.482 244.65 214.608 244.266 214.813L221.761 227.797C220.754 228.529 219.932 229.485 219.357 230.59C218.783 231.694 218.473 232.917 218.451 234.161C218.43 234.845 218.592 235.522 218.922 236.122V236.134Z" fill="#101010"/>
                    <path d="M220.233 235.435C220.25 234.13 220.574 232.848 221.177 231.692C221.781 230.535 222.648 229.537 223.708 228.777L246.214 215.781C248.136 214.673 249.701 215.857 249.701 218.416C249.679 219.72 249.352 221.002 248.746 222.157C248.14 223.313 247.273 224.312 246.214 225.073L223.708 238.057C221.786 239.177 220.233 237.993 220.233 235.435Z" fill="#7D5E41"/>
                    <path d="M220.233 235.435C220.25 234.13 220.574 232.848 221.177 231.692C221.781 230.535 222.648 229.537 223.708 228.777L246.214 215.781C248.136 214.673 249.701 215.857 249.701 218.416C249.679 219.72 249.352 221.002 248.746 222.157C248.14 223.313 247.273 224.312 246.214 225.073L223.708 238.057C221.786 239.177 220.233 237.993 220.233 235.435Z" fill="white"/>
                    <path d="M222.308 238.795C221.937 238.8 221.571 238.703 221.252 238.515C220.775 238.166 220.398 237.697 220.159 237.157C219.92 236.616 219.827 236.022 219.89 235.434C219.912 234.074 220.253 232.738 220.885 231.533C221.518 230.328 222.423 229.288 223.53 228.497L246.035 215.513C246.405 215.26 246.836 215.109 247.283 215.075C247.73 215.042 248.178 215.127 248.581 215.322C249.057 215.675 249.433 216.146 249.672 216.688C249.911 217.231 250.004 217.826 249.943 218.415C249.918 219.773 249.575 221.107 248.943 222.309C248.311 223.511 247.407 224.549 246.303 225.34L223.874 238.311C223.404 238.609 222.864 238.775 222.308 238.795ZM247.576 215.691C247.126 215.7 246.687 215.827 246.303 216.061L223.797 229.057C222.785 229.785 221.957 230.739 221.38 231.845C220.803 232.95 220.493 234.175 220.475 235.422C220.417 235.9 220.482 236.385 220.665 236.831C220.847 237.277 221.141 237.668 221.519 237.967C221.832 238.115 222.179 238.176 222.523 238.144C222.868 238.113 223.198 237.99 223.479 237.789L245.984 224.793C246.996 224.064 247.823 223.11 248.4 222.004C248.977 220.899 249.288 219.675 249.307 218.428C249.367 217.95 249.302 217.464 249.119 217.018C248.936 216.572 248.641 216.181 248.263 215.882C248.06 215.768 247.834 215.702 247.601 215.691H247.576Z" fill="#101010"/>
                    <path d="M284.478 196.19C284.478 196.19 282.416 192.499 279.08 194.344L256.346 207.634C255.211 208.445 254.282 209.511 253.634 210.747C252.986 211.983 252.637 213.354 252.616 214.749C252.587 215.548 252.786 216.338 253.189 217.028L253.367 217.282C253.813 217.886 254.386 218.384 255.046 218.741C255.706 219.097 256.437 219.303 257.186 219.345C257.186 219.345 257.937 219.217 258.001 219.192C258.226 219.12 258.443 219.026 258.65 218.912L281.384 205.623C282.52 204.811 283.449 203.745 284.097 202.509C284.745 201.273 285.093 199.902 285.114 198.507C285.134 197.689 284.912 196.883 284.478 196.19Z" fill="#101010"/>
                    <path d="M256.97 219.676C256.217 219.594 255.489 219.357 254.832 218.98C254.175 218.603 253.602 218.095 253.151 217.487L252.947 217.207C252.512 216.463 252.296 215.611 252.324 214.75C252.351 213.3 252.716 211.876 253.39 210.593C254.064 209.309 255.028 208.2 256.206 207.354L278.953 194.078C282.543 192.079 284.77 196 284.796 196.038C285.217 196.773 285.424 197.61 285.394 198.456C285.369 199.905 285.005 201.327 284.331 202.609C283.656 203.892 282.691 204.998 281.512 205.839L258.752 219.218C258.529 219.346 258.295 219.453 258.052 219.536L257.135 219.714L256.97 219.676ZM253.456 216.863L253.609 217.079C254.012 217.615 254.518 218.064 255.097 218.401C255.677 218.738 256.318 218.955 256.982 219.04H257.11L257.861 218.887C258.06 218.822 258.252 218.737 258.434 218.632L281.181 205.343C282.266 204.56 283.154 203.534 283.772 202.347C284.391 201.161 284.724 199.846 284.745 198.507C284.781 197.757 284.595 197.014 284.21 196.369V196.292C283.943 195.834 282.123 193.046 279.284 194.625L256.537 207.914C255.452 208.697 254.564 209.723 253.945 210.91C253.326 212.097 252.993 213.412 252.973 214.75C252.943 215.489 253.124 216.222 253.495 216.863H253.456Z" fill="#101010"/>
                    <path d="M283.93 196.305C283.93 196.305 282.008 192.855 278.839 194.587L256.333 207.583C255.275 208.342 254.409 209.338 253.805 210.492C253.202 211.646 252.877 212.926 252.858 214.228C252.827 214.976 253.008 215.717 253.38 216.366L253.546 216.595C254.144 217.308 256.155 219.434 258.434 218.11L267.268 210.562L278.839 203.866C279.834 203.153 280.66 202.229 281.257 201.16C281.853 200.09 282.205 198.902 282.288 197.68L283.93 196.305Z" fill="#EBDDCF"/>
                    <path opacity="0.9" d="M283.93 196.305C283.93 196.305 282.008 192.855 278.839 194.587L256.333 207.583C255.275 208.342 254.409 209.338 253.805 210.492C253.202 211.646 252.877 212.926 252.858 214.228C252.827 214.976 253.008 215.717 253.38 216.366L253.546 216.595C254.144 217.308 256.155 219.434 258.434 218.11L267.268 210.562L278.839 203.866C279.834 203.153 280.66 202.229 281.257 201.16C281.853 200.09 282.205 198.902 282.288 197.68L283.93 196.305Z" fill="white"/>
                    <path d="M256.982 218.81C256.27 218.736 255.58 218.515 254.956 218.162C254.332 217.81 253.787 217.333 253.355 216.761L253.176 216.506C252.762 215.807 252.559 215.002 252.591 214.19C252.613 212.831 252.955 211.497 253.587 210.294C254.219 209.091 255.125 208.054 256.231 207.265L278.724 194.281C282.097 192.41 284.198 196.076 284.21 196.114C284.249 196.177 284.264 196.251 284.252 196.323C284.24 196.396 284.203 196.462 284.147 196.509L282.645 197.782C282.551 199.043 282.179 200.267 281.557 201.368C280.934 202.468 280.075 203.417 279.042 204.146L267.471 210.829L258.701 218.352C258.18 218.658 257.586 218.816 256.982 218.81ZM253.698 216.15C253.745 216.221 253.796 216.289 253.851 216.354C254.526 217.181 256.321 218.963 258.332 217.805L267.102 210.282L278.724 203.561C279.676 202.872 280.465 201.983 281.035 200.956C281.604 199.928 281.941 198.788 282.021 197.616C282.021 197.574 282.032 197.532 282.052 197.494C282.072 197.457 282.1 197.424 282.135 197.4L283.523 196.203C283.109 195.428 282.406 194.849 281.566 194.591C280.727 194.334 279.819 194.419 279.042 194.829L256.55 207.825C255.536 208.552 254.708 209.507 254.131 210.612C253.554 211.717 253.245 212.943 253.227 214.19C253.206 214.874 253.369 215.551 253.698 216.15Z" fill="#101010"/>
                    <path d="M255.01 215.399C255.027 214.094 255.35 212.812 255.954 211.656C256.557 210.5 257.424 209.501 258.485 208.741L280.99 195.796C282.912 194.688 284.478 195.872 284.478 198.431C284.458 199.736 284.132 201.018 283.526 202.175C282.921 203.331 282.052 204.329 280.99 205.088L258.485 218.072C256.563 219.218 255.01 218.008 255.01 215.399Z" fill="#7D5E41"/>
                    <path d="M255.01 215.399C255.027 214.094 255.35 212.812 255.954 211.656C256.557 210.5 257.424 209.501 258.485 208.741L280.99 195.796C282.912 194.688 284.478 195.872 284.478 198.431C284.458 199.736 284.132 201.018 283.526 202.175C282.921 203.331 282.052 204.329 280.99 205.088L258.485 218.072C256.563 219.218 255.01 218.008 255.01 215.399Z" fill="white"/>
                    <path d="M257.11 218.81C256.74 218.814 256.376 218.722 256.053 218.543C255.577 218.19 255.201 217.719 254.962 217.177C254.723 216.635 254.63 216.039 254.691 215.45C254.716 214.09 255.058 212.754 255.69 211.55C256.322 210.346 257.227 209.305 258.332 208.512L280.862 195.529C281.234 195.278 281.664 195.129 282.111 195.098C282.559 195.066 283.006 195.153 283.408 195.35C283.885 195.7 284.262 196.168 284.501 196.709C284.74 197.249 284.833 197.843 284.77 198.431C284.744 199.791 284.401 201.125 283.769 202.329C283.137 203.534 282.234 204.574 281.13 205.368L258.625 218.352C258.167 218.632 257.646 218.79 257.11 218.81ZM282.377 195.707C281.928 195.715 281.489 195.843 281.104 196.076L258.65 209.034C257.638 209.763 256.811 210.718 256.234 211.823C255.657 212.928 255.347 214.153 255.328 215.399C255.269 215.877 255.334 216.362 255.517 216.808C255.7 217.254 255.994 217.645 256.371 217.945C256.685 218.092 257.031 218.153 257.376 218.122C257.72 218.09 258.05 217.968 258.332 217.767L280.862 204.808C281.874 204.08 282.701 203.125 283.278 202.02C283.855 200.915 284.166 199.69 284.185 198.444C284.243 197.965 284.178 197.48 283.995 197.034C283.813 196.589 283.518 196.197 283.141 195.898C282.908 195.767 282.644 195.701 282.377 195.707Z" fill="#101010"/>
                    <path d="M83.2795 255.738C82.0342 255.741 80.8112 255.407 79.7408 254.77L51.0619 237.561C50.2175 237.074 49.2613 236.815 48.2869 236.81L19.0097 236.937C18.3345 236.937 17.687 236.669 17.2095 236.191C16.7321 235.714 16.4639 235.066 16.4639 234.391C16.4639 233.716 16.7321 233.068 17.2095 232.591C17.687 232.113 18.3345 231.845 19.0097 231.845L48.2869 231.718C50.1892 231.722 52.0563 232.231 53.6968 233.194L82.3758 250.392C82.6598 250.557 82.9826 250.644 83.3114 250.644C83.6401 250.644 83.963 250.557 84.247 250.392L161.552 205.114C161.841 204.915 162.168 204.777 162.512 204.71C162.857 204.644 163.212 204.649 163.554 204.726C163.897 204.803 164.22 204.95 164.503 205.158C164.786 205.365 165.023 205.629 165.199 205.933C165.375 206.237 165.486 206.574 165.526 206.922C165.566 207.271 165.533 207.625 165.429 207.96C165.326 208.296 165.154 208.606 164.925 208.872C164.696 209.138 164.414 209.354 164.097 209.505L86.7801 254.86C85.7121 255.458 84.5037 255.762 83.2795 255.738Z" fill="#E1C8B0"/>
                    <path d="M174.523 197.807C173.963 197.806 173.419 197.62 172.976 197.279C172.532 196.938 172.213 196.461 172.068 195.92C171.923 195.38 171.96 194.807 172.174 194.289C172.388 193.772 172.766 193.34 173.25 193.059L222.614 164.787C224.251 163.803 226.126 163.283 228.036 163.285H265.702C266.377 163.285 267.025 163.553 267.502 164.031C267.98 164.508 268.248 165.156 268.248 165.831C268.248 166.506 267.98 167.154 267.502 167.631C267.025 168.109 266.377 168.377 265.702 168.377H228.036C227.04 168.375 226.062 168.648 225.21 169.166L175.783 197.476C175.398 197.694 174.964 197.808 174.523 197.807Z" fill="#E1C8B0"/>
                    <path opacity="0.3" d="M276.255 159.39C281.537 162.445 281.537 167.384 276.255 170.439C273.296 171.939 270.025 172.72 266.708 172.72C263.39 172.72 260.12 171.939 257.161 170.439C251.878 167.384 251.878 162.445 257.161 159.39C260.121 157.896 263.391 157.118 266.708 157.118C270.024 157.118 273.294 157.896 276.255 159.39Z" fill="#EBDDCF"/>
                    <path d="M275.633 164.66V164.584C275.596 164.273 275.514 163.968 275.391 163.68C274.83 162.118 273.94 160.694 272.781 159.505L272.578 159.276L272.259 158.932C271.966 158.674 271.646 158.448 271.305 158.258C269.846 157.553 268.242 157.202 266.623 157.236C265.004 157.269 263.415 157.684 261.987 158.449C261.656 158.657 261.345 158.896 261.058 159.161C260.943 159.276 260.867 159.39 260.752 159.518C260.638 159.645 260.612 159.671 260.561 159.747C259.456 160.983 258.627 162.442 258.13 164.024C258.018 164.322 257.95 164.635 257.926 164.953V165.271C257.926 166.633 258.766 167.741 260.587 168.746C262.554 169.694 264.717 170.163 266.901 170.117C269.084 170.07 271.225 169.509 273.15 168.479C274.933 167.41 275.76 166.15 275.696 164.788L275.633 164.66Z" fill="#101010"/>
                    <path d="M266.557 170.35C264.44 170.398 262.344 169.917 260.46 168.95C258.55 167.906 257.634 166.697 257.685 165.271V164.927C257.705 164.597 257.773 164.271 257.888 163.96C258.396 162.352 259.242 160.872 260.371 159.619L260.485 159.479L260.561 159.39L260.689 159.238C260.745 159.155 260.809 159.078 260.88 159.008C261.161 158.735 261.472 158.496 261.809 158.296C263.27 157.514 264.895 157.088 266.552 157.052C268.208 157.017 269.85 157.373 271.343 158.092C271.689 158.281 272.013 158.508 272.311 158.767L272.501 158.983L272.629 159.123L272.705 159.212C272.762 159.256 272.814 159.308 272.858 159.365C274.03 160.575 274.932 162.02 275.506 163.604C275.629 163.909 275.711 164.231 275.747 164.558V164.8C275.862 166.251 274.971 167.562 273.125 168.683C271.118 169.801 268.854 170.376 266.557 170.35ZM261.16 159.352C261.125 159.412 261.082 159.468 261.032 159.518L260.892 159.683L260.816 159.772L260.727 159.887C259.629 161.102 258.804 162.539 258.308 164.1C258.206 164.383 258.146 164.678 258.13 164.978V165.284C258.13 166.557 258.907 167.588 260.676 168.568C262.609 169.493 264.733 169.951 266.875 169.905C269.018 169.858 271.119 169.309 273.011 168.301C274.704 167.282 275.556 166.111 275.416 164.813V164.622C275.39 164.324 275.317 164.032 275.2 163.756C274.655 162.224 273.787 160.826 272.654 159.658L272.527 159.518C272.5 159.485 272.471 159.455 272.438 159.428L272.311 159.276L272.17 159.123C271.892 158.876 271.59 158.658 271.267 158.474C269.841 157.791 268.274 157.452 266.693 157.485C265.112 157.518 263.561 157.922 262.165 158.665C261.845 158.857 261.55 159.088 261.287 159.352H261.16Z" fill="#101010"/>
                    <path d="M275.073 164.189V164.062C275.076 164.037 275.076 164.011 275.073 163.986C275.043 163.684 274.97 163.388 274.856 163.107C274.231 161.361 273.192 159.793 271.827 158.537L266.417 158.397L261.007 158.767C259.693 160.076 258.722 161.689 258.181 163.464C258.069 163.744 258.005 164.041 257.99 164.342V164.66C257.99 165.933 258.792 167.041 260.536 168.008C262.432 168.919 264.516 169.371 266.619 169.327C268.722 169.283 270.786 168.744 272.642 167.753C274.36 166.735 275.175 165.539 275.073 164.189Z" fill="#AD9B8A"/>
                    <path d="M266.315 169.574C264.281 169.631 262.263 169.194 260.434 168.301C258.563 167.27 257.71 166.137 257.749 164.736V164.406C257.774 164.088 257.842 163.775 257.952 163.476C258.504 161.673 259.492 160.033 260.829 158.703C260.873 158.665 260.925 158.639 260.982 158.626L266.379 158.257L271.814 158.397C271.864 158.379 271.918 158.379 271.967 158.397C273.36 159.68 274.417 161.284 275.048 163.069C275.174 163.36 275.256 163.67 275.289 163.985V164.189C275.391 165.602 274.538 166.862 272.744 167.944C270.782 169.046 268.564 169.608 266.315 169.574ZM261.096 159.008C259.835 160.281 258.901 161.84 258.372 163.553C258.278 163.82 258.218 164.098 258.194 164.38V164.686C258.194 165.959 258.932 166.9 260.651 167.842C262.514 168.735 264.56 169.177 266.626 169.133C268.691 169.089 270.717 168.559 272.54 167.588C274.169 166.608 274.946 165.475 274.857 164.24V164.062C274.828 163.778 274.759 163.499 274.653 163.234C274.048 161.54 273.043 160.016 271.725 158.792L266.404 158.652L261.096 159.008Z" fill="#101010"/>
                    <path d="M270.541 165.169V164.966C270.513 164.662 270.436 164.366 270.312 164.087C269.694 162.338 268.653 160.768 267.283 159.517L261.873 159.377L260.243 159.492C259.304 160.612 258.602 161.911 258.181 163.311C258.069 163.591 258.005 163.888 257.99 164.189V164.507C257.99 165.78 258.792 166.888 260.536 167.855C262.637 168.896 264.985 169.337 267.321 169.128C267.587 169.012 267.846 168.88 268.097 168.733C269.828 167.702 270.63 166.493 270.541 165.169Z" fill="#7D5E41"/>
                    <path d="M266.315 169.574C264.281 169.631 262.263 169.194 260.434 168.301C258.563 167.27 257.71 166.137 257.749 164.736V164.406C257.774 164.088 257.842 163.775 257.952 163.476C258.504 161.673 259.492 160.033 260.829 158.703C260.873 158.665 260.925 158.639 260.982 158.626L266.379 158.257L271.814 158.397C271.864 158.379 271.918 158.379 271.967 158.397C273.36 159.68 274.417 161.284 275.048 163.069C275.174 163.36 275.256 163.67 275.289 163.985V164.189C275.391 165.602 274.538 166.862 272.744 167.944C270.782 169.046 268.564 169.608 266.315 169.574ZM261.096 159.008C259.835 160.281 258.901 161.84 258.372 163.553C258.278 163.82 258.218 164.098 258.194 164.38V164.686C258.194 165.959 258.932 166.9 260.651 167.842C262.514 168.735 264.56 169.177 266.626 169.133C268.691 169.089 270.717 168.559 272.54 167.588C274.169 166.608 274.946 165.475 274.857 164.24V164.062C274.828 163.778 274.759 163.499 274.653 163.234C274.048 161.54 273.043 160.016 271.725 158.792L266.404 158.652L261.096 159.008Z" fill="#101010"/>
                    <path d="M270.885 157.914C273.431 159.289 273.431 161.605 270.987 163.095C269.609 163.83 268.077 164.231 266.516 164.264C264.955 164.297 263.407 163.962 262 163.285C259.454 161.911 259.454 159.581 261.898 158.092C263.277 157.359 264.809 156.96 266.37 156.929C267.931 156.898 269.478 157.236 270.885 157.914Z" fill="#E7C09D"/>
                    <path d="M269.026 157.29L268.848 157.213C266.495 156.675 264.027 157.005 261.898 158.143C259.441 159.632 259.492 161.961 262 163.336L262.191 163.413C264.544 163.949 267.011 163.619 269.141 162.483C271.585 160.994 271.534 158.677 269.026 157.29Z" fill="white"/>
                    <path d="M266.29 164.482C264.765 164.513 263.257 164.168 261.898 163.476C261.316 163.286 260.806 162.92 260.442 162.428C260.077 161.936 259.874 161.342 259.861 160.729C259.849 160.117 260.027 159.515 260.371 159.009C260.716 158.502 261.209 158.115 261.784 157.901C263.195 157.149 264.763 156.739 266.362 156.706C267.961 156.673 269.546 157.017 270.987 157.71C271.569 157.9 272.078 158.267 272.443 158.759C272.808 159.251 273.011 159.844 273.024 160.457C273.036 161.07 272.858 161.671 272.514 162.178C272.169 162.685 271.676 163.072 271.101 163.285C269.633 164.106 267.972 164.519 266.29 164.482ZM266.595 157.15C264.995 157.119 263.414 157.51 262.013 158.283C261.516 158.466 261.089 158.8 260.79 159.238C260.492 159.676 260.338 160.195 260.349 160.725C260.36 161.254 260.537 161.767 260.853 162.192C261.169 162.617 261.61 162.932 262.115 163.095C263.487 163.752 264.995 164.077 266.516 164.044C268.038 164.011 269.53 163.62 270.872 162.904C271.365 162.718 271.787 162.383 272.082 161.947C272.376 161.511 272.529 160.994 272.517 160.468C272.506 159.942 272.332 159.432 272.019 159.009C271.707 158.586 271.27 158.27 270.77 158.105C269.477 157.452 268.044 157.124 266.595 157.15Z" fill="#101010"/>
                    <path d="M269.268 159.199C267.394 158.483 265.315 158.515 263.464 159.288C261.885 160.065 261.923 161.274 263.54 162C265.415 162.718 267.496 162.681 269.344 161.898C270.961 161.121 270.936 159.912 269.268 159.199Z" fill="#101010"/>
                    <path d="M266.341 162.725C265.365 162.747 264.394 162.57 263.489 162.203C262.611 161.821 262.127 161.274 262.115 160.663C262.102 160.052 262.56 159.505 263.387 159.097C265.293 158.288 267.438 158.251 269.37 158.996C270.248 159.377 270.732 159.925 270.745 160.523C270.758 161.121 270.299 161.681 269.472 162.101C268.485 162.533 267.417 162.746 266.341 162.725ZM266.544 158.906C265.533 158.883 264.529 159.083 263.604 159.492C262.929 159.823 262.56 160.243 262.56 160.65C262.56 161.058 262.98 161.49 263.667 161.796C265.484 162.469 267.491 162.415 269.268 161.643C269.943 161.325 270.325 160.892 270.312 160.485C270.299 160.078 269.905 159.657 269.205 159.352C268.357 159.026 267.452 158.875 266.544 158.906Z" fill="#101010"/>
                    <path d="M266.341 162.726C265.364 162.748 264.394 162.57 263.489 162.204C263.021 162.019 262.618 161.7 262.331 161.287C262.306 161.254 262.293 161.214 262.293 161.173C262.293 161.131 262.306 161.091 262.331 161.058C262.595 160.657 262.971 160.343 263.413 160.154C265.318 159.347 267.461 159.306 269.396 160.04C269.864 160.224 270.267 160.543 270.554 160.956C270.578 160.992 270.591 161.034 270.591 161.077C270.591 161.12 270.578 161.162 270.554 161.198C270.292 161.596 269.921 161.91 269.485 162.102C268.494 162.535 267.421 162.748 266.341 162.726ZM262.789 161.173C263.031 161.445 263.331 161.658 263.667 161.796C265.484 162.47 267.491 162.415 269.268 161.644C269.583 161.505 269.862 161.296 270.083 161.033C269.845 160.754 269.544 160.535 269.205 160.396C267.388 159.716 265.381 159.753 263.591 160.498C263.274 160.656 262.999 160.887 262.789 161.173Z" fill="#101010"/>
                    <path d="M269.396 160.243C267.52 159.531 265.441 159.567 263.591 160.345C263.186 160.517 262.84 160.804 262.598 161.172C262.86 161.547 263.228 161.836 263.655 162C265.53 162.719 267.611 162.682 269.459 161.898C269.861 161.727 270.206 161.444 270.452 161.083C270.188 160.708 269.821 160.416 269.396 160.243Z" fill="white"/>
                    <path d="M266.341 162.726C265.364 162.748 264.394 162.57 263.489 162.204C263.021 162.019 262.618 161.7 262.331 161.287C262.306 161.254 262.293 161.214 262.293 161.173C262.293 161.131 262.306 161.091 262.331 161.058C262.595 160.657 262.971 160.343 263.413 160.154C265.318 159.347 267.461 159.306 269.396 160.04C269.864 160.224 270.267 160.543 270.554 160.956C270.578 160.992 270.591 161.034 270.591 161.077C270.591 161.12 270.578 161.162 270.554 161.198C270.292 161.596 269.921 161.91 269.485 162.102C268.494 162.535 267.421 162.748 266.341 162.726ZM262.789 161.173C263.031 161.445 263.331 161.658 263.667 161.796C265.484 162.47 267.491 162.415 269.268 161.644C269.583 161.505 269.862 161.296 270.083 161.033C269.845 160.754 269.544 160.535 269.205 160.396C267.388 159.716 265.381 159.753 263.591 160.498C263.274 160.656 262.999 160.887 262.789 161.173Z" fill="#101010"/>
                    <ellipse cx="198" cy="115.1" rx="5" ry="3.5" fill="#101010"/>
                </g>
                <g clip-path="url(#clip2_3619_66810)">
                    <path d="M269.139 157.341V116.607C269.139 114.85 267.714 113.425 265.956 113.425C264.199 113.425 262.774 114.85 262.774 116.607V157.341C262.774 159.098 264.199 160.523 265.956 160.523C267.714 160.523 269.139 159.098 269.139 157.341Z" fill="#AD9B8A"/>
                    <path d="M293.324 92.7983V115.846C293.324 115.9 293.324 115.954 293.324 116.007C293.283 116.534 293.044 117.025 292.654 117.384C292.265 117.743 291.754 117.942 291.223 117.943H265.034C264.503 117.942 263.992 117.743 263.603 117.384C263.214 117.025 262.974 116.534 262.933 116.007C262.933 115.954 262.933 115.9 262.933 115.846V93.3654H251.128V77.6724H278.984V77.6959C281.628 77.8399 284.187 78.6756 286.403 80.1184C288.423 81.4236 290.102 83.1864 291.304 85.2622C292.459 87.245 293.141 89.4651 293.297 91.7515C293.311 92.1004 293.324 92.4359 293.324 92.7983Z" fill="#BC2020"/>
                    <path d="M293.291 91.7651H251.132V78.7832H283.83C286.469 79.8509 288.755 81.6332 290.427 83.9279C292.099 86.2226 293.091 88.9377 293.291 91.7651Z" fill="#D13333"/>
                    <path d="M293.318 116.007C293.276 116.534 293.037 117.025 292.647 117.384C292.258 117.743 291.747 117.942 291.216 117.943H265.034C264.503 117.942 263.992 117.743 263.603 117.384C263.214 117.025 262.974 116.534 262.933 116.007H293.318Z" fill="#9B1515"/>
                    <path d="M238.035 117.937C237.476 117.936 236.941 117.715 236.546 117.322C236.151 116.929 235.928 116.396 235.927 115.84V92.7985C235.927 88.7886 237.528 84.9429 240.378 82.1075C243.229 79.2721 247.094 77.6792 251.125 77.6792C255.155 77.6792 259.021 79.2721 261.871 82.1075C264.721 84.9429 266.322 88.7886 266.322 92.7985V115.846C266.322 116.403 266.1 116.936 265.705 117.329C265.31 117.723 264.773 117.944 264.214 117.944L238.035 117.937Z" fill="#F45151"/>
                    <path d="M265.314 92.7982V115.866C265.308 116.152 265.19 116.423 264.985 116.623C264.78 116.823 264.505 116.936 264.218 116.937H238.035C237.745 116.936 237.466 116.821 237.261 116.616C237.056 116.412 236.94 116.135 236.939 115.846V92.7982C236.939 92.6741 236.939 92.5499 236.939 92.4291C237.018 89.39 238.081 86.4575 239.971 84.0681C241.86 81.6787 244.475 79.9602 247.425 79.1683C250.375 78.3764 253.504 78.5536 256.345 79.6733C259.186 80.7931 261.588 82.7956 263.192 85.3829C263.627 86.0752 263.999 86.8051 264.302 87.5638C264.926 89.1134 265.268 90.7606 265.314 92.4291C265.314 92.5499 265.314 92.6741 265.314 92.7982Z" fill="#404041"/>
                    <path d="M265.314 115.078V115.847C265.313 116.135 265.197 116.412 264.992 116.617C264.786 116.821 264.508 116.936 264.218 116.937H238.035C237.745 116.936 237.466 116.821 237.261 116.617C237.056 116.412 236.94 116.135 236.939 115.847V115.078H265.314Z" fill="#333333"/>
                    <path d="M264.693 118.272L264.255 117.383L262.963 117.937H237.391C236.231 117.937 234.713 118.403 234.018 118.977L220.022 130.432C218.298 131.842 217.475 133.16 217.468 134.288L217.175 134.251L217.654 135.197L217.684 135.257L217.755 135.398C218.635 136.958 221.499 137.945 226.032 137.945C234.413 137.945 245.347 134.59 250.413 130.432L264.41 118.984C264.747 118.705 264.835 118.447 264.693 118.272Z" fill="#9B1515"/>
                    <path d="M263.061 116.93C264.224 116.93 264.599 117.397 263.897 117.97L249.907 129.432C244.848 133.573 233.907 136.945 225.526 136.945C217.145 136.945 214.446 133.59 219.512 129.432L233.509 117.977C234.214 117.403 235.732 116.937 236.882 116.937L263.061 116.93Z" fill="#D13333"/>
                    <path d="M238.882 116.682C238.797 116.682 238.73 116.796 238.73 116.937C238.73 117.078 238.797 117.192 238.882 117.192H246.599V116.682H238.882Z" fill="#6D6E70"/>
                    <path d="M246.754 116.93C246.754 117.071 246.686 117.185 246.599 117.185C246.511 117.185 246.447 117.071 246.447 116.93C246.447 116.789 246.514 116.675 246.599 116.675C246.683 116.675 246.754 116.796 246.754 116.93Z" fill="#A5A7AA"/>
                    <path d="M252.72 116.682C252.636 116.682 252.565 116.796 252.565 116.937C252.565 117.078 252.636 117.192 252.72 117.192H260.437V116.682H252.72Z" fill="#6D6E70"/>
                    <path d="M260.589 116.93C260.589 117.071 260.521 117.185 260.437 117.185C260.353 117.185 260.282 117.071 260.282 116.93C260.282 116.789 260.353 116.675 260.437 116.675C260.521 116.675 260.589 116.796 260.589 116.93Z" fill="#A5A7AA"/>
                    <path d="M266.593 159.25C266.593 159.953 266.023 160.523 265.32 160.523C264.617 160.523 264.047 159.953 264.047 159.25V136.895C264.047 135.481 266.007 135.121 266.51 136.442C266.565 136.587 266.593 136.74 266.593 136.895V159.25Z" fill="#7D5E41"/>
                    <path d="M265.31 92.4359H236.943C237.003 89.9416 237.734 87.5089 239.057 85.3896H263.196C263.631 86.082 264.002 86.8119 264.305 87.5706C264.927 89.1206 265.267 90.7678 265.31 92.4359Z" fill="#333333"/>
                    <path d="M264.305 87.5638H237.948C239.002 84.9441 240.821 82.6986 243.17 81.1169C245.519 79.5353 248.29 78.6899 251.126 78.6899C253.963 78.6899 256.734 79.5353 259.083 81.1169C261.432 82.6986 263.251 84.9441 264.305 87.5638Z" fill="#282525"/>
                    <path d="M285.722 80.4609H282.012C284.031 81.7661 285.711 83.5289 286.913 85.6047H290.623C289.421 83.5289 287.741 81.7661 285.722 80.4609Z" fill="#F45151"/>
                    <path d="M281.334 80.4609H260.7C262.504 81.835 263.978 83.5923 265.014 85.6047H286.238C285.035 83.5285 283.355 81.7657 281.334 80.4609Z" fill="#F45151"/>
                    <path d="M277.088 67.6065H274.221C274.147 67.606 274.073 67.6203 274.003 67.6484C273.934 67.6765 273.871 67.718 273.818 67.7704C273.765 67.8228 273.723 67.885 273.695 67.9537C273.666 68.0223 273.651 68.0958 273.651 68.1702V93.8286C272.761 94.4326 272.134 95.8787 272.134 97.5665C272.134 99.8011 273.226 101.593 274.579 101.593C275.931 101.593 277.024 99.7844 277.024 97.5665C277.024 95.8888 276.397 94.4326 275.506 93.8286V71.5826H277.088C277.163 71.5826 277.237 71.5679 277.306 71.5393C277.375 71.5108 277.437 71.469 277.49 71.4163C277.543 71.3636 277.584 71.301 277.613 71.2322C277.641 71.1635 277.655 71.0898 277.655 71.0155V68.1634C277.653 68.0151 277.592 67.8734 277.486 67.7692C277.38 67.6649 277.237 67.6064 277.088 67.6065Z" fill="#7D5E41"/>
                    <path d="M277.425 67.6064H274.559C274.408 67.6064 274.263 67.6657 274.157 67.7713C274.05 67.877 273.989 68.0203 273.989 68.1701V93.8286C273.098 94.4325 272.471 95.8787 272.471 97.5664C272.471 99.8011 273.567 101.593 274.916 101.593C276.265 101.593 277.361 99.7843 277.361 97.5664C277.361 95.8888 276.734 94.4325 275.844 93.8286V71.5825H277.425C277.5 71.5825 277.574 71.5679 277.643 71.5393C277.712 71.5108 277.775 71.469 277.827 71.4163C277.88 71.3636 277.922 71.301 277.95 71.2322C277.978 71.1635 277.992 71.0898 277.992 71.0155V68.1634C277.99 68.0151 277.93 67.8734 277.824 67.7692C277.718 67.6649 277.574 67.6064 277.425 67.6064Z" fill="#AD9B8A"/>
                    <path d="M274.916 99.0966C275.428 99.0966 275.844 98.4101 275.844 97.5632C275.844 96.7163 275.428 96.0298 274.916 96.0298C274.404 96.0298 273.989 96.7163 273.989 97.5632C273.989 98.4101 274.404 99.0966 274.916 99.0966Z" fill="#7D5E41"/>
                    <path d="M265.314 107.787V115.866C265.09 115.961 264.849 116.009 264.606 116.007H238.777C238.425 115.997 238.079 115.91 237.765 115.753C237.45 115.595 237.174 115.37 236.956 115.095C236.674 114.754 236.488 114.346 236.416 113.91L233.718 97.0294C233.533 95.8785 234.288 94.9424 235.405 94.9424H261.25C261.824 94.9698 262.371 95.1918 262.8 95.5715C263.23 95.9511 263.516 96.4656 263.611 97.0294L263.779 98.0864L263.918 98.9554L265.314 107.787Z" fill="#DBC052"/>
                    <path d="M253.887 104.8L255.037 103.656C255.668 103.046 256.255 102.432 256.815 101.854C257.374 101.277 257.907 100.724 258.386 100.207C259.354 99.2004 260.133 98.3045 260.673 97.6837C261.213 97.063 261.476 96.7409 261.513 96.6973C261.466 96.7275 261.084 96.9993 260.474 97.4656C259.863 97.932 258.889 98.687 257.806 99.5829C257.263 100.029 256.673 100.512 256.062 101.039C255.452 101.566 254.798 102.109 254.147 102.697C253.718 103.079 253.27 103.465 252.825 103.868C252.64 104.033 252.455 104.201 252.268 104.371L252.13 104.498L251.873 104.737L251.745 104.854L251.634 104.945C251.486 105.063 251.325 105.166 251.155 105.25C250.793 105.414 250.4 105.499 250.002 105.498C249.578 105.496 249.159 105.411 248.767 105.25C248.673 105.206 248.561 105.163 248.477 105.116C248.393 105.069 248.315 105.035 248.19 104.948L248.045 104.854L247.88 104.737L247.543 104.502L247.361 104.374C247.121 104.2 246.878 104.039 246.639 103.868L244.953 102.697C244.113 102.113 243.287 101.566 242.507 101.039C241.728 100.512 240.986 100.032 240.295 99.5829C238.926 98.687 237.769 97.9689 236.953 97.4656C236.548 97.2173 236.221 97.0294 236.001 96.8952L235.664 96.6973L235.961 96.9556C236.16 97.1234 236.443 97.375 236.814 97.6837C237.556 98.3045 238.615 99.1836 239.914 100.207C240.561 100.724 241.263 101.281 242.008 101.854C242.754 102.428 243.539 103.046 244.369 103.656C244.868 104.029 245.381 104.411 245.884 104.797L238.44 113.91L246.534 105.263L246.919 105.545L247.256 105.784L247.418 105.908L247.61 106.035C247.742 106.126 247.878 106.208 248.018 106.284C248.167 106.367 248.305 106.424 248.45 106.495C249.015 106.735 249.62 106.865 250.234 106.877C250.81 106.875 251.378 106.744 251.897 106.495C252.138 106.368 252.365 106.215 252.572 106.039L252.723 105.908L252.852 105.784L253.101 105.549L253.398 105.263L264.272 113.91L253.887 104.8Z" fill="#CC9900"/>
                    <path d="M238.73 96.5296H237.479C237.345 96.5296 237.216 96.4765 237.121 96.3821C237.026 96.2878 236.973 96.1597 236.973 96.0263C236.973 95.8928 237.026 95.7648 237.121 95.6704C237.216 95.576 237.345 95.5229 237.479 95.5229H238.73C238.864 95.5229 238.993 95.576 239.088 95.6704C239.183 95.7648 239.236 95.8928 239.236 96.0263C239.236 96.1597 239.183 96.2878 239.088 96.3821C238.993 96.4765 238.864 96.5296 238.73 96.5296Z" fill="white"/>
                    <path d="M235.59 96.5296H235.455C235.321 96.5296 235.192 96.4765 235.097 96.3821C235.003 96.2878 234.949 96.1597 234.949 96.0263C234.949 95.8928 235.003 95.7648 235.097 95.6704C235.192 95.576 235.321 95.5229 235.455 95.5229H235.59C235.724 95.5229 235.853 95.576 235.948 95.6704C236.043 95.7648 236.096 95.8928 236.096 96.0263C236.096 96.1597 236.043 96.2878 235.948 96.3821C235.853 96.4765 235.724 96.5296 235.59 96.5296Z" fill="white"/>
                    <path d="M265.314 107.787V115.866C265.09 115.961 264.849 116.009 264.606 116.007H258.831L241.998 113.789C241.447 113.708 240.943 113.43 240.582 113.008C240.531 112.95 240.48 112.89 240.433 112.826C240.117 112.41 239.937 111.908 239.917 111.387L239.654 101.495L239.631 100.626L239.519 96.3045L239.482 94.9624H261.233C261.807 94.9898 262.354 95.2118 262.783 95.5915C263.213 95.9712 263.499 96.4857 263.594 97.0494L263.762 98.1064L263.901 98.9754L265.314 107.787Z" fill="#CC9900"/>
                    <path d="M265.314 94.0904V115.33L242.103 112.27C241.556 112.188 241.058 111.913 240.7 111.495C240.647 111.439 240.598 111.38 240.555 111.317C240.24 110.906 240.061 110.407 240.042 109.891L239.789 100.096L239.765 99.2342L239.654 94.9527L239.597 92.8053C239.566 91.6376 240.44 90.8088 241.546 90.9565L265.314 94.0904Z" fill="#F2E29E"/>
                    <path d="M259.874 102.167C259.449 102.485 259.02 102.814 258.582 103.146L265.327 110.864V111.115L258.035 103.539C257.928 103.623 257.816 103.703 257.698 103.784L257.418 103.985L257.277 104.089L257.108 104.2C256.876 104.351 256.625 104.473 256.363 104.562C255.82 104.743 255.243 104.798 254.676 104.723C254.479 104.696 254.284 104.653 254.093 104.596C253.69 104.486 253.303 104.323 252.943 104.113L252.71 103.962C252.656 103.928 252.602 103.888 252.545 103.844C252.414 103.754 252.29 103.654 252.174 103.546L251.998 103.395L251.85 103.25L251.556 102.972L251.219 102.636L248.309 105.022L247.297 105.841L242.035 110.152L246.922 105.566L247.836 104.713L250.639 102.083C250.18 101.637 249.732 101.19 249.29 100.741C248.551 100.026 247.857 99.3146 247.192 98.6469C246.528 97.9792 245.904 97.335 245.334 96.7411C244.686 96.07 244.109 95.466 243.61 94.9359C243.222 94.5165 242.878 94.1474 242.598 93.832C242.319 93.5166 242.022 93.1911 241.85 92.9999L241.587 92.7046L241.89 92.9462C242.093 93.1039 242.389 93.3354 242.757 93.634C243.189 93.9696 243.722 94.4225 244.335 94.9359C244.785 95.3095 245.271 95.7211 245.792 96.1707C246.416 96.7042 247.091 97.2813 247.792 97.9054C248.494 98.5295 249.243 99.1771 249.998 99.8649C250.494 100.321 251.01 100.778 251.523 101.247C251.739 101.442 251.954 101.64 252.17 101.845C252.224 101.895 252.282 101.942 252.336 101.996L252.632 102.271L252.781 102.408L252.912 102.522C252.995 102.595 253.083 102.663 253.175 102.724C253.25 102.784 253.354 102.838 253.442 102.895C253.529 102.952 253.634 102.999 253.732 103.042C254.017 103.174 254.321 103.263 254.632 103.304C254.88 103.336 255.13 103.336 255.378 103.304C255.523 103.287 255.667 103.255 255.806 103.21C255.986 103.149 256.159 103.07 256.322 102.972L256.444 102.895L256.589 102.794L256.872 102.593C256.926 102.559 256.973 102.519 257.027 102.485L257.644 102.056C258.14 101.72 258.632 101.385 259.111 101.069C259.833 100.573 260.551 100.117 261.226 99.677C261.901 99.2375 262.552 98.8315 263.145 98.4624L263.756 98.0832C264.329 97.7477 264.852 97.4122 265.307 97.1572V97.7678C264.893 98.1235 264.422 98.5183 263.894 98.9523L263.641 99.1569C263.098 99.6066 262.504 100.09 261.867 100.583C261.229 101.076 260.578 101.626 259.874 102.167Z" fill="#DBC052"/>
                    <path d="M264.046 95.3652H263.975L243.661 92.5601C243.595 92.5511 243.531 92.5291 243.473 92.4955C243.415 92.4618 243.364 92.4172 243.323 92.3641C243.283 92.3109 243.253 92.2504 243.236 92.1859C243.219 92.1213 243.215 92.0541 243.224 91.988C243.233 91.9219 243.255 91.8583 243.289 91.8007C243.323 91.7431 243.368 91.6926 243.421 91.6523C243.475 91.6119 243.536 91.5824 243.6 91.5655C243.665 91.5485 243.733 91.5445 243.799 91.5535L264.113 94.3586C264.247 94.3675 264.372 94.429 264.461 94.5297C264.55 94.6304 264.594 94.762 264.585 94.8954C264.576 95.0289 264.515 95.1534 264.413 95.2415C264.312 95.3296 264.18 95.3741 264.046 95.3652Z" fill="white"/>
                    <path d="M242.177 92.342H242.106L241.519 92.2615C241.453 92.2523 241.389 92.2301 241.331 92.1962C241.273 92.1624 241.223 92.1176 241.182 92.0643C241.142 92.011 241.112 91.9503 241.096 91.8857C241.079 91.8211 241.075 91.7538 241.084 91.6878C241.093 91.6217 241.116 91.558 241.15 91.5005C241.184 91.443 241.229 91.3927 241.282 91.3525C241.336 91.3123 241.397 91.283 241.462 91.2663C241.527 91.2495 241.594 91.2457 241.661 91.2549L242.244 91.3354C242.379 91.3443 242.504 91.4059 242.592 91.5066C242.681 91.6073 242.725 91.7388 242.717 91.8723C242.708 92.0058 242.646 92.1303 242.545 92.2184C242.443 92.3065 242.311 92.3509 242.177 92.342Z" fill="white"/>
                </g>
            </g>
        </g>
    </g>
    <defs>
        <radialGradient id="paint0_radial_3619_66810" cx="0" cy="0" r="1" gradientUnits="userSpaceOnUse" gradientTransform="translate(223.03 145.933) rotate(-157.827) scale(256.024 272.081)">
            <stop stop-color="#0D8026"/>
            <stop offset="1" stop-color="#30B173"/>
        </radialGradient>
        <clipPath id="clip0_3619_66810">
            <rect width="320" height="218" fill="white" transform="translate(0 0.599609)"/>
        </clipPath>
        <clipPath id="clip1_3619_66810">
            <rect width="362.528" height="229.546" fill="white" transform="translate(-44 98.1499)"/>
        </clipPath>
        <clipPath id="clip2_3619_66810">
            <rect width="76.3753" height="92.9233" fill="white" transform="translate(216.949 67.5996)"/>
        </clipPath>
    </defs>
</svg>
