<svg width="18" height="18" viewBox="0 0 18 18" fill="none" xmlns="http://www.w3.org/2000/svg">
<path d="M12.75 1.5H5.25C3.18 1.5 1.5 3.1725 1.5 5.235V9.72V10.47C1.5 12.5325 3.18 14.205 5.25 14.205H6.375C6.5775 14.205 6.8475 14.34 6.975 14.505L8.1 15.9975C8.595 16.6575 9.405 16.6575 9.9 15.9975L11.025 14.505C11.1675 14.3175 11.3925 14.205 11.625 14.205H12.75C14.82 14.205 16.5 12.5325 16.5 10.47V5.235C16.5 3.1725 14.82 1.5 12.75 1.5ZM6 9C5.58 9 5.25 8.6625 5.25 8.25C5.25 7.8375 5.5875 7.5 6 7.5C6.4125 7.5 6.75 7.8375 6.75 8.25C6.75 8.6625 6.42 9 6 9ZM9 9C8.58 9 8.25 8.6625 8.25 8.25C8.25 7.8375 8.5875 7.5 9 7.5C9.4125 7.5 9.75 7.8375 9.75 8.25C9.75 8.6625 9.42 9 9 9ZM12 9C11.58 9 11.25 8.6625 11.25 8.25C11.25 7.8375 11.5875 7.5 12 7.5C12.4125 7.5 12.75 7.8375 12.75 8.25C12.75 8.6625 12.42 9 12 9Z" fill="#614730"/>
</svg>
