<svg width="18" height="18" viewBox="0 0 18 18" fill="none" xmlns="http://www.w3.org/2000/svg">
<path d="M6.29297 13.8675V6.24754C6.29297 5.94754 6.38297 5.65504 6.54797 5.40754L8.59547 2.36254C8.91797 1.87504 9.72047 1.53004 10.403 1.78504C11.138 2.03254 11.6255 2.85754 11.468 3.59254L11.078 6.04504C11.048 6.27004 11.108 6.47254 11.2355 6.63004C11.363 6.77254 11.5505 6.86254 11.753 6.86254H14.8355C15.428 6.86254 15.938 7.10254 16.238 7.52254C16.523 7.92754 16.5755 8.45254 16.388 8.98504L14.543 14.6025C14.3105 15.5325 13.298 16.29 12.293 16.29H9.36797C8.86547 16.29 8.16047 16.1175 7.83797 15.795L6.87797 15.0525C6.51047 14.775 6.29297 14.3325 6.29297 13.8675Z" fill="#614730"/>
<path d="M3.9075 4.78491H3.135C1.9725 4.78491 1.5 5.23491 1.5 6.34491V13.8899C1.5 14.9999 1.9725 15.4499 3.135 15.4499H3.9075C5.07 15.4499 5.5425 14.9999 5.5425 13.8899V6.34491C5.5425 5.23491 5.07 4.78491 3.9075 4.78491Z" fill="#614730"/>
</svg>
