<svg width="18" height="18" viewBox="0 0 18 18" fill="none" xmlns="http://www.w3.org/2000/svg">
<path d="M15 4.5V4.68H11.1525C8.925 4.68 7.89 5.715 7.89 7.9425V11.775H7.3125V14.4375H7.89V15.5625H3.7125C3.405 15.5625 3.15 15.3075 3.15 15C3.15 14.6925 3.405 14.4375 3.7125 14.4375H6.1875V11.775H4.5C2.1525 11.775 1.5225 11.1975 1.5 8.925V4.5C1.5 2.1 2.1 1.5 4.5 1.5H12C14.4 1.5 15 2.1 15 4.5Z" fill="#614730"/>
<path d="M14.9996 5.84243C14.8121 5.81993 14.5946 5.80493 14.3621 5.80493H11.1521C9.54715 5.80493 9.01465 6.33743 9.01465 7.94243V14.4374C9.02215 14.9024 9.07465 15.2699 9.18715 15.5624C9.44965 16.2449 10.0421 16.4999 11.1521 16.4999H14.3621C15.9671 16.4999 16.4996 15.9674 16.4996 14.3624V7.94243C16.4996 6.56993 16.1096 5.98493 14.9996 5.84243ZM12.7571 7.56743C13.4096 7.56743 13.9346 8.09243 13.9346 8.74493C13.9346 9.39743 13.4096 9.92243 12.7571 9.92243C12.1046 9.92243 11.5796 9.39743 11.5796 8.74493C11.5796 8.09243 12.1046 7.56743 12.7571 7.56743ZM12.7571 14.3624C11.8721 14.3624 11.1521 13.6424 11.1521 12.7574C11.1521 12.3899 11.2796 12.0449 11.4896 11.7749C11.7821 11.3999 12.2396 11.1524 12.7571 11.1524C13.1621 11.1524 13.5296 11.3024 13.8071 11.5424C14.1446 11.8424 14.3621 12.2774 14.3621 12.7574C14.3621 13.6424 13.6421 14.3624 12.7571 14.3624Z" fill="#614730"/>
<path d="M14.9996 5.84243C14.8121 5.81993 14.5946 5.80493 14.3621 5.80493H11.1521C9.54715 5.80493 9.01465 6.33743 9.01465 7.94243V14.4374C9.02215 14.9024 9.07465 15.2699 9.18715 15.5624C9.44965 16.2449 10.0421 16.4999 11.1521 16.4999H14.3621C15.9671 16.4999 16.4996 15.9674 16.4996 14.3624V7.94243C16.4996 6.56993 16.1096 5.98493 14.9996 5.84243ZM12.7571 7.56743C13.4096 7.56743 13.9346 8.09243 13.9346 8.74493C13.9346 9.39743 13.4096 9.92243 12.7571 9.92243C12.1046 9.92243 11.5796 9.39743 11.5796 8.74493C11.5796 8.09243 12.1046 7.56743 12.7571 7.56743ZM12.7571 14.3624C11.8721 14.3624 11.1521 13.6424 11.1521 12.7574C11.1521 12.3899 11.2796 12.0449 11.4896 11.7749C11.7821 11.3999 12.2396 11.1524 12.7571 11.1524C13.1621 11.1524 13.5296 11.3024 13.8071 11.5424C14.1446 11.8424 14.3621 12.2774 14.3621 12.7574C14.3621 13.6424 13.6421 14.3624 12.7571 14.3624Z" fill="#614730"/>
</svg>
