<svg width="19" height="19" viewBox="0 0 19 19" fill="none" xmlns="http://www.w3.org/2000/svg">
<path d="M9.5 17.0996C13.6421 17.0996 17 13.7417 17 9.59961C17 5.45747 13.6421 2.09961 9.5 2.09961C5.35786 2.09961 2 5.45747 2 9.59961C2 13.7417 5.35786 17.0996 9.5 17.0996Z" stroke="#614730" stroke-width="1.5"/>
<path d="M7.25 12.0371C6.93934 12.0371 6.6875 12.289 6.6875 12.5996C6.6875 12.9103 6.93934 13.1621 7.25 13.1621V12.0371ZM11.75 13.1621C12.0606 13.1621 12.3125 12.9103 12.3125 12.5996C12.3125 12.289 12.0606 12.0371 11.75 12.0371V13.1621ZM11.4175 9.32278C11.6257 9.09216 11.6075 8.73651 11.3769 8.52831C11.1462 8.32018 10.7906 8.33841 10.5825 8.56903L11.4175 9.32278ZM8.41752 8.56903C8.2094 8.33841 7.85372 8.32018 7.6231 8.52831C7.39249 8.73651 7.37429 9.09216 7.58244 9.32278L8.41752 8.56903ZM10.0625 5.84961C10.0625 5.53895 9.81065 5.28711 9.5 5.28711C9.18935 5.28711 8.9375 5.53895 8.9375 5.84961H10.0625ZM7.25 13.1621H11.75V12.0371H7.25V13.1621ZM10.5825 8.56903L9.87792 9.34956L10.713 10.1033L11.4175 9.32278L10.5825 8.56903ZM9.12208 9.34956L8.41752 8.56903L7.58244 9.32278L8.28695 10.1033L9.12208 9.34956ZM9.87792 9.34956C9.67947 9.56938 9.56825 9.69073 9.4814 9.76423C9.40452 9.82918 9.42552 9.78711 9.5 9.78711V10.9121C9.8075 10.9121 10.0387 10.7662 10.2076 10.6234C10.3665 10.4891 10.5365 10.2989 10.713 10.1033L9.87792 9.34956ZM8.28695 10.1033C8.4635 10.2989 8.63353 10.4891 8.79238 10.6234C8.96128 10.7662 9.1925 10.9121 9.5 10.9121V9.78711C9.57448 9.78711 9.59548 9.82918 9.5186 9.76423C9.43175 9.69073 9.32053 9.56938 9.12208 9.34956L8.28695 10.1033ZM10.0625 10.3496V5.84961H8.9375V10.3496H10.0625Z" fill="#614730"/>
</svg>
