<svg width="361" height="444" viewBox="0 0 361 444" fill="none" xmlns="http://www.w3.org/2000/svg">
<path d="M361 5.54004V443.5H0V399.63C88.78 354.62 211.07 415.64 294.81 349.16C356.12 300.5 258.11 92.13 351.66 12.61C354.58 10.12 357.69 7.76004 361 5.54004Z" fill="#fff" />
<path d="M358.49 1.19043C356.12 2.78043 353.84 4.43043 351.65 6.14043C294.41 50.9604 301.55 137.6 307.87 214.42C312.56 271.36 316.99 325.15 291.69 345.23C255.69 373.81 212.44 377.75 171.06 377.75C159.13 377.75 146.87 377.38 135.01 377.03C123.12 376.67 110.81 376.3 98.7995 376.3C68.5095 376.3 33.5196 378.36 1.78955 393.18" stroke="#fff" stroke-dasharray="2 2"/>
</svg>
