<svg width="24" height="25" viewBox="0 0 24 25" fill="none" xmlns="http://www.w3.org/2000/svg">
<g clip-path="url(#clip0_3514_65007)">
<path d="M24 12.5996C24 18.5893 19.6116 23.5538 13.875 24.4538V16.0684H16.6711L17.2031 12.5996H13.875V10.3487C13.875 9.39945 14.34 8.47461 15.8306 8.47461H17.3438V5.52148C17.3438 5.52148 15.9703 5.28711 14.6573 5.28711C11.9166 5.28711 10.125 6.94836 10.125 9.95586V12.5996H7.07812V16.0684H10.125V24.4538C4.38844 23.5538 0 18.5893 0 12.5996C0 5.97242 5.37281 0.599609 12 0.599609C18.6272 0.599609 24 5.97242 24 12.5996Z" fill="#1877F2"/>
<path d="M16.6711 16.0684L17.2031 12.5996H13.875V10.3486C13.875 9.39964 14.3399 8.47461 15.8306 8.47461H17.3438V5.52148C17.3438 5.52148 15.9705 5.28711 14.6576 5.28711C11.9165 5.28711 10.125 6.94836 10.125 9.95586V12.5996H7.07812V16.0684H10.125V24.4538C10.736 24.5496 11.3621 24.5996 12 24.5996C12.6379 24.5996 13.264 24.5496 13.875 24.4538V16.0684H16.6711Z" fill="white"/>
</g>
<defs>
<clipPath id="clip0_3514_65007">
<rect width="24" height="24" fill="white" transform="translate(0 0.599609)"/>
</clipPath>
</defs>
</svg>
