<svg width="24" height="25" viewBox="0 0 24 25" fill="none" xmlns="http://www.w3.org/2000/svg">
<rect y="0.599609" width="24" height="24" rx="12" fill="url(#paint0_radial_3551_79920)"/>
<path d="M9.75 5.09961C7.785 5.09961 6.1875 6.69711 6.1875 8.66211C6.1875 10.5896 7.695 12.1496 9.66 12.2171C9.72 12.2096 9.78 12.2096 9.825 12.2171C9.84 12.2171 9.8475 12.2171 9.8625 12.2171C9.87 12.2171 9.87 12.2171 9.8775 12.2171C11.7975 12.1496 13.305 10.5896 13.3125 8.66211C13.3125 6.69711 11.715 5.09961 9.75 5.09961Z" fill="white"/>
<path d="M13.56 14.2123C11.4675 12.8173 8.05497 12.8173 5.94747 14.2123C4.99497 14.8498 4.46997 15.7123 4.46997 16.6348C4.46997 17.5573 4.99497 18.4123 5.93997 19.0423C6.98997 19.7473 8.36997 20.0998 9.74997 20.0998C11.13 20.0998 12.51 19.7473 13.56 19.0423C14.505 18.4048 15.03 17.5498 15.03 16.6198C15.0225 15.6973 14.505 14.8423 13.56 14.2123Z" fill="white"/>
<path d="M17.9925 9.1042C18.1125 10.5592 17.0775 11.8342 15.645 12.0067C15.6375 12.0067 15.6375 12.0067 15.63 12.0067H15.6075C15.5625 12.0067 15.5175 12.0067 15.48 12.0217C14.7525 12.0592 14.085 11.8267 13.5825 11.3992C14.355 10.7092 14.7975 9.6742 14.7075 8.5492C14.655 7.9417 14.445 7.3867 14.13 6.9142C14.415 6.7717 14.745 6.6817 15.0825 6.6517C16.5525 6.5242 17.865 7.6192 17.9925 9.1042Z" fill="white"/>
<path d="M19.4926 16.0424C19.4326 16.7699 18.9676 17.3999 18.1876 17.8274C17.4376 18.2399 16.4926 18.4349 15.5551 18.4124C16.0951 17.9249 16.4101 17.3174 16.4701 16.6724C16.5451 15.7424 16.1026 14.8499 15.2176 14.1374C14.7151 13.7399 14.1301 13.4249 13.4926 13.1924C15.1501 12.7124 17.2351 13.0349 18.5176 14.0699C19.2076 14.6249 19.5601 15.3224 19.4926 16.0424Z" fill="white"/>
<defs>
<radialGradient id="paint0_radial_3551_79920" cx="0" cy="0" r="1" gradientUnits="userSpaceOnUse" gradientTransform="translate(6.09959 9.12085) rotate(69.1334) scale(16.5652)">
<stop stop-color="#4E9BFF"/>
<stop offset="1" stop-color="#1877F2"/>
</radialGradient>
</defs>
</svg>
