<svg width="25" height="24" viewBox="0 0 25 24" fill="none" xmlns="http://www.w3.org/2000/svg">
<path fill-rule="evenodd" clip-rule="evenodd" d="M3.57617 11.7176C3.57617 6.46523 7.69087 2.57617 13.0002 2.57617C18.3095 2.57617 22.4242 6.46523 22.4242 11.7176C22.4242 16.97 18.3095 20.8591 13.0002 20.8591C12.0464 20.8591 11.1305 20.7339 10.2716 20.4969C10.1047 20.4514 9.92836 20.4647 9.76908 20.5349L7.89945 21.3597C7.41024 21.574 6.85845 21.227 6.84139 20.6922L6.79019 19.016C6.78261 18.8093 6.68969 18.6178 6.5361 18.4794C4.7025 16.8392 3.57617 14.4652 3.57617 11.7176ZM10.1101 9.99973L7.34173 14.3913C7.07437 14.8122 7.59392 15.2882 7.99022 14.9867L10.9653 12.7283C11.1663 12.5766 11.4432 12.5747 11.646 12.7264L13.8475 14.378C14.5074 14.8729 15.4517 14.6985 15.8916 14.0007L18.6581 9.61102C18.9255 9.19007 18.4059 8.71413 18.0096 9.01562L15.0364 11.2721C14.8354 11.4238 14.5586 11.4257 14.3557 11.274L12.1542 9.6224C11.4944 9.12749 10.5501 9.30194 10.1101 9.99973Z" fill="white"/>
</svg>
