<svg width="24" height="25" viewBox="0 0 24 25" fill="none" xmlns="http://www.w3.org/2000/svg">
<path d="M1.63636 21.6024H5.45456V12.3297L2.95434 7.96387L0 8.23879V19.9661C0 20.8701 0.732281 21.6024 1.63636 21.6024Z" fill="#0085F7"/>
<path d="M18.5454 21.6024H22.3636C23.2677 21.6024 24 20.8701 24 19.9661V8.23879L21.0499 7.96387L18.5455 12.3297V21.6024H18.5454Z" fill="#00A94B"/>
<path d="M18.5454 5.23841L16.3026 9.51824L18.5454 12.3293L24 8.23841V6.05662C24 4.03434 21.6914 2.87934 20.0727 4.09298L18.5454 5.23841Z" fill="#FFBC00"/>
<path fill-rule="evenodd" clip-rule="evenodd" d="M5.45455 12.3292L3.31738 7.81467L5.45455 5.23828L12 10.1474L18.5454 5.23828V12.3292L12 17.2383L5.45455 12.3292Z" fill="#FF4131"/>
<path d="M0 6.05662V8.23841L5.45456 12.3293V5.23841L3.92728 4.09298C2.30864 2.87934 0 4.03434 0 6.05662Z" fill="#E51C19"/>
</svg>
