<svg width="94" height="150" viewBox="0 0 94 150" fill="none" xmlns="http://www.w3.org/2000/svg">
<g clip-path="url(#clip0_5647_50978)">
<path d="M58.491 124.434C58.491 121.216 54.716 122.153 54.122 120.065C53.4113 122.067 49.7529 121.16 49.7529 124.434V132.419H58.491V124.434Z" fill="#614730" fill-opacity="0.05"/>
<path d="M43.9342 124.434C43.9342 121.216 40.16 122.153 39.5651 120.065C38.8545 122.067 35.196 121.16 35.196 124.434V132.419H43.9342V124.434Z" fill="#614730" fill-opacity="0.05"/>
<path d="M29.3775 124.434C29.3775 121.216 25.6024 122.153 25.0085 120.065C24.2978 122.067 20.6394 121.16 20.6394 124.434V132.419H29.3775V124.434Z" fill="#614730" fill-opacity="0.05"/>
<path d="M20.7135 143.532H86.624V42.6557H76.7767V32.8543H71.1737L70.8352 30.6384L70.806 30.4457L70.3349 27.3618C69.9106 24.5838 68.7686 22.7347 66.8692 21.2285C66.7454 21.1296 66.6155 21.0332 66.4847 20.9369C66.3724 20.8547 66.2575 20.7725 66.14 20.692C66.0472 20.6284 65.957 20.563 65.8615 20.5002C63.9868 19.276 61.5261 18.2375 58.4457 17.0071C58.3733 16.9779 58.3061 16.9505 58.2327 16.9214C54.47 15.4205 50.1805 13.7102 46.7015 10.8066C45.3775 11.8231 43.9597 12.6805 42.5146 13.4371C42.5031 13.4433 42.4916 13.4495 42.4801 13.4556C40.3649 14.5596 38.1924 15.4462 36.1674 16.2593C36.0825 16.2929 35.995 16.3283 35.911 16.3628C32.3932 17.7717 29.6699 18.9304 27.6732 20.3986C27.332 20.6496 27.0085 20.9077 26.7107 21.1799C25.0551 22.6887 24.0484 24.5652 23.6595 27.2973L23.3581 29.4151L23.2997 29.8261L23.1292 31.0247L22.8684 32.8543H17.2239V42.6557H7.37476V143.532H20.7126H20.7135ZM79.9648 141.967H13.9456V113.046H79.9648V141.967ZM12.6745 111.571C12.6745 109.674 13.9898 108.093 15.7558 107.666C15.6506 106.639 15.5967 105.592 15.5967 104.522C15.5967 82.2406 39.2601 87.0207 45.9423 75.2119C41.6483 74.3528 38.4124 70.5636 38.4124 66.0169C38.4124 60.8373 42.6118 56.6379 47.7922 56.6379C48.6682 56.6379 49.5158 56.7608 50.3202 56.9853C46.5504 57.406 43.6194 60.6013 43.6194 64.4824C43.6194 68.65 46.9976 72.0273 51.1643 72.0273C53.1309 72.0273 54.9217 71.2742 56.2643 70.0421C54.7582 73.2073 51.5302 75.3967 47.7914 75.3967L47.68 75.3905C53.7991 87.5837 78.0892 82.6834 78.0892 104.522C78.0892 105.555 78.0362 106.567 77.9381 107.56C79.4168 107.624 80.6773 108.481 81.3234 109.722V111.758H12.6745V111.571Z" fill="#614730" fill-opacity="0.05"/>
<path d="M73.0477 124.434C73.0477 121.216 69.2744 122.153 68.6786 120.065C67.968 122.067 64.3096 121.16 64.3096 124.434V132.419H73.0477V124.434Z" fill="#614730" fill-opacity="0.05"/>
<path d="M76.7769 42.6553H80.7464L87.2147 36.187H83.2443V31.2363L76.7769 36.6917V42.6553Z" fill="#614730" fill-opacity="0.3"/>
<path d="M93.0925 52.9736H86.6243V65.3595H93.0925V52.9736Z" fill="#614730" fill-opacity="0.3"/>
<path d="M93.0925 66.5986H86.6243V78.9845H93.0925V66.5986Z" fill="#614730" fill-opacity="0.3"/>
<path d="M11.9392 143.531L9.74365 150H20.7136V143.531H11.9392Z" fill="#614730" fill-opacity="0.3"/>
<path d="M86.6243 51.7355H93.0925V43.8672L86.6243 46.4446V51.7355Z" fill="#614730" fill-opacity="0.3"/>
<path d="M83.2443 42.6558H86.6243V45.1112L93.0926 42.5338V36.1875H88.9666L82.4983 42.6558H83.2443Z" fill="#614730" fill-opacity="0.3"/>
<path d="M33.5751 143.531H21.9529V150H33.5751V143.531Z" fill="#614730" fill-opacity="0.3"/>
<path d="M93.0925 80.2236H86.6243V92.6104H93.0925V80.2236Z" fill="#614730" fill-opacity="0.3"/>
<path d="M93.0925 107.474H86.6243V119.86H93.0925V107.474Z" fill="#614730" fill-opacity="0.3"/>
<path d="M86.6243 139.45L93.0925 142.638V134.723H86.6243V139.45Z" fill="#614730" fill-opacity="0.3"/>
<path d="M73.1191 143.531V150H84.0891L81.8935 143.531H73.1191Z" fill="#614730" fill-opacity="0.3"/>
<path d="M86.6241 143.531H83.2017L85.3981 150H93.0924V144.018L86.6241 140.83V143.531Z" fill="#614730" fill-opacity="0.3"/>
<path d="M71.8801 143.531H60.5354V150H71.8801V143.531Z" fill="#614730" fill-opacity="0.3"/>
<path d="M93.0925 93.8486H86.6243V106.235H93.0925V93.8486Z" fill="#614730" fill-opacity="0.3"/>
<path d="M93.0925 121.098H86.6243V133.484H93.0925V121.098Z" fill="#614730" fill-opacity="0.3"/>
<path d="M59.2961 143.531H47.6738V150H59.2961V143.531Z" fill="#614730" fill-opacity="0.3"/>
<path d="M46.4357 143.531H34.8135V150H46.4357V143.531Z" fill="#614730" fill-opacity="0.3"/>
<path d="M7.37575 80.2236H0.907471V92.6104H7.37575V80.2236Z" fill="#614730" fill-opacity="0.3"/>
<path d="M7.37575 52.9736H0.907471V65.3595H7.37575V52.9736Z" fill="#614730" fill-opacity="0.3"/>
<path d="M7.37575 66.5986H0.907471V78.9845H7.37575V66.5986Z" fill="#614730" fill-opacity="0.3"/>
<path d="M7.37575 46.5941L0.907471 44.0176V51.7357H7.37575V46.5941Z" fill="#614730" fill-opacity="0.3"/>
<path d="M7.37575 134.723H0.907471V142.556L7.37575 139.367V134.723Z" fill="#614730" fill-opacity="0.3"/>
<path d="M7.37575 42.6558H10.7566H11.1243L4.65603 36.1875H0.907471V42.6841L7.37575 45.2615V42.6558Z" fill="#614730" fill-opacity="0.3"/>
<path d="M10.6311 143.531H7.37575V140.748L0.907471 143.936V150H8.43553L10.6311 143.531Z" fill="#614730" fill-opacity="0.3"/>
<path d="M7.37575 121.098H0.907471V133.484H7.37575V121.098Z" fill="#614730" fill-opacity="0.3"/>
<path d="M7.37575 107.474H0.907471V119.86H7.37575V107.474Z" fill="#614730" fill-opacity="0.3"/>
<path d="M7.37575 101.777L7.28471 101.733L7.37575 101.548V93.8486H0.907471V106.235H7.37575V101.777Z" fill="#614730" fill-opacity="0.3"/>
<path d="M17.5634 24.7334C17.4432 25.2628 17.3389 25.8117 17.2567 26.3863H10.7566V29.936L17.2249 35.3922V32.8554H22.8694L23.1301 31.0258L17.5634 24.7343V24.7334Z" fill="#614730" fill-opacity="0.3"/>
<path d="M22.4328 16.3437C22.4275 16.3454 22.4231 16.3472 22.4178 16.3481C20.4617 18.1079 18.8867 20.3326 17.9524 23.3034L23.3591 29.4137L23.6605 27.2959C24.0494 24.5638 25.0562 22.6882 26.7117 21.1785L22.4328 16.3428V16.3437Z" fill="#614730" fill-opacity="0.3"/>
<path d="M35.0148 16.7246C35.0086 16.7273 35.0033 16.729 34.9971 16.7317L31.3979 11.2109C28.5456 12.3892 25.7428 13.6938 23.3784 15.5429L27.6741 20.3981C29.4958 19.0581 31.9309 17.9744 35.0148 16.7237V16.7246Z" fill="#614730" fill-opacity="0.3"/>
<path d="M17.225 42.6555V37.011L10.7567 31.5557V36.1872H6.40796L12.8762 42.6555H17.225Z" fill="#614730" fill-opacity="0.3"/>
<path d="M42.481 13.4557L39.9698 7.48242C37.6983 8.7181 35.1359 9.70098 32.5664 10.736L36.1682 16.2603C38.1941 15.448 40.3658 14.5615 42.481 13.4557Z" fill="#614730" fill-opacity="0.3"/>
<path d="M49.9834 13.093C49.9746 13.0877 49.9658 13.0833 49.9569 13.078L52.4884 7.05607C49.9233 5.37492 47.9143 3.20851 47.0012 0C45.8893 3.13073 43.7264 5.22465 41.0518 6.85896L43.5735 12.857C43.5735 12.857 43.5664 12.8606 43.5629 12.8632C43.5638 12.8641 43.5646 12.865 43.5655 12.8659C44.6456 12.2542 45.701 11.5763 46.7024 10.8073C47.7295 11.6647 48.8291 12.416 49.9631 13.0904C49.9702 13.0904 49.9764 13.0912 49.9834 13.0921V13.093Z" fill="#614730" fill-opacity="0.3"/>
<path d="M60.8933 11.0194C60.8933 11.0194 60.8916 11.0177 60.8907 11.0177C58.3159 9.99057 55.773 8.98913 53.5562 7.71191L51.038 13.7011C51.0247 13.6941 51.0133 13.6861 51 13.679C51.0018 13.6808 51.0027 13.6835 51.0044 13.6852C53.0763 14.8157 55.2303 15.7173 57.2685 16.5358C57.2703 16.5358 57.2729 16.5358 57.2747 16.5358L60.8757 11.0123C60.8819 11.015 60.8872 11.0168 60.8933 11.0194Z" fill="#614730" fill-opacity="0.3"/>
<path d="M70.2025 15.6603C70.1998 15.6559 70.1981 15.6506 70.1963 15.6462C67.7576 13.8855 64.8983 12.633 62.0239 11.4707C62.023 11.4707 62.0221 11.4707 62.0203 11.4707C62.0301 11.4742 62.0389 11.4778 62.0486 11.4822L58.4468 17.0065C61.5271 18.2369 63.9879 19.2754 65.8626 20.4996H65.8608L70.1671 15.632C70.1795 15.6409 70.191 15.6506 70.2034 15.6603H70.2025Z" fill="#614730" fill-opacity="0.3"/>
<path d="M75.8911 23.0543C75.8928 23.0596 75.8946 23.0649 75.8964 23.0703C75.8973 23.0676 75.8981 23.0649 75.8999 23.0614C74.8799 20.2056 73.2102 18.0781 71.1667 16.3951C71.1605 16.3943 71.1552 16.3925 71.1499 16.3916L66.8701 21.2282C68.7696 22.7353 69.9116 24.5835 70.3358 27.3615L70.5975 29.0745L70.593 29.0436L75.8928 23.0543H75.8911Z" fill="#614730" fill-opacity="0.3"/>
<path d="M76.729 26.3856C76.6238 25.6988 76.485 25.05 76.3215 24.4296C76.3188 24.426 76.3144 24.4234 76.3118 24.4198C76.3118 24.4198 76.3118 24.4198 76.3109 24.4189C76.3127 24.4269 76.3153 24.434 76.3171 24.4419L70.8352 30.638L71.1737 32.8539H76.7767V35.0716L83.245 29.6153V26.3856H76.729Z" fill="#614730" fill-opacity="0.3"/>
<path d="M7.37575 133.484H0.907471V134.723H7.37575V133.484Z" fill="#614730" fill-opacity="0.3"/>
<path d="M93.0925 133.484H86.6243V134.723H93.0925V133.484Z" fill="#614730" fill-opacity="0.3"/>
<path d="M7.28467 101.733L7.37571 101.777V101.548L7.28467 101.733Z" fill="#614730" fill-opacity="0.3"/>
<path d="M86.6243 140.831L93.0925 144.019V142.638L86.6243 139.45V140.831Z" fill="#614730" fill-opacity="0.3"/>
<path d="M81.8936 143.531L84.0891 150H85.3982L83.2017 143.531H81.8936Z" fill="#614730" fill-opacity="0.3"/>
<path d="M73.1192 143.531H71.8809V150H73.1192V143.531Z" fill="#614730" fill-opacity="0.3"/>
<path d="M7.37575 139.368L0.907471 142.556V143.937L7.37575 140.749V139.368Z" fill="#614730" fill-opacity="0.3"/>
<path d="M10.6311 143.531L8.43555 150H9.7437L11.9393 143.531H10.6311Z" fill="#614730" fill-opacity="0.3"/>
<path d="M21.9519 143.531H20.7136V150H21.9519V143.531Z" fill="#614730" fill-opacity="0.3"/>
<path d="M34.8133 143.531H33.575V150H34.8133V143.531Z" fill="#614730" fill-opacity="0.3"/>
<path d="M47.6739 143.531H46.4355V150H47.6739V143.531Z" fill="#614730" fill-opacity="0.3"/>
<path d="M60.5353 143.531H59.2961V150H60.5353V143.531Z" fill="#614730" fill-opacity="0.3"/>
<path d="M93.0925 119.859H86.6243V121.098H93.0925V119.859Z" fill="#614730" fill-opacity="0.3"/>
<path d="M7.37575 119.859H0.907471V121.098H7.37575V119.859Z" fill="#614730" fill-opacity="0.3"/>
<path d="M93.0925 106.234H86.6243V107.473H93.0925V106.234Z" fill="#614730" fill-opacity="0.3"/>
<path d="M7.37575 106.234H0.907471V107.473H7.37575V106.234Z" fill="#614730" fill-opacity="0.3"/>
<path d="M7.37575 92.6104H0.907471V93.8487H7.37575V92.6104Z" fill="#614730" fill-opacity="0.3"/>
<path d="M93.0925 92.6104H86.6243V93.8487H93.0925V92.6104Z" fill="#614730" fill-opacity="0.3"/>
<path d="M7.37575 78.9854H0.907471V80.2237H7.37575V78.9854Z" fill="#614730" fill-opacity="0.3"/>
<path d="M93.0925 78.9854H86.6243V80.2237H93.0925V78.9854Z" fill="#614730" fill-opacity="0.3"/>
<path d="M93.0925 65.3604H86.6243V66.5987H93.0925V65.3604Z" fill="#614730" fill-opacity="0.3"/>
<path d="M7.37575 65.3604H0.907471V66.5987H7.37575V65.3604Z" fill="#614730" fill-opacity="0.3"/>
<path d="M7.37575 51.7354H0.907471V52.9737H7.37575V51.7354Z" fill="#614730" fill-opacity="0.3"/>
<path d="M93.0925 51.7354H86.6243V52.9737H93.0925V51.7354Z" fill="#614730" fill-opacity="0.3"/>
<path d="M86.6243 46.4444L93.0925 43.867V42.5332L86.6243 45.1106V46.4444Z" fill="#614730" fill-opacity="0.3"/>
<path d="M82.4982 42.6558L88.9665 36.1875H87.2146L80.7463 42.6558H82.4982Z" fill="#614730" fill-opacity="0.3"/>
<path d="M76.7769 36.1869V36.6916L83.2443 31.2363V29.6152L76.7769 35.0715V36.1869Z" fill="#614730" fill-opacity="0.3"/>
<path d="M76.3171 24.4424C76.1907 23.9624 76.0502 23.4984 75.8911 23.0547L70.5913 29.0439L70.8052 30.4458L70.8344 30.6384L76.3162 24.4424H76.3171Z" fill="#614730" fill-opacity="0.3"/>
<path d="M66.4848 20.9371C66.6156 21.0335 66.7446 21.1298 66.8693 21.2288L71.1499 16.3913C70.8308 16.1288 70.5029 15.876 70.1662 15.6338L65.8599 20.5005H65.8616C65.958 20.5641 66.0473 20.6295 66.1401 20.6932C66.2576 20.7736 66.3725 20.8549 66.4848 20.938V20.9371Z" fill="#614730" fill-opacity="0.3"/>
<path d="M58.4459 17.0072L62.0477 11.4829C61.657 11.3247 61.2664 11.1683 60.8757 11.0127L57.2729 16.5379C57.5947 16.6669 57.9173 16.7969 58.2328 16.9224C58.3062 16.9515 58.3734 16.9789 58.4459 17.0081V17.0072Z" fill="#614730" fill-opacity="0.3"/>
<path d="M51.0389 13.7001L53.5571 7.71086L53.5589 7.70556C53.1929 7.49519 52.8376 7.27599 52.4911 7.04883L52.4885 7.0559L49.957 13.0778C50.3159 13.2908 50.6739 13.503 51.0389 13.701V13.7001Z" fill="#614730" fill-opacity="0.3"/>
<path d="M7.37575 45.261L0.907471 42.6836V44.0174L7.37575 46.5939V45.261Z" fill="#614730" fill-opacity="0.3"/>
<path d="M12.8762 42.6558L6.40787 36.1875H4.65601L11.1243 42.6558H12.8762Z" fill="#614730" fill-opacity="0.3"/>
<path d="M17.2249 36.1873V35.3909L10.7566 29.9355V31.5557L17.2249 37.0111V36.1873Z" fill="#614730" fill-opacity="0.3"/>
<path d="M23.3592 29.4145L17.9489 23.2998C17.8048 23.7594 17.674 24.2341 17.5618 24.7308L23.1311 31.025L23.3017 29.8264L23.3601 29.4154L23.3592 29.4145Z" fill="#614730" fill-opacity="0.3"/>
<path d="M27.6741 20.3989L23.3758 15.541C23.0505 15.7956 22.735 16.0616 22.4265 16.3374L26.7107 21.1793C27.0086 20.908 27.333 20.649 27.6733 20.398L27.6741 20.3989Z" fill="#614730" fill-opacity="0.3"/>
<path d="M35.912 16.3621C35.9959 16.3285 36.0834 16.2931 36.1683 16.2587L32.5664 10.7344L32.5461 10.7423C32.1784 10.8908 31.8098 11.0402 31.443 11.1913L31.3979 11.2099L34.9971 16.7307C35.2985 16.6087 35.5973 16.4876 35.912 16.3612V16.3621Z" fill="#614730" fill-opacity="0.3"/>
<path d="M42.4812 13.4562C42.4926 13.4501 42.5041 13.4439 42.5156 13.4377C42.8709 13.2512 43.2218 13.0558 43.5728 12.857L41.051 6.85891L41.0493 6.85449C40.6966 7.07016 40.3368 7.27787 39.9683 7.47852L39.97 7.48205L42.4812 13.4554V13.4562Z" fill="#614730" fill-opacity="0.3"/>
<path d="M13.9458 141.966H79.9651V113.045H13.9458V141.966ZM64.3097 124.435C64.3097 121.16 67.9681 122.068 68.6787 120.066C69.2736 122.152 73.0478 121.216 73.0478 124.435V132.419H64.3097V124.435ZM49.7529 124.435C49.7529 121.16 53.4105 122.068 54.122 120.066C54.716 122.152 58.491 121.216 58.491 124.435V132.419H49.7529V124.435ZM35.1953 124.435C35.1953 121.16 38.8537 122.068 39.5644 120.066C40.1592 122.152 43.9334 121.216 43.9334 124.435V132.419H35.1953V124.435ZM20.6386 124.435C20.6386 121.16 24.297 122.068 25.0076 120.066C25.6016 122.152 29.3767 121.216 29.3767 124.435V132.419H20.6386V124.435Z" fill="#614730" fill-opacity="0.3"/>
<path d="M81.3254 111.446V109.72C80.6792 108.48 79.4188 107.623 77.9401 107.558C78.0382 106.566 78.0912 105.555 78.0912 104.521C78.0912 82.6822 53.8011 87.5825 47.682 75.3893L47.7933 75.3954C51.5322 75.3954 54.7601 73.2069 56.2663 70.0409C54.9237 71.273 53.1329 72.0261 51.1662 72.0261C46.9996 72.0261 43.6214 68.6479 43.6214 64.4812C43.6214 60.6001 46.5524 57.4048 50.3221 56.9841C49.5169 56.7596 48.6702 56.6367 47.7942 56.6367C42.6146 56.6367 38.4144 60.8361 38.4144 66.0156C38.4144 70.5624 41.6503 74.3516 45.9442 75.2107C39.2612 87.0194 15.5986 82.2394 15.5986 104.521C15.5986 105.591 15.6526 106.638 15.7577 107.664C13.9917 108.092 12.6765 109.673 12.6765 111.569V111.757H81.3271V111.445L81.3254 111.446Z" fill="#614730" fill-opacity="0.3"/>
</g>
<defs>
<clipPath id="clip0_5647_50978">
<rect width="92.185" height="150" fill="white" transform="translate(0.907471)"/>
</clipPath>
</defs>
</svg>
