<svg width="19" height="18" viewBox="0 0 19 18" fill="none" xmlns="http://www.w3.org/2000/svg">
<path d="M16.6428 11.25V6.75C16.6428 3 15.1428 1.5 11.3928 1.5H6.89282C3.14282 1.5 1.64282 3 1.64282 6.75V11.25C1.64282 15 3.14282 16.5 6.89282 16.5H11.3928C15.1428 16.5 16.6428 15 16.6428 11.25Z" stroke="#614730" stroke-width="1.5" stroke-linecap="round" stroke-linejoin="round"/>
<path d="M7.35782 12.975C8.23595 12.975 8.94781 12.2632 8.94781 11.385C8.94781 10.5069 8.23595 9.79504 7.35782 9.79504C6.47969 9.79504 5.76782 10.5069 5.76782 11.385C5.76782 12.2632 6.47969 12.975 7.35782 12.975Z" stroke="#614730" stroke-width="1.25" stroke-linecap="round" stroke-linejoin="round"/>
<path d="M8.94775 11.385V5.82751" stroke="#614730" stroke-width="1.25" stroke-linecap="round" stroke-linejoin="round"/>
<path d="M9.99026 5.07757L11.7452 5.66255C12.1727 5.80505 12.5178 6.28504 12.5178 6.73504V7.20004C12.5178 7.80754 12.0453 8.14504 11.4753 7.95004L9.72028 7.36506C9.29278 7.22256 8.94775 6.74257 8.94775 6.29257V5.82757C8.94775 5.22757 9.41276 4.88257 9.99026 5.07757Z" stroke="#614730" stroke-width="1.25" stroke-linecap="round" stroke-linejoin="round"/>
</svg>
