<svg width="20" height="21" viewBox="0 0 20 21" fill="none" xmlns="http://www.w3.org/2000/svg">
<path d="M8.05755 12C7.44089 12 6.94922 12.5 6.94922 13.1167C6.94922 13.7333 7.44922 14.225 8.05755 14.225C8.67422 14.225 9.17422 13.725 9.17422 13.1167C9.17422 12.5 8.67422 12 8.05755 12Z" fill="#CDD3DD"/>
<path d="M13.491 2.06641H6.50768C3.47435 2.06641 1.66602 3.87474 1.66602 6.90807V13.8831C1.66602 16.9247 3.47435 18.7331 6.50768 18.7331H13.4827C16.516 18.7331 18.3243 16.9247 18.3243 13.8914V6.90807C18.3327 3.87474 16.5243 2.06641 13.491 2.06641ZM14.266 8.56641C14.266 9.07474 14.0493 9.52474 13.6827 9.79141C13.4493 9.95807 13.166 10.0497 12.866 10.0497C12.691 10.0497 12.516 10.0164 12.3327 9.95807L10.4243 9.32474C10.416 9.32474 10.3993 9.31641 10.391 9.30807V13.1081C10.391 14.3914 9.34102 15.4414 8.05768 15.4414C6.77435 15.4414 5.72435 14.3914 5.72435 13.1081C5.72435 11.8247 6.77435 10.7747 8.05768 10.7747C8.46602 10.7747 8.84102 10.8914 9.17435 11.0664V7.59141V7.08307C9.17435 6.57474 9.39102 6.12474 9.75768 5.85807C10.1327 5.59141 10.6243 5.52474 11.1077 5.69141L13.016 6.32474C13.7327 6.56641 14.2743 7.31641 14.2743 8.06641V8.56641H14.266Z" fill="#CDD3DD"/>
</svg>
