<svg width="20" height="21" viewBox="0 0 20 21" fill="none" xmlns="http://www.w3.org/2000/svg">
<g clip-path="url(#clip0_5536_35171)">
<path d="M17.6204 7.23597C17.5044 7.32597 15.4564 8.47997 15.4564 11.046C15.4564 14.014 18.0624 15.064 18.1404 15.09C18.1284 15.154 17.7264 16.528 16.7664 17.928C15.9104 19.16 15.0164 20.39 13.6564 20.39C12.2964 20.39 11.9464 19.6 10.3764 19.6C8.8464 19.6 8.3024 20.416 7.0584 20.416C5.8144 20.416 4.9464 19.276 3.9484 17.876C2.7924 16.232 1.8584 13.678 1.8584 11.254C1.8584 7.36597 4.3864 5.30397 6.8744 5.30397C8.1964 5.30397 9.2984 6.17197 10.1284 6.17197C10.9184 6.17197 12.1504 5.25197 13.6544 5.25197C14.2244 5.25197 16.2724 5.30397 17.6204 7.23597ZM12.9404 3.60597C13.5624 2.86797 14.0024 1.84397 14.0024 0.819969C14.0024 0.677969 13.9904 0.533969 13.9644 0.417969C12.9524 0.455969 11.7484 1.09197 11.0224 1.93397C10.4524 2.58197 9.9204 3.60597 9.9204 4.64397C9.9204 4.79997 9.9464 4.95597 9.9584 5.00597C10.0224 5.01797 10.1264 5.03197 10.2304 5.03197C11.1384 5.03197 12.2804 4.42397 12.9404 3.60597Z" fill="#101010"/>
</g>
<defs>
<clipPath id="clip0_5536_35171">
<rect width="20" height="20" fill="white" transform="translate(0 0.417969)"/>
</clipPath>
</defs>
</svg>
