<svg width="18" height="18" viewBox="0 0 18 18" fill="none" xmlns="http://www.w3.org/2000/svg">
<g clip-path="url(#clip0_4601_17591)">
<path d="M12.7499 6.75C12.7481 4.53218 12.7146 3.38341 12.069 2.59682C11.9443 2.44492 11.8051 2.30563 11.6532 2.18097C10.8234 1.5 9.59062 1.5 7.125 1.5C4.65939 1.5 3.42658 1.5 2.59682 2.18097C2.44492 2.30563 2.30563 2.44492 2.18097 2.59682C1.5 3.42658 1.5 4.65939 1.5 7.125C1.5 9.59062 1.5 10.8234 2.18097 11.6532C2.30563 11.8051 2.44492 11.9443 2.59682 12.069C3.38341 12.7146 4.53218 12.7481 6.75 12.7499" stroke="#614730" stroke-width="1.5" stroke-linecap="round" stroke-linejoin="round"/>
<path d="M10.5 6.18756C10.1893 6.18756 9.93748 6.4394 9.93748 6.75006C9.93748 7.06072 10.1893 7.31256 10.5 7.31256V6.18756ZM12.75 7.31256C13.0606 7.31256 13.3125 7.06072 13.3125 6.75006C13.3125 6.4394 13.0606 6.18756 12.75 6.18756V7.31256ZM7.31248 10.5001C7.31248 10.1894 7.06064 9.93756 6.74998 9.93756C6.43933 9.93756 6.18748 10.1894 6.18748 10.5001H7.31248ZM6.18748 12.7501C6.18748 13.0607 6.43933 13.3126 6.74998 13.3126C7.06064 13.3126 7.31248 13.0607 7.31248 12.7501H6.18748ZM8.66848 7.30778C8.97651 7.2674 9.19341 6.98495 9.15306 6.67693C9.11263 6.3689 8.83018 6.15194 8.52216 6.19234L8.66848 7.30778ZM6.1985 8.13929C6.13732 8.44386 6.33463 8.74034 6.63922 8.80154C6.94379 8.86274 7.24029 8.66541 7.30147 8.36084L6.1985 8.13929ZM15.9485 8.36084C16.0097 8.66541 16.3062 8.86274 16.6108 8.80154C16.9153 8.74034 17.1127 8.44386 17.0515 8.13929L15.9485 8.36084ZM14.7278 6.19234C14.4198 6.15194 14.1373 6.3689 14.0969 6.67693C14.0566 6.98495 14.2735 7.2674 14.5815 7.30778L14.7278 6.19234ZM14.5815 15.9424C14.2735 15.9827 14.0566 16.2652 14.0969 16.5732C14.1373 16.8812 14.4198 17.0982 14.7278 17.0578L14.5815 15.9424ZM17.0515 15.1108C17.1127 14.8063 16.9153 14.5098 16.6108 14.4486C16.3062 14.3874 16.0097 14.5847 15.9485 14.8893L17.0515 15.1108ZM7.30147 14.8893C7.24029 14.5847 6.94379 14.3874 6.63922 14.4486C6.33463 14.5098 6.13732 14.8063 6.1985 15.1108L7.30147 14.8893ZM8.52216 17.0578C8.83018 17.0982 9.11263 16.8812 9.15306 16.5732C9.19341 16.2652 8.97651 15.9827 8.66848 15.9424L8.52216 17.0578ZM10.5 15.9376C10.1893 15.9376 9.93748 16.1894 9.93748 16.5001C9.93748 16.8107 10.1893 17.0626 10.5 17.0626V15.9376ZM12.75 17.0626C13.0606 17.0626 13.3125 16.8107 13.3125 16.5001C13.3125 16.1894 13.0606 15.9376 12.75 15.9376V17.0626ZM17.0625 10.5001C17.0625 10.1894 16.8106 9.93756 16.5 9.93756C16.1893 9.93756 15.9375 10.1894 15.9375 10.5001H17.0625ZM15.9375 12.7501C15.9375 13.0607 16.1893 13.3126 16.5 13.3126C16.8106 13.3126 17.0625 13.0607 17.0625 12.7501H15.9375ZM10.5 7.31256H12.75V6.18756H10.5V7.31256ZM6.18748 10.5001V12.7501H7.31248V10.5001H6.18748ZM8.52216 6.19234C7.91053 6.27254 7.38852 6.43255 6.9595 6.78548L7.67421 7.65426C7.87333 7.49044 8.15811 7.37471 8.66848 7.30778L8.52216 6.19234ZM7.30147 8.36084C7.37374 8.00106 7.49045 7.80546 7.67421 7.65426L6.9595 6.78548C6.52487 7.14302 6.30713 7.59846 6.1985 8.13929L7.30147 8.36084ZM17.0515 8.13929C16.9429 7.59846 16.7251 7.14302 16.2905 6.78548L15.5758 7.65426C15.7595 7.80546 15.8762 8.00106 15.9485 8.36084L17.0515 8.13929ZM14.5815 7.30778C15.0919 7.37471 15.3766 7.49044 15.5758 7.65426L16.2905 6.78548C15.8614 6.43255 15.3394 6.27254 14.7278 6.19234L14.5815 7.30778ZM14.7278 17.0578C15.3394 16.9776 15.8614 16.8176 16.2905 16.4647L15.5758 15.5959C15.3766 15.7597 15.0919 15.8754 14.5815 15.9424L14.7278 17.0578ZM15.9485 14.8893C15.8762 15.2491 15.7595 15.4447 15.5758 15.5959L16.2905 16.4647C16.7251 16.1071 16.9429 15.6517 17.0515 15.1108L15.9485 14.8893ZM6.1985 15.1108C6.30713 15.6517 6.52487 16.1071 6.95949 16.4647L7.67421 15.5959C7.49045 15.4447 7.37374 15.2491 7.30147 14.8893L6.1985 15.1108ZM8.66848 15.9424C8.15811 15.8754 7.87333 15.7597 7.67421 15.5959L6.95949 16.4647C7.38851 16.8176 7.91053 16.9776 8.52216 17.0578L8.66848 15.9424ZM10.5 17.0626H12.75V15.9376H10.5V17.0626ZM15.9375 10.5001V12.7501H17.0625V10.5001H15.9375Z" fill="#614730"/>
</g>
<defs>
<clipPath id="clip0_4601_17591">
<rect width="18" height="18" fill="white"/>
</clipPath>
</defs>
</svg>
