<svg width="18" height="19" viewBox="0 0 18 19" fill="none" xmlns="http://www.w3.org/2000/svg">
<path d="M8.25 15.7248V3.8748C8.25 2.7498 7.77 2.2998 6.5775 2.2998H3.5475C2.355 2.2998 1.875 2.7498 1.875 3.8748V15.7248C1.875 16.8498 2.355 17.2998 3.5475 17.2998H6.5775C7.77 17.2998 8.25 16.8498 8.25 15.7248Z" fill="#614730"/>
<path opacity="0.4" d="M16.125 8.9748V3.8748C16.125 2.7498 15.645 2.2998 14.4525 2.2998H11.4225C10.23 2.2998 9.75 2.7498 9.75 3.8748V8.9748C9.75 10.0998 10.23 10.5498 11.4225 10.5498H14.4525C15.645 10.5498 16.125 10.0998 16.125 8.9748Z" fill="#614730"/>
<path opacity="0.4" d="M16.125 15.7248V13.6248C16.125 12.4998 15.645 12.0498 14.4525 12.0498H11.4225C10.23 12.0498 9.75 12.4998 9.75 13.6248V15.7248C9.75 16.8498 10.23 17.2998 11.4225 17.2998H14.4525C15.645 17.2998 16.125 16.8498 16.125 15.7248Z" fill="#614730"/>
</svg>
