<svg width="18" height="18" viewBox="0 0 18 18" fill="none" xmlns="http://www.w3.org/2000/svg">
<g clip-path="url(#clip0_867_11720)">
<path fill-rule="evenodd" clip-rule="evenodd" d="M7.62341 1.24138L6.37992 2.48276H4.52653H2.6732L2.578 2.578L2.48276 2.6732V4.52653V6.37992L1.24138 7.62341C0.0993878 8.76744 0 8.87755 0 8.99887C0 9.12014 0.0996984 9.23076 1.24138 10.376L2.48276 11.6212V13.474V15.3268L2.578 15.422L2.6732 15.5172H4.52599H6.37884L7.62403 16.7586C8.76497 17.8961 8.88022 18 9 18C9.11978 18 9.23503 17.8961 10.376 16.7586L11.6212 15.5172H13.474H15.3268L15.422 15.422L15.5172 15.3268V13.474V11.6212L16.7586 10.376C17.8961 9.23503 18 9.11978 18 9C18 8.88022 17.8961 8.76497 16.7586 7.62403L15.5172 6.37884V4.52599V2.6732L15.422 2.578L15.3268 2.48276H13.474H11.6212L10.376 1.24138C9.23076 0.0996984 9.12014 0 8.99887 0C8.87755 0 8.76744 0.0993878 7.62341 1.24138ZM10.1838 1.93965L11.3499 3.10345H13.1232H14.8965V4.87676V6.65007L16.0692 7.82501L17.2418 9L16.0692 10.175L14.8965 11.3499V13.1232V14.8965H13.1232H11.3499L10.175 16.0692L9 17.2418L7.82501 16.0692L6.65007 14.8965H4.87676H3.10345V13.1232V11.3499L1.93081 10.175L0.75817 9L1.93081 7.82501L3.10345 6.65007V4.87676V3.10345H4.87691H6.65038L7.8155 1.93985C8.4563 1.29984 8.98894 0.776134 8.99918 0.776057C9.00941 0.775939 9.54247 1.29957 10.1838 1.93965ZM7.93399 3.41379L7.0001 4.34483H5.76766H4.53526L4.44007 4.44007L4.34483 4.53526V5.76766V7.0001L3.41379 7.93399C2.56741 8.78297 2.48276 8.87976 2.48276 8.99851C2.48276 9.11726 2.56783 9.21472 3.41379 10.0652L4.34483 11.0012V12.233V13.4647L4.44007 13.5599L4.53526 13.6552H5.76699H6.99876L7.93476 14.5862C8.78102 15.4279 8.88326 15.5172 9 15.5172C9.11674 15.5172 9.21898 15.4279 10.0652 14.5862L11.0012 13.6552H12.233H13.4647L13.5599 13.5599L13.6552 13.4647V12.233V11.0012L14.5862 10.0652C15.4279 9.21898 15.5172 9.11674 15.5172 9C15.5172 8.88326 15.4279 8.78102 14.5862 7.93476L13.6552 6.99876V5.76699V4.53526L13.5599 4.44007L13.4647 4.34483H12.233H11.0012L10.0652 3.41379C9.21472 2.56783 9.11726 2.48276 8.99851 2.48276C8.87976 2.48276 8.78297 2.56741 7.93399 3.41379ZM9.87372 4.11207L10.7303 4.96552H11.8824H13.0345V6.11763V7.26974L13.8965 8.13487L14.7585 9L13.8965 9.86513L13.0345 10.7303V11.8824V13.0345H11.8824H10.7303L9.86513 13.8965L9 14.7585L8.13487 13.8965L7.26974 13.0345H6.11763H4.96552V11.8824V10.7303L4.1035 9.86513L3.24151 9L4.1035 8.13487L4.96552 7.26974V6.11763V4.96552H6.11784H7.27015L8.12535 4.1123C8.59572 3.64306 8.98884 3.25901 8.99887 3.25885C9.00895 3.25874 9.40263 3.64267 9.87372 4.11207ZM9.09525 7.23317L9 7.32837V8.84484V10.3613L8.90475 10.4565C8.84474 10.5165 8.76523 10.5517 8.68968 10.5517C8.61408 10.5517 8.53457 10.5165 8.47456 10.4565L8.37931 10.3613V9.15516V7.94906L8.28406 7.85386C8.15812 7.72786 7.97981 7.72786 7.85386 7.85386C7.80151 7.90622 7.75862 7.97359 7.75862 8.00357C7.75862 8.04435 7.6771 8.06313 7.43318 8.0783C7.16297 8.09517 7.06711 8.12026 6.86865 8.22605C6.60214 8.3681 6.48406 8.4906 6.3324 8.78251C6.24461 8.95145 6.22944 9.02911 6.22944 9.31032C6.22944 9.59153 6.24461 9.66924 6.3324 9.83818C6.48432 10.1306 6.60214 10.2526 6.87091 10.3958C7.07991 10.5072 7.15963 10.5269 7.46717 10.543L7.82218 10.5616L7.91558 10.7377C8.02759 10.9488 8.27584 11.1192 8.52609 11.1567C8.73612 11.1882 9.04413 11.1239 9.19383 11.0173L9.30189 10.9404L9.48718 11.044C9.98661 11.3231 10.6677 11.0366 10.8215 10.4829C10.8451 10.3978 10.8617 9.84698 10.8618 9.14374L10.8621 7.94906L10.7668 7.85386C10.7068 7.7938 10.6273 7.75862 10.5517 7.75862C10.4762 7.75862 10.3966 7.7938 10.3366 7.85386L10.2414 7.94906V9.15516V10.3613L10.1461 10.4565C10.0861 10.5165 10.0066 10.5517 9.93101 10.5517C9.85546 10.5517 9.77595 10.5165 9.71594 10.4565L9.62069 10.3613V8.84484V7.32837L9.52545 7.23317C9.46543 7.1731 9.38592 7.13793 9.31032 7.13793C9.23477 7.13793 9.15526 7.1731 9.09525 7.23317ZM11.2676 7.54349L11.1724 7.63869V9.31032V10.982L11.2676 11.0772C11.3277 11.1372 11.4072 11.1724 11.4828 11.1724C11.5583 11.1724 11.6379 11.1372 11.6979 11.0772L11.7931 10.982V9.31032V7.63869L11.6979 7.54349C11.6379 7.48347 11.5583 7.4483 11.4828 7.4483C11.4072 7.4483 11.3277 7.48347 11.2676 7.54349ZM7.75862 9.31032V9.93101H7.54401C7.27113 9.93101 7.09745 9.85809 6.96878 9.68945C6.7842 9.44738 6.78574 9.14061 6.97269 8.91844C7.10943 8.75587 7.26511 8.69302 7.53557 8.69117L7.75862 8.68968V9.31032Z" fill="#614730"/>
</g>
<defs>
<clipPath id="clip0_867_11720">
<rect width="18" height="18" fill="white"/>
</clipPath>
</defs>
</svg>
