<svg width="19" height="18" viewBox="0 0 19 18" fill="none" xmlns="http://www.w3.org/2000/svg">
<path fill-rule="evenodd" clip-rule="evenodd" d="M4.82889 5.54343C4.95782 5.41948 5.13073 5.35174 5.30962 5.35512C5.4885 5.35849 5.65873 5.43269 5.78289 5.56142L9.12189 9.10296L12.4609 5.56142C12.5216 5.49456 12.5951 5.44055 12.6771 5.4026C12.759 5.36465 12.8478 5.34352 12.9381 5.34047C13.0283 5.33742 13.1183 5.35252 13.2027 5.38485C13.287 5.41719 13.364 5.46612 13.4291 5.52873C13.4941 5.59134 13.546 5.66637 13.5815 5.74937C13.617 5.83237 13.6355 5.92165 13.6358 6.01191C13.6362 6.10218 13.6184 6.1916 13.5836 6.27488C13.5487 6.35815 13.4975 6.43359 13.4329 6.49672L9.60789 10.5437C9.54492 10.609 9.46943 10.6609 9.38593 10.6963C9.30243 10.7318 9.21262 10.7501 9.12189 10.7501C9.03116 10.7501 8.94135 10.7318 8.85785 10.6963C8.77435 10.6609 8.69886 10.609 8.63589 10.5437L4.81089 6.49672C4.68684 6.36788 4.61906 6.1951 4.62243 6.01635C4.62581 5.8376 4.70007 5.6675 4.82889 5.54343Z" fill="#614730"/>
</svg>
