<svg width="20" height="21" viewBox="0 0 20 21" fill="none" xmlns="http://www.w3.org/2000/svg">
<path d="M9.37501 5.40013V16.9918C9.37501 17.5835 8.77501 17.9918 8.23334 17.7668C6.68334 17.1168 4.75834 16.5501 3.39167 16.3668L3.13334 16.3335C2.32501 16.2335 1.66667 15.4918 1.66667 14.6835V4.77513C1.66667 3.77513 2.47501 2.9668 3.47501 2.9668H3.53334C5.10001 3.10013 7.40834 3.83346 8.93334 4.65846C9.20834 4.80846 9.37501 5.08346 9.37501 5.40013Z" fill="#614730"/>
<path d="M16.525 2.9668H16.475C16.275 2.98346 16.0583 3.00846 15.8333 3.05013C14.8083 3.2168 13.5917 3.5668 12.5 4.00013C11.9833 4.20846 11.5 4.43346 11.075 4.65846C10.8 4.80846 10.625 5.0918 10.625 5.40013V16.9918C10.625 17.5835 11.225 17.9918 11.7667 17.7668C13.3167 17.1168 15.2417 16.5501 16.6083 16.3668L16.8667 16.3335C17.675 16.2335 18.3333 15.4918 18.3333 14.6835V4.77513C18.3333 3.77513 17.525 2.9668 16.525 2.9668ZM16.0583 11.8418C16.0583 12.1668 15.825 12.3085 15.5417 12.1501L14.6583 11.6585C14.5667 11.6085 14.4167 11.6085 14.3167 11.6585L13.4333 12.1501C13.15 12.3085 12.9167 12.1668 12.9167 11.8418V9.28346C12.9167 8.90013 13.2333 8.58346 13.6167 8.58346H15.3667C15.75 8.58346 16.0667 8.90013 16.0667 9.28346V11.8418H16.0583Z" fill="#614730"/>
</svg>
