<svg width="18" height="18" viewBox="0 0 18 18" fill="none" xmlns="http://www.w3.org/2000/svg">
<path d="M4.55894 8.38783C4.51943 4.57736 7.88232 4.4476 9.5687 4.85903C10.2433 4.91659 11.7306 5.11069 12.2834 5.42658C12.9744 5.82144 13.0978 6.24097 13.5913 9.27643C14.0849 12.3119 12.5301 13.9407 12.2093 14.4836C11.8885 15.0265 9.2479 16.4085 7.27361 15.6435C5.29933 14.8785 4.60833 13.1509 4.55894 8.38783Z" fill="#614730"/>
<path d="M10.4625 4.95C10.4625 5.26066 10.7143 5.5125 11.025 5.5125C11.3357 5.5125 11.5875 5.26066 11.5875 4.95H10.4625ZM6.4125 4.95C6.4125 5.26066 6.66434 5.5125 6.975 5.5125C7.28566 5.5125 7.5375 5.26066 7.5375 4.95H6.4125ZM13.3875 9.1125C13.0769 9.1125 12.825 9.36435 12.825 9.675C12.825 9.98565 13.0769 10.2375 13.3875 10.2375V9.1125ZM15.75 10.2375C16.0606 10.2375 16.3125 9.98565 16.3125 9.675C16.3125 9.36435 16.0606 9.1125 15.75 9.1125V10.2375ZM4.6125 10.2375C4.92316 10.2375 5.175 9.98565 5.175 9.675C5.175 9.36435 4.92316 9.1125 4.6125 9.1125V10.2375ZM2.25 9.1125C1.93934 9.1125 1.6875 9.36435 1.6875 9.675C1.6875 9.98565 1.93934 10.2375 2.25 10.2375V9.1125ZM2.8125 3.75C2.8125 3.43934 2.56066 3.1875 2.25 3.1875C1.93934 3.1875 1.6875 3.43934 1.6875 3.75H2.8125ZM4.6125 6.8625C4.92316 6.8625 5.175 6.61066 5.175 6.3C5.175 5.98934 4.92316 5.7375 4.6125 5.7375V6.8625ZM16.3125 3.75C16.3125 3.43934 16.0606 3.1875 15.75 3.1875C15.4394 3.1875 15.1875 3.43934 15.1875 3.75H16.3125ZM13.3875 5.7375C13.0769 5.7375 12.825 5.98934 12.825 6.3C12.825 6.61066 13.0769 6.8625 13.3875 6.8625V5.7375ZM4.95 13.6125C5.26066 13.6125 5.5125 13.3607 5.5125 13.05C5.5125 12.7394 5.26066 12.4875 4.95 12.4875V13.6125ZM1.6875 15.75C1.6875 16.0606 1.93934 16.3125 2.25 16.3125C2.56066 16.3125 2.8125 16.0606 2.8125 15.75H1.6875ZM13.05 12.4875C12.7394 12.4875 12.4875 12.7394 12.4875 13.05C12.4875 13.3607 12.7394 13.6125 13.05 13.6125V12.4875ZM15.1875 15.75C15.1875 16.0606 15.4394 16.3125 15.75 16.3125C16.0606 16.3125 16.3125 16.0606 16.3125 15.75H15.1875ZM9.5625 12.375C9.5625 12.0644 9.31065 11.8125 9 11.8125C8.68935 11.8125 8.4375 12.0644 8.4375 12.375H9.5625ZM8.5398 5.5125H9.4602V4.3875H8.5398V5.5125ZM12.825 8.8773V11.3625H13.95V8.8773H12.825ZM5.175 11.3625V8.8773H4.05V11.3625H5.175ZM9 15.1875C6.88751 15.1875 5.175 13.475 5.175 11.3625H4.05C4.05 14.0963 6.26619 16.3125 9 16.3125V15.1875ZM12.825 11.3625C12.825 13.475 11.1125 15.1875 9 15.1875V16.3125C11.7338 16.3125 13.95 14.0963 13.95 11.3625H12.825ZM9.4602 5.5125C10.0387 5.5125 10.4469 5.51276 10.7682 5.5327C11.0851 5.55237 11.28 5.58965 11.4345 5.64727L11.8277 4.5932C11.5257 4.48058 11.2067 4.43275 10.838 4.40986C10.4737 4.38724 10.0247 4.3875 9.4602 4.3875V5.5125ZM13.95 8.8773C13.95 8.31278 13.9502 7.86383 13.9277 7.49957C13.9048 7.13087 13.8569 6.81182 13.7443 6.50987L12.6902 6.90302C12.7478 7.0575 12.7851 7.2524 12.8048 7.5693C12.8248 7.8906 12.825 8.29883 12.825 8.8773H13.95ZM11.4345 5.64727C12.0154 5.86393 12.4735 6.32213 12.6902 6.90302L13.7443 6.50987C13.4136 5.62325 12.7142 4.92389 11.8277 4.5932L11.4345 5.64727ZM8.5398 4.3875C7.97528 4.3875 7.52633 4.38724 7.16207 4.40986C6.79337 4.43275 6.47431 4.48058 6.17237 4.5932L6.56552 5.64727C6.72 5.58965 6.91489 5.55237 7.23177 5.5327C7.5531 5.51276 7.96133 5.5125 8.5398 5.5125V4.3875ZM5.175 8.8773C5.175 8.29883 5.17526 7.8906 5.1952 7.5693C5.21487 7.2524 5.25215 7.0575 5.30977 6.90302L4.2557 6.50987C4.14308 6.81182 4.09525 7.13087 4.07236 7.49957C4.04975 7.86383 4.05 8.31278 4.05 8.8773H5.175ZM6.17237 4.5932C5.28575 4.92389 4.58639 5.62325 4.2557 6.50987L5.30977 6.90302C5.52643 6.32213 5.98463 5.86393 6.56552 5.64727L6.17237 4.5932ZM9 2.8125C9.5703 2.8125 9.89902 3.05153 10.1144 3.40483C10.3515 3.79409 10.4625 4.35228 10.4625 4.95H11.5875C11.5875 4.24679 11.4623 3.45498 11.075 2.81947C10.6659 2.14801 9.9822 1.6875 9 1.6875V2.8125ZM7.5375 4.95C7.5375 4.35228 7.6485 3.79409 7.88565 3.40483C8.10098 3.05153 8.4297 2.8125 9 2.8125V1.6875C8.0178 1.6875 7.33408 2.14801 6.92497 2.81947C6.53775 3.45498 6.4125 4.24679 6.4125 4.95H7.5375ZM13.3875 10.2375H15.75V9.1125H13.3875V10.2375ZM4.6125 9.1125H2.25V10.2375H4.6125V9.1125ZM2.8125 3.9375V3.75H1.6875V3.9375H2.8125ZM4.6125 5.7375C3.61839 5.7375 2.8125 4.93161 2.8125 3.9375H1.6875C1.6875 5.55293 2.99707 6.8625 4.6125 6.8625V5.7375ZM16.3125 3.9375V3.75H15.1875V3.9375H16.3125ZM13.3875 6.8625C15.0029 6.8625 16.3125 5.55293 16.3125 3.9375H15.1875C15.1875 4.93161 14.3816 5.7375 13.3875 5.7375V6.8625ZM4.95 12.4875C3.14817 12.4875 1.6875 13.9482 1.6875 15.75H2.8125C2.8125 14.5695 3.76949 13.6125 4.95 13.6125V12.4875ZM13.05 13.6125C14.2305 13.6125 15.1875 14.5695 15.1875 15.75H16.3125C16.3125 13.9482 14.8518 12.4875 13.05 12.4875V13.6125ZM9.5625 15.75V12.375H8.4375V15.75H9.5625Z" fill="#614730"/>
</svg>
