<svg width="16" height="16" viewBox="0 0 16 16" fill="none" xmlns="http://www.w3.org/2000/svg">
<path opacity="0.4" d="M8.59351 3.91992H3.40682C2.26682 3.91992 1.3335 4.85325 1.3335 5.99325V13.5666C1.3335 14.5333 2.02683 14.9466 2.87349 14.4732L5.49349 13.0132C5.77349 12.8599 6.22683 12.8599 6.50016 13.0132L9.12016 14.4732C9.96682 14.9466 10.6602 14.5333 10.6602 13.5666V5.99325C10.6668 4.85325 9.73351 3.91992 8.59351 3.91992Z" fill="#614730"/>
<path d="M14.6668 3.40682V10.9802C14.6668 11.9468 13.9735 12.3535 13.1268 11.8868L10.6668 10.5135V5.99349C10.6668 4.85349 9.73351 3.92017 8.59351 3.92017H5.3335V3.40682C5.3335 2.26682 6.26682 1.3335 7.40682 1.3335H12.5935C13.7335 1.3335 14.6668 2.26682 14.6668 3.40682Z" fill="#614730"/>
</svg>
