<svg width="24" height="25" viewBox="0 0 24 25" fill="none" xmlns="http://www.w3.org/2000/svg">
<path d="M16.8201 2.11011H7.18007C5.06007 2.11011 3.32007 3.85011 3.32007 5.97011V20.0601C3.32007 21.8601 4.61007 22.6201 6.19007 21.7501L11.0701 19.0401C11.5901 18.7501 12.4301 18.7501 12.9401 19.0401L17.8201 21.7501C19.4001 22.6301 20.6901 21.8701 20.6901 20.0601V5.97011C20.6801 3.85011 18.9501 2.11011 16.8201 2.11011ZM15.6201 9.23011L11.6201 13.2301C11.4701 13.3801 11.2801 13.4501 11.0901 13.4501C10.9001 13.4501 10.7101 13.3801 10.5601 13.2301L9.06007 11.7301C8.77007 11.4401 8.77007 10.9601 9.06007 10.6701C9.35007 10.3801 9.83007 10.3801 10.1201 10.6701L11.0901 11.6401L14.5601 8.17011C14.8501 7.88011 15.3301 7.88011 15.6201 8.17011C15.9101 8.46011 15.9101 8.94011 15.6201 9.23011Z" fill="#FF9100"/>
</svg>
