<svg width="64" height="64" viewBox="0 0 64 64" fill="none" xmlns="http://www.w3.org/2000/svg">
<g opacity="0.7">
<path opacity="0.4" d="M53.6 18.5065C53.6 19.9465 52.8267 21.2531 51.6 21.9198L46.9599 24.4265L43.0133 26.5332L34.8266 30.9598C33.9466 31.4398 32.9866 31.6799 32 31.6799C31.0133 31.6799 30.0533 31.4398 29.1733 30.9598L12.4 21.9198C11.1733 21.2531 10.4 19.9465 10.4 18.5065C10.4 17.0665 11.1733 15.7598 12.4 15.0931L17.6533 12.2665L21.84 9.99987L29.1733 6.05325C30.9333 5.09325 33.0666 5.09325 34.8266 6.05325L51.6 15.0931C52.8267 15.7598 53.6 17.0665 53.6 18.5065Z" fill="#614730"/>
<path opacity="0.4" d="M26.4 34.1066L10.8 26.2933C9.59999 25.6799 8.21334 25.7599 7.06667 26.4533C5.92 27.1466 5.25336 28.3734 5.25336 29.7067V44.4533C5.25336 47.0133 6.66665 49.3066 8.95998 50.4533L24.56 58.2401C25.0933 58.5067 25.68 58.64 26.2667 58.64C26.96 58.64 27.6534 58.4534 28.2667 58.0534C29.4134 57.36 30.08 56.1333 30.08 54.8V40.0534C30.1067 37.5467 28.6933 35.2533 26.4 34.1066Z" fill="#614730"/>
<path opacity="0.4" d="M58.7467 29.7333V44.4799C58.7467 47.0133 57.3334 49.3066 55.04 50.4532L39.44 58.2665C38.9067 58.5332 38.32 58.6666 37.7333 58.6666C37.04 58.6666 36.3467 58.48 35.7067 58.08C34.5867 57.3867 33.8933 56.1599 33.8933 54.8266V40.1066C33.8933 37.5466 35.3067 35.2532 37.6 34.1066L43.3333 31.2532L47.3333 29.2532L53.2 26.3199C54.4 25.7066 55.7867 25.7599 56.9333 26.4799C58.0533 27.1733 58.7467 28.4 58.7467 29.7333Z" fill="#614730"/>
<path d="M57.824 55.4027L57.5966 55.7437L57.8864 56.0336L59.9131 58.0603C60.5138 58.6609 60.5229 59.6531 59.9102 60.2893C59.6048 60.5932 59.2 60.7533 58.8 60.7533C58.3987 60.7533 57.9927 60.5923 57.6869 60.2864L55.6602 58.2597L55.3703 57.9699L55.0293 58.1973C53.5097 59.2103 51.6859 59.7933 49.7333 59.7933C44.3828 59.7933 40.0466 55.4571 40.0466 50.1066C40.0466 44.7561 44.3828 40.4199 49.7333 40.4199C55.0838 40.4199 59.42 44.7561 59.42 50.1066C59.42 52.0592 58.837 53.8831 57.824 55.4027Z" fill="#614730" stroke="#614730"/>
</g>
</svg>
