<svg width="19" height="18" viewBox="0 0 19 18" fill="none" xmlns="http://www.w3.org/2000/svg">
<g clip-path="url(#clip0_627_9430)">
<path d="M16.6445 8.31002V9.00002C16.6436 10.6173 16.1199 12.191 15.1515 13.4864C14.1832 14.7818 12.822 15.7294 11.271 16.1879C9.7201 16.6465 8.06248 16.5914 6.54538 16.031C5.02829 15.4705 3.73302 14.4346 2.85275 13.0778C1.97248 11.721 1.55437 10.1161 1.66079 8.50226C1.7672 6.88844 2.39244 5.35227 3.44324 4.12283C4.49405 2.89338 5.91412 2.03656 7.49167 1.68013C9.06923 1.3237 10.7197 1.48677 12.197 2.14502M16.6445 3.00002L9.14454 10.5075L6.89454 8.25752" stroke="white" stroke-width="2" stroke-linecap="round" stroke-linejoin="round"/>
</g>
<defs>
<clipPath id="clip0_627_9430">
<rect width="18" height="18" fill="white" transform="translate(0.144531)"/>
</clipPath>
</defs>
</svg>
