<svg width="16" height="16" viewBox="0 0 16 16" fill="none" xmlns="http://www.w3.org/2000/svg">
<g clip-path="url(#clip0_2998_111978)">
<path opacity="0.4" d="M5 13C5 13.5531 5.44687 14 6 14H15C15.5531 14 16 13.5531 16 13C16 12.4469 15.5531 12 15 12H6C5.44687 12 5 12.4469 5 13ZM7 8C7 8.55312 7.44688 9 8 9H15C15.5531 9 16 8.55312 16 8C16 7.44688 15.5531 7 15 7H8C7.44688 7 7 7.44688 7 8ZM8 4H15C15.5531 4 16 3.55313 16 3C16 2.44687 15.5531 2 15 2H8C7.44688 2 7 2.44687 7 3C7 3.55313 7.44688 4 8 4Z" fill="#614730"/>
<path d="M4.80623 2.2531C5.08435 1.94373 5.05935 1.47185 4.74998 1.19373C4.4406 0.915603 3.96873 0.940603 3.6906 1.24998L1.97185 3.15935L1.28123 2.46873C0.987476 2.1781 0.512476 2.1781 0.218726 2.46873C-0.0750244 2.75935 -0.0750244 3.23748 0.218726 3.5281L1.46873 4.7781C1.6156 4.92498 1.81248 5.0031 2.01873 4.99685C2.22498 4.9906 2.41873 4.9031 2.55623 4.74998L4.80623 2.24998V2.2531ZM4.80623 7.2531C5.08435 6.94373 5.05935 6.47185 4.74998 6.19373C4.4406 5.9156 3.96873 5.9406 3.6906 6.24998L1.97185 8.15935L1.28123 7.46873C0.987476 7.17498 0.512476 7.17498 0.221851 7.46873C-0.0687744 7.76248 -0.0718994 8.23748 0.221851 8.5281L1.47185 9.7781C1.61873 9.92498 1.8156 10.0031 2.02185 9.99685C2.2281 9.9906 2.42185 9.9031 2.55935 9.74998L4.80935 7.24998L4.80623 7.2531ZM1.49998 14.5C1.8978 14.5 2.27933 14.3419 2.56064 14.0606C2.84194 13.7793 2.99998 13.3978 2.99998 13C2.99998 12.6022 2.84194 12.2206 2.56064 11.9393C2.27933 11.658 1.8978 11.5 1.49998 11.5C1.10215 11.5 0.72062 11.658 0.439315 11.9393C0.158011 12.2206 -2.4423e-05 12.6022 -2.4423e-05 13C-2.4423e-05 13.3978 0.158011 13.7793 0.439315 14.0606C0.72062 14.3419 1.10215 14.5 1.49998 14.5Z" fill="#614730"/>
</g>
<defs>
<clipPath id="clip0_2998_111978">
<rect width="16" height="16" fill="white"/>
</clipPath>
</defs>
</svg>
