<svg width="20" height="20" viewBox="0 0 20 20" fill="none" xmlns="http://www.w3.org/2000/svg">
<path d="M17.0833 9.41649V5.86651C17.0833 2.50818 16.3 1.6665 13.15 1.6665H6.84996C3.69996 1.6665 2.91663 2.50818 2.91663 5.86651V15.2498C2.91663 17.4665 4.1333 17.9915 5.6083 16.4082L5.61662 16.3998C6.29995 15.6748 7.34162 15.7332 7.93328 16.5248L8.77496 17.6498" stroke="#614730" stroke-width="1.5" stroke-linecap="round" stroke-linejoin="round"/>
<path d="M6.66663 5.8335H13.3333" stroke="#614730" stroke-width="1.5" stroke-linecap="round" stroke-linejoin="round"/>
<path d="M7.5 9.1665H12.5" stroke="#614730" stroke-width="1.5" stroke-linecap="round" stroke-linejoin="round"/>
<path d="M15.1759 12.3086L12.2259 15.2586C12.1092 15.3752 12.0009 15.5919 11.9759 15.7502L11.8175 16.8752C11.7592 17.2836 12.0426 17.5669 12.4509 17.5086L13.5759 17.3502C13.7342 17.3252 13.9592 17.2169 14.0676 17.1002L17.0176 14.1502C17.5259 13.6419 17.7676 13.0502 17.0176 12.3002C16.2759 11.5586 15.6842 11.8002 15.1759 12.3086Z" stroke="#614730" stroke-miterlimit="10" stroke-linecap="round" stroke-linejoin="round"/>
<path d="M14.7494 12.7334C14.9994 13.6334 15.6994 14.3334 16.5994 14.5834" stroke="#614730" stroke-miterlimit="10" stroke-linecap="round" stroke-linejoin="round"/>
</svg>
