<svg width="20" height="20" viewBox="0 0 20 20" fill="none" xmlns="http://www.w3.org/2000/svg">
<path d="M7.5 12.7084C7.15483 12.7084 6.875 12.9882 6.875 13.3334C6.875 13.6785 7.15483 13.9584 7.5 13.9584V12.7084ZM12.5 13.9584C12.8452 13.9584 13.125 13.6785 13.125 13.3334C13.125 12.9882 12.8452 12.7084 12.5 12.7084V13.9584ZM12.1306 9.69246C12.3619 9.43621 12.3417 9.04104 12.0854 8.80971C11.8292 8.57846 11.434 8.59871 11.2028 8.85496L12.1306 9.69246ZM8.79725 8.85496C8.566 8.59871 8.1708 8.57846 7.91456 8.80971C7.65832 9.04104 7.6381 9.43621 7.86937 9.69246L8.79725 8.85496ZM10.625 5.83337C10.625 5.4882 10.3452 5.20837 10 5.20837C9.65483 5.20837 9.375 5.4882 9.375 5.83337H10.625ZM7.5 13.9584H12.5V12.7084H7.5V13.9584ZM11.2028 8.85496L10.4199 9.72221L11.3478 10.5597L12.1306 9.69246L11.2028 8.85496ZM9.58008 9.72221L8.79725 8.85496L7.86937 9.69246L8.65217 10.5597L9.58008 9.72221ZM10.4199 9.72221C10.1994 9.96646 10.0758 10.1013 9.97933 10.183C9.89392 10.2551 9.91725 10.2084 10 10.2084V11.4584C10.3417 11.4584 10.5986 11.2962 10.7862 11.1376C10.9627 10.9884 11.1517 10.777 11.3478 10.5597L10.4199 9.72221ZM8.65217 10.5597C8.84833 10.777 9.03725 10.9884 9.21375 11.1376C9.40142 11.2962 9.65833 11.4584 10 11.4584V10.2084C10.0827 10.2084 10.1061 10.2551 10.0207 10.183C9.92417 10.1013 9.80058 9.96646 9.58008 9.72221L8.65217 10.5597ZM10.625 10.8334V5.83337H9.375V10.8334H10.625Z" fill="#614730"/>
</svg>
