<svg width="19" height="18" viewBox="0 0 19 18" fill="none" xmlns="http://www.w3.org/2000/svg">
<path d="M16.6914 4.485C14.1939 4.2375 11.6814 4.11 9.17641 4.11C7.69141 4.11 6.20641 4.185 4.72141 4.335L3.19141 4.485M7.31641 3.7275L7.48141 2.745C7.60141 2.0325 7.69141 1.5 8.95891 1.5H10.9239C12.1914 1.5 12.2889 2.0625 12.4014 2.7525L12.5664 3.7275M15.0789 6.855L14.5914 14.4075C14.5089 15.585 14.4414 16.5 12.3489 16.5H7.53391C5.44141 16.5 5.37391 15.585 5.29141 14.4075L4.80391 6.855M8.68891 12.375H11.1864M8.06641 9.375H11.8164" stroke="#FFFFFF" stroke-width="1.5" stroke-linecap="round" stroke-linejoin="round"/>
</svg>
