<svg width="18" height="18" viewBox="0 0 18 18" fill="none" xmlns="http://www.w3.org/2000/svg">
<g clip-path="url(#clip0_1444_3006)">
<path d="M9 16.5C13.1421 16.5 16.5 13.1421 16.5 9C16.5 4.85786 13.1421 1.5 9 1.5C4.85786 1.5 1.5 4.85786 1.5 9C1.5 13.1421 4.85786 16.5 9 16.5Z" stroke="#614730" stroke-width="1.5"/>
<path d="M6.75 11.4375C6.43934 11.4375 6.1875 11.6894 6.1875 12C6.1875 12.3106 6.43934 12.5625 6.75 12.5625V11.4375ZM11.25 12.5625C11.5606 12.5625 11.8125 12.3106 11.8125 12C11.8125 11.6894 11.5606 11.4375 11.25 11.4375V12.5625ZM10.9175 8.72318C11.1257 8.49255 11.1075 8.1369 10.8769 7.9287C10.6462 7.72057 10.2906 7.7388 10.0825 7.96943L10.9175 8.72318ZM7.91752 7.96943C7.7094 7.7388 7.35372 7.72057 7.1231 7.9287C6.89249 8.1369 6.87429 8.49255 7.08244 8.72318L7.91752 7.96943ZM9.5625 5.25C9.5625 4.93934 9.31065 4.6875 9 4.6875C8.68935 4.6875 8.4375 4.93934 8.4375 5.25H9.5625ZM6.75 12.5625H11.25V11.4375H6.75V12.5625ZM10.0825 7.96943L9.37792 8.74995L10.213 9.5037L10.9175 8.72318L10.0825 7.96943ZM8.62208 8.74995L7.91752 7.96943L7.08244 8.72318L7.78695 9.5037L8.62208 8.74995ZM9.37792 8.74995C9.17947 8.96978 9.06825 9.09112 8.9814 9.16462C8.90452 9.22957 8.92552 9.1875 9 9.1875V10.3125C9.3075 10.3125 9.53872 10.1666 9.70762 10.0238C9.86647 9.8895 10.0365 9.6993 10.213 9.5037L9.37792 8.74995ZM7.78695 9.5037C7.9635 9.6993 8.13353 9.8895 8.29238 10.0238C8.46128 10.1666 8.6925 10.3125 9 10.3125V9.1875C9.07448 9.1875 9.09548 9.22957 9.0186 9.16462C8.93175 9.09112 8.82053 8.96978 8.62208 8.74995L7.78695 9.5037ZM9.5625 9.75V5.25H8.4375V9.75H9.5625Z" fill="#614730"/>
</g>
<defs>
<clipPath id="clip0_1444_3006">
<rect width="18" height="18" fill="white"/>
</clipPath>
</defs>
</svg>
