<svg width="18" height="18" viewBox="0 0 18 18" fill="none" xmlns="http://www.w3.org/2000/svg">
<path d="M12.5627 2.67V1.5C12.5627 1.1925 12.3077 0.9375 12.0002 0.9375C11.6927 0.9375 11.4377 1.1925 11.4377 1.5V2.625H6.56267V1.5C6.56267 1.1925 6.30767 0.9375 6.00017 0.9375C5.69267 0.9375 5.43767 1.1925 5.43767 1.5V2.67C3.41267 2.8575 2.43017 4.065 2.28017 5.8575C2.26517 6.075 2.44517 6.255 2.65517 6.255H15.3452C15.5627 6.255 15.7427 6.0675 15.7202 5.8575C15.5702 4.065 14.5877 2.8575 12.5627 2.67Z" fill="#614730"/>
<path d="M15 7.38H3C2.5875 7.38 2.25 7.7175 2.25 8.13V12.75C2.25 15 3.375 16.5 6 16.5H12C14.625 16.5 15.75 15 15.75 12.75V8.13C15.75 7.7175 15.4125 7.38 15 7.38ZM11.13 11.2425L10.755 11.625H10.7475L8.475 13.8975C8.3775 13.995 8.175 14.1 8.0325 14.115L7.02 14.265C6.6525 14.3175 6.3975 14.055 6.45 13.695L6.5925 12.675C6.615 12.5325 6.7125 12.3375 6.81 12.2325L9.09 9.96L9.465 9.57751C9.7125 9.33001 9.99 9.15 10.29 9.15C10.545 9.15 10.8225 9.27001 11.13 9.57751C11.805 10.2525 11.5875 10.785 11.13 11.2425Z" fill="#614730"/>
</svg>
