<svg width="148" height="80" viewBox="0 0 148 80" fill="none" xmlns="http://www.w3.org/2000/svg">
<path d="M24.1365 28.8626C24.5418 28.0912 25.688 28.2402 25.8825 29.0896C25.9436 29.3567 26.1184 29.5837 26.3609 29.7111C27.1323 30.1164 26.9832 31.2626 26.1338 31.4571C25.8668 31.5182 25.6398 31.693 25.5123 31.9355C25.1071 32.7069 23.9609 32.5578 23.7664 31.7084C23.7052 31.4414 23.5305 31.2144 23.288 31.087C22.5166 30.6817 22.6656 29.5355 23.515 29.341C23.7821 29.2799 24.0091 29.1051 24.1365 28.8626Z" fill="#E53935" fill-opacity="0.1"/>
<path d="M51.0673 8.53762C51.4726 7.76622 52.6188 7.91529 52.8133 8.76469C52.8744 9.03174 53.0492 9.25876 53.2917 9.38617C54.0631 9.79145 53.914 10.9377 53.0646 11.1321C52.7976 11.1933 52.5706 11.368 52.4431 11.6106C52.0379 12.382 50.8916 12.2329 50.6972 11.3835C50.636 11.1164 50.4613 10.8894 50.2187 10.762C49.4473 10.3567 49.5964 9.21052 50.4458 9.01604C50.7129 8.9549 50.9399 8.78014 51.0673 8.53762Z" fill="#E53935" fill-opacity="0.1"/>
<path d="M2.33277 71.2511C2.48686 70.9579 2.92264 71.0145 2.99658 71.3375C3.01983 71.439 3.08627 71.5253 3.17848 71.5737C3.47176 71.7278 3.41508 72.1636 3.09214 72.2376C2.99061 72.2608 2.9043 72.3272 2.85586 72.4195C2.70178 72.7127 2.26599 72.6561 2.19205 72.3331C2.16881 72.2316 2.10236 72.1453 2.01016 72.0968C1.71688 71.9428 1.77355 71.507 2.09649 71.433C2.19802 71.4098 2.28433 71.3433 2.33277 71.2511Z" fill="#E53935" fill-opacity="0.1"/>
<path d="M43.429 40.2907C43.6802 39.8126 44.3907 39.905 44.5112 40.4314C44.5491 40.597 44.6575 40.7377 44.8078 40.8167C45.2859 41.0679 45.1935 41.7783 44.667 41.8989C44.5015 41.9368 44.3608 42.0451 44.2818 42.1954C44.0306 42.6735 43.3202 42.5811 43.1996 42.0547C43.1617 41.8891 43.0534 41.7484 42.9031 41.6694C42.4249 41.4182 42.5173 40.7078 43.0438 40.5872C43.2094 40.5493 43.3501 40.441 43.429 40.2907Z" fill="#E53935" fill-opacity="0.1"/>
<path d="M24.4042 59.4596C24.7066 58.6424 25.8625 58.6424 26.1649 59.4596C26.26 59.7166 26.4626 59.9192 26.7195 60.0142C27.5367 60.3166 27.5367 61.4725 26.7195 61.7749C26.4626 61.87 26.26 62.0726 26.1649 62.3295C25.8625 63.1467 24.7066 63.1467 24.4042 62.3295C24.3092 62.0726 24.1066 61.87 23.8497 61.7749C23.0324 61.4725 23.0324 60.3166 23.8497 60.0142C24.1066 59.9192 24.3092 59.7166 24.4042 59.4596Z" fill="#E53935" fill-opacity="0.1"/>
<path d="M128.539 35.0784C128.2 34.4336 127.242 34.5582 127.079 35.2682C127.028 35.4914 126.882 35.6812 126.679 35.7877C126.035 36.1264 126.159 37.0845 126.869 37.2471C127.093 37.2982 127.282 37.4443 127.389 37.647C127.728 38.2918 128.686 38.1672 128.848 37.4572C128.899 37.234 129.045 37.0442 129.248 36.9377C129.893 36.599 129.768 35.6409 129.058 35.4783C128.835 35.4272 128.645 35.2811 128.539 35.0784Z" fill="#E53935" fill-opacity="0.1"/>
<path d="M106.028 18.0894C105.689 17.4446 104.731 17.5692 104.569 18.2792C104.518 18.5024 104.372 18.6922 104.169 18.7987C103.524 19.1374 103.649 20.0955 104.359 20.2581C104.582 20.3092 104.772 20.4553 104.878 20.658C105.217 21.3028 106.175 21.1782 106.338 20.4682C106.389 20.245 106.535 20.0552 106.737 19.9487C107.382 19.6099 107.258 18.6519 106.548 18.4893C106.324 18.4382 106.135 18.2921 106.028 18.0894Z" fill="#E53935" fill-opacity="0.1"/>
<path d="M146.764 70.5097C146.635 70.2646 146.271 70.312 146.209 70.5819C146.19 70.6668 146.134 70.7389 146.057 70.7794C145.812 70.9082 145.859 71.2725 146.129 71.3343C146.214 71.3537 146.286 71.4092 146.327 71.4863C146.456 71.7315 146.82 71.6841 146.882 71.4141C146.901 71.3293 146.957 71.2571 147.034 71.2166C147.279 71.0879 147.231 70.7236 146.961 70.6618C146.877 70.6424 146.804 70.5868 146.764 70.5097Z" fill="#E53935" fill-opacity="0.1"/>
<path d="M112.413 44.6308C112.203 44.2312 111.609 44.3084 111.508 44.7485C111.477 44.8869 111.386 45.0045 111.26 45.0705C110.861 45.2805 110.938 45.8743 111.378 45.9751C111.516 46.0067 111.634 46.0973 111.7 46.2229C111.91 46.6226 112.504 46.5454 112.605 46.1053C112.636 45.9669 112.727 45.8493 112.852 45.7833C113.252 45.5733 113.175 44.9795 112.735 44.8787C112.596 44.847 112.479 44.7565 112.413 44.6308Z" fill="#E53935" fill-opacity="0.1"/>
<path d="M128.315 60.6535C128.062 59.9704 127.096 59.9704 126.843 60.6535C126.764 60.8683 126.595 61.0376 126.38 61.1171C125.697 61.3698 125.697 62.336 126.38 62.5888C126.595 62.6682 126.764 62.8376 126.843 63.0523C127.096 63.7354 128.062 63.7354 128.315 63.0523C128.395 62.8376 128.564 62.6682 128.779 62.5888C129.462 62.336 129.462 61.3698 128.779 61.1171C128.564 61.0376 128.395 60.8683 128.315 60.6535Z" fill="#E53935" fill-opacity="0.1"/>
<path d="M88 25.9448C87.6963 25.9448 87.3979 25.8657 87.134 25.7153C86.8701 25.565 86.6499 25.3486 86.495 25.0873L81.7525 17.1948H66.2475L61.505 25.0873C61.2502 25.4377 60.8745 25.6811 60.4506 25.7704C60.0267 25.8598 59.5847 25.7887 59.2101 25.5709C58.8356 25.3532 58.5552 25.0042 58.4231 24.5916C58.291 24.179 58.3166 23.7321 58.495 23.3373L63.2375 15.4448C63.5429 14.9158 63.9814 14.476 64.5095 14.169C65.0375 13.862 65.6367 13.6985 66.2475 13.6948H81.7525C82.3633 13.6985 82.9625 13.862 83.4906 14.169C84.0186 14.476 84.4571 14.9158 84.7625 15.4448L89.505 23.3548C89.7417 23.754 89.8101 24.2308 89.6952 24.6804C89.5803 25.13 89.2916 25.5156 88.8925 25.7523C88.6173 25.8943 88.3093 25.9608 88 25.9448Z" fill="#A6876B"/>
<path d="M93.25 24.1948V24.2823L91.5 59.3698C91.4551 60.2674 91.0666 61.1133 90.415 61.7323C89.7634 62.3513 88.8987 62.6959 88 62.6948H60C59.1013 62.6959 58.2366 62.3513 57.585 61.7323C56.9334 61.1133 56.5449 60.2674 56.5 59.3698V59.1948V58.3198L54.75 24.2823V24.1948H93.25Z" fill="#614730"/>
<path d="M87.8425 24.1948L86.25 55.8698C86.2051 56.7674 85.8166 57.6133 85.165 58.2323C84.5134 58.8513 83.6487 59.1959 82.75 59.1948H56.5V58.3198L54.75 24.2823V24.1948H87.8425Z" fill="#8E6B4D" fill-opacity="0.5"/>
<path d="M96.75 24.1948C96.75 24.659 96.5656 25.1041 96.2374 25.4323C95.9092 25.7604 95.4641 25.9448 95 25.9448H53C52.5359 25.9448 52.0908 25.7604 51.7626 25.4323C51.4344 25.1041 51.25 24.659 51.25 24.1948C51.25 23.7307 51.4344 23.2856 51.7626 22.9574C52.0908 22.6292 52.5359 22.4448 53 22.4448H95C95.4641 22.4448 95.9092 22.6292 96.2374 22.9574C96.5656 23.2856 96.75 23.7307 96.75 24.1948Z" fill="#614730"/>
<path d="M95 22.4448C95 22.909 94.8156 23.3541 94.4874 23.6823C94.1592 24.0104 93.7141 24.1948 93.25 24.1948H51.25C51.25 23.7307 51.4344 23.2856 51.7626 22.9574C52.0908 22.6292 52.5359 22.4448 53 22.4448H95Z" fill="#A6876B"/>
<path d="M67.875 48.6948C67.4109 48.6948 66.9658 48.5105 66.6376 48.1823C66.3094 47.8541 66.125 47.409 66.125 46.9448V36.4448C66.125 35.9807 66.3094 35.5356 66.6376 35.2074C66.9658 34.8792 67.4109 34.6948 67.875 34.6948C68.3391 34.6948 68.7842 34.8792 69.1124 35.2074C69.4406 35.5356 69.625 35.9807 69.625 36.4448V46.9448C69.625 47.409 69.4406 47.8541 69.1124 48.1823C68.7842 48.5105 68.3391 48.6948 67.875 48.6948Z" fill="#E8ECED"/>
<path d="M80.125 48.6948C79.6609 48.6948 79.2158 48.5105 78.8876 48.1823C78.5594 47.8541 78.375 47.409 78.375 46.9448V36.4448C78.375 35.9807 78.5594 35.5356 78.8876 35.2074C79.2158 34.8792 79.6609 34.6948 80.125 34.6948C80.5891 34.6948 81.0342 34.8792 81.3624 35.2074C81.6906 35.5356 81.875 35.9807 81.875 36.4448V46.9448C81.875 47.409 81.6906 47.8541 81.3624 48.1823C81.0342 48.5105 80.5891 48.6948 80.125 48.6948Z" fill="#E8ECED"/>
</svg>
