<svg width="19" height="18" viewBox="0 0 19 18" fill="none" xmlns="http://www.w3.org/2000/svg">
<g clip-path="url(#clip0_1585_9514)">
<path d="M6.89258 11.25C6.89258 9.1287 6.89258 8.06805 7.55159 7.40901C8.21063 6.75 9.27128 6.75 11.3926 6.75H12.1426C14.2639 6.75 15.3245 6.75 15.9836 7.40901C16.6426 8.06805 16.6426 9.1287 16.6426 11.25V12C16.6426 14.1213 16.6426 15.1819 15.9836 15.841C15.3245 16.5 14.2639 16.5 12.1426 16.5H11.3926C9.27128 16.5 8.21063 16.5 7.55159 15.841C6.89258 15.1819 6.89258 14.1213 6.89258 12V11.25Z" stroke="#CDD3DD" stroke-width="1.5" stroke-linecap="round" stroke-linejoin="round"/>
<path d="M12.8925 6.75C12.8907 4.53218 12.8572 3.38341 12.2116 2.59682C12.0869 2.44492 11.9477 2.30563 11.7958 2.18097C10.966 1.5 9.7332 1.5 7.26758 1.5C4.80197 1.5 3.56916 1.5 2.7394 2.18097C2.5875 2.30563 2.44821 2.44492 2.32355 2.59682C1.64258 3.42658 1.64258 4.65939 1.64258 7.125C1.64258 9.59062 1.64258 10.8234 2.32355 11.6532C2.44821 11.8051 2.5875 11.9443 2.7394 12.069C3.52599 12.7146 4.67476 12.7481 6.89258 12.7499" stroke="#CDD3DD" stroke-width="1.5" stroke-linecap="round" stroke-linejoin="round"/>
</g>
<defs>
<clipPath id="clip0_1585_9514">
<rect width="18" height="18" fill="white" transform="translate(0.142578)"/>
</clipPath>
</defs>
</svg>
