<svg width="20" height="21" viewBox="0 0 20 21" fill="none" xmlns="http://www.w3.org/2000/svg">
<path d="M17.084 8.89141H14.6757C12.7007 8.89141 11.0923 7.28307 11.0923 5.30807V2.89974C11.0923 2.44141 10.7173 2.06641 10.259 2.06641H6.72565C4.15898 2.06641 2.08398 3.73307 2.08398 6.70807V14.0914C2.08398 17.0664 4.15898 18.7331 6.72565 18.7331H13.2757C15.8423 18.7331 17.9173 17.0664 17.9173 14.0914V9.72474C17.9173 9.26641 17.5423 8.89141 17.084 8.89141ZM10.234 13.5497L8.56732 15.2164C8.50898 15.2747 8.43398 15.3247 8.35898 15.3497C8.28398 15.3831 8.20898 15.3997 8.12565 15.3997C8.04232 15.3997 7.96732 15.3831 7.89232 15.3497C7.82565 15.3247 7.75898 15.2747 7.70898 15.2247C7.70065 15.2164 7.69232 15.2164 7.69232 15.2081L6.02565 13.5414C5.78398 13.2997 5.78398 12.8997 6.02565 12.6581C6.26732 12.4164 6.66732 12.4164 6.90898 12.6581L7.50065 13.2664V9.77474C7.50065 9.43307 7.78398 9.14974 8.12565 9.14974C8.46732 9.14974 8.75065 9.43307 8.75065 9.77474V13.2664L9.35065 12.6664C9.59232 12.4247 9.99232 12.4247 10.234 12.6664C10.4757 12.9081 10.4757 13.3081 10.234 13.5497Z" fill="#CDD3DD"/>
<path d="M14.5241 7.74148C15.3158 7.74981 16.4158 7.74981 17.3574 7.74981C17.8324 7.74981 18.0824 7.19148 17.7491 6.85815C16.5491 5.64981 14.3991 3.47482 13.1658 2.24148C12.8241 1.89982 12.2324 2.13315 12.2324 2.60815V5.51648C12.2324 6.73315 13.2658 7.74148 14.5241 7.74148Z" fill="#CDD3DD"/>
</svg>
