<svg width="20" height="21" viewBox="0 0 20 21" fill="none" xmlns="http://www.w3.org/2000/svg">
<path d="M17.0834 13.7332V15.8166C17.0834 17.4249 15.7751 18.7332 14.1667 18.7332H5.83341C4.22508 18.7332 2.91675 17.4249 2.91675 15.8166V15.2749C2.91675 13.9666 3.98341 12.8999 5.29175 12.8999H16.2501C16.7084 12.8999 17.0834 13.2749 17.0834 13.7332Z" fill="#614730"/>
<path d="M12.9167 2.06641H7.08342C3.75008 2.06641 2.91675 2.89974 2.91675 6.23307V12.5497C3.55008 11.9914 4.38341 11.6497 5.29175 11.6497H16.2501C16.7084 11.6497 17.0834 11.2747 17.0834 10.8164V6.23307C17.0834 2.89974 16.2501 2.06641 12.9167 2.06641ZM10.8334 9.35807H6.66675C6.32508 9.35807 6.04175 9.07474 6.04175 8.73307C6.04175 8.39141 6.32508 8.10807 6.66675 8.10807H10.8334C11.1751 8.10807 11.4584 8.39141 11.4584 8.73307C11.4584 9.07474 11.1751 9.35807 10.8334 9.35807ZM13.3334 6.44141H6.66675C6.32508 6.44141 6.04175 6.15807 6.04175 5.81641C6.04175 5.47474 6.32508 5.19141 6.66675 5.19141H13.3334C13.6751 5.19141 13.9584 5.47474 13.9584 5.81641C13.9584 6.15807 13.6751 6.44141 13.3334 6.44141Z" fill="#614730"/>
</svg>
