<svg width="24" height="25" viewBox="0 0 24 25" fill="none" xmlns="http://www.w3.org/2000/svg">
<path opacity="0.4" d="M22 6.84961V11.9496C22 13.2196 21.58 14.2896 20.83 15.0296C20.09 15.7796 19.02 16.1996 17.75 16.1996V18.0096C17.75 18.6896 16.99 19.0996 16.43 18.7196L15.46 18.0796C15.55 17.7696 15.59 17.4296 15.59 17.0696V12.9996C15.59 10.9596 14.23 9.59961 12.19 9.59961H5.39999C5.25999 9.59961 5.13 9.60963 5 9.61963V6.84961C5 4.29961 6.7 2.59961 9.25 2.59961H17.75C20.3 2.59961 22 4.29961 22 6.84961Z" fill="#614730"/>
<path d="M15.59 12.9996V17.0696C15.59 17.4296 15.55 17.7696 15.46 18.0796C15.09 19.5496 13.87 20.4696 12.19 20.4696H9.47L6.45 22.4796C6 22.7896 5.39999 22.4596 5.39999 21.9196V20.4696C4.37999 20.4696 3.53 20.1296 2.94 19.5396C2.34 18.9396 2 18.0896 2 17.0696V12.9996C2 11.0996 3.18 9.78963 5 9.61963C5.13 9.60963 5.25999 9.59961 5.39999 9.59961H12.19C14.23 9.59961 15.59 10.9596 15.59 12.9996Z" fill="#614730"/>
</svg>
