<svg width="24" height="25" viewBox="0 0 24 25" fill="none" xmlns="http://www.w3.org/2000/svg">
<path d="M15.8002 2.41019C15.3902 2.00019 14.6802 2.28019 14.6802 2.85019V6.34019C14.6802 7.80019 15.9202 9.01019 17.4302 9.01019C18.3802 9.02019 19.7002 9.02019 20.8302 9.02019C21.4002 9.02019 21.7002 8.35019 21.3002 7.95019C19.8602 6.50019 17.2802 3.89019 15.8002 2.41019Z" fill="#614730"/>
<path d="M20.5 10.3902H17.61C15.24 10.3902 13.31 8.4602 13.31 6.0902V3.2002C13.31 2.6502 12.86 2.2002 12.31 2.2002H8.07C4.99 2.2002 2.5 4.2002 2.5 7.7702V16.6302C2.5 20.2002 4.99 22.2002 8.07 22.2002H15.93C19.01 22.2002 21.5 20.2002 21.5 16.6302V11.3902C21.5 10.8402 21.05 10.3902 20.5 10.3902ZM11.5 17.9502H7.5C7.09 17.9502 6.75 17.6102 6.75 17.2002C6.75 16.7902 7.09 16.4502 7.5 16.4502H11.5C11.91 16.4502 12.25 16.7902 12.25 17.2002C12.25 17.6102 11.91 17.9502 11.5 17.9502ZM13.5 13.9502H7.5C7.09 13.9502 6.75 13.6102 6.75 13.2002C6.75 12.7902 7.09 12.4502 7.5 12.4502H13.5C13.91 12.4502 14.25 12.7902 14.25 13.2002C14.25 13.6102 13.91 13.9502 13.5 13.9502Z" fill="#614730"/>
</svg>
