<svg width="20" height="21" viewBox="0 0 20 21" fill="none" xmlns="http://www.w3.org/2000/svg">
<path d="M17.5251 18.5334H11.6584C11.3084 18.5334 11.0334 18.2501 11.0334 17.9084C11.0334 17.5668 11.3168 17.2834 11.6584 17.2834H17.5251C17.8751 17.2834 18.1501 17.5668 18.1501 17.9084C18.1501 18.2501 17.8751 18.5334 17.5251 18.5334Z" fill="#614730"/>
<path d="M11.3666 14.1084C11.6916 14.4334 11.6916 14.9584 11.3666 15.2917L8.88325 17.7751C7.95825 18.7001 6.47492 18.7501 5.49159 17.9251C5.43325 17.8751 5.38325 17.8251 5.33325 17.7751L4.60825 17.0501L3.11658 15.5584L2.39992 14.8417C2.34158 14.7834 2.29158 14.7251 2.24158 14.6667C1.42492 13.6834 1.48325 12.2167 2.39992 11.3001L4.88325 8.81675C5.20825 8.49175 5.73325 8.49175 6.05825 8.81675L11.3666 14.1084Z" fill="#614730"/>
<path d="M17.6 9.06681L13.4334 13.2335C13.1084 13.5585 12.5834 13.5585 12.2584 13.2335L6.95005 7.94181C6.62505 7.61681 6.62505 7.09181 6.95005 6.75848L11.1167 2.60015C12.0917 1.62515 13.6917 1.62515 14.6667 2.60015L17.6 5.52515C18.575 6.50015 18.575 8.09181 17.6 9.06681Z" fill="#614730"/>
</svg>
