<svg width="24" height="25" viewBox="0 0 24 25" fill="none" xmlns="http://www.w3.org/2000/svg">
<path opacity="0.4" d="M21 22.3999H3C2.59 22.3999 2.25 22.0599 2.25 21.6499C2.25 21.2399 2.59 20.8999 3 20.8999H21C21.41 20.8999 21.75 21.2399 21.75 21.6499C21.75 22.0599 21.41 22.3999 21 22.3999Z" fill="#101010"/>
<path opacity="0.4" d="M19.0206 3.88006C17.0806 1.94006 15.1806 1.89006 13.1906 3.88006L11.9806 5.09006C11.8806 5.19006 11.8406 5.35006 11.8806 5.49006C12.6406 8.14006 14.7606 10.2601 17.4106 11.0201C17.4506 11.0301 17.4906 11.0401 17.5306 11.0401C17.6406 11.0401 17.7406 11.0001 17.8206 10.9201L19.0206 9.71006C20.0106 8.73006 20.4906 7.78006 20.4906 6.82006C20.5006 5.83006 20.0206 4.87006 19.0206 3.88006Z" fill="#101010"/>
<path d="M15.6103 11.9297C15.3203 11.7897 15.0403 11.6497 14.7703 11.4897C14.5503 11.3597 14.3403 11.2197 14.1303 11.0697C13.9603 10.9597 13.7603 10.7997 13.5703 10.6397C13.5503 10.6297 13.4803 10.5697 13.4003 10.4897C13.0703 10.2097 12.7003 9.84971 12.3703 9.44971C12.3403 9.42971 12.2903 9.35971 12.2203 9.26971C12.1203 9.14971 11.9503 8.94971 11.8003 8.71971C11.6803 8.56971 11.5403 8.34971 11.4103 8.12971C11.2503 7.85971 11.1103 7.58971 10.9703 7.30971C10.8303 7.00971 10.7203 6.71971 10.6203 6.44971L4.34032 12.7297C4.21032 12.8597 4.09032 13.1097 4.06032 13.2797L3.52032 17.1097C3.42032 17.7897 3.61032 18.4297 4.03032 18.8597C4.39032 19.2097 4.89032 19.3997 5.43032 19.3997C5.55032 19.3997 5.67032 19.3897 5.79032 19.3697L9.63032 18.8297C9.81032 18.7997 10.0603 18.6797 10.1803 18.5497L16.4603 12.2697C16.1803 12.1697 15.9103 12.0597 15.6103 11.9297Z" fill="#101010"/>
</svg>
