<svg width="24" height="24" viewBox="0 0 24 24" fill="none" xmlns="http://www.w3.org/2000/svg">
<path d="M19.5251 20.3334H13.6584C13.3084 20.3334 13.0334 20.05 13.0334 19.7084C13.0334 19.3667 13.3168 19.0834 13.6584 19.0834H19.5251C19.8751 19.0834 20.1501 19.3667 20.1501 19.7084C20.1501 20.05 19.8751 20.3334 19.5251 20.3334Z" fill="#614730"/>
<path d="M13.3666 15.9083C13.6916 16.2333 13.6916 16.7583 13.3666 17.0917L10.8833 19.575C9.95825 20.5 8.47492 20.55 7.49159 19.725C7.43325 19.675 7.38325 19.625 7.33325 19.575L6.60825 18.85L5.11658 17.3583L4.39992 16.6417C4.34158 16.5833 4.29158 16.525 4.24158 16.4667C3.42492 15.4833 3.48325 14.0167 4.39992 13.1L6.88325 10.6167C7.20825 10.2917 7.73325 10.2917 8.05825 10.6167L13.3666 15.9083Z" fill="#614730"/>
<path d="M19.6 10.8666L15.4334 15.0333C15.1084 15.3583 14.5834 15.3583 14.2584 15.0333L8.95005 9.74162C8.62505 9.41662 8.62505 8.89162 8.95005 8.55828L13.1167 4.39995C14.0917 3.42495 15.6917 3.42495 16.6667 4.39995L19.6 7.32495C20.575 8.29995 20.575 9.89162 19.6 10.8666Z" fill="#614730"/>
</svg>
