<svg width="19" height="18" viewBox="0 0 19 18" fill="none" xmlns="http://www.w3.org/2000/svg">
<path d="M8.57459 2.10798C8.88201 1.77906 9.40363 1.77906 9.71106 2.10798L11.0541 3.54499C11.2074 3.70904 11.4242 3.79883 11.6486 3.79124L13.6144 3.72481C14.0644 3.7096 14.4332 4.07844 14.418 4.52841L14.3516 6.49421C14.344 6.71863 14.4338 6.93538 14.5978 7.08871L16.0348 8.43177C16.3638 8.73919 16.3638 9.26081 16.0348 9.56823L14.5978 10.9113C14.4338 11.0646 14.344 11.2814 14.3516 11.5058L14.418 13.4716C14.4332 13.9216 14.0644 14.2904 13.6144 14.2752L11.6486 14.2088C11.4242 14.2012 11.2074 14.291 11.0541 14.455L9.71106 15.892C9.40363 16.2209 8.88201 16.2209 8.57459 15.892L7.23154 14.455C7.07821 14.291 6.86146 14.2012 6.63703 14.2088L4.67123 14.2752C4.22127 14.2904 3.85242 13.9216 3.86763 13.4716L3.93406 11.5058C3.94165 11.2814 3.85187 11.0646 3.68781 10.9113L2.25081 9.56823C1.92188 9.26081 1.92188 8.73919 2.25081 8.43177L3.68781 7.08871C3.85187 6.93538 3.94165 6.71863 3.93406 6.49421L3.86763 4.52841C3.85242 4.07844 4.22127 3.7096 4.67123 3.72481L6.63703 3.79124C6.86146 3.79883 7.07821 3.70904 7.23154 3.54499L8.57459 2.10798Z" stroke="#614730" stroke-width="1.5"/>
</svg>
