<svg width="24" height="25" viewBox="0 0 24 25" fill="none" xmlns="http://www.w3.org/2000/svg">
<path d="M21.06 12.0203L20.9 11.8003C20.62 11.4603 20.29 11.1903 19.91 10.9903C19.4 10.7003 18.82 10.5503 18.22 10.5503H5.76995C5.16995 10.5503 4.59995 10.7003 4.07995 10.9903C3.68995 11.2003 3.33995 11.4903 3.04995 11.8503C2.47995 12.5803 2.20995 13.4803 2.29995 14.3803L2.66995 19.0503C2.79995 20.4603 2.96995 22.2003 6.13995 22.2003H17.86C21.03 22.2003 21.19 20.4603 21.33 19.0403L21.7 14.3903C21.79 13.5503 21.57 12.7103 21.06 12.0203ZM14.39 17.5403H9.59995C9.20995 17.5403 8.89995 17.2203 8.89995 16.8403C8.89995 16.4603 9.20995 16.1403 9.59995 16.1403H14.39C14.78 16.1403 15.09 16.4603 15.09 16.8403C15.09 17.2303 14.78 17.5403 14.39 17.5403Z" fill="#FF9100"/>
<path d="M20.561 8.79662C20.5986 9.17948 20.1833 9.43581 19.8185 9.31368C19.3137 9.14469 18.7824 9.06019 18.2299 9.06019H5.76988C5.21304 9.06019 4.66478 9.15032 4.15322 9.32213C3.79283 9.44318 3.37988 9.19526 3.37988 8.81508V6.8602C3.37988 3.2902 4.46988 2.2002 8.03988 2.2002H9.21988C10.6499 2.2002 11.0999 2.6602 11.6799 3.4102L12.8799 5.0102C13.1299 5.3502 13.1399 5.3702 13.5799 5.3702H15.9599C19.0856 5.3702 20.3069 6.20744 20.561 8.79662Z" fill="#FF9100"/>
</svg>
