<svg width="24" height="25" viewBox="0 0 24 25" fill="none" xmlns="http://www.w3.org/2000/svg">
<path d="M18.6667 8.53345H14.6667" stroke="#614730" stroke-width="1.5" stroke-miterlimit="10" stroke-linecap="round" stroke-linejoin="round"/>
<path d="M7.99992 8.53345H5.33325" stroke="#614730" stroke-width="1.5" stroke-miterlimit="10" stroke-linecap="round" stroke-linejoin="round"/>
<path d="M10.6666 10.8669C11.9552 10.8669 12.9999 9.82219 12.9999 8.53353C12.9999 7.24486 11.9552 6.2002 10.6666 6.2002C9.37792 6.2002 8.33325 7.24486 8.33325 8.53353C8.33325 9.82219 9.37792 10.8669 10.6666 10.8669Z" stroke="#614730" stroke-width="1.5" stroke-miterlimit="10" stroke-linecap="round" stroke-linejoin="round"/>
<path d="M18.6667 15.8669H16" stroke="#614730" stroke-width="1.5" stroke-miterlimit="10" stroke-linecap="round" stroke-linejoin="round"/>
<path d="M9.33325 15.8669H5.33325" stroke="#614730" stroke-width="1.5" stroke-miterlimit="10" stroke-linecap="round" stroke-linejoin="round"/>
<path d="M13.3333 18.2001C14.622 18.2001 15.6667 17.1554 15.6667 15.8668C15.6667 14.5781 14.622 13.5334 13.3333 13.5334C12.0447 13.5334 11 14.5781 11 15.8668C11 17.1554 12.0447 18.2001 13.3333 18.2001Z" stroke="#614730" stroke-width="1.5" stroke-miterlimit="10" stroke-linecap="round" stroke-linejoin="round"/>
</svg>
