<svg width="28" height="28" viewBox="0 0 28 28" fill="none" xmlns="http://www.w3.org/2000/svg">
<path d="M20.541 22.5312H4.94342C4.41574 22.5307 3.90985 22.3208 3.53672 21.9477C3.1636 21.5745 2.95372 21.0686 2.95312 20.541V7.45905C2.95372 6.93137 3.1636 6.42547 3.53672 6.05235C3.90985 5.67923 4.41574 5.46934 4.94342 5.46875H11.4242C11.7686 5.46967 12.1069 5.55925 12.4066 5.72885C12.7063 5.89845 12.9573 6.14236 13.1354 6.4371L14.3317 8.36719H20.541C21.0686 8.36778 21.5745 8.57766 21.9477 8.95079C22.3208 9.32391 22.5307 9.82981 22.5312 10.3575V20.541C22.5307 21.0686 22.3208 21.5745 21.9477 21.9477C21.5745 22.3208 21.0686 22.5307 20.541 22.5312Z" fill="#66BB6A" fill-opacity="0.4"/>
<path d="M20.4995 22.4766H4.70025C4.16847 22.4766 3.69985 22.2596 3.4146 21.8814C3.13734 21.5138 3.05798 21.0244 3.19678 20.5385L5.45685 12.6296C5.71935 11.7114 6.69115 10.9922 7.66945 10.9922H23.4687C24.0005 10.9922 24.469 11.2091 24.7543 11.5874C25.0316 11.9549 25.1109 12.4444 24.9721 12.9302L22.7121 20.8391C22.4497 21.7573 21.4778 22.4766 20.4995 22.4766Z" fill="#66BB6A"/>
</svg>
