<svg width="19" height="18" viewBox="0 0 19 18" fill="none" xmlns="http://www.w3.org/2000/svg">
<path d="M2.73438 9C2.73438 5.64124 2.73437 3.96187 3.7778 2.91843C4.82124 1.875 6.50062 1.875 9.85938 1.875C13.2181 1.875 14.8975 1.875 15.941 2.91843C16.9844 3.96187 16.9844 5.64124 16.9844 9C16.9844 12.3587 16.9844 14.0381 15.941 15.0816C14.8975 16.125 13.2181 16.125 9.85938 16.125C6.50062 16.125 4.82124 16.125 3.7778 15.0816C2.73437 14.0381 2.73438 12.3587 2.73438 9Z" stroke="#614730" stroke-width="1.5"/>
<path d="M13.2344 6.75C13.8557 6.75 14.3594 6.24632 14.3594 5.625C14.3594 5.00368 13.8557 4.5 13.2344 4.5C12.6131 4.5 12.1094 5.00368 12.1094 5.625C12.1094 6.24632 12.6131 6.75 13.2344 6.75Z" stroke="#614730" stroke-width="1.5"/>
<path d="M12.8594 16.5C12.3948 14.8312 11.3103 13.3366 9.76675 12.2506C8.10258 11.0797 6.0131 10.4599 3.87114 10.502C3.61681 10.5014 3.3627 10.5095 3.10938 10.5263" stroke="#614730" stroke-width="1.5" stroke-linejoin="round"/>
<path d="M10.6094 13.5C11.8855 12.5049 13.2603 11.9946 14.649 12C15.4365 11.9992 16.2203 12.1662 16.9844 12.4962" stroke="#614730" stroke-width="1.5" stroke-linejoin="round"/>
</svg>
