<svg width="18" height="18" viewBox="0 0 18 18" fill="none" xmlns="http://www.w3.org/2000/svg">
<path d="M12.1048 2.22003L5.33234 4.47003C0.779844 5.99253 0.779844 8.47503 5.33234 9.99003L7.34234 10.6575L8.00984 12.6675C9.52484 17.22 12.0148 17.22 13.5298 12.6675L15.7873 5.90253C16.7923 2.86503 15.1423 1.20753 12.1048 2.22003ZM12.3448 6.25503L9.49484 9.12003C9.38234 9.23253 9.23984 9.28503 9.09734 9.28503C8.95484 9.28503 8.81234 9.23253 8.69984 9.12003C8.48234 8.90253 8.48234 8.54253 8.69984 8.32503L11.5498 5.46003C11.7673 5.24253 12.1273 5.24253 12.3448 5.46003C12.5623 5.67753 12.5623 6.03753 12.3448 6.25503Z" fill="#614730"/>
</svg>
