<svg width="20" height="20" viewBox="0 0 20 20" fill="none" xmlns="http://www.w3.org/2000/svg">
<path d="M7.33337 15.3333C6.99067 15.7982 6.85163 15.96 6.56985 15.9952C6.28807 16.0304 6.09325 15.8691 5.70362 15.5464C4.2541 14.3462 3.33337 12.5502 3.33337 10.5431C3.33337 6.92947 6.31814 4 10 4C13.6819 4 16.6667 6.92947 16.6667 10.5431C16.6667 12.5502 15.746 14.3462 14.2964 15.5464C13.9068 15.8691 13.712 16.0304 13.4302 15.9952C13.1484 15.96 13.0094 15.7982 12.6667 15.3333" stroke="#614730" stroke-width="1.5" stroke-linecap="round" stroke-linejoin="round"/>
<path d="M11 9L14 5.33334" stroke="#614730" stroke-width="1.5" stroke-linecap="round" stroke-linejoin="round"/>
<path d="M10 11C10.5523 11 11 10.5522 11 9.99996C11 9.44768 10.5523 8.99996 10 8.99996C9.44771 8.99996 9 9.44768 9 9.99996C9 10.5522 9.44771 11 10 11Z" stroke="#614730" stroke-width="1.5" stroke-linecap="round" stroke-linejoin="round"/>
</svg>
