<svg width="19" height="18" viewBox="0 0 19 18" fill="none" xmlns="http://www.w3.org/2000/svg">
<path opacity="0.4" d="M17.0646 4.51497C17.0796 4.69497 17.0646 4.88246 17.0196 5.06996L14.4921 15.2174C14.3121 15.9749 13.6371 16.5 12.8571 16.5H3.00207C1.86957 16.5 1.06708 15.39 1.39708 14.3025L4.55458 4.15494C4.77208 3.44994 5.42459 2.96997 6.15959 2.96997H15.3846C16.1046 2.96997 16.6896 3.39747 16.9371 3.99747C17.0121 4.15497 17.0496 4.33497 17.0646 4.51497Z" fill="#614730"/>
<path d="M17.8149 14.715C17.8899 15.6825 17.1249 16.5 16.1574 16.5H12.8574C13.6374 16.5 14.3124 15.975 14.4924 15.2175L17.0199 5.07001C17.0649 4.88251 17.0799 4.69501 17.0649 4.51501L17.0724 4.5L17.8149 14.715Z" fill="#614730"/>
<path d="M7.83258 5.34754C7.78758 5.34754 7.74258 5.34002 7.69758 5.33252C7.39758 5.25752 7.21009 4.95754 7.28509 4.65004L8.06508 1.41004C8.14008 1.11004 8.44008 0.930047 8.74758 0.997547C9.04758 1.07255 9.23509 1.37253 9.16009 1.68003L8.38009 4.92003C8.32009 5.17503 8.08758 5.34754 7.83258 5.34754Z" fill="#614730"/>
<path d="M12.8569 5.35497C12.8194 5.35497 12.7744 5.35496 12.7369 5.33996C12.4369 5.27246 12.2419 4.97245 12.3019 4.67245L13.0068 1.41747C13.0743 1.10997 13.3744 0.92246 13.6744 0.98246C13.9744 1.04996 14.1693 1.34997 14.1093 1.64997L13.4043 4.90495C13.3518 5.17495 13.1194 5.35497 12.8569 5.35497Z" fill="#614730"/>
<path d="M12.3477 9.5625H6.34766C6.04016 9.5625 5.78516 9.3075 5.78516 9C5.78516 8.6925 6.04016 8.4375 6.34766 8.4375H12.3477C12.6552 8.4375 12.9102 8.6925 12.9102 9C12.9102 9.3075 12.6552 9.5625 12.3477 9.5625Z" fill="#614730"/>
<path d="M11.5977 12.5625H5.59766C5.29016 12.5625 5.03516 12.3075 5.03516 12C5.03516 11.6925 5.29016 11.4375 5.59766 11.4375H11.5977C11.9052 11.4375 12.1602 11.6925 12.1602 12C12.1602 12.3075 11.9052 12.5625 11.5977 12.5625Z" fill="#614730"/>
</svg>
