<svg width="18" height="19" viewBox="0 0 18 19" fill="none" xmlns="http://www.w3.org/2000/svg">
<g opacity="0.2">
<path d="M9 9.9502C9.41421 9.9502 9.75 9.61441 9.75 9.2002C9.75 8.78598 9.41421 8.4502 9 8.4502C8.58579 8.4502 8.25 8.78598 8.25 9.2002C8.25 9.61441 8.58579 9.9502 9 9.9502Z" stroke="#101010" stroke-width="1.5" stroke-linecap="round" stroke-linejoin="round"/>
<path d="M9 4.7002C9.41421 4.7002 9.75 4.36441 9.75 3.9502C9.75 3.53598 9.41421 3.2002 9 3.2002C8.58579 3.2002 8.25 3.53598 8.25 3.9502C8.25 4.36441 8.58579 4.7002 9 4.7002Z" stroke="#101010" stroke-width="1.5" stroke-linecap="round" stroke-linejoin="round"/>
<path d="M9 15.2002C9.41421 15.2002 9.75 14.8644 9.75 14.4502C9.75 14.036 9.41421 13.7002 9 13.7002C8.58579 13.7002 8.25 14.036 8.25 14.4502C8.25 14.8644 8.58579 15.2002 9 15.2002Z" stroke="#101010" stroke-width="1.5" stroke-linecap="round" stroke-linejoin="round"/>
</g>
</svg>
