<svg width="19" height="18" viewBox="0 0 19 18" fill="none" xmlns="http://www.w3.org/2000/svg">
<path d="M12.8929 16.5H5.39285C3.14285 16.5 1.64285 15.375 1.64285 12.75V9C1.64285 6.375 3.14285 5.25 5.39285 5.25H12.8929C15.1429 5.25 16.6429 6.375 16.6429 9V12.75C16.6429 15.375 15.1429 16.5 12.8929 16.5Z" stroke="#614730" stroke-width="1.5" stroke-miterlimit="10" stroke-linecap="round" stroke-linejoin="round"/>
<path d="M4.64285 3.375H13.6429" stroke="#614730" stroke-width="1.5" stroke-miterlimit="10" stroke-linecap="round" stroke-linejoin="round"/>
<path d="M6.89285 1.5H11.3929" stroke="#614730" stroke-width="1.5" stroke-miterlimit="10" stroke-linecap="round" stroke-linejoin="round"/>
<path d="M6.81036 14.3325C7.37784 14.3325 7.83786 13.8724 7.83786 13.305C7.83786 12.7375 7.37784 12.2775 6.81036 12.2775C6.24289 12.2775 5.78287 12.7375 5.78287 13.305C5.78287 13.8724 6.24289 14.3325 6.81036 14.3325Z" stroke="#614730" stroke-linecap="round" stroke-linejoin="round"/>
<path d="M11.6027 12.6225V8.60996C11.6027 7.75496 11.0702 7.63498 10.5227 7.78498L8.46765 8.34748C8.09265 8.45248 7.83768 8.74496 7.83768 9.17246V9.88497V10.365V13.305" stroke="#614730" stroke-linecap="round" stroke-linejoin="round"/>
<path d="M10.5754 13.65C11.1429 13.65 11.6029 13.1899 11.6029 12.6225C11.6029 12.055 11.1429 11.595 10.5754 11.595C10.0079 11.595 9.54788 12.055 9.54788 12.6225C9.54788 13.1899 10.0079 13.65 10.5754 13.65Z" stroke="#614730" stroke-linecap="round" stroke-linejoin="round"/>
<path d="M7.83768 10.3725L11.6027 9.34497" stroke="#614730" stroke-linecap="round" stroke-linejoin="round"/>
</svg>
