<svg width="18" height="18" viewBox="0 0 18 18" fill="none" xmlns="http://www.w3.org/2000/svg">
<path d="M1.50098 7.485V6.75C1.50098 3 3.00098 1.5 6.75098 1.5H11.251C15.001 1.5 16.501 3 16.501 6.75V11.25C16.501 15 15.001 16.5 11.251 16.5H10.501" stroke="#614730" stroke-width="1.5" stroke-linecap="round" stroke-linejoin="round"/>
<path d="M9.75098 8.24999L13.5085 4.48499H10.501" stroke="#614730" stroke-width="1.5" stroke-linecap="round" stroke-linejoin="round"/>
<path d="M13.5083 4.48499V7.49249" stroke="#614730" stroke-width="1.5" stroke-linecap="round" stroke-linejoin="round"/>
<path d="M8.25098 12.1125V14.1375C8.25098 15.825 7.57598 16.5 5.88848 16.5H3.86348C2.17598 16.5 1.50098 15.825 1.50098 14.1375V12.1125C1.50098 10.425 2.17598 9.75 3.86348 9.75H5.88848C7.57598 9.75 8.25098 10.425 8.25098 12.1125Z" stroke="#614730" stroke-width="1.5" stroke-linecap="round" stroke-linejoin="round"/>
</svg>
