<svg width="20" height="21" viewBox="0 0 20 21" fill="none" xmlns="http://www.w3.org/2000/svg">
<path d="M7.85048 7.04252C5.69735 5.81932 4.62081 5.20765 3.75324 5.45352C3.39455 5.55519 3.06774 5.74819 2.80418 6.01412C2.16669 6.65732 2.16669 7.90485 2.16669 10.3999C2.16669 12.895 2.16669 14.1425 2.80418 14.7857C3.06775 15.0516 3.39455 15.2446 3.75324 15.3463C4.62082 15.5921 5.69735 14.9805 7.85048 13.7573" stroke="#614730" stroke-width="2" stroke-linejoin="round"/>
<path d="M16.9271 9.83591C16.6914 8.94058 15.5778 8.30791 13.3505 7.04252C11.1973 5.81932 10.1208 5.20765 9.25324 5.45352C8.89455 5.55519 8.56774 5.74819 8.30418 6.01412C7.66669 6.65732 7.66669 7.90485 7.66669 10.3999C7.66669 12.895 7.66669 14.1425 8.30418 14.7857C8.56775 15.0516 8.89455 15.2446 9.25324 15.3463C10.1208 15.5921 11.1973 14.9805 13.3505 13.7573C15.5778 12.4919 16.6914 11.8592 16.9271 10.9639C17.0243 10.5943 17.0243 10.2055 16.9271 9.83591Z" stroke="#614730" stroke-width="2" stroke-linejoin="round"/>
</svg>
