<svg width="18" height="19" viewBox="0 0 18 19" fill="none" xmlns="http://www.w3.org/2000/svg">
<path opacity="0.4" d="M15.2999 13.0469C15.0899 13.6094 14.6474 14.0369 14.0699 14.2319C13.2599 14.5019 12.4274 14.7044 11.5874 14.8469C11.5049 14.8619 11.4224 14.8769 11.3399 14.8844C11.2049 14.9069 11.0699 14.9219 10.9349 14.9369C10.7699 14.9594 10.5974 14.9744 10.4249 14.9894C9.95241 15.0269 9.48741 15.0494 9.01491 15.0494C8.53491 15.0494 8.05491 15.0269 7.58241 14.9819C7.37991 14.9669 7.18491 14.9444 6.98991 14.9144C6.87741 14.8994 6.76491 14.8844 6.65991 14.8694C6.57741 14.8544 6.49491 14.8469 6.41241 14.8319C5.57991 14.6969 4.75491 14.4944 3.95241 14.2244C3.35241 14.0219 2.89491 13.5944 2.69241 13.0469C2.48991 12.5069 2.56491 11.8769 2.88741 11.3369L3.73491 9.92691C3.91491 9.61941 4.07991 9.02691 4.07991 8.66691V7.27191C4.07991 4.54941 6.29241 2.33691 9.01491 2.33691C11.7299 2.33691 13.9424 4.54941 13.9424 7.27191V8.66691C13.9424 9.02691 14.1074 9.61941 14.2949 9.92691L15.1424 11.3369C15.4499 11.8619 15.5099 12.4769 15.2999 13.0469Z" fill="#614730"/>
<path d="M9.00018 8.87027C8.68518 8.87027 8.43018 8.61527 8.43018 8.30027V5.97527C8.43018 5.66027 8.68518 5.40527 9.00018 5.40527C9.31518 5.40527 9.57018 5.66027 9.57018 5.97527V8.30027C9.56268 8.61527 9.30768 8.87027 9.00018 8.87027Z" fill="#614730"/>
<path d="M11.1223 15.8073C10.8073 16.6773 9.97477 17.2998 8.99977 17.2998C8.40727 17.2998 7.82227 17.0598 7.40977 16.6323C7.16977 16.4073 6.98977 16.1073 6.88477 15.7998C6.98227 15.8148 7.07977 15.8223 7.18477 15.8373C7.35727 15.8598 7.53727 15.8823 7.71727 15.8973C8.14477 15.9348 8.57977 15.9573 9.01477 15.9573C9.44227 15.9573 9.86977 15.9348 10.2898 15.8973C10.4473 15.8823 10.6048 15.8748 10.7548 15.8523C10.8748 15.8373 10.9948 15.8223 11.1223 15.8073Z" fill="#614730"/>
</svg>
