<svg width="24" height="25" viewBox="0 0 24 25" fill="none" xmlns="http://www.w3.org/2000/svg">
<path d="M7 6.1499C6.59 6.1499 6.25 5.8099 6.25 5.3999V2.3999C6.25 1.9899 6.59 1.6499 7 1.6499C7.41 1.6499 7.75 1.9899 7.75 2.3999V5.3999C7.75 5.8099 7.41 6.1499 7 6.1499Z" fill="white"/>
<path d="M15 6.1499C14.59 6.1499 14.25 5.8099 14.25 5.3999V2.3999C14.25 1.9899 14.59 1.6499 15 1.6499C15.41 1.6499 15.75 1.9899 15.75 2.3999V5.3999C15.75 5.8099 15.41 6.1499 15 6.1499Z" fill="white"/>
<path opacity="0.2" d="M20 8.8999V17.3999C20 20.3999 18.5 22.3999 15 22.3999H7C3.5 22.3999 2 20.3999 2 17.3999V8.8999C2 5.8999 3.5 3.8999 7 3.8999H15C18.5 3.8999 20 5.8999 20 8.8999Z" fill="white"/>
<path d="M13 12.1499H7C6.59 12.1499 6.25 11.8099 6.25 11.3999C6.25 10.9899 6.59 10.6499 7 10.6499H13C13.41 10.6499 13.75 10.9899 13.75 11.3999C13.75 11.8099 13.41 12.1499 13 12.1499Z" fill="white"/>
<path d="M10 17.1499H7C6.59 17.1499 6.25 16.8099 6.25 16.3999C6.25 15.9899 6.59 15.6499 7 15.6499H10C10.41 15.6499 10.75 15.9899 10.75 16.3999C10.75 16.8099 10.41 17.1499 10 17.1499Z" fill="white"/>
<path d="M21 14.0299C20.11 13.3199 18.98 12.8999 17.75 12.8999C16.52 12.8999 15.37 13.3299 14.47 14.0599C13.26 15.0099 12.5 16.4999 12.5 18.1499C12.5 19.1299 12.78 20.0699 13.26 20.8499C13.63 21.4599 14.11 21.9899 14.68 22.3999C15.54 23.0299 16.6 23.3999 17.75 23.3999C19.08 23.3999 20.28 22.9099 21.2 22.0899C21.61 21.7499 21.96 21.3299 22.24 20.8499C22.72 20.0699 23 19.1299 23 18.1499C23 16.4799 22.22 14.9899 21 14.0299ZM17.75 20.6499C17.75 19.2699 16.63 18.1499 15.25 18.1499C16.63 18.1499 17.75 17.0299 17.75 15.6499C17.75 17.0299 18.87 18.1499 20.25 18.1499C18.87 18.1499 17.75 19.2699 17.75 20.6499Z" fill="white"/>
</svg>
