<svg width="18" height="19" viewBox="0 0 18 19" fill="none" xmlns="http://www.w3.org/2000/svg">
<path d="M16.2449 8.22979L15.5099 11.3648C14.8799 14.0723 13.6349 15.1673 11.2949 14.9423C10.9199 14.9123 10.5149 14.8448 10.0799 14.7398L8.81989 14.4398C5.69239 13.6973 4.72489 12.1523 5.45989 9.01729L6.19489 5.87479C6.34489 5.23729 6.52489 4.68229 6.74989 4.22479C7.62739 2.40979 9.11989 1.92229 11.6249 2.51479L12.8774 2.80729C16.0199 3.54229 16.9799 5.09479 16.2449 8.22979Z" stroke="#614730" stroke-width="1.5" stroke-linecap="round" stroke-linejoin="round"/>
<path d="M11.295 14.9426C10.83 15.2576 10.245 15.5201 9.53251 15.7526L8.34751 16.1426C5.37001 17.1026 3.80251 16.3001 2.83501 13.3226L1.87501 10.3601C0.915012 7.3826 1.71001 5.8076 4.68751 4.8476L5.87251 4.4576C6.18001 4.3601 6.47251 4.2776 6.75001 4.2251C6.52501 4.6826 6.34501 5.2376 6.19501 5.8751L5.46001 9.0176C4.72501 12.1526 5.69251 13.6976 8.82001 14.4401L10.08 14.7401C10.515 14.8451 10.92 14.9126 11.295 14.9426Z" stroke="#614730" stroke-width="1.5" stroke-linecap="round" stroke-linejoin="round"/>
<path d="M9.47998 6.79736L13.1175 7.71986" stroke="#614730" stroke-width="1.5" stroke-linecap="round" stroke-linejoin="round"/>
<path d="M8.74512 9.69971L10.9201 10.2547" stroke="#614730" stroke-width="1.5" stroke-linecap="round" stroke-linejoin="round"/>
</svg>
