<svg width="19" height="18" viewBox="0 0 19 18" fill="none" xmlns="http://www.w3.org/2000/svg">
<path d="M9.30059 2.1825C6.81809 2.1825 4.80059 4.2 4.80059 6.6825V8.85C4.80059 9.3075 4.60559 10.005 4.37309 10.395L3.51059 11.8275C2.97809 12.7125 3.34559 13.695 4.32059 14.025C7.55309 15.105 11.0406 15.105 14.2731 14.025C15.1806 13.725 15.5781 12.6525 15.0831 11.8275L14.2206 10.395C13.9956 10.005 13.8006 9.3075 13.8006 8.85V6.6825C13.8006 4.2075 11.7756 2.1825 9.30059 2.1825Z" stroke="#614730" stroke-width="1.5" stroke-miterlimit="10" stroke-linecap="round"/>
<path d="M10.6881 2.39996C10.4556 2.33246 10.2156 2.27996 9.96809 2.24996C9.24809 2.15996 8.55809 2.21246 7.91309 2.39996C8.13059 1.84496 8.67059 1.45496 9.30059 1.45496C9.93059 1.45496 10.4706 1.84496 10.6881 2.39996Z" stroke="#614730" stroke-width="1.5" stroke-miterlimit="10" stroke-linecap="round" stroke-linejoin="round"/>
<path d="M11.5505 14.295C11.5505 15.5325 10.538 16.545 9.30054 16.545C8.68554 16.545 8.11554 16.29 7.71054 15.885C7.30554 15.48 7.05054 14.91 7.05054 14.295" stroke="#614730" stroke-width="1.5" stroke-miterlimit="10"/>
</svg>
