<svg width="19" height="18" viewBox="0 0 19 18" fill="none" xmlns="http://www.w3.org/2000/svg">
<g clip-path="url(#clip0_1585_54127)">
<path d="M9.14258 4.5V15" stroke="#CDD3DD" stroke-width="1.5" stroke-linecap="round"/>
<path d="M4.628 2.46408C7.13389 2.9412 8.6274 3.93923 9.14258 4.51221C9.65775 3.93923 11.1512 2.9412 13.6571 2.46408C14.9267 2.22236 15.5614 2.10151 16.102 2.56473C16.6426 3.02795 16.6426 3.78017 16.6426 5.28459V10.6913C16.6426 12.0668 16.6426 12.7546 16.2956 13.184C15.9487 13.6134 15.1849 13.7588 13.6571 14.0498C12.2954 14.309 11.2325 14.7221 10.4632 15.1373C9.70628 15.5458 9.32783 15.75 9.14258 15.75C8.95733 15.75 8.57888 15.5458 7.82198 15.1373C7.05266 14.7221 5.98983 14.309 4.628 14.0498C3.10032 13.7588 2.33648 13.6134 1.98953 13.184C1.64258 12.7546 1.64258 12.0668 1.64258 10.6913V5.28459C1.64258 3.78017 1.64258 3.02795 2.18316 2.56473C2.72376 2.10151 3.3585 2.22236 4.628 2.46408Z" stroke="#CDD3DD" stroke-width="1.5" stroke-linecap="round" stroke-linejoin="round"/>
</g>
<defs>
<clipPath id="clip0_1585_54127">
<rect width="18" height="18" fill="white" transform="translate(0.142578)"/>
</clipPath>
</defs>
</svg>
