<svg width="20" height="21" viewBox="0 0 20 21" fill="none" xmlns="http://www.w3.org/2000/svg">
<g clip-path="url(#clip0_5536_35161)">
<path d="M9.85366 9.6543L2.37366 17.7043C2.61651 18.5543 3.39366 19.2043 4.31651 19.2043C4.70509 19.2043 5.04509 19.1043 5.33651 18.9043L13.7879 13.9543L9.85366 9.6543Z" fill="#EA4335"/>
<path d="M17.4305 8.25352L13.7876 6.10352L9.70764 9.80352L13.8362 13.9535L17.4791 11.8535C18.1105 11.5035 18.5476 10.8035 18.5476 10.0535C18.4991 9.30352 18.0619 8.60352 17.4305 8.25352Z" fill="#FBBC04"/>
<path d="M2.3734 2.4043C2.32483 2.5543 2.32483 2.7543 2.32483 2.9543V17.2043C2.32483 17.4043 2.32483 17.5543 2.3734 17.7543L10.1448 9.9043L2.3734 2.4043Z" fill="#4285F4"/>
<path d="M9.90223 10.0543L13.7879 6.1043L5.38509 1.2043C5.09366 1.0043 4.70509 0.904297 4.31651 0.904297C3.39366 0.904297 2.56794 1.5543 2.37366 2.4043L9.90223 10.0543Z" fill="#34A853"/>
</g>
<defs>
<clipPath id="clip0_5536_35161">
<rect width="19.4286" height="20" fill="white" transform="translate(0.285767 0.0546875)"/>
</clipPath>
</defs>
</svg>
