<svg width="19" height="18" viewBox="0 0 19 18" fill="none" xmlns="http://www.w3.org/2000/svg">
<path d="M13.9314 6.08151L14.67 6.21175L13.9314 6.08151ZM6.04392 4.69073L5.30532 4.5605L6.04392 4.69073ZM7.0539 16.4718C6.9725 16.878 7.23575 17.2732 7.64189 17.3546C8.04803 17.436 8.44325 17.1727 8.52465 16.7666L7.0539 16.4718ZM13.2145 10.1476L12.4759 10.0173L13.2145 10.1476ZM12.056 10.9587L11.9258 11.6973L12.056 10.9587ZM13.1928 5.95128L12.4759 10.0173L13.9531 10.2778L14.67 6.21175L13.1928 5.95128ZM12.1863 10.2201L6.26837 9.17665L6.00789 10.6539L11.9258 11.6973L12.1863 10.2201ZM6.06557 8.88703L6.78253 4.82097L5.30532 4.5605L4.58836 8.62656L6.06557 8.88703ZM10.5528 2.18097C12.323 2.4931 13.505 4.18112 13.1928 5.95128L14.67 6.21175C15.126 3.62575 13.3993 1.15974 10.8133 0.703762L10.5528 2.18097ZM10.8133 0.703762C8.22731 0.247781 5.7613 1.9745 5.30532 4.5605L6.78253 4.82097C7.09466 3.05081 8.78268 1.86885 10.5528 2.18097L10.8133 0.703762ZM8.30126 10.2481L7.0539 16.4718L8.52465 16.7666L9.77201 10.5429L8.30126 10.2481ZM6.26837 9.17665C6.13239 9.15267 6.0416 9.02301 6.06557 8.88703L4.58836 8.62656C4.42053 9.57838 5.05608 10.486 6.00789 10.6539L6.26837 9.17665ZM12.4759 10.0173C12.4519 10.1533 12.3222 10.2441 12.1863 10.2201L11.9258 11.6973C12.8776 11.8652 13.7853 11.2296 13.9531 10.2778L12.4759 10.0173Z" fill="#614730"/>
</svg>
