<svg width="19" height="18" viewBox="0 0 19 18" fill="none" xmlns="http://www.w3.org/2000/svg">
<path d="M14.8033 14.865C14.6608 14.865 14.5183 14.8125 14.4058 14.7C14.1883 14.4825 14.1883 14.1225 14.4058 13.905C17.1133 11.1975 17.1133 6.79497 14.4058 4.09497C14.1883 3.87747 14.1883 3.51747 14.4058 3.29997C14.6233 3.08247 14.9833 3.08247 15.2008 3.29997C18.3433 6.44247 18.3433 11.5575 15.2008 14.7C15.0883 14.8125 14.9458 14.865 14.8033 14.865Z" fill="#614730"/>
<path d="M4.19871 14.865C4.05621 14.865 3.91371 14.8125 3.80121 14.7C0.658711 11.5575 0.658711 6.44247 3.80121 3.29997C4.01871 3.08247 4.37871 3.08247 4.59621 3.29997C4.81371 3.51747 4.81371 3.87747 4.59621 4.09497C1.88871 6.80247 1.88871 11.205 4.59621 13.905C4.81371 14.1225 4.81371 14.4825 4.59621 14.7C4.48371 14.8125 4.34121 14.865 4.19871 14.865Z" fill="#614730"/>
<path d="M9.50104 17.0325C8.56354 17.025 7.67104 16.875 6.83854 16.5825C6.54604 16.4775 6.38854 16.155 6.49354 15.8625C6.59854 15.57 6.91354 15.4125 7.21354 15.5175C7.93354 15.765 8.69854 15.9 9.50854 15.9C10.311 15.9 11.0835 15.765 11.796 15.5175C12.0885 15.42 12.411 15.57 12.516 15.8625C12.621 16.155 12.4635 16.4775 12.171 16.5825C11.331 16.875 10.4385 17.0325 9.50104 17.0325Z" fill="#614730"/>
<path d="M11.976 2.50503C11.916 2.50503 11.8485 2.49753 11.7885 2.47503C11.076 2.22003 10.3035 2.09253 9.50104 2.09253C8.69854 2.09253 7.93354 2.22753 7.21354 2.47503C6.91354 2.57253 6.59854 2.42253 6.49354 2.13003C6.38854 1.83753 6.54604 1.51503 6.83854 1.41003C7.67854 1.11753 8.57104 0.967529 9.50104 0.967529C10.431 0.967529 11.331 1.11753 12.1635 1.41003C12.456 1.51503 12.6135 1.83753 12.5085 2.13003C12.426 2.36253 12.2085 2.50503 11.976 2.50503Z" fill="#614730"/>
<path d="M7.05615 8.99999V7.74749C7.05615 6.18749 8.15865 5.54999 9.50865 6.32999L10.5962 6.95999L11.6837 7.58999C13.0337 8.36999 13.0337 9.64499 11.6837 10.425L10.5962 11.055L9.50865 11.685C8.15865 12.465 7.05615 11.8275 7.05615 10.2675V8.99999Z" fill="#614730"/>
</svg>
