<svg width="360" height="305" viewBox="0 0 360 305" fill="none" xmlns="http://www.w3.org/2000/svg">
<path d="M296.895 218.688C279.682 243.261 249.752 230.869 224.043 226.945C173.627 219.244 134.978 284.411 83.9625 246.218C27.4768 203.931 31.6116 133.878 91.9266 110.7C260.712 45.8293 312.52 196.386 296.895 218.688Z" fill="#F4EDE3"/>
<path d="M119.725 77.8151C119.725 83.1665 114.037 87.5085 107.003 87.5085C99.9696 87.5085 94.2817 83.1665 94.2817 77.8151C94.2817 72.4637 99.9696 68.1216 107.003 68.1216C114.037 68.1216 119.725 72.4637 119.725 77.8151Z" fill="#F4EDE3"/>
<path d="M135.475 59.037C135.475 61.7128 133.04 63.8758 130.027 63.8758C127.015 63.8758 124.58 61.7128 124.58 59.037C124.58 56.3613 127.015 54.1983 130.027 54.1983C133.04 54.1983 135.475 56.3613 135.475 59.037Z" fill="#F4EDE3"/>
<path d="M214.19 288.213C220.039 288.213 224.781 283.471 224.781 277.622C224.781 271.773 220.039 267.031 214.19 267.031C208.341 267.031 203.599 271.773 203.599 277.622C203.599 283.471 208.341 288.213 214.19 288.213Z" fill="#F4EDE3"/>
<path d="M321.078 264.028C321.078 268.546 317.008 272.199 311.994 272.199C306.979 272.199 302.909 268.546 302.909 264.028C302.909 259.509 306.979 255.856 311.994 255.856C317.008 255.856 321.078 259.509 321.078 264.028Z" fill="#F4EDE3"/>
<path d="M298.679 275.548C298.679 277.214 296.917 278.576 294.738 278.576C292.559 278.576 290.796 277.214 290.796 275.548C290.796 273.881 292.559 272.519 294.738 272.519C296.917 272.519 298.679 273.881 298.679 275.548Z" fill="#F4EDE3"/>
<path fill-rule="evenodd" clip-rule="evenodd" d="M148.647 67.2466H38.4517C35.3779 67.2466 33 63.9168 33 59.611V30.5038C33 26.1406 35.4359 22.696 38.5097 22.696H159.666C160.13 22.696 160.594 22.983 160.826 23.3849C161.058 23.7868 161.058 24.3035 160.768 24.7053L154.098 35.6134V59.611C154.098 63.9168 151.663 67.2466 148.647 67.2466Z" fill="#F4EDE3"/>
<path fill-rule="evenodd" clip-rule="evenodd" d="M51.0949 55.9942C44.9473 55.9942 39.9596 51.0568 39.9596 44.9713C39.9596 38.8858 44.9473 33.9485 51.0949 33.9485C57.2425 33.9485 62.2302 38.8858 62.2302 44.9713C62.2302 51.0568 57.2425 55.9942 51.0949 55.9942Z" fill="#E6DDD2"/>
<g clip-path="url(#clip0_5501_66976)">
<mask id="mask0_5501_66976" style="mask-type:luminance" maskUnits="userSpaceOnUse" x="45" y="38" width="14" height="14">
<path d="M45 38H58.1281V51.2127H45V38Z" fill="white"/>
</mask>
<g mask="url(#mask0_5501_66976)">
<path d="M56.4189 47.1312H46.7603C47.2028 47.1312 47.4531 46.8982 47.5951 46.5119C48.2823 44.6466 46.4521 39.2105 51.5897 39.2105C56.7273 39.2105 54.8968 44.6466 55.584 46.5119C55.7263 46.8982 55.9766 47.1312 56.4189 47.1312Z" fill="#D6AA6E"/>
<path d="M57.3539 48.0724C57.3539 48.5921 56.9352 49.0135 56.4188 49.0135H46.7602C46.502 49.0135 46.2681 48.9083 46.0989 48.7379C45.9297 48.5676 45.8251 48.3323 45.8251 48.0724C45.8251 47.5527 46.2438 47.1312 46.7602 47.1312H56.4188C56.677 47.1312 56.9108 47.2365 57.0801 47.4069C57.2493 47.5772 57.3539 47.8125 57.3539 48.0724Z" fill="#AD7C55"/>
<path d="M55.584 46.5119H50.5639C50.0227 46.5119 49.59 46.061 49.6067 45.5166C49.6775 43.2131 49.3124 39.2543 51.5521 39.2108C45.4042 39.2428 49.3342 47.1312 46.7604 47.1312H47.0167H49.0868H56.4189C55.9766 47.1312 55.7263 46.8982 55.584 46.5119Z" fill="#AD7C55"/>
<path d="M57.354 48.0724C57.354 48.5921 56.9353 49.0135 56.4189 49.0135H49.4626C49.2044 49.0135 48.9705 48.9083 48.8013 48.7379C48.6321 48.5676 48.5275 48.3323 48.5275 48.0724C48.5275 47.5527 48.9462 47.1312 49.4626 47.1312H56.4189C56.6771 47.1312 56.911 47.2365 57.0802 47.4069C57.2494 47.5772 57.354 47.8125 57.354 48.0724Z" fill="#D6AA6E"/>
<path d="M53.4598 49.0135C53.4598 49.8791 52.8796 50.6078 52.0896 50.828C51.9304 50.8723 51.7627 50.8961 51.5896 50.8961C50.5565 50.8961 49.7191 50.0533 49.7191 49.0135H53.4598Z" fill="#AD7C55"/>
<path d="M53.3693 49.5942C53.1768 50.1924 52.6947 50.6595 52.0896 50.828C51.7092 50.7221 51.3774 50.4982 51.1357 50.1981C50.9407 49.9561 51.1166 49.5942 51.4261 49.5942H53.3693Z" fill="#D6AA6E"/>
<path d="M52.5402 39.2826C52.5422 39.2589 52.543 39.2349 52.543 39.2106C52.543 38.6808 52.1161 38.2511 51.5897 38.2511C51.063 38.2511 50.6364 38.6808 50.6364 39.2106C50.6364 39.2349 50.6371 39.2589 50.6392 39.2826" fill="#AD7C55"/>
<path d="M48.7467 49.0136H56.4188C56.9353 49.0136 57.354 48.5922 57.354 48.0724C57.354 47.5526 56.9353 47.1312 56.4188 47.1312H46.7603C46.2438 47.1312 45.8251 47.5526 45.8251 48.0724C45.8251 48.5922 46.2438 49.0136 46.7603 49.0136H47.9775" stroke="#2C251F" stroke-width="0.431579" stroke-miterlimit="10" stroke-linecap="round" stroke-linejoin="round"/>
<path d="M54.9382 41.0476C54.4741 39.9841 53.5276 39.2106 51.5896 39.2106C45.3881 39.2106 49.3393 47.1312 46.7604 47.1312" stroke="#2C251F" stroke-width="0.431579" stroke-miterlimit="10" stroke-linecap="round" stroke-linejoin="round"/>
<path d="M56.4188 47.1312C54.8154 47.1312 55.7363 44.0693 55.1719 41.753" stroke="#2C251F" stroke-width="0.431579" stroke-miterlimit="10" stroke-linecap="round" stroke-linejoin="round"/>
<path d="M49.7191 49.0137C49.7191 50.0533 50.5565 50.8961 51.5895 50.8961C52.6225 50.8961 53.4599 50.0533 53.4599 49.0137" stroke="#2C251F" stroke-width="0.431579" stroke-miterlimit="10" stroke-linecap="round" stroke-linejoin="round"/>
<path d="M52.5402 39.2826C52.5422 39.2589 52.543 39.2349 52.543 39.2106C52.543 38.6808 52.1161 38.2511 51.5897 38.2511C51.063 38.2511 50.6364 38.6808 50.6364 39.2106C50.6364 39.2349 50.6371 39.2589 50.6392 39.2826" stroke="#2C251F" stroke-width="0.431579" stroke-miterlimit="10" stroke-linecap="round" stroke-linejoin="round"/>
<path d="M54.771 39.1032C54.771 39.1032 56.2324 39.916 56.2324 42.1997" stroke="#2C251F" stroke-width="0.431579" stroke-miterlimit="10" stroke-linecap="round" stroke-linejoin="round"/>
<path d="M56.2324 39.1806C56.2324 39.1806 57.0785 39.7225 57.0785 41.0901" stroke="#2C251F" stroke-width="0.431579" stroke-miterlimit="10" stroke-linecap="round" stroke-linejoin="round"/>
<path d="M48.4081 39.1032C48.4081 39.1032 46.9467 39.916 46.9467 42.1997" stroke="#2C251F" stroke-width="0.431579" stroke-miterlimit="10" stroke-linecap="round" stroke-linejoin="round"/>
<path d="M46.9467 39.1806C46.9467 39.1806 46.1006 39.7225 46.1006 41.0901" stroke="#2C251F" stroke-width="0.431579" stroke-miterlimit="10" stroke-linecap="round" stroke-linejoin="round"/>
</g>
</g>
<rect x="71.0725" y="32.1599" width="68.6476" height="8.31238" fill="#E6DDD2"/>
<rect x="71.0725" y="45.2909" width="68.6476" height="4.15619" fill="#E6DDD2"/>
<rect x="71.0725" y="53.1096" width="46.1783" height="4.15619" fill="#E6DDD2"/>
<g filter="url(#filter0_d_5501_66976)">
<path d="M179.999 213.373C186.054 213.373 190.962 208.465 190.962 202.411C190.962 196.356 186.054 191.448 179.999 191.448C173.945 191.448 169.037 196.356 169.037 202.411C169.037 208.465 173.945 213.373 179.999 213.373Z" fill="#A96A38"/>
<path d="M215.921 183.294H144.077C139.17 183.294 135.193 187.272 135.193 192.179C135.193 197.086 139.17 201.063 144.077 201.063H215.921C220.828 201.063 224.806 197.086 224.806 192.179C224.806 187.272 220.828 183.294 215.921 183.294Z" fill="url(#paint0_linear_5501_66976)"/>
<path d="M210.779 176.591V158.782C210.779 144.378 200.886 132.291 187.526 128.932C188.288 127.636 188.729 126.125 188.729 124.513C188.729 119.692 184.82 115.783 179.999 115.783C175.179 115.783 171.27 119.692 171.27 124.513C171.27 126.125 171.711 127.636 172.473 128.932C159.112 132.291 149.222 144.379 149.222 158.782V176.591C149.222 180.447 146.097 183.572 142.241 183.572H217.757C213.902 183.572 210.779 180.447 210.779 176.591ZM179.999 128.002C178.071 128.002 176.507 126.441 176.507 124.513C176.507 122.583 178.071 121.021 179.999 121.021C181.927 121.021 183.491 122.583 183.491 124.513C183.491 126.441 181.927 128.002 179.999 128.002Z" fill="url(#paint1_linear_5501_66976)"/>
<path d="M210.779 163.838V174.102L197.111 160.434L197.161 160.431C197.863 160.393 198.55 160.613 199.119 161.026C201.715 162.911 204.909 164.022 208.362 164.022C209.185 164.022 209.99 163.958 210.779 163.838Z" fill="#C79234"/>
<path d="M208.363 164.713C217.445 164.713 224.807 157.35 224.807 148.269C224.807 139.187 217.445 131.825 208.363 131.825C199.282 131.825 191.919 139.187 191.919 148.269C191.919 157.35 199.282 164.713 208.363 164.713Z" fill="#A96A38"/>
<path d="M204.654 141.683C204.654 141.149 204.87 140.728 205.301 140.421L208.501 137.343C208.727 137.118 209.004 137.005 209.332 137.005C209.702 137.005 210.035 137.102 210.333 137.297C210.63 137.492 210.779 137.754 210.779 138.082V158.456C210.779 158.784 210.614 159.046 210.287 159.241C209.958 159.436 209.579 159.533 209.148 159.533C208.696 159.533 208.312 159.436 207.994 159.241C207.675 159.046 207.517 158.784 207.517 158.456V141.344L206.44 142.699C206.234 142.904 206.009 143.006 205.763 143.006C205.455 143.006 205.193 142.868 204.978 142.591C204.762 142.314 204.654 142.011 204.654 141.683Z" fill="white"/>
</g>
<defs>
<filter id="filter0_d_5501_66976" x="131.205" y="115.783" width="115.888" height="118.937" filterUnits="userSpaceOnUse" color-interpolation-filters="sRGB">
<feFlood flood-opacity="0" result="BackgroundImageFix"/>
<feColorMatrix in="SourceAlpha" type="matrix" values="0 0 0 0 0 0 0 0 0 0 0 0 0 0 0 0 0 0 127 0" result="hardAlpha"/>
<feOffset dx="15.2484" dy="18.2981"/>
<feGaussianBlur stdDeviation="1.52484"/>
<feComposite in2="hardAlpha" operator="out"/>
<feColorMatrix type="matrix" values="0 0 0 0 0 0 0 0 0 0 0 0 0 0 0 0 0 0 0.05 0"/>
<feBlend mode="normal" in2="BackgroundImageFix" result="effect1_dropShadow_5501_66976"/>
<feBlend mode="normal" in="SourceGraphic" in2="effect1_dropShadow_5501_66976" result="shape"/>
</filter>
<linearGradient id="paint0_linear_5501_66976" x1="137.748" y1="191.24" x2="153.066" y2="221.959" gradientUnits="userSpaceOnUse">
<stop stop-color="#F3C674"/>
<stop offset="0.268" stop-color="#EDB44D"/>
<stop offset="0.659" stop-color="#E0AD4F"/>
<stop offset="1" stop-color="#E6B151"/>
</linearGradient>
<linearGradient id="paint1_linear_5501_66976" x1="155.653" y1="129.312" x2="220.662" y2="182.269" gradientUnits="userSpaceOnUse">
<stop stop-color="#F3C674"/>
<stop offset="0.268" stop-color="#EDB44D"/>
<stop offset="0.659" stop-color="#E1A842"/>
<stop offset="1" stop-color="#DBA036"/>
</linearGradient>
<clipPath id="clip0_5501_66976">
<rect width="13.1281" height="13.2127" fill="white" transform="translate(45 38)"/>
</clipPath>
</defs>
</svg>
