<svg width="360" height="305" viewBox="0 0 360 305" fill="none" xmlns="http://www.w3.org/2000/svg">
<path d="M296.895 199.688C279.682 224.261 249.752 211.869 224.043 207.945C173.627 200.244 134.978 265.411 83.9625 227.218C27.4768 184.931 31.6116 114.878 91.9266 91.6995C260.712 26.8293 312.52 177.386 296.895 199.688Z" fill="#F4EDE3"/>
<path d="M119.725 58.8151C119.725 64.1665 114.037 68.5085 107.003 68.5085C99.9696 68.5085 94.2817 64.1665 94.2817 58.8151C94.2817 53.4637 99.9696 49.1216 107.003 49.1216C114.037 49.1216 119.725 53.4637 119.725 58.8151Z" fill="#F4EDE3"/>
<path d="M135.475 40.037C135.475 42.7128 133.04 44.8758 130.027 44.8758C127.015 44.8758 124.58 42.7128 124.58 40.037C124.58 37.3613 127.015 35.1983 130.027 35.1983C133.04 35.1983 135.475 37.3613 135.475 40.037Z" fill="#F4EDE3"/>
<path d="M214.19 269.213C220.039 269.213 224.781 264.471 224.781 258.622C224.781 252.773 220.039 248.031 214.19 248.031C208.341 248.031 203.599 252.773 203.599 258.622C203.599 264.471 208.341 269.213 214.19 269.213Z" fill="#F4EDE3"/>
<path d="M321.078 245.028C321.078 249.546 317.008 253.199 311.994 253.199C306.979 253.199 302.909 249.546 302.909 245.028C302.909 240.509 306.979 236.856 311.994 236.856C317.008 236.856 321.078 240.509 321.078 245.028Z" fill="#F4EDE3"/>
<path d="M298.679 256.548C298.679 258.214 296.917 259.576 294.738 259.576C292.559 259.576 290.796 258.214 290.796 256.548C290.796 254.881 292.559 253.519 294.738 253.519C296.917 253.519 298.679 254.881 298.679 256.548Z" fill="#F4EDE3"/>
<g filter="url(#filter0_d_5501_66977)">
<path d="M175.189 114.397H142.777V105.166C142.777 102.107 145.256 99.627 148.315 99.627H169.65C172.709 99.627 175.189 102.107 175.189 105.166V114.397Z" fill="url(#paint0_linear_5501_66977)"/>
<path d="M166.861 114.397H134.448V105.166C134.448 102.107 136.928 99.627 139.987 99.627H161.322C164.381 99.627 166.861 102.107 166.861 105.166V114.397Z" fill="url(#paint1_linear_5501_66977)"/>
<path d="M158.039 110.14V105.166C158.039 102.107 155.56 99.627 152.501 99.627H131.166C128.107 99.627 125.627 102.107 125.627 105.166V164.972C125.627 169.33 129.16 172.863 133.518 172.863H212.482C216.84 172.863 220.373 169.33 220.373 164.972V120.442C220.373 116.084 216.84 112.551 212.482 112.551H160.45C159.119 112.551 158.039 111.472 158.039 110.14Z" fill="url(#paint2_linear_5501_66977)"/>
<path d="M197.581 123.406H195.681C194.591 123.406 193.708 122.523 193.708 121.433V119.533C193.708 118.443 194.591 117.559 195.681 117.559H197.581C198.671 117.559 199.555 118.443 199.555 119.533V121.433C199.555 122.523 198.671 123.406 197.581 123.406Z" fill="url(#paint3_linear_5501_66977)"/>
<path d="M205.037 123.406H203.137C202.047 123.406 201.163 122.523 201.163 121.433V119.533C201.163 118.443 202.047 117.559 203.137 117.559H205.037C206.127 117.559 207.01 118.443 207.01 119.533V121.433C207.01 122.523 206.127 123.406 205.037 123.406Z" fill="url(#paint4_linear_5501_66977)"/>
<path d="M212.492 123.406H210.592C209.502 123.406 208.618 122.523 208.618 121.433V119.533C208.618 118.443 209.502 117.559 210.592 117.559H212.492C213.582 117.559 214.466 118.443 214.466 119.533V121.433C214.466 122.523 213.582 123.406 212.492 123.406Z" fill="url(#paint5_linear_5501_66977)"/>
<path d="M125.627 156.246V164.972C125.627 169.33 129.16 172.863 133.518 172.863H212.482C216.84 172.863 220.373 169.33 220.373 164.972V156.246H125.627Z" fill="url(#paint6_linear_5501_66977)"/>
<path d="M207.998 166.926L187.947 133.954C187.095 132.773 185.708 132.561 184.14 132.561H167.774C165.183 132.561 163.64 134.104 163.64 136.695V154.958H156.47C151.806 154.958 172.257 157.566 169.238 162.124L159.065 171.543L206.73 172.085C210.55 172.085 207.269 170.53 207.998 166.926Z" fill="url(#paint7_linear_5501_66977)"/>
<path d="M183.031 130.479H154.54C152.394 130.479 150.654 132.219 150.654 134.364C150.654 136.51 152.394 138.25 154.54 138.25H183.032C185.177 138.25 186.917 136.51 186.917 134.364C186.917 132.219 185.177 130.479 183.031 130.479Z" fill="#835A3A"/>
<path d="M183.031 187.463H154.54C153.824 187.463 153.244 186.883 153.244 186.168V175.328C153.244 171.966 154.695 168.768 157.225 166.555L161.818 162.535C162.356 162.064 162.409 161.245 161.938 160.708C161.901 160.665 161.86 160.625 161.818 160.587L157.225 156.567C154.695 154.354 153.244 151.156 153.244 147.794V136.955C153.244 136.239 153.824 135.659 154.54 135.659H183.032C183.747 135.659 184.327 136.239 184.327 136.955V147.794C184.327 151.156 182.876 154.354 180.346 156.567L175.753 160.587C175.215 161.059 175.162 161.877 175.633 162.415C175.67 162.457 175.711 162.498 175.753 162.535L180.346 166.555C182.876 168.768 184.327 171.966 184.327 175.328V186.168C184.327 186.883 183.747 187.463 183.031 187.463Z" fill="#835A3A"/>
<path d="M155.835 184.873H181.736V175.328C181.733 172.712 180.6 170.225 178.628 168.506L174.036 164.486C172.421 163.073 172.257 160.618 173.67 159.003C173.783 158.873 173.906 158.751 174.036 158.637L178.628 154.617C180.6 152.898 181.733 150.411 181.736 147.795V138.25H155.835V147.794C155.838 150.411 156.971 152.898 158.943 154.617L163.535 158.637C165.15 160.05 165.312 162.505 163.899 164.119C163.786 164.248 163.664 164.37 163.535 164.483L158.943 168.506C156.971 170.225 155.838 172.712 155.835 175.328V184.873Z" fill="#ECEFF1"/>
<path d="M176.458 152.001C176.257 151.517 175.785 151.201 175.261 151.201H162.31C161.595 151.199 161.014 151.778 161.013 152.493C161.012 152.838 161.149 153.169 161.393 153.413L167.869 159.888C168.374 160.394 169.194 160.394 169.7 159.888L176.175 153.413C176.546 153.042 176.658 152.485 176.458 152.001Z" fill="url(#paint8_linear_5501_66977)"/>
<path d="M183.031 184.873H154.54C152.394 184.873 150.654 186.612 150.654 188.758C150.654 190.904 152.394 192.643 154.54 192.643H183.032C185.177 192.643 186.917 190.904 186.917 188.758C186.917 186.612 185.177 184.873 183.031 184.873Z" fill="#835A3A"/>
<path d="M169.656 170.964C169.144 170.5 168.359 170.52 167.871 171.008L155.835 183.042V184.873H181.736V181.946L169.656 170.964Z" fill="url(#paint9_linear_5501_66977)"/>
</g>
<defs>
<filter id="filter0_d_5501_66977" x="125.627" y="99.627" width="113.084" height="116.14" filterUnits="userSpaceOnUse" color-interpolation-filters="sRGB">
<feFlood flood-opacity="0" result="BackgroundImageFix"/>
<feColorMatrix in="SourceAlpha" type="matrix" values="0 0 0 0 0 0 0 0 0 0 0 0 0 0 0 0 0 0 127 0" result="hardAlpha"/>
<feOffset dx="15.2816" dy="18.338"/>
<feGaussianBlur stdDeviation="1.52816"/>
<feComposite in2="hardAlpha" operator="out"/>
<feColorMatrix type="matrix" values="0 0 0 0 0 0 0 0 0 0 0 0 0 0 0 0 0 0 0.05 0"/>
<feBlend mode="normal" in2="BackgroundImageFix" result="effect1_dropShadow_5501_66977"/>
<feBlend mode="normal" in="SourceGraphic" in2="effect1_dropShadow_5501_66977" result="shape"/>
</filter>
<linearGradient id="paint0_linear_5501_66977" x1="163.253" y1="95.3574" x2="155.177" y2="107.969" gradientUnits="userSpaceOnUse">
<stop stop-color="#F4C675"/>
<stop offset="1" stop-color="#A27525"/>
</linearGradient>
<linearGradient id="paint1_linear_5501_66977" x1="154.925" y1="95.3574" x2="146.849" y2="107.969" gradientUnits="userSpaceOnUse">
<stop stop-color="#F4C675"/>
<stop offset="1" stop-color="#A27525"/>
</linearGradient>
<linearGradient id="paint2_linear_5501_66977" x1="145.751" y1="102.411" x2="183.917" y2="179.726" gradientUnits="userSpaceOnUse">
<stop stop-color="#F3C674"/>
<stop offset="0.268" stop-color="#EDB44D"/>
<stop offset="0.659" stop-color="#E1A842"/>
<stop offset="1" stop-color="#DBA036"/>
</linearGradient>
<linearGradient id="paint3_linear_5501_66977" x1="197.402" y1="115.869" x2="194.076" y2="118.235" gradientUnits="userSpaceOnUse">
<stop stop-color="#F4C675"/>
<stop offset="1" stop-color="#CD8C18"/>
</linearGradient>
<linearGradient id="paint4_linear_5501_66977" x1="204.857" y1="115.869" x2="201.531" y2="118.235" gradientUnits="userSpaceOnUse">
<stop stop-color="#F4C675"/>
<stop offset="1" stop-color="#CD8C18"/>
</linearGradient>
<linearGradient id="paint5_linear_5501_66977" x1="212.312" y1="115.869" x2="208.987" y2="118.235" gradientUnits="userSpaceOnUse">
<stop stop-color="#F4C675"/>
<stop offset="1" stop-color="#CD8C18"/>
</linearGradient>
<linearGradient id="paint6_linear_5501_66977" x1="170.124" y1="150.538" x2="169.715" y2="173.836" gradientUnits="userSpaceOnUse">
<stop stop-color="#F3C674"/>
<stop offset="1" stop-color="#DBA036"/>
</linearGradient>
<linearGradient id="paint7_linear_5501_66977" x1="192.837" y1="174.435" x2="156.831" y2="151.169" gradientUnits="userSpaceOnUse">
<stop stop-color="#C49747" stop-opacity="0"/>
<stop offset="1" stop-color="#B78731"/>
</linearGradient>
<linearGradient id="paint8_linear_5501_66977" x1="170.832" y1="148.58" x2="170.269" y2="162.064" gradientUnits="userSpaceOnUse">
<stop stop-color="#F4C675"/>
<stop offset="1" stop-color="#A27525"/>
</linearGradient>
<linearGradient id="paint9_linear_5501_66977" x1="172.198" y1="166.511" x2="172.549" y2="191.209" gradientUnits="userSpaceOnUse">
<stop stop-color="#F4C675"/>
<stop offset="1" stop-color="#A27525"/>
</linearGradient>
</defs>
</svg>
