<svg width="18" height="18" viewBox="0 0 18 18" fill="none" xmlns="http://www.w3.org/2000/svg">
<path d="M14.0996 7.4325C13.2521 7.4325 12.4946 7.845 12.0221 8.475C11.5496 7.845 10.7921 7.4325 9.94461 7.4325C8.51211 7.4325 7.34961 8.6025 7.34961 10.0425C7.34961 10.5975 7.43961 11.115 7.58961 11.5875C8.32461 13.92 10.6046 15.3225 11.7296 15.705C11.8871 15.7575 12.1496 15.7575 12.3071 15.705C13.4321 15.3225 15.7121 13.9275 16.4471 11.5875C16.6046 11.1075 16.6871 10.5975 16.6871 10.0425C16.6946 8.6025 15.5321 7.4325 14.0996 7.4325Z" fill="#614730"/>
<path d="M15.5625 6.25495C15.5625 6.42745 15.39 6.53995 15.225 6.49495C14.2125 6.23245 13.1025 6.44995 12.2625 7.04995C12.0975 7.16995 11.8725 7.16995 11.715 7.04995C11.1225 6.61495 10.4025 6.37495 9.645 6.37495C7.71 6.37495 6.135 7.95745 6.135 9.90745C6.135 12.0225 7.1475 13.6049 8.1675 14.6625C8.22 14.715 8.175 14.805 8.1075 14.775C6.06 14.0775 1.5 11.1825 1.5 6.25495C1.5 4.07995 3.2475 2.32495 5.4075 2.32495C6.69 2.32495 7.8225 2.93995 8.535 3.89245C9.255 2.93995 10.3875 2.32495 11.6625 2.32495C13.815 2.32495 15.5625 4.07995 15.5625 6.25495Z" fill="#614730"/>
</svg>
