<svg width="19" height="18" viewBox="0 0 19 18" fill="none" xmlns="http://www.w3.org/2000/svg">
<path d="M15.8926 4.875C15.8926 6.11764 14.8853 7.125 13.6426 7.125C12.3999 7.125 11.3926 6.11764 11.3926 4.875C11.3926 3.63236 12.3999 2.625 13.6426 2.625C14.8853 2.625 15.8926 3.63236 15.8926 4.875Z" stroke="#CDD3DD" stroke-width="1.5"/>
<path d="M6.89258 9C6.89258 10.2427 5.88522 11.25 4.64258 11.25C3.39994 11.25 2.39258 10.2427 2.39258 9C2.39258 7.75732 3.39994 6.75 4.64258 6.75C5.88522 6.75 6.89258 7.75732 6.89258 9Z" stroke="#CDD3DD" stroke-width="1.5"/>
<path d="M15.8926 13.125C15.8926 14.3677 14.8853 15.375 13.6426 15.375C12.3999 15.375 11.3926 14.3677 11.3926 13.125C11.3926 11.8823 12.3999 10.875 13.6426 10.875C14.8853 10.875 15.8926 11.8823 15.8926 13.125Z" stroke="#CDD3DD" stroke-width="1.5"/>
<path d="M6.68945 8.06213L11.5644 5.8125M6.68945 9.9375L11.5644 12.1871" stroke="#CDD3DD" stroke-width="1.5"/>
</svg>
