<svg width="20" height="21" viewBox="0 0 20 21" fill="none" xmlns="http://www.w3.org/2000/svg">
<path d="M16.75 8.08326C15.2417 8.08326 14.625 7.0166 15.375 5.70826C15.8083 4.94993 15.55 3.98326 14.7917 3.54993L13.35 2.72493C12.6917 2.33326 11.8417 2.5666 11.45 3.22493L11.3583 3.38326C10.6083 4.6916 9.37501 4.6916 8.61667 3.38326L8.52501 3.22493C8.15001 2.5666 7.30001 2.33326 6.64167 2.72493L5.20001 3.54993C4.44167 3.98326 4.18334 4.95826 4.61667 5.7166C5.37501 7.0166 4.75834 8.08326 3.25001 8.08326C2.38334 8.08326 1.66667 8.7916 1.66667 9.6666V11.1333C1.66667 11.9999 2.37501 12.7166 3.25001 12.7166C4.75834 12.7166 5.37501 13.7833 4.61667 15.0916C4.18334 15.8499 4.44167 16.8166 5.20001 17.2499L6.64167 18.0749C7.30001 18.4666 8.15001 18.2333 8.54167 17.5749L8.63334 17.4166C9.38334 16.1083 10.6167 16.1083 11.375 17.4166L11.4667 17.5749C11.8583 18.2333 12.7083 18.4666 13.3667 18.0749L14.8083 17.2499C15.5667 16.8166 15.825 15.8416 15.3917 15.0916C14.6333 13.7833 15.25 12.7166 16.7583 12.7166C17.625 12.7166 18.3417 12.0083 18.3417 11.1333V9.6666C18.3333 8.79993 17.625 8.08326 16.75 8.08326ZM10 13.1083C8.50834 13.1083 7.29167 11.8916 7.29167 10.3999C7.29167 8.90826 8.50834 7.6916 10 7.6916C11.4917 7.6916 12.7083 8.90826 12.7083 10.3999C12.7083 11.8916 11.4917 13.1083 10 13.1083Z" fill="#614730"/>
</svg>
