<svg width="19" height="18" viewBox="0 0 19 18" fill="none" xmlns="http://www.w3.org/2000/svg">
<g clip-path="url(#clip0_1585_54295)">
<path d="M12.7639 5.29675C13.6426 6.09352 13.6426 7.37588 13.6426 9.94057V11.0594C13.6426 13.6241 13.6426 14.9065 12.7639 15.7033C11.8853 16.5 10.471 16.5 7.64258 16.5C4.81415 16.5 3.39994 16.5 2.52126 15.7033C1.64258 14.9065 1.64258 13.6241 1.64258 11.0594V9.94057C1.64258 7.37588 1.64258 6.09352 2.52126 5.29675C3.39994 4.5 4.81415 4.5 7.64258 4.5C10.471 4.5 11.8853 4.5 12.7639 5.29675Z" stroke="#CDD3DD" stroke-width="1.5" stroke-linecap="round" stroke-linejoin="round"/>
<path d="M4.69336 4.5C4.77363 3.4591 4.9818 2.78628 5.52165 2.29676C6.40033 1.5 7.81455 1.5 10.643 1.5C13.4714 1.5 14.8856 1.5 15.7643 2.29676C16.643 3.09352 16.643 4.37588 16.643 6.9406V8.05943C16.643 10.6241 16.643 11.9065 15.7643 12.7033C15.2744 13.1474 14.618 13.344 13.643 13.431" stroke="#CDD3DD" stroke-width="1.5" stroke-linecap="round" stroke-linejoin="round"/>
<path d="M8.1609 7.93327L8.68883 8.9979C8.76083 9.14602 8.95275 9.28822 9.11475 9.31545L10.0717 9.47572C10.6836 9.57855 10.8276 10.0261 10.3866 10.4677L9.64268 11.2178C9.51675 11.3449 9.44775 11.5898 9.48675 11.7652L9.69968 12.6937C9.86768 13.4287 9.48075 13.713 8.83583 13.3288L7.9389 12.7936C7.7769 12.6967 7.50994 12.6967 7.34496 12.7936L6.44806 13.3288C5.80613 13.713 5.41617 13.4257 5.58415 12.6937L5.79713 11.7652C5.83613 11.5898 5.76713 11.3449 5.64115 11.2178L4.89723 10.4677C4.45928 10.0261 4.60026 9.57855 5.21219 9.47572L6.16909 9.31545C6.32807 9.28822 6.52005 9.14602 6.59204 8.9979L7.11998 7.93327C7.40795 7.35558 7.8759 7.35558 8.1609 7.93327Z" stroke="#CDD3DD" stroke-width="1.5" stroke-linecap="round" stroke-linejoin="round"/>
</g>
<defs>
<clipPath id="clip0_1585_54295">
<rect width="18" height="18" fill="white" transform="translate(0.142578)"/>
</clipPath>
</defs>
</svg>
