<svg width="18" height="19" viewBox="0 0 18 19" fill="none" xmlns="http://www.w3.org/2000/svg">
<path opacity="0.4" d="M14.895 6.6673C14.895 6.7798 14.895 6.8923 14.8875 6.9973C13.74 6.5698 12.39 6.8323 11.49 7.6423C10.8825 7.0948 10.095 6.7873 9.255 6.7873C7.41 6.7873 5.91 8.2948 5.91 10.1548C5.91 12.2773 6.975 13.8298 7.995 14.8348C7.9125 14.8273 7.845 14.8123 7.785 14.7898C5.8425 14.1223 1.5 11.3623 1.5 6.6673C1.5 4.5973 3.16499 2.9248 5.21999 2.9248C6.44249 2.9248 7.52249 3.5098 8.19749 4.4173C8.87999 3.5098 9.96 2.9248 11.175 2.9248C13.23 2.9248 14.895 4.5973 14.895 6.6673Z" fill="#FDFAF3"/>
<path d="M13.4999 7.79199C12.6974 7.79199 11.9699 8.182 11.5199 8.782C11.0699 8.182 10.3499 7.79199 9.53993 7.79199C8.17493 7.79199 7.06494 8.902 7.06494 10.282C7.06494 10.8145 7.14744 11.302 7.29744 11.752C8.00244 13.9795 10.1699 15.307 11.2424 15.6745C11.3924 15.727 11.6399 15.727 11.7974 15.6745C12.8699 15.307 15.0374 13.9795 15.7424 11.752C15.8924 11.2945 15.9749 10.807 15.9749 10.282C15.9749 8.902 14.8649 7.79199 13.4999 7.79199Z" fill="#FDFAF3"/>
</svg>
