<svg width="20" height="21" viewBox="0 0 20 21" fill="none" xmlns="http://www.w3.org/2000/svg">
<path d="M2.5 12.8083L2.5 7.99993C2.5 6.23327 2.5 6.23327 4.16667 5.10827L8.75 2.45827C9.44167 2.05827 10.5667 2.05827 11.25 2.45827L15.8333 5.10827C17.5 6.23327 17.5 6.23327 17.5 7.9916V12.8083C17.5 14.5666 17.5 14.5666 15.8333 15.6916L11.25 18.3416C10.5667 18.7416 9.44167 18.7416 8.75 18.3416L4.16667 15.6916C2.5 14.5666 2.5 14.5666 2.5 12.8083Z" stroke="#614730" stroke-width="1.5" stroke-linecap="round" stroke-linejoin="round"/>
<path d="M10 7.8999C11.3807 7.8999 12.5 9.01919 12.5 10.3999C12.5 11.7806 11.3807 12.8999 10 12.8999C8.61929 12.8999 7.5 11.7806 7.5 10.3999C7.5 9.01919 8.61929 7.8999 10 7.8999Z" stroke="#614730" stroke-width="1.5" stroke-linecap="round" stroke-linejoin="round"/>
</svg>
