<svg width="19" height="18" viewBox="0 0 19 18" fill="none" xmlns="http://www.w3.org/2000/svg">
<path d="M10.645 11.2501H3.87252C2.50752 11.2501 1.63752 9.78759 2.29752 8.58759L4.04502 5.40758L5.68002 2.43008C6.36252 1.19258 8.14752 1.19258 8.83002 2.43008L10.4725 5.40758L11.26 6.84008L12.22 8.58759C12.88 9.78759 12.01 11.2501 10.645 11.2501Z" fill="#614730"/>
<path opacity="0.4" d="M17.0723 11.625C17.0723 14.3175 14.8898 16.5 12.1973 16.5C9.50477 16.5 7.32227 14.3175 7.32227 11.625C7.32227 11.4975 7.32977 11.3775 7.33727 11.25H10.6448C12.0098 11.25 12.8798 9.78751 12.2198 8.58751L11.2598 6.84C11.5598 6.78 11.8748 6.75 12.1973 6.75C14.8898 6.75 17.0723 8.9325 17.0723 11.625Z" fill="#614730"/>
</svg>
