<svg width="18" height="18" viewBox="0 0 18 18" fill="none" xmlns="http://www.w3.org/2000/svg">
<path d="M8.46892 1.99636C8.76785 1.71697 9.23215 1.71697 9.53108 1.99636L11.6806 4.00537C11.7674 4.08645 11.8716 4.14659 11.9852 4.18118L14.7998 5.03825C15.1912 5.15744 15.4234 5.55953 15.3309 5.95811L14.6658 8.82419C14.639 8.93986 14.639 9.06014 14.6658 9.17581L15.3309 12.0419C15.4234 12.4405 15.1912 12.8426 14.7998 12.9618L11.9852 13.8188C11.8716 13.8534 11.7674 13.9135 11.6806 13.9946L9.53108 16.0036C9.23215 16.283 8.76785 16.283 8.46892 16.0036L6.31936 13.9946C6.23261 13.9135 6.12844 13.8534 6.01484 13.8188L3.20021 12.9618C2.80878 12.8426 2.57664 12.4405 2.66913 12.0419L3.3342 9.17581C3.36104 9.06014 3.36104 8.93986 3.3342 8.82419L2.66913 5.95811C2.57664 5.55953 2.80878 5.15744 3.20021 5.03825L6.01484 4.18118C6.12844 4.14659 6.23261 4.08645 6.31936 4.00537L8.46892 1.99636Z" stroke="#614730" stroke-width="1.5"/>
<path opacity="0.4" d="M8.65859 4.81909C8.85076 4.63948 9.14924 4.63948 9.34141 4.81909L10.6027 5.99794C10.6585 6.05006 10.7255 6.08873 10.7985 6.11096L12.4501 6.61387C12.7017 6.6905 12.8509 6.94898 12.7915 7.20521L12.4012 8.88698C12.384 8.96134 12.384 9.03866 12.4012 9.11302L12.7915 10.7948C12.8509 11.051 12.7017 11.3095 12.4501 11.3861L10.7985 11.889C10.7255 11.9113 10.6585 11.9499 10.6027 12.0021L9.34141 13.1809C9.14924 13.3605 8.85076 13.3605 8.65859 13.1809L7.39727 12.0021C7.3415 11.9499 7.27453 11.9113 7.20151 11.889L5.54993 11.3861C5.2983 11.3095 5.14906 11.051 5.20852 10.7948L5.59877 9.11302C5.61603 9.03866 5.61603 8.96134 5.59877 8.88698L5.20852 7.20521C5.14906 6.94898 5.2983 6.6905 5.54993 6.61387L7.20151 6.11096C7.27453 6.08873 7.3415 6.05006 7.39727 5.99794L8.65859 4.81909Z" stroke="#614730"/>
</svg>
