<svg width="19" height="18" viewBox="0 0 19 18" fill="none" xmlns="http://www.w3.org/2000/svg">
<path d="M2.53711 4.5H4.03711M4.03711 4.5H16.0371M4.03711 4.5V15C4.03711 15.3978 4.19514 15.7794 4.47645 16.0607C4.75775 16.342 5.13928 16.5 5.53711 16.5H13.0371C13.4349 16.5 13.8165 16.342 14.0978 16.0607C14.3791 15.7794 14.5371 15.3978 14.5371 15V4.5H4.03711ZM6.28711 4.5V3C6.28711 2.60218 6.44514 2.22064 6.72645 1.93934C7.00775 1.65804 7.38928 1.5 7.78711 1.5H10.7871C11.1849 1.5 11.5665 1.65804 11.8478 1.93934C12.1291 2.22064 12.2871 2.60218 12.2871 3V4.5M7.78711 8.25V12.75M10.7871 8.25V12.75" stroke="#614730" stroke-width="1.5" stroke-linecap="round" stroke-linejoin="round"/>
</svg>
