<svg width="19" height="18" viewBox="0 0 19 18" fill="none" xmlns="http://www.w3.org/2000/svg">
<path opacity="0.4" d="M17.0872 12.615L14.7397 7.12495C14.3122 6.11995 13.6747 5.54995 12.9472 5.51245C12.2272 5.47495 11.5297 5.97745 10.9972 6.93745L9.57225 9.49495C9.27225 10.035 8.84475 10.3575 8.37975 10.395C7.90725 10.44 7.43475 10.1925 7.05225 9.70495L6.88725 9.49495C6.35475 8.82745 5.69475 8.50495 5.01975 8.57245C4.34475 8.63995 3.76725 9.10495 3.38475 9.86245L2.08725 12.45C1.62225 13.3875 1.66725 14.475 2.21475 15.36C2.76225 16.245 3.71475 16.7775 4.75725 16.7775H14.3272C15.3322 16.7775 16.2697 16.275 16.8247 15.435C17.3947 14.595 17.4847 13.5375 17.0872 12.615Z" fill="#614730"/>
<path d="M5.79965 6.28497C7.19969 6.28497 8.33465 5.15001 8.33465 3.74997C8.33465 2.34992 7.19969 1.21497 5.79965 1.21497C4.39961 1.21497 3.26465 2.34992 3.26465 3.74997C3.26465 5.15001 4.39961 6.28497 5.79965 6.28497Z" fill="#614730"/>
</svg>
