<svg width="148" height="146" viewBox="0 0 148 146" fill="none" xmlns="http://www.w3.org/2000/svg">
<path d="M4.5 3.41797H11.1048V10.0227H4.5V3.41797ZM11.1048 3.41797H17.7095V10.0227H11.1048V3.41797ZM17.7095 3.41797H24.3143V10.0227H17.7095V3.41797ZM24.3143 3.41797H30.919V10.0227H24.3143V3.41797ZM30.919 3.41797H37.5238V10.0227H30.919V3.41797ZM37.5238 3.41797H44.1286V10.0227H37.5238V3.41797ZM44.1286 3.41797H50.7333V10.0227H44.1286V3.41797ZM63.9429 3.41797H70.5476V10.0227H63.9429V3.41797ZM83.7571 3.41797H90.3619V10.0227H83.7571V3.41797ZM96.9667 3.41797H103.571V10.0227H96.9667V3.41797ZM103.571 3.41797H110.176V10.0227H103.571V3.41797ZM110.176 3.41797H116.781V10.0227H110.176V3.41797ZM116.781 3.41797H123.386V10.0227H116.781V3.41797ZM123.386 3.41797H129.99V10.0227H123.386V3.41797ZM129.99 3.41797H136.595V10.0227H129.99V3.41797ZM136.595 3.41797H143.2V10.0227H136.595V3.41797ZM4.5 10.0227H11.1048V16.6275H4.5V10.0227ZM44.1286 10.0227H50.7333V16.6275H44.1286V10.0227ZM57.3381 10.0227H63.9429V16.6275H57.3381V10.0227ZM77.1524 10.0227H83.7571V16.6275H77.1524V10.0227ZM96.9667 10.0227H103.571V16.6275H96.9667V10.0227ZM136.595 10.0227H143.2V16.6275H136.595V10.0227ZM4.5 16.6275H11.1048V23.2323H4.5V16.6275ZM17.7095 16.6275H24.3143V23.2323H17.7095V16.6275ZM24.3143 16.6275H30.919V23.2323H24.3143V16.6275ZM30.919 16.6275H37.5238V23.2323H30.919V16.6275ZM44.1286 16.6275H50.7333V23.2323H44.1286V16.6275ZM63.9429 16.6275H70.5476V23.2323H63.9429V16.6275ZM96.9667 16.6275H103.571V23.2323H96.9667V16.6275ZM110.176 16.6275H116.781V23.2323H110.176V16.6275ZM116.781 16.6275H123.386V23.2323H116.781V16.6275ZM123.386 16.6275H129.99V23.2323H123.386V16.6275ZM136.595 16.6275H143.2V23.2323H136.595V16.6275ZM4.5 23.2323H11.1048V29.837H4.5V23.2323ZM17.7095 23.2323H24.3143V29.837H17.7095V23.2323ZM24.3143 23.2323H30.919V29.837H24.3143V23.2323ZM30.919 23.2323H37.5238V29.837H30.919V23.2323ZM44.1286 23.2323H50.7333V29.837H44.1286V23.2323ZM57.3381 23.2323H63.9429V29.837H57.3381V23.2323ZM77.1524 23.2323H83.7571V29.837H77.1524V23.2323ZM96.9667 23.2323H103.571V29.837H96.9667V23.2323ZM110.176 23.2323H116.781V29.837H110.176V23.2323ZM116.781 23.2323H123.386V29.837H116.781V23.2323ZM123.386 23.2323H129.99V29.837H123.386V23.2323ZM136.595 23.2323H143.2V29.837H136.595V23.2323ZM4.5 29.837H11.1048V36.4418H4.5V29.837ZM17.7095 29.837H24.3143V36.4418H17.7095V29.837ZM24.3143 29.837H30.919V36.4418H24.3143V29.837ZM30.919 29.837H37.5238V36.4418H30.919V29.837ZM44.1286 29.837H50.7333V36.4418H44.1286V29.837ZM70.5476 29.837H77.1524V36.4418H70.5476V29.837ZM83.7571 29.837H90.3619V36.4418H83.7571V29.837ZM96.9667 29.837H103.571V36.4418H96.9667V29.837ZM110.176 29.837H116.781V36.4418H110.176V29.837ZM116.781 29.837H123.386V36.4418H116.781V29.837ZM123.386 29.837H129.99V36.4418H123.386V29.837ZM136.595 29.837H143.2V36.4418H136.595V29.837ZM4.5 36.4418H11.1048V43.0465H4.5V36.4418ZM44.1286 36.4418H50.7333V43.0465H44.1286V36.4418ZM57.3381 36.4418H63.9429V43.0465H57.3381V36.4418ZM63.9429 36.4418H70.5476V43.0465H63.9429V36.4418ZM70.5476 36.4418H77.1524V43.0465H70.5476V36.4418ZM83.7571 36.4418H90.3619V43.0465H83.7571V36.4418ZM96.9667 36.4418H103.571V43.0465H96.9667V36.4418ZM136.595 36.4418H143.2V43.0465H136.595V36.4418ZM4.5 43.0465H11.1048V49.6513H4.5V43.0465ZM11.1048 43.0465H17.7095V49.6513H11.1048V43.0465ZM17.7095 43.0465H24.3143V49.6513H17.7095V43.0465ZM24.3143 43.0465H30.919V49.6513H24.3143V43.0465ZM30.919 43.0465H37.5238V49.6513H30.919V43.0465ZM37.5238 43.0465H44.1286V49.6513H37.5238V43.0465ZM44.1286 43.0465H50.7333V49.6513H44.1286V43.0465ZM57.3381 43.0465H63.9429V49.6513H57.3381V43.0465ZM70.5476 43.0465H77.1524V49.6513H70.5476V43.0465ZM83.7571 43.0465H90.3619V49.6513H83.7571V43.0465ZM96.9667 43.0465H103.571V49.6513H96.9667V43.0465ZM103.571 43.0465H110.176V49.6513H103.571V43.0465ZM110.176 43.0465H116.781V49.6513H110.176V43.0465ZM116.781 43.0465H123.386V49.6513H116.781V43.0465ZM123.386 43.0465H129.99V49.6513H123.386V43.0465ZM129.99 43.0465H136.595V49.6513H129.99V43.0465ZM136.595 43.0465H143.2V49.6513H136.595V43.0465ZM70.5476 49.6513H77.1524V56.2561H70.5476V49.6513ZM77.1524 49.6513H83.7571V56.2561H77.1524V49.6513ZM83.7571 49.6513H90.3619V56.2561H83.7571V49.6513ZM4.5 56.2561H11.1048V62.8608H4.5V56.2561ZM11.1048 56.2561H17.7095V62.8608H11.1048V56.2561ZM17.7095 56.2561H24.3143V62.8608H17.7095V56.2561ZM24.3143 56.2561H30.919V62.8608H24.3143V56.2561ZM30.919 56.2561H37.5238V62.8608H30.919V56.2561ZM44.1286 56.2561H50.7333V62.8608H44.1286V56.2561ZM50.7333 56.2561H57.3381V62.8608H50.7333V56.2561ZM57.3381 56.2561H63.9429V62.8608H57.3381V56.2561ZM63.9429 56.2561H70.5476V62.8608H63.9429V56.2561ZM77.1524 56.2561H83.7571V62.8608H77.1524V56.2561ZM90.3619 56.2561H96.9667V62.8608H90.3619V56.2561ZM103.571 56.2561H110.176V62.8608H103.571V56.2561ZM116.781 56.2561H123.386V62.8608H116.781V56.2561ZM129.99 56.2561H136.595V62.8608H129.99V56.2561ZM11.1048 62.8608H17.7095V69.4656H11.1048V62.8608ZM30.919 62.8608H37.5238V69.4656H30.919V62.8608ZM37.5238 62.8608H44.1286V69.4656H37.5238V62.8608ZM57.3381 62.8608H63.9429V69.4656H57.3381V62.8608ZM70.5476 62.8608H77.1524V69.4656H70.5476V62.8608ZM96.9667 62.8608H103.571V69.4656H96.9667V62.8608ZM110.176 62.8608H116.781V69.4656H110.176V62.8608ZM116.781 62.8608H123.386V69.4656H116.781V62.8608ZM123.386 62.8608H129.99V69.4656H123.386V62.8608ZM129.99 62.8608H136.595V69.4656H129.99V62.8608ZM136.595 62.8608H143.2V69.4656H136.595V62.8608ZM4.5 69.4656H11.1048V76.0703H4.5V69.4656ZM11.1048 69.4656H17.7095V76.0703H11.1048V69.4656ZM17.7095 69.4656H24.3143V76.0703H17.7095V69.4656ZM24.3143 69.4656H30.919V76.0703H24.3143V69.4656ZM37.5238 69.4656H44.1286V76.0703H37.5238V69.4656ZM44.1286 69.4656H50.7333V76.0703H44.1286V69.4656ZM50.7333 69.4656H57.3381V76.0703H50.7333V69.4656ZM57.3381 69.4656H63.9429V76.0703H57.3381V69.4656ZM70.5476 69.4656H77.1524V76.0703H70.5476V69.4656ZM77.1524 69.4656H83.7571V76.0703H77.1524V69.4656ZM83.7571 69.4656H90.3619V76.0703H83.7571V69.4656ZM96.9667 69.4656H103.571V76.0703H96.9667V69.4656ZM116.781 69.4656H123.386V76.0703H116.781V69.4656ZM123.386 69.4656H129.99V76.0703H123.386V69.4656ZM129.99 69.4656H136.595V76.0703H129.99V69.4656ZM4.5 76.0703H11.1048V82.6751H4.5V76.0703ZM24.3143 76.0703H30.919V82.6751H24.3143V76.0703ZM50.7333 76.0703H57.3381V82.6751H50.7333V76.0703ZM57.3381 76.0703H63.9429V82.6751H57.3381V76.0703ZM70.5476 76.0703H77.1524V82.6751H70.5476V76.0703ZM77.1524 76.0703H83.7571V82.6751H77.1524V76.0703ZM90.3619 76.0703H96.9667V82.6751H90.3619V76.0703ZM116.781 76.0703H123.386V82.6751H116.781V76.0703ZM123.386 76.0703H129.99V82.6751H123.386V76.0703ZM129.99 76.0703H136.595V82.6751H129.99V76.0703ZM17.7095 82.6751H24.3143V89.2799H17.7095V82.6751ZM24.3143 82.6751H30.919V89.2799H24.3143V82.6751ZM30.919 82.6751H37.5238V89.2799H30.919V82.6751ZM44.1286 82.6751H50.7333V89.2799H44.1286V82.6751ZM50.7333 82.6751H57.3381V89.2799H50.7333V82.6751ZM57.3381 82.6751H63.9429V89.2799H57.3381V82.6751ZM63.9429 82.6751H70.5476V89.2799H63.9429V82.6751ZM70.5476 82.6751H77.1524V89.2799H70.5476V82.6751ZM77.1524 82.6751H83.7571V89.2799H77.1524V82.6751ZM96.9667 82.6751H103.571V89.2799H96.9667V82.6751ZM103.571 82.6751H110.176V89.2799H103.571V82.6751ZM116.781 82.6751H123.386V89.2799H116.781V82.6751ZM57.3381 89.2799H63.9429V95.8846H57.3381V89.2799ZM96.9667 89.2799H103.571V95.8846H96.9667V89.2799ZM103.571 89.2799H110.176V95.8846H103.571V89.2799ZM110.176 89.2799H116.781V95.8846H110.176V89.2799ZM123.386 89.2799H129.99V95.8846H123.386V89.2799ZM129.99 89.2799H136.595V95.8846H129.99V89.2799ZM136.595 89.2799H143.2V95.8846H136.595V89.2799ZM4.5 95.8846H11.1048V102.489H4.5V95.8846ZM11.1048 95.8846H17.7095V102.489H11.1048V95.8846ZM17.7095 95.8846H24.3143V102.489H17.7095V95.8846ZM24.3143 95.8846H30.919V102.489H24.3143V95.8846ZM30.919 95.8846H37.5238V102.489H30.919V95.8846ZM37.5238 95.8846H44.1286V102.489H37.5238V95.8846ZM44.1286 95.8846H50.7333V102.489H44.1286V95.8846ZM57.3381 95.8846H63.9429V102.489H57.3381V95.8846ZM77.1524 95.8846H83.7571V102.489H77.1524V95.8846ZM83.7571 95.8846H90.3619V102.489H83.7571V95.8846ZM90.3619 95.8846H96.9667V102.489H90.3619V95.8846ZM129.99 95.8846H136.595V102.489H129.99V95.8846ZM4.5 102.489H11.1048V109.094H4.5V102.489ZM44.1286 102.489H50.7333V109.094H44.1286V102.489ZM63.9429 102.489H70.5476V109.094H63.9429V102.489ZM77.1524 102.489H83.7571V109.094H77.1524V102.489ZM90.3619 102.489H96.9667V109.094H90.3619V102.489ZM116.781 102.489H123.386V109.094H116.781V102.489ZM123.386 102.489H129.99V109.094H123.386V102.489ZM136.595 102.489H143.2V109.094H136.595V102.489ZM4.5 109.094H11.1048V115.699H4.5V109.094ZM17.7095 109.094H24.3143V115.699H17.7095V109.094ZM24.3143 109.094H30.919V115.699H24.3143V109.094ZM30.919 109.094H37.5238V115.699H30.919V109.094ZM44.1286 109.094H50.7333V115.699H44.1286V109.094ZM57.3381 109.094H63.9429V115.699H57.3381V109.094ZM63.9429 109.094H70.5476V115.699H63.9429V109.094ZM70.5476 109.094H77.1524V115.699H70.5476V109.094ZM83.7571 109.094H90.3619V115.699H83.7571V109.094ZM96.9667 109.094H103.571V115.699H96.9667V109.094ZM110.176 109.094H116.781V115.699H110.176V109.094ZM129.99 109.094H136.595V115.699H129.99V109.094ZM136.595 109.094H143.2V115.699H136.595V109.094ZM4.5 115.699H11.1048V122.304H4.5V115.699ZM17.7095 115.699H24.3143V122.304H17.7095V115.699ZM24.3143 115.699H30.919V122.304H24.3143V115.699ZM30.919 115.699H37.5238V122.304H30.919V115.699ZM44.1286 115.699H50.7333V122.304H44.1286V115.699ZM57.3381 115.699H63.9429V122.304H57.3381V115.699ZM90.3619 115.699H96.9667V122.304H90.3619V115.699ZM103.571 115.699H110.176V122.304H103.571V115.699ZM110.176 115.699H116.781V122.304H110.176V115.699ZM123.386 115.699H129.99V122.304H123.386V115.699ZM4.5 122.304H11.1048V128.908H4.5V122.304ZM17.7095 122.304H24.3143V128.908H17.7095V122.304ZM24.3143 122.304H30.919V128.908H24.3143V122.304ZM30.919 122.304H37.5238V128.908H30.919V122.304ZM44.1286 122.304H50.7333V128.908H44.1286V122.304ZM57.3381 122.304H63.9429V128.908H57.3381V122.304ZM70.5476 122.304H77.1524V128.908H70.5476V122.304ZM77.1524 122.304H83.7571V128.908H77.1524V122.304ZM83.7571 122.304H90.3619V128.908H83.7571V122.304ZM116.781 122.304H123.386V128.908H116.781V122.304ZM123.386 122.304H129.99V128.908H123.386V122.304ZM4.5 128.908H11.1048V135.513H4.5V128.908ZM44.1286 128.908H50.7333V135.513H44.1286V128.908ZM57.3381 128.908H63.9429V135.513H57.3381V128.908ZM63.9429 128.908H70.5476V135.513H63.9429V128.908ZM103.571 128.908H110.176V135.513H103.571V128.908ZM110.176 128.908H116.781V135.513H110.176V128.908ZM116.781 128.908H123.386V135.513H116.781V128.908ZM123.386 128.908H129.99V135.513H123.386V128.908ZM4.5 135.513H11.1048V142.118H4.5V135.513ZM11.1048 135.513H17.7095V142.118H11.1048V135.513ZM17.7095 135.513H24.3143V142.118H17.7095V135.513ZM24.3143 135.513H30.919V142.118H24.3143V135.513ZM30.919 135.513H37.5238V142.118H30.919V135.513ZM37.5238 135.513H44.1286V142.118H37.5238V135.513ZM44.1286 135.513H50.7333V142.118H44.1286V135.513ZM57.3381 135.513H63.9429V142.118H57.3381V135.513ZM77.1524 135.513H83.7571V142.118H77.1524V135.513ZM96.9667 135.513H103.571V142.118H96.9667V135.513ZM110.176 135.513H116.781V142.118H110.176V135.513ZM129.99 135.513H136.595V142.118H129.99V135.513Z" fill="#614730"/>
</svg>
