<svg width="19" height="18" viewBox="0 0 19 18" fill="none" xmlns="http://www.w3.org/2000/svg">
<path d="M7.1499 1.5C5.1849 1.5 3.5874 3.0975 3.5874 5.0625C3.5874 6.99 5.0949 8.55 7.0599 8.6175C7.1199 8.61 7.1799 8.61 7.2249 8.6175C7.2399 8.6175 7.2474 8.6175 7.2624 8.6175C7.2699 8.6175 7.2699 8.6175 7.2774 8.6175C9.1974 8.55 10.7049 6.99 10.7124 5.0625C10.7124 3.0975 9.1149 1.5 7.1499 1.5Z" fill="#614730"/>
<path d="M10.9601 10.6127C8.86762 9.21766 5.45512 9.21766 3.34762 10.6127C2.39512 11.2502 1.87012 12.1127 1.87012 13.0352C1.87012 13.9577 2.39512 14.8127 3.34012 15.4427C4.39012 16.1477 5.77012 16.5002 7.15012 16.5002C8.53012 16.5002 9.91012 16.1477 10.9601 15.4427C11.9051 14.8052 12.4301 13.9502 12.4301 13.0202C12.4226 12.0977 11.9051 11.2427 10.9601 10.6127Z" fill="#614730"/>
<path d="M15.3924 5.50459C15.5124 6.95959 14.4774 8.23459 13.0449 8.40709C13.0374 8.40709 13.0374 8.40709 13.0299 8.40709H13.0074C12.9624 8.40709 12.9174 8.40709 12.8799 8.42209C12.1524 8.45959 11.4849 8.22709 10.9824 7.79959C11.7549 7.10959 12.1974 6.07459 12.1074 4.94959C12.0549 4.34209 11.8449 3.78709 11.5299 3.31459C11.8149 3.17209 12.1449 3.08209 12.4824 3.05209C13.9524 2.92459 15.2649 4.01959 15.3924 5.50459Z" fill="#614730"/>
<path d="M16.8926 12.4428C16.8326 13.1703 16.3676 13.8003 15.5876 14.2278C14.8376 14.6403 13.8926 14.8353 12.9551 14.8128C13.4951 14.3253 13.8101 13.7178 13.8701 13.0728C13.9451 12.1428 13.5026 11.2503 12.6176 10.5378C12.1151 10.1403 11.5301 9.8253 10.8926 9.5928C12.5501 9.1128 14.6351 9.4353 15.9176 10.4703C16.6076 11.0253 16.9601 11.7228 16.8926 12.4428Z" fill="#614730"/>
</svg>
