<svg width="19" height="18" viewBox="0 0 19 18" fill="none" xmlns="http://www.w3.org/2000/svg">
<path d="M12.6001 6C13.7936 6 14.9382 6.47411 15.7821 7.31802C16.626 8.16193 17.1001 9.30653 17.1001 10.5V15.75H14.1001V10.5C14.1001 10.1022 13.9421 9.72064 13.6608 9.43934C13.3795 9.15804 12.9979 9 12.6001 9C12.2023 9 11.8207 9.15804 11.5394 9.43934C11.2581 9.72064 11.1001 10.1022 11.1001 10.5V15.75H8.1001V10.5C8.1001 9.30653 8.5742 8.16193 9.41812 7.31802C10.262 6.47411 11.4066 6 12.6001 6Z" fill="#614730"/>
<path d="M5.1001 6.75H2.1001V15.75H5.1001V6.75Z" fill="#614730"/>
<path d="M3.6001 4.5C4.42852 4.5 5.1001 3.82843 5.1001 3C5.1001 2.17157 4.42852 1.5 3.6001 1.5C2.77167 1.5 2.1001 2.17157 2.1001 3C2.1001 3.82843 2.77167 4.5 3.6001 4.5Z" fill="#614730"/>
</svg>
