<svg width="19" height="18" viewBox="0 0 19 18" fill="none" xmlns="http://www.w3.org/2000/svg">
<g clip-path="url(#clip0_4941_90295)">
<path d="M18.0498 2.24973C17.3316 2.75634 16.5364 3.14381 15.6948 3.39723C15.2431 2.87786 14.6428 2.50975 13.9751 2.34267C13.3074 2.1756 12.6044 2.21763 11.9614 2.46307C11.3183 2.70851 10.7661 3.14553 10.3795 3.71502C9.99295 4.2845 9.79058 4.95898 9.7998 5.64723V6.39723C8.48178 6.43141 7.17576 6.13909 5.99806 5.54631C4.82036 4.95354 3.80754 4.07871 3.0498 2.99973C3.0498 2.99973 0.0498047 9.74973 6.7998 12.7497C5.2552 13.7982 3.41517 14.3239 1.5498 14.2497C8.2998 17.9997 16.5498 14.2497 16.5498 5.62473C16.5491 5.41582 16.529 5.20743 16.4898 5.00223C17.2553 4.24735 17.7954 3.29426 18.0498 2.24973Z" fill="#614730"/>
</g>
<defs>
<clipPath id="clip0_4941_90295">
<rect width="18" height="18" fill="white" transform="translate(0.799805)"/>
</clipPath>
</defs>
</svg>
