<svg width="18" height="18" viewBox="0 0 18 18" fill="none" xmlns="http://www.w3.org/2000/svg">
<g clip-path="url(#clip0_4941_90303)">
<path d="M16.3425 15.57L15.8025 15.03C16.08 14.61 16.245 14.1 16.245 13.56C16.245 12.075 15.045 10.875 13.56 10.875C12.075 10.875 10.875 12.075 10.875 13.56C10.875 15.045 12.075 16.245 13.56 16.245C14.1075 16.245 14.61 16.08 15.03 15.8025L15.57 16.3425C15.675 16.4475 15.8175 16.5 15.9525 16.5C16.095 16.5 16.23 16.4475 16.335 16.3425C16.5525 16.125 16.5525 15.78 16.3425 15.57Z" fill="#614730"/>
<path d="M1.52232 10.9727C1.52232 10.9952 1.50732 11.0252 1.50732 11.0477C2.19732 12.4277 3.32232 13.5602 4.70232 14.2427C4.72482 14.2427 4.75482 14.2277 4.77732 14.2277C4.52232 13.3577 4.32732 12.4652 4.18482 11.5727C3.28482 11.4227 2.39232 11.2277 1.52232 10.9727Z" fill="#614730"/>
<path d="M14.3026 4.82258C13.5976 3.34508 12.4051 2.15258 10.9351 1.45508C11.2051 2.34758 11.4301 3.26258 11.5801 4.17758C12.4951 4.32758 13.4101 4.54508 14.3026 4.82258Z" fill="#614730"/>
<path d="M1.44727 4.82215C2.34727 4.55215 3.26227 4.32715 4.17727 4.17715C4.32727 3.28465 4.51477 2.39965 4.76977 1.52965C4.74727 1.52965 4.71727 1.51465 4.69477 1.51465C3.28477 2.21215 2.13727 3.38965 1.44727 4.82215Z" fill="#614730"/>
<path d="M10.3648 4.02C10.1848 3.045 9.95977 2.07 9.63727 1.125C9.62227 1.0725 9.62227 1.0275 9.61477 0.9675C9.05977 0.8325 8.47477 0.75 7.87477 0.75C7.26727 0.75 6.68977 0.8325 6.12727 0.975C6.11977 1.0275 6.12727 1.0725 6.11227 1.1325C5.79727 2.0775 5.56477 3.045 5.38477 4.02C7.04227 3.84 8.70727 3.84 10.3648 4.02Z" fill="#614730"/>
<path d="M4.02 5.38477C3.0375 5.56477 2.0775 5.79727 1.125 6.11227C1.0725 6.12727 1.0275 6.12727 0.975 6.13477C0.8325 6.68977 0.75 7.27477 0.75 7.87477C0.75 8.48227 0.8325 9.05977 0.975 9.62227C1.0275 9.62977 1.0725 9.62227 1.1325 9.63727C2.0775 9.95227 3.045 10.1848 4.0275 10.3648C3.84 8.70727 3.84 7.04227 4.02 5.38477Z" fill="#614730"/>
<path d="M14.7752 6.13477C14.7227 6.13477 14.6777 6.12727 14.6177 6.11227C13.6727 5.79727 12.6977 5.56477 11.7227 5.38477C11.9102 7.04227 11.9102 8.70727 11.7227 10.3573C12.6977 10.1773 13.6727 9.95227 14.6177 9.62977C14.6702 9.61477 14.7152 9.62227 14.7752 9.61477C14.9102 9.05227 15.0002 8.47477 15.0002 7.86727C15.0002 7.27477 14.9177 6.69727 14.7752 6.13477Z" fill="#614730"/>
<path d="M5.38477 11.7302C5.56477 12.7127 5.78977 13.6802 6.11227 14.6252C6.12727 14.6777 6.11977 14.7227 6.12727 14.7827C6.68977 14.9177 7.26727 15.0002 7.87477 15.0002C8.47477 15.0002 9.05977 14.9177 9.61477 14.7752C9.62227 14.7227 9.62227 14.6777 9.63727 14.6177C9.95227 13.6727 10.1848 12.7052 10.3648 11.7227C9.53977 11.8127 8.70727 11.8802 7.87477 11.8802C7.04227 11.8802 6.20977 11.8202 5.38477 11.7302Z" fill="#614730"/>
<path d="M5.2127 5.2127C4.9877 6.9827 4.9877 8.7677 5.2127 10.5452C6.9827 10.7702 8.7677 10.7702 10.5452 10.5452C10.7702 8.7752 10.7702 6.9902 10.5452 5.2127C8.7677 4.9877 6.9827 4.9877 5.2127 5.2127Z" fill="#614730"/>
</g>
<defs>
<clipPath id="clip0_4941_90303">
<rect width="18" height="18" fill="white"/>
</clipPath>
</defs>
</svg>
