<svg width="320" height="104" viewBox="0 0 320 104" fill="none" xmlns="http://www.w3.org/2000/svg">
<g clip-path="url(#clip0_3034_104003)">
<rect width="320" height="104" rx="14" fill="#F4EDE3"/>
<g clip-path="url(#clip1_3034_104003)">
<path d="M283.493 87.7522C288.582 86.3332 294.129 87.7414 298.685 90.4179C300.82 91.6727 302.877 93.2317 305.314 93.6814C307.493 94.0826 309.722 93.5468 311.935 93.536C314.852 93.4498 317.849 94.5403 320 96.4844V101.921C315.396 102.712 311.017 105.836 305.441 103.62C303.114 102.12 300.812 100.278 297.869 100.373C295.974 100.33 294.118 100.841 292.255 101.186C290.392 101.53 288.477 101.229 286.603 100.957C279.298 99.9256 274.023 90.3264 283.493 87.7522Z" fill="#F4EDE3"/>
<path d="M287.174 92.5233C289.188 93.4442 291.364 93.9343 293.545 94.2816C299.172 94.7178 304.296 97.0012 309.623 98.6356C312.797 99.5888 316.54 99.8635 320 100.647V101.455C319.429 101.323 318.858 101.204 318.304 101.083C314.722 100.359 311.068 99.9227 307.584 98.7945C304.076 97.6178 300.699 96.0292 297.026 95.3964C293.666 94.7502 290.101 94.419 287.066 92.7172C286.956 92.6553 287.061 92.4695 287.174 92.5233Z" fill="#614730" fill-opacity="0.3"/>
<path d="M306.222 44.4248C310.045 44.9768 313.139 48.0949 314.908 51.3826C316.265 54.0214 316.79 57.0156 318.075 59.6894C318.67 60.7314 319.332 61.7546 320.003 62.7698V76.9626C319.136 76.338 318.285 75.6863 317.641 74.8193C315.202 70.7346 315.186 67.6919 310.476 65.0047C306.504 62.8425 302.953 59.5898 301.833 55.0581C300.43 50.9195 300.462 43.9455 306.222 44.4248Z" fill="#F4EDE3"/>
<path d="M299.237 64.1455C302.961 65.6668 305.075 69.283 308.104 71.6902C310.236 73.1631 312.986 73.5401 315.089 75.056C317.644 77.0567 319.324 80.1532 320 83.3144V83.694C318.473 81.2733 315.562 80.6729 312.913 80.1936C309.819 79.5123 306.308 77.4336 303.187 76.879C284.969 75.0426 284.646 58.7602 299.237 64.1455Z" fill="#F4EDE3"/>
<path d="M320 74.0034C316.86 67.673 312.803 61.7034 308.667 54.6649C308.51 54.2637 307.21 52.5081 307.999 52.7854C312.014 59.2289 316.424 65.5485 320 72.272V74.0034Z" fill="#614730" fill-opacity="0.3"/>
<path d="M296.019 68.3408C307.24 75.0616 314.593 76.1791 320 83.363V84.4374C319.106 83.153 318.094 81.9548 316.933 80.875C313.67 77.8243 309.437 76.1899 305.481 74.2538C302.511 72.781 299.638 71.1088 296.854 69.3075C296.526 69.0517 295.22 68.4135 296.019 68.3408Z" fill="#614730" fill-opacity="0.3"/>
</g>
<g clip-path="url(#clip2_3034_104003)">
<path d="M7.01687 77.4652C4.10079 78.1256 1.90205 80.7226 0.739687 83.3684C0.430807 84.1081 0.203211 84.8742 0 85.6505V101.724C0.0203211 101.692 0.0426743 101.661 0.0629953 101.629C1.69681 98.3268 1.52205 95.9756 4.99492 93.6163C7.92725 91.7041 10.4714 88.977 11.0587 85.4107C11.8858 82.1268 11.4326 76.7438 7.01687 77.4652Z" fill="#F4EDE3"/>
<path d="M13.6151 92.2628C10.8332 93.6649 9.42288 96.5871 7.23227 98.6294C5.67771 99.8974 3.57651 100.357 2.04633 101.655C1.21114 102.421 0.528348 103.352 0 104.368V107.174C1.12985 106.284 2.63361 105.86 4.03983 105.488C6.38691 104.772 8.96972 102.954 11.3432 102.334C25.3465 99.7735 24.4991 87.215 13.6131 92.2628H13.6151Z" fill="#F4EDE3"/>
<path d="M16.3544 95.3037C8.92705 100.601 3.68827 102.166 0 106.651V107.403C2.39179 104.273 6.02723 102.38 9.41272 100.449C11.6155 99.1302 13.7309 97.663 15.7692 96.1023C16.0923 95.8341 16.96 95.2976 16.3544 95.3057V95.3037Z" fill="#614730" fill-opacity="0.3"/>
<path d="M0 97.0491C1.94066 92.9402 4.21256 88.8211 6.37269 84.1554C6.42552 84.0274 6.23044 83.9034 6.15525 84.0314C5.11685 85.7831 4.19833 87.612 3.26966 89.4226C2.23329 91.5705 1.09327 93.6839 0 95.8176V97.0511V97.0491Z" fill="#614730" fill-opacity="0.3"/>
</g>
<g clip-path="url(#clip3_3034_104003)">
<path d="M297.746 7.46578C295.807 7.00951 293.28 9.01862 291.542 12.1818C289.212 9.43654 286.339 7.97956 284.529 8.81924C282.325 9.84296 282.53 13.8918 284.989 17.8602C287.182 21.403 292.669 23.4044 292.669 23.4044C292.669 23.4044 297.648 20.3294 299.093 16.4147C300.714 12.0284 300.11 8.02173 297.746 7.46578Z" fill="#F4EDE3"/>
</g>
<g clip-path="url(#clip4_3034_104003)">
<path d="M69.1442 84.4537C67.5473 84.083 65.466 85.7154 64.0348 88.2855C62.116 86.0549 59.7504 84.8711 58.2598 85.5534C56.4442 86.3852 56.6129 89.6749 58.6379 92.8992C60.4442 95.7777 64.9629 97.4039 64.9629 97.4039C64.9629 97.4039 69.0629 94.9054 70.2535 91.7247C71.5879 88.1609 71.091 84.9054 69.1442 84.4537Z" fill="#F4EDE3"/>
</g>
<g clip-path="url(#clip5_3034_104003)">
<path d="M47.5418 8.44162C46.2871 8.15646 44.6518 9.41215 43.5273 11.3891C42.0197 9.67335 40.161 8.76274 38.9898 9.28754C37.5632 9.92737 37.6958 12.4579 39.2869 14.9381C40.7061 17.1524 44.2565 18.4033 44.2565 18.4033C44.2565 18.4033 47.4779 16.4814 48.4134 14.0347C49.4619 11.2933 49.0715 8.7891 47.5418 8.44162Z" fill="#F4EDE3"/>
</g>
<g clip-path="url(#clip6_3034_104003)">
<path d="M251.057 20.3437L255 21.9004L251.057 23.4571L249.5 27.4004L247.943 23.4571L244 21.9004L247.943 20.3437L249.5 16.4004L251.057 20.3437Z" fill="#FAFAFA"/>
</g>
<g clip-path="url(#clip7_3034_104003)">
<path d="M182.057 93.3437L186 94.9004L182.057 96.4571L180.5 100.4L178.943 96.4571L175 94.9004L178.943 93.3437L180.5 89.4004L182.057 93.3437Z" fill="#FAFAFA"/>
</g>
<g clip-path="url(#clip8_3034_104003)">
<path d="M45.0567 44.3437L49 45.9004L45.0567 47.4571L43.5 51.4004L41.9433 47.4571L38 45.9004L41.9433 44.3437L43.5 40.4004L45.0567 44.3437Z" fill="#FAFAFA"/>
</g>
</g>
<defs>
<clipPath id="clip0_3034_104003">
<rect width="320" height="104" rx="14" fill="white"/>
</clipPath>
<clipPath id="clip1_3034_104003">
<rect width="41.6147" height="60" fill="white" transform="matrix(-1 0 0 1 320 44.4004)"/>
</clipPath>
<clipPath id="clip2_3034_104003">
<rect width="21.8208" height="30" fill="white" transform="translate(0 77.4004)"/>
</clipPath>
<clipPath id="clip3_3034_104003">
<rect width="17" height="16" fill="white" transform="translate(283 7.40039)"/>
</clipPath>
<clipPath id="clip4_3034_104003">
<rect width="14" height="13" fill="white" transform="translate(57 84.4004)"/>
</clipPath>
<clipPath id="clip5_3034_104003">
<rect width="11" height="10" fill="white" transform="translate(38 8.40039)"/>
</clipPath>
<clipPath id="clip6_3034_104003">
<rect width="11" height="11" fill="white" transform="translate(244 16.4004)"/>
</clipPath>
<clipPath id="clip7_3034_104003">
<rect width="11" height="11" fill="white" transform="translate(175 89.4004)"/>
</clipPath>
<clipPath id="clip8_3034_104003">
<rect width="11" height="11" fill="white" transform="translate(38 40.4004)"/>
</clipPath>
</defs>
</svg>
