<svg width="712" height="100" viewBox="0 0 712 100" fill="none" xmlns="http://www.w3.org/2000/svg">
<mask id="mask0_3808_83262" style="mask-type:alpha" maskUnits="userSpaceOnUse" x="0" y="0" width="712" height="100">
<path fill-rule="evenodd" clip-rule="evenodd" d="M712 0H0V99.9999V100H712V0ZM712 100L0 99.9999C0 90.0588 8.05887 81.9999 18 81.9999H694C703.941 81.9999 712 90.0588 712 100Z" fill="#FBECD6"/>
</mask>
<g mask="url(#mask0_3808_83262)">
<path fill-rule="evenodd" clip-rule="evenodd" d="M724.543 194.24H-11.5903V109.577H102.796C102.772 108.325 102.772 107.38 102.802 107.037C103.332 101.439 109.965 103.401 110.332 98.8146C110.326 98.634 110.332 98.4474 110.344 98.2488C110.344 98.4474 110.344 98.634 110.332 98.8146C110.452 102.071 114.142 102.866 116.875 104.677C119.12 99.7296 127.445 99.5008 129.389 95.2933C128.041 95.0706 127.006 93.8486 127.006 92.3859C127.006 90.7607 128.276 89.4425 129.835 89.4425C130.16 89.4425 130.467 89.4966 130.756 89.605C130.684 89.599 130.605 89.5929 130.527 89.5929C129.287 89.5929 128.276 90.6222 128.276 91.8863C128.276 92.8735 128.89 93.7102 129.751 94.0352C129.757 93.9811 129.763 93.9269 129.769 93.8727C129.763 93.65 129.769 93.4213 129.793 93.1805C129.799 93.4213 129.793 93.656 129.769 93.8727C129.769 93.9269 129.769 93.9871 129.781 94.0413C130.015 94.1255 130.268 94.1737 130.533 94.1737C131.514 94.1737 132.351 93.5296 132.658 92.6387C132.544 94.0714 131.442 95.209 130.07 95.3234C131.653 99.2721 139.038 99.6513 141.368 103.985C141.621 103.913 141.886 103.853 142.163 103.811C142.373 100.988 144.432 99.0614 148.17 97.9538C136.739 74.0028 157.47 76.7416 161.214 66.6772C159.047 66.3281 157.386 64.2092 157.386 61.657C157.386 58.858 159.384 56.5827 161.846 56.5827C162.358 56.5827 162.845 56.679 163.303 56.8596C163.182 56.8475 163.062 56.8415 162.941 56.8415C160.979 56.8415 159.39 58.6112 159.39 60.7902C159.39 62.4937 160.359 63.9444 161.72 64.4982C161.726 64.4259 161.732 64.3537 161.738 64.2815C161.72 63.8782 161.738 63.4628 161.774 63.0234C161.786 63.4628 161.774 63.8782 161.738 64.2815C161.738 64.3597 161.744 64.4319 161.75 64.5102C162.123 64.6547 162.52 64.7389 162.935 64.7389C164.488 64.7389 165.807 63.6314 166.288 62.0904C166.108 64.5523 164.374 66.5207 162.207 66.7193C165.879 76.7235 189.379 73.4249 178.104 98.1043C181.559 98.6401 181.288 100.494 181.084 102.89C182.715 101.662 184.539 100.699 184.732 98.2729C184.732 98.0923 184.732 97.9057 184.744 97.707C184.744 97.9057 184.744 98.0923 184.732 98.2729C184.834 101.903 188.807 102.228 190.384 105.087C193.249 102.98 197.3 101.909 197.655 98.2067C197.649 97.9719 197.655 97.7311 197.679 97.4723C197.685 97.7311 197.679 97.9719 197.655 98.2067C197.788 101.969 201.929 102.986 204.89 105.147L205.203 86.7999L207.695 85.6081V76.6392L205.829 75.5196L205.799 70.1925L207.695 69.2053V57.3652H206.702V52.8808L201.941 52.8928C202.32 51.2796 203.157 50.3286 204.505 50.1359C204.596 49.0223 205.48 48.2579 207.094 47.8185C202.982 39.915 208.171 39.1927 211.151 36.1168C212.12 35.1176 212.788 29.014 212.896 27.1901C212.914 28.8454 213.546 34.8768 214.371 35.8219C217.23 39.1205 223.099 39.6442 218.922 48.0352C220.619 48.2759 221.317 49.0344 221.257 50.1781C223.009 50.3466 223.791 51.3639 224.038 52.8447H219.277V57.3652H218.103V69.2053L220.282 70.6259L220.312 75.014L218.103 76.6392V85.6081L220.523 86.6856L220.475 92.4883L219.752 109.583H223.876V100.879H229.702C225.874 89.936 238.442 91.784 239.093 85.1266C239.087 84.8918 239.093 84.651 239.117 84.3922C239.123 84.645 239.117 84.8918 239.093 85.1266C239.297 90.9353 249.067 90.2069 249.277 97.2315C249.97 95.6123 251.661 94.4506 254.267 93.7162C244.119 73.5032 262.526 75.8206 265.849 67.3273C263.928 67.0323 262.448 65.2446 262.448 63.0896C262.448 60.73 264.223 58.8099 266.408 58.8099C266.86 58.8099 267.293 58.8941 267.703 59.0446C267.6 59.0326 267.492 59.0266 267.384 59.0266C265.644 59.0266 264.229 60.5194 264.229 62.3553C264.229 63.7939 265.09 65.0158 266.3 65.4853C266.306 65.4251 266.312 65.365 266.318 65.3048C266.306 64.9677 266.318 64.6125 266.348 64.2453C266.36 64.6125 266.348 64.9677 266.318 65.3048C266.318 65.371 266.318 65.4372 266.33 65.4974C266.661 65.6178 267.016 65.69 267.384 65.69C268.762 65.69 269.93 64.757 270.363 63.4568C270.201 65.5335 268.666 67.1948 266.74 67.3634C267.805 70.1203 270.742 71.6793 273.872 73.2564L273.957 68.2843L276.449 67.0985V58.1297L274.583 57.004L274.553 51.6769L276.449 50.6897V38.8496H275.456V34.3652L270.694 34.3772C271.073 32.764 271.91 31.813 273.259 31.6203C273.349 30.5007 274.234 29.7423 275.847 29.3029C271.736 21.3994 276.924 20.6771 279.904 17.6012C280.873 16.602 281.541 10.4984 281.65 8.67448C281.668 10.3298 282.3 16.3612 283.124 17.3063C285.983 20.6049 291.852 21.1286 287.675 29.5196C289.372 29.7604 290.071 30.5188 290.01 31.6625C291.762 31.831 292.545 32.8483 292.791 34.3291H288.03V38.8496H286.856V50.6897L289.035 52.1103L289.065 56.4984L286.856 58.1297V63.2522C289.619 58.6533 296.794 57.7203 298.654 52.9289C296.957 52.6641 295.651 51.075 295.651 49.1488C295.651 47.042 297.216 45.3325 299.148 45.3325C299.545 45.3325 299.93 45.4047 300.292 45.5432C300.201 45.5311 300.105 45.5311 300.009 45.5311C298.474 45.5311 297.228 46.8614 297.228 48.4987C297.228 49.7808 297.992 50.8763 299.058 51.2917C299.058 51.2435 299.07 51.2014 299.07 51.1532C299.058 50.8402 299.07 50.5212 299.1 50.1841C299.112 50.5212 299.1 50.8462 299.07 51.1532C299.07 51.2014 299.07 51.2495 299.076 51.2977C299.365 51.406 299.684 51.4722 300.009 51.4722C301.225 51.4722 302.26 50.6416 302.639 49.4798C302.495 51.3458 301.122 52.8326 299.401 52.965C301.14 57.931 309.092 58.8821 312.18 63.7337C315.021 61.3139 318.825 59.9475 319.174 55.5654C319.168 55.2765 319.174 54.9815 319.198 54.6685C319.204 54.9815 319.198 55.2765 319.174 55.5654C319.367 62.2951 328.143 61.8436 329.251 69.0789C330.605 68.3927 332.303 67.8871 334.361 67.5801C314.112 25.0773 354.785 31.9213 358.15 12.8339C355.977 12.0032 354.418 9.75195 354.418 7.11547C354.418 3.76869 356.922 1.05396 360.004 1.05396C360.642 1.05396 361.256 1.16832 361.828 1.38502C361.677 1.36696 361.527 1.36094 361.376 1.36094C358.926 1.36094 356.934 3.47374 356.934 6.08013C356.934 7.41041 357.452 8.61429 358.288 9.46904C358.288 9.19215 358.288 8.90924 358.294 8.62031C358.324 8.93332 358.342 9.23429 358.354 9.53525C359.149 10.3178 360.208 10.7933 361.376 10.7933C363.314 10.7933 364.97 9.46904 365.572 7.62711C365.331 10.7331 362.929 13.177 360.004 13.177C359.564 13.177 359.143 13.1228 358.734 13.0205C363.393 31.7588 402.302 25.5889 381.866 66.6591C382.251 66.7675 382.631 66.8818 382.992 67.0022C384.226 59.9716 392.845 60.3508 393.038 53.6813C393.014 53.3984 393.008 53.0975 393.014 52.7845C393.038 53.0975 393.044 53.3924 393.038 53.6813C393.363 57.7444 396.656 59.2192 399.401 61.338C402.771 56.6128 410.94 55.8844 412.776 51.075C410.982 50.9124 409.573 49.2691 409.573 47.2707C409.573 45.1639 411.138 43.4544 413.071 43.4544C413.468 43.4544 413.853 43.5267 414.214 43.6651C414.118 43.6531 414.028 43.6531 413.931 43.6531C412.396 43.6531 411.15 44.9833 411.15 46.6206C411.15 47.9629 411.987 49.1006 413.131 49.4678C413.131 49.3956 413.143 49.3233 413.143 49.2511C413.113 48.9501 413.107 48.6311 413.119 48.3C413.149 48.6311 413.155 48.9441 413.143 49.2511C413.149 49.3293 413.155 49.4076 413.167 49.4798C413.408 49.5521 413.666 49.5942 413.931 49.5942C415.147 49.5942 416.183 48.7635 416.562 47.6018C416.423 49.3835 415.165 50.8161 413.558 51.0629C415.454 55.9506 422.894 56.8295 425.525 61.6811V55.6557L423.316 54.0245L423.346 49.6363L425.525 48.2158V36.3756H424.357V31.8671H419.596C419.848 30.3743 420.631 29.3571 422.376 29.1885C422.316 28.0448 423.015 27.2864 424.712 27.0456C420.535 18.6546 426.397 18.1309 429.263 14.8323C430.081 13.8873 430.719 7.85585 430.737 6.20052C430.84 8.02439 431.514 14.128 432.483 15.1273C435.457 18.2032 440.651 18.9255 436.54 26.8289C438.153 27.2683 439.038 28.0268 439.128 29.1464C440.483 29.339 441.313 30.2901 441.693 31.9032L436.931 31.8912V36.3756H435.938V48.2158L437.834 49.2029L437.804 54.5301L435.938 55.6557V64.6246L438.43 65.8104L438.514 70.7824C441.645 69.2053 444.588 67.6463 445.647 64.8894C443.619 64.7028 442.024 62.8669 442.024 60.6277C442.024 58.2681 443.799 56.3479 445.984 56.3479C446.436 56.3479 446.869 56.4322 447.279 56.5827C447.176 56.5706 447.068 56.5646 446.96 56.5646C445.22 56.5646 443.805 58.0574 443.805 59.8933C443.805 61.3982 444.751 62.6683 446.051 63.0836C446.057 63.0054 446.063 62.9211 446.063 62.8428C446.033 62.5057 446.021 62.1506 446.033 61.7774C446.069 62.1506 446.075 62.4997 446.063 62.8428C446.069 62.9271 446.081 63.0174 446.087 63.1017C446.364 63.1859 446.653 63.2281 446.954 63.2281C448.332 63.2281 449.5 62.2951 449.933 60.9949C449.777 62.9933 448.35 64.6005 446.532 64.8714C449.861 73.3587 468.262 71.0533 458.114 91.2603C460.72 91.9947 462.411 93.1564 463.104 94.7756C463.314 87.751 473.084 88.4794 473.288 82.6707C473.264 82.4359 473.258 82.1951 473.264 81.9363C473.288 82.1891 473.294 82.4359 473.288 82.6707C473.981 89.7976 488.319 87.1792 481.625 100.915H488.933V109.619H489.836C490.612 108.235 491.768 107.194 493.08 106.339L492.496 92.5244L492.448 86.7217L494.868 85.6442V76.6754L492.659 75.0501L492.689 70.662L494.868 69.2414V57.4013H493.694V52.8928H488.933C489.18 51.4 489.968 50.3827 491.714 50.2142C491.66 49.0705 492.352 48.3121 494.049 48.0713C489.872 39.6803 495.735 39.1566 498.6 35.858C499.418 34.9129 500.057 28.8815 500.075 27.2262C500.177 29.0501 500.851 35.1537 501.82 36.1529C504.794 39.2288 509.988 39.9512 505.877 47.8546C507.49 48.294 508.375 49.0585 508.466 50.1721C509.82 50.3647 510.651 51.3157 511.03 52.9289L506.268 52.9169V57.4013H505.275V69.2414L507.171 70.2286L507.141 75.5558L505.275 76.6754V85.6442L507.767 86.8361L508.08 105.183C511.042 103.028 515.177 102.005 515.316 98.2428C515.292 98.008 515.286 97.7672 515.292 97.5084C515.316 97.7612 515.322 98.008 515.316 98.2428C515.677 101.945 519.728 103.016 522.587 105.123C524.17 102.258 528.137 101.939 528.239 98.309C528.227 98.1284 528.221 97.9418 528.227 97.7432C528.245 97.9418 528.245 98.1284 528.239 98.309C528.426 100.735 530.256 101.698 531.887 102.926C531.676 100.524 531.411 98.6702 534.867 98.1404C523.592 73.467 547.092 76.7596 550.764 66.7554C548.476 66.5387 546.683 64.3537 546.683 61.6992C546.683 58.9001 548.681 56.6248 551.143 56.6248C551.655 56.6248 552.142 56.7211 552.6 56.9017C552.479 56.8897 552.359 56.8837 552.238 56.8837C550.282 56.8837 548.687 58.6534 548.687 60.8324C548.687 62.6141 549.752 64.125 551.215 64.6125C551.221 64.5162 551.227 64.4199 551.233 64.3236C551.197 63.9203 551.185 63.505 551.203 63.0656C551.239 63.505 551.251 63.9203 551.233 64.3236C551.239 64.4259 551.251 64.5283 551.263 64.6306C551.576 64.7269 551.901 64.7811 552.238 64.7811C553.792 64.7811 555.11 63.6735 555.591 62.1325C555.417 64.4982 553.81 66.4063 551.763 66.7253C555.513 76.7897 576.238 74.0509 564.807 97.996C568.545 99.1036 570.604 101.03 570.814 103.853C571.085 103.895 571.35 103.955 571.609 104.027C573.938 99.6934 581.33 99.3082 582.907 95.3655C581.457 95.2391 580.319 93.975 580.319 92.4281C580.319 90.8028 581.589 89.4846 583.148 89.4846C583.473 89.4846 583.78 89.5388 584.069 89.6471C583.991 89.6411 583.918 89.6351 583.84 89.6351C582.6 89.6351 581.589 90.6644 581.589 91.9285C581.589 92.9638 582.263 93.8366 583.19 94.1255C583.19 94.0593 583.202 93.9871 583.202 93.9209C583.178 93.6982 583.172 93.4694 583.178 93.2286C583.202 93.4694 583.208 93.6982 583.202 93.9209C583.208 93.9931 583.22 94.0653 583.226 94.1376C583.419 94.1917 583.623 94.2218 583.834 94.2218C584.815 94.2218 585.652 93.5778 585.959 92.6869C585.851 94.0413 584.857 95.1368 583.581 95.3475C585.526 99.555 593.856 99.7837 596.096 104.732C598.828 102.926 602.518 102.131 602.639 98.8688C602.627 98.6882 602.621 98.5016 602.627 98.303C602.645 98.5016 602.645 98.6882 602.639 98.8688C603.006 103.456 609.639 101.493 610.169 107.091C610.199 107.434 610.199 108.379 610.175 109.631H724.561V194.294L724.543 194.24Z" fill="#614730" fill-opacity="0.05"/>
</g>
</svg>
