<svg width="149" height="96" viewBox="0 0 149 96" fill="none" xmlns="http://www.w3.org/2000/svg">
<g clip-path="url(#clip0_3315_64240)">
<path d="M94.5 13.1001C37 19.6001 71 84.1001 -1 95.6001L-9.50013 102.1L163 100.1C134 52.6001 135.764 8.43544 94.5 13.1001Z" fill="#614730" fill-opacity="0.05"/>
<g clip-path="url(#clip1_3315_64240)">
<path d="M48.3241 28.332C48.3763 28.4077 48.4102 28.4938 48.4102 28.5851C48.4102 28.8589 48.1494 29.0807 47.8259 29.0807C47.5024 29.0807 47.2416 28.8589 47.2416 28.5851C47.2416 28.4911 47.2729 28.4051 47.3277 28.332C47.192 28.4625 47.106 28.6451 47.106 28.8511C47.106 29.2476 47.4294 29.5711 47.8259 29.5711C48.2224 29.5711 48.5458 29.2476 48.5458 28.8511C48.5458 28.6477 48.4598 28.4651 48.3241 28.332Z" fill="#DCA95F"/>
<path d="M47.823 31.9033C48.0103 31.9033 48.1621 31.7515 48.1621 31.5642C48.1621 31.3769 48.0103 31.2251 47.823 31.2251C47.6357 31.2251 47.4839 31.3769 47.4839 31.5642C47.4839 31.7515 47.6357 31.9033 47.823 31.9033Z" fill="#DCA95F"/>
<path d="M48.165 29.7537C48.165 29.9415 48.0137 30.0928 47.8259 30.0928C47.6381 30.0928 47.4868 29.9415 47.4868 29.7537C47.4868 29.5658 47.6381 29.4146 47.8259 29.4146C48.0137 29.4146 48.165 29.5658 48.165 29.7537Z" fill="#DCA95F"/>
<path d="M48.165 30.3484C48.165 30.5362 48.0137 30.6875 47.8259 30.6875C47.6381 30.6875 47.4868 30.5362 47.4868 30.3484C47.4868 30.1606 47.6381 30.0093 47.8259 30.0093C48.0137 30.0093 48.165 30.1606 48.165 30.3484Z" fill="#DCA95F"/>
<path d="M47.823 31.3188C48.0103 31.3188 48.1621 31.167 48.1621 30.9797C48.1621 30.7924 48.0103 30.6406 47.823 30.6406C47.6357 30.6406 47.4839 30.7924 47.4839 30.9797C47.4839 31.167 47.6357 31.3188 47.823 31.3188Z" fill="#DCA95F"/>
<path d="M47.8231 34.8584C47.2909 34.8584 46.8579 34.4228 46.8579 33.8933V32.782C46.8579 32.2499 47.2935 31.8169 47.8231 31.8169C48.3552 31.8169 48.7882 32.2525 48.7882 32.782V33.8933C48.7882 34.4254 48.3526 34.8584 47.8231 34.8584Z" fill="#F0C990"/>
<path d="M49.2813 35.4949C49.2813 36.0792 48.6553 36.5514 47.8858 36.5514C47.1163 36.5514 46.4902 36.0792 46.4902 35.4949C46.4902 34.9106 47.1163 34.4385 47.8858 34.4385C48.6553 34.4385 49.2813 34.9106 49.2813 35.4949Z" fill="#DCA95F"/>
<path d="M46.4642 38.6305H49.3048C49.777 38.3253 50.0769 37.874 50.0769 37.368C50.0769 36.4524 49.0961 35.709 47.8832 35.709C46.6702 35.709 45.6895 36.4524 45.6895 37.368C45.6895 37.874 45.9894 38.3253 46.4616 38.6305H46.4642Z" fill="#F0C990"/>
<path d="M49.2549 41.8364H46.7925L45.123 42.246L45.8378 43.1433H47.0872H48.9236H50.0557L50.7731 42.246L49.2549 41.8364Z" fill="#DCA95F"/>
<path d="M50.0558 60.2993H45.8379V43.1433L47.0874 42.8354H48.9237L50.0558 43.1433V60.2993Z" fill="#DCA95F"/>
<path d="M48.9238 42.8354H47.0874V60.2967H48.9238V42.8354Z" fill="#F0C990"/>
<path d="M50.6219 42.0447L49.2263 41.6482H46.8213L45.3579 42.0447V38.5493H50.6219V42.0447Z" fill="#FEEACC"/>
<path d="M49.2549 38.2964H46.7951L45.123 38.7059V42.2457L46.7951 41.8361H49.2549L50.7731 42.2457V38.7059L49.2549 38.2964ZM46.4403 41.4996L45.5143 41.7161V39.9397C45.5143 39.5615 45.723 39.2015 45.976 39.1415C46.229 39.0815 46.4377 39.3424 46.4377 39.7206V41.497L46.4403 41.4996ZM48.7123 41.3979H47.3351V39.6215C47.3351 39.2433 47.6455 38.9329 48.0237 38.9329C48.4019 38.9329 48.7123 39.2433 48.7123 39.6215V41.3979ZM50.5383 41.7161L49.6123 41.4996V39.7232C49.6123 39.345 49.821 39.0842 50.074 39.1441C50.327 39.2041 50.5357 39.5615 50.5357 39.9423V41.7187L50.5383 41.7161Z" fill="#F0C990"/>
<path d="M49.2552 38.2964H46.7954V41.8361H49.2552V38.2964ZM48.7127 41.3979H47.3354V39.6215C47.3354 39.2433 47.6458 38.9329 48.024 38.9329C48.4022 38.9329 48.7127 39.2433 48.7127 39.6215V41.3979Z" fill="#DCA95F"/>
<path d="M49.7116 37.5581H46.4875L43.313 38.8024L45.1233 39.6762V38.9328L46.871 38.505H49.276L50.7733 38.9328V39.6762L52.6984 38.818L49.7116 37.5581Z" fill="#DCA95F"/>
<path d="M67.2769 35.8418C67.3212 35.9044 67.3473 35.9748 67.3473 36.0505C67.3473 36.2774 67.1308 36.46 66.8648 36.46C66.5987 36.46 66.3822 36.2774 66.3822 36.0505C66.3822 35.9722 66.4083 35.9018 66.4526 35.8418C66.3404 35.9487 66.27 36.1 66.27 36.2696C66.27 36.5983 66.5361 36.8643 66.8648 36.8643C67.1934 36.8643 67.4595 36.5983 67.4595 36.2696C67.4595 36.1 67.3891 35.9487 67.2769 35.8418Z" fill="#DCA95F"/>
<path d="M67.1464 38.5127C67.1464 38.6666 67.0212 38.7944 66.8647 38.7944C66.7082 38.7944 66.583 38.6692 66.583 38.5127C66.583 38.3562 66.7082 38.231 66.8647 38.231C67.0212 38.231 67.1464 38.3562 67.1464 38.5127Z" fill="#DCA95F"/>
<path d="M67.1464 37.0156C67.1464 37.1695 67.0212 37.2973 66.8647 37.2973C66.7082 37.2973 66.583 37.1721 66.583 37.0156C66.583 36.8591 66.7082 36.7339 66.8647 36.7339C67.0212 36.7339 67.1464 36.8591 67.1464 37.0156Z" fill="#DCA95F"/>
<path d="M67.1464 37.5058C67.1464 37.6597 67.0212 37.7876 66.8647 37.7876C66.7082 37.7876 66.583 37.6623 66.583 37.5058C66.583 37.3493 66.7082 37.2241 66.8647 37.2241C67.0212 37.2241 67.1464 37.3493 67.1464 37.5058Z" fill="#DCA95F"/>
<path d="M67.1464 38.0278C67.1464 38.1817 67.0212 38.3095 66.8647 38.3095C66.7082 38.3095 66.583 38.1843 66.583 38.0278C66.583 37.8713 66.7082 37.7461 66.8647 37.7461C67.0212 37.7461 67.1464 37.8713 67.1464 38.0278Z" fill="#DCA95F"/>
<path d="M66.8646 41.2333C66.4264 41.2333 66.0664 40.8734 66.0664 40.4351V39.5169C66.0664 39.0787 66.4264 38.7188 66.8646 38.7188C67.3028 38.7188 67.6628 39.0787 67.6628 39.5169V40.4351C67.6628 40.8734 67.3028 41.2333 66.8646 41.2333Z" fill="#F0C990"/>
<path d="M68.0671 41.758C68.0671 42.2405 67.5507 42.6292 66.9142 42.6292C66.2777 42.6292 65.7612 42.2379 65.7612 41.758C65.7612 41.278 66.2777 40.8867 66.9142 40.8867C67.5507 40.8867 68.0671 41.278 68.0671 41.758Z" fill="#DCA95F"/>
<path d="M65.7405 44.3479H68.0881C68.4768 44.0975 68.7246 43.7245 68.7246 43.3045C68.7246 42.5481 67.9134 41.9351 66.9143 41.9351C65.9152 41.9351 65.104 42.5481 65.104 43.3045C65.104 43.7219 65.3518 44.0949 65.7405 44.3479Z" fill="#F0C990"/>
<path d="M68.0464 46.9956H66.0117L64.6318 47.3347L65.224 48.0755H66.2543H67.7725H68.7089L69.301 47.3347L68.0464 46.9956Z" fill="#DCA95F"/>
<path d="M68.7091 62.2446H65.2241V48.0753L66.2545 47.8223H67.7726L68.7091 48.0753V62.2446Z" fill="#DCA95F"/>
<path d="M67.7725 47.8223H66.2544V62.2473H67.7725V47.8223Z" fill="#F0C990"/>
<path d="M69.176 47.1705L68.023 46.8392H66.038L64.8276 47.1705V44.2803H69.176V47.1705Z" fill="#FEEACC"/>
<path d="M68.0462 44.0718H66.0142L64.6343 44.4109V47.335L66.0142 46.9959H68.0462L69.3009 47.335V44.4109L68.0462 44.0718ZM65.722 46.7168L64.9577 46.8968V45.4282C64.9577 45.1152 65.1299 44.8178 65.3386 44.7682C65.5499 44.7187 65.7194 44.9352 65.7194 45.2482V46.7168H65.722ZM67.6001 46.6333H66.4628V45.1647C66.4628 44.8517 66.7185 44.5961 67.0315 44.5961C67.3445 44.5961 67.6001 44.8517 67.6001 45.1647V46.6333ZM69.1078 46.8968L68.3436 46.7168V45.2482C68.3436 44.9352 68.5157 44.7187 68.7244 44.7682C68.9357 44.8178 69.1052 45.1152 69.1052 45.4282V46.8968H69.1078Z" fill="#F0C990"/>
<path d="M68.0462 44.0718H66.0142V46.9959H68.0462V44.0718ZM67.5975 46.6333H66.4602V45.1647C66.4602 44.8517 66.7158 44.5961 67.0289 44.5961C67.3419 44.5961 67.5975 44.8517 67.5975 45.1647V46.6333Z" fill="#DCA95F"/>
<path d="M68.422 43.4614H65.7587L63.1372 44.4918L64.6319 45.2117V44.5987L66.077 44.244H68.0647L69.3011 44.5987V45.2117L70.8897 44.5022L68.422 43.4614Z" fill="#DCA95F"/>
<path d="M125.567 16.1997C125.496 16.3014 125.452 16.4188 125.452 16.544C125.452 16.917 125.807 17.217 126.245 17.217C126.683 17.217 127.038 16.9144 127.038 16.544C127.038 16.4162 126.993 16.2988 126.923 16.1997C127.108 16.3771 127.223 16.6249 127.223 16.904C127.223 17.444 126.785 17.8822 126.245 17.8822C125.705 17.8822 125.267 17.444 125.267 16.904C125.267 16.6275 125.381 16.3797 125.567 16.1997Z" fill="#DCA95F"/>
<path d="M126.245 21.0518C126.5 21.0518 126.707 20.8451 126.707 20.5901C126.707 20.3351 126.5 20.1284 126.245 20.1284C125.99 20.1284 125.783 20.3351 125.783 20.5901C125.783 20.8451 125.99 21.0518 126.245 21.0518Z" fill="#DCA95F"/>
<path d="M126.245 18.5919C126.5 18.5919 126.707 18.3852 126.707 18.1302C126.707 17.8752 126.5 17.6685 126.245 17.6685C125.99 17.6685 125.783 17.8752 125.783 18.1302C125.783 18.3852 125.99 18.5919 126.245 18.5919Z" fill="#DCA95F"/>
<path d="M125.783 18.9388C125.783 19.1944 125.989 19.4005 126.245 19.4005C126.501 19.4005 126.707 19.1944 126.707 18.9388C126.707 18.6831 126.501 18.4771 126.245 18.4771C125.989 18.4771 125.783 18.6831 125.783 18.9388Z" fill="#DCA95F"/>
<path d="M126.245 20.2559C126.5 20.2559 126.707 20.0492 126.707 19.7942C126.707 19.5392 126.5 19.3325 126.245 19.3325C125.99 19.3325 125.783 19.5392 125.783 19.7942C125.783 20.0492 125.99 20.2559 126.245 20.2559Z" fill="#DCA95F"/>
<path d="M126.245 25.0632C126.967 25.0632 127.557 24.4737 127.557 23.7511V22.2408C127.557 21.5182 126.967 20.9287 126.245 20.9287C125.522 20.9287 124.933 21.5182 124.933 22.2408V23.7511C124.933 24.4737 125.522 25.0632 126.245 25.0632Z" fill="#F0C990"/>
<path d="M126.164 27.3591C127.211 27.3591 128.06 26.7168 128.06 25.9244C128.06 25.1321 127.211 24.4897 126.164 24.4897C125.117 24.4897 124.268 25.1321 124.268 25.9244C124.268 26.7168 125.117 27.3591 126.164 27.3591Z" fill="#DCA95F"/>
<path d="M128.092 30.1812H124.234C123.592 29.7691 123.185 29.1535 123.185 28.4674C123.185 27.2232 124.518 26.2163 126.161 26.2163C127.805 26.2163 129.138 27.2232 129.138 28.4674C129.138 29.1535 128.731 29.7665 128.089 30.1812H128.092Z" fill="#F0C990"/>
<path d="M124.304 34.5347H127.643L129.912 35.0929L128.939 36.3084H127.246H124.753H123.214L122.241 35.0929L124.304 34.5347Z" fill="#DCA95F"/>
<path d="M123.214 59.5996H128.94V36.3083L127.247 35.8936H124.753L123.214 36.3083V59.5996Z" fill="#DCA95F"/>
<path d="M124.753 59.5996H127.247V35.891H124.753V59.5996Z" fill="#F0C990"/>
<path d="M122.447 34.8192L124.341 34.2793H127.604L129.591 34.8192V30.0718H122.447V34.8192Z" fill="#FEEACC"/>
<path d="M122.241 30.2856V35.0904L124.304 34.5322H127.646L129.915 35.0904V30.2856L127.646 29.73H124.304L122.241 30.2856ZM128.125 31.6655C128.125 31.1516 128.407 30.7969 128.754 30.8777C129.098 30.9586 129.383 31.4464 129.383 31.9602V34.3731L128.128 34.0783V31.6655H128.125ZM125.04 31.5272C125.04 31.0134 125.46 30.5908 125.976 30.5908C126.493 30.5908 126.913 31.0108 126.913 31.5272V33.9401H125.042V31.5272H125.04ZM122.562 31.9602C122.562 31.4464 122.843 30.9586 123.19 30.8777C123.537 30.7969 123.819 31.1516 123.819 31.6655V34.0783L122.564 34.3731V31.9602H122.562Z" fill="#F0C990"/>
<path d="M124.304 34.5348H127.646V29.73H124.304V34.5348ZM125.04 31.5272C125.04 31.0134 125.46 30.5908 125.976 30.5908C126.493 30.5908 126.913 31.0108 126.913 31.5272V33.9401H125.042V31.5272H125.04Z" fill="#DCA95F"/>
<path d="M123.683 28.7256H128.06L132.372 30.4159L129.912 31.6028V30.5933L127.541 30.0116H124.273L122.241 30.5933V31.6028L119.627 30.4368L123.683 28.7256Z" fill="#DCA95F"/>
<path d="M105.351 26.3965C105.291 26.48 105.257 26.5765 105.257 26.6808C105.257 26.9886 105.549 27.2364 105.912 27.2364C106.274 27.2364 106.566 26.9886 106.566 26.6808C106.566 26.5765 106.53 26.48 106.472 26.3965C106.624 26.5426 106.72 26.7486 106.72 26.9782C106.72 27.4242 106.358 27.7868 105.912 27.7868C105.466 27.7868 105.103 27.4242 105.103 26.9782C105.103 26.7486 105.2 26.5452 105.351 26.3965Z" fill="#DCA95F"/>
<path d="M105.528 30.0224C105.528 30.2337 105.698 30.4033 105.909 30.4033C106.12 30.4033 106.29 30.2337 106.29 30.0224C106.29 29.8112 106.12 29.6416 105.909 29.6416C105.698 29.6416 105.528 29.8112 105.528 30.0224Z" fill="#DCA95F"/>
<path d="M105.528 27.9902C105.528 28.2015 105.698 28.3711 105.909 28.3711C106.12 28.3711 106.29 28.2015 106.29 27.9902C106.29 27.7789 106.12 27.6094 105.909 27.6094C105.698 27.6094 105.528 27.7789 105.528 27.9902Z" fill="#DCA95F"/>
<path d="M105.528 28.6582C105.528 28.8695 105.698 29.039 105.909 29.039C106.12 29.039 106.29 28.8695 106.29 28.6582C106.29 28.4469 106.12 28.2773 105.909 28.2773C105.698 28.2773 105.528 28.4469 105.528 28.6582Z" fill="#DCA95F"/>
<path d="M105.528 29.3647C105.528 29.576 105.698 29.7456 105.909 29.7456C106.12 29.7456 106.29 29.576 106.29 29.3647C106.29 29.1534 106.12 28.9839 105.909 28.9839C105.698 28.9839 105.528 29.1534 105.528 29.3647Z" fill="#DCA95F"/>
<path d="M105.912 33.7161C106.506 33.7161 106.994 33.2283 106.994 32.6336V31.3867C106.994 30.792 106.506 30.3042 105.912 30.3042C105.317 30.3042 104.829 30.792 104.829 31.3867V32.6336C104.829 33.2283 105.317 33.7161 105.912 33.7161Z" fill="#F0C990"/>
<path d="M104.279 34.4279C104.279 35.0826 104.98 35.6122 105.844 35.6122C106.707 35.6122 107.409 35.0826 107.409 34.4279C107.409 33.7732 106.707 33.2437 105.844 33.2437C104.98 33.2437 104.279 33.7732 104.279 34.4279Z" fill="#DCA95F"/>
<path d="M107.438 37.9442H104.253C103.723 37.6025 103.387 37.0965 103.387 36.5278C103.387 35.5001 104.488 34.668 105.847 34.668C107.206 34.668 108.306 35.5001 108.306 36.5278C108.306 37.0939 107.97 37.6025 107.44 37.9442H107.438Z" fill="#F0C990"/>
<path d="M104.307 41.5415H107.067L108.94 42.0006L108.137 43.0049H106.738H104.678H103.407L102.604 42.0006L104.307 41.5415Z" fill="#DCA95F"/>
<path d="M103.407 62.2451H108.136V43.0048L106.738 42.6631H104.678L103.407 43.0048V62.2451Z" fill="#DCA95F"/>
<path d="M104.678 62.2451H106.738V42.6605H104.678V62.2451Z" fill="#F0C990"/>
<path d="M102.774 41.776L104.339 41.33H107.036L108.677 41.776V37.8555H102.774V41.776Z" fill="#FEEACC"/>
<path d="M102.604 38.0304V42.0005L104.307 41.5414H107.067L108.94 42.0005V38.0304L107.067 37.5713H104.307L102.604 38.0304ZM107.464 39.1703C107.464 38.7451 107.696 38.453 107.983 38.5208C108.267 38.5886 108.502 38.9903 108.502 39.4155V41.4084L107.464 41.1658V39.1729V39.1703ZM104.915 39.0555C104.915 38.6303 105.262 38.2834 105.687 38.2834C106.112 38.2834 106.459 38.6303 106.459 39.0555V41.0484H104.915V39.0555ZM102.867 39.4129C102.867 38.9877 103.1 38.586 103.387 38.5182C103.671 38.4504 103.906 38.7451 103.906 39.1677V41.1606L102.867 41.4032V39.4103V39.4129Z" fill="#F0C990"/>
<path d="M104.308 41.5414H107.067V37.5713H104.308V41.5414ZM104.915 39.0581C104.915 38.6329 105.262 38.286 105.688 38.286C106.113 38.286 106.46 38.6329 106.46 39.0581V41.051H104.915V39.0581Z" fill="#DCA95F"/>
<path d="M103.796 36.7446H107.412L110.972 38.1402L108.94 39.1184V38.2836L106.981 37.8037H104.281L102.604 38.2836V39.1184L100.444 38.1558L103.796 36.7446Z" fill="#DCA95F"/>
<path d="M85.4503 40.4355C85.4138 40.4877 85.3929 40.5451 85.3929 40.6077C85.3929 40.7955 85.5703 40.9468 85.792 40.9468C86.0137 40.9468 86.1911 40.7955 86.1911 40.6077C86.1911 40.5451 86.1702 40.4851 86.1337 40.4355C86.2276 40.5242 86.285 40.6494 86.285 40.7877C86.285 41.059 86.0659 41.2781 85.7946 41.2781C85.5233 41.2781 85.3042 41.059 85.3042 40.7877C85.3042 40.6494 85.3616 40.5242 85.4555 40.4355H85.4503Z" fill="#CE8D52"/>
<path d="M85.7893 42.8745C85.9175 42.8745 86.0214 42.7705 86.0214 42.6423C86.0214 42.5141 85.9175 42.4102 85.7893 42.4102C85.6611 42.4102 85.5571 42.5141 85.5571 42.6423C85.5571 42.7705 85.6611 42.8745 85.7893 42.8745Z" fill="#DCA95F"/>
<path d="M85.5601 41.406C85.5601 41.5338 85.6644 41.6381 85.7922 41.6381C85.92 41.6381 86.0244 41.5338 86.0244 41.406C86.0244 41.2782 85.92 41.1738 85.7922 41.1738C85.6644 41.1738 85.5601 41.2782 85.5601 41.406Z" fill="#DCA95F"/>
<path d="M85.5601 41.8103C85.5601 41.9381 85.6644 42.0424 85.7922 42.0424C85.92 42.0424 86.0244 41.9381 86.0244 41.8103C86.0244 41.6825 85.92 41.5781 85.7922 41.5781C85.6644 41.5781 85.5601 41.6825 85.5601 41.8103Z" fill="#DCA95F"/>
<path d="M85.5601 42.2405C85.5601 42.3683 85.6644 42.4726 85.7922 42.4726C85.92 42.4726 86.0244 42.3683 86.0244 42.2405C86.0244 42.1126 85.92 42.0083 85.7922 42.0083C85.6644 42.0083 85.5601 42.1126 85.5601 42.2405Z" fill="#DCA95F"/>
<path d="M85.7893 44.8881C86.1519 44.8881 86.4493 44.5907 86.4493 44.2281V43.469C86.4493 43.1065 86.1519 42.8091 85.7893 42.8091C85.4268 42.8091 85.1294 43.1065 85.1294 43.469V44.2281C85.1294 44.5907 85.4268 44.8881 85.7893 44.8881Z" fill="#F0C990"/>
<path d="M85.7504 46.041C86.2763 46.041 86.7025 45.7186 86.7025 45.321C86.7025 44.9234 86.2763 44.6011 85.7504 44.6011C85.2246 44.6011 84.7983 44.9234 84.7983 45.321C84.7983 45.7186 85.2246 46.041 85.7504 46.041Z" fill="#DCA95F"/>
<path d="M86.718 47.4602H84.7799C84.459 47.2515 84.2529 46.9437 84.2529 46.5994C84.2529 45.9733 84.9233 45.4673 85.7502 45.4673C86.5771 45.4673 87.2475 45.9733 87.2475 46.5994C87.2475 46.9437 87.0414 47.2541 86.7206 47.4602H86.718Z" fill="#F0C990"/>
<path d="M84.8139 49.6489H86.4938L87.6337 49.928L87.1459 50.541H86.2955H85.0408H84.2661L83.7783 49.928L84.8139 49.6489Z" fill="#CE8D52"/>
<path d="M84.2661 65.2922H87.1459V50.5412L86.2955 50.3325H85.0408L84.2661 50.5412V65.2922Z" fill="#DCA95F"/>
<path d="M85.0433 65.292H86.2954V50.3323H85.0433V65.292Z" fill="#F0C990"/>
<path d="M83.8828 49.792L84.8349 49.5208H86.4757L87.4721 49.792V47.4053H83.8828V49.792Z" fill="#FEEACC"/>
<path d="M83.7783 47.5149V49.9304L84.8139 49.6513H86.4938L87.6337 49.9304V47.5149L86.4938 47.2358H84.8139L83.7783 47.5149ZM86.7364 48.2088C86.7364 47.9506 86.8772 47.7732 87.052 47.8123C87.2268 47.8541 87.3676 48.0993 87.3676 48.3575V49.5704L86.7364 49.4218V48.2088ZM85.1843 48.141C85.1843 47.8827 85.3956 47.6715 85.6538 47.6715C85.9121 47.6715 86.1234 47.8827 86.1234 48.141V49.3539H85.1843V48.141ZM83.9374 48.3575C83.9374 48.0993 84.0783 47.8541 84.2531 47.8123C84.4278 47.7706 84.5687 47.9506 84.5687 48.2088V49.4218L83.9374 49.5704V48.3575Z" fill="#F0C990"/>
<path d="M84.814 49.6489H86.4938V47.2334H84.814V49.6489ZM85.1844 48.1385C85.1844 47.8803 85.3957 47.669 85.6539 47.669C85.9121 47.669 86.1234 47.8803 86.1234 48.1385V49.3515H85.1844V48.1385Z" fill="#DCA95F"/>
<path d="M84.5035 46.73H86.7025L88.8702 47.5804L87.6337 48.1751V47.669L86.4417 47.3769H84.8009L83.7784 47.669V48.1751L82.4663 47.5908L84.5035 46.73Z" fill="#CE8D52"/>
<path d="M85.6668 64.032L15 54.8345V96.2L85.6668 87.7068V64.032Z" fill="url(#paint0_linear_3315_64240)"/>
<path d="M39.5933 80.4711C39.5933 80.0459 39.8437 79.6573 40.3471 79.5007C40.1802 78.6582 40.2219 77.8991 41.6018 77.4348C41.6435 75.6871 43.1721 75.228 43.1721 75.228C43.1721 75.228 44.7007 75.6871 44.7424 77.3879C46.1249 77.8 46.1667 78.5095 45.9971 79.3208C46.5006 79.4408 46.751 79.7877 46.751 80.1894C46.751 82.2605 46.751 84.3291 46.751 86.4002L39.5933 86.888V80.4685V80.4711Z" fill="#F0C990"/>
<path d="M39.5933 80.4711C39.5933 80.0459 39.8437 79.6573 40.3471 79.5007C40.1802 78.6582 40.2219 77.8991 41.6018 77.4348C41.6435 75.6871 43.1721 75.228 43.1721 75.228C43.1721 75.228 44.7007 75.6871 44.7424 77.3879C46.1249 77.8 46.1667 78.5095 45.9971 79.3208C46.5006 79.4408 46.751 79.7877 46.751 80.1894C46.751 82.2605 46.751 84.3291 46.751 86.4002L39.5933 86.888V80.4685V80.4711Z" fill="#DCA95F"/>
<path d="M50.5254 80.2913C50.5254 79.9026 50.7549 79.5479 51.214 79.4044C51.0601 78.6375 51.0993 77.9411 52.3592 77.5211C52.3983 75.9273 53.7912 75.5073 53.7912 75.5073C53.7912 75.5073 55.1868 75.9273 55.2233 77.4793C56.4832 77.855 56.5223 78.5019 56.3684 79.2453C56.8275 79.3549 57.0571 79.6705 57.0571 80.0383C57.0571 81.4834 57.0571 84.1258 57.0571 85.7013L50.5254 86.1448C50.5254 84.4571 50.5254 81.7755 50.5254 80.2913Z" fill="#DCA95F"/>
<path d="M60.4507 80.111C60.4507 79.7589 60.6568 79.4406 61.0715 79.3102C60.9333 78.6164 60.9672 77.9877 62.1071 77.6069C62.141 76.1644 63.4035 75.7861 63.4035 75.7861C63.4035 75.7861 64.6634 76.167 64.6999 77.5703C65.8398 77.9095 65.8737 78.4964 65.7355 79.1667C66.1502 79.2659 66.3563 79.5528 66.3563 79.8841C66.3563 80.7266 66.3563 83.8986 66.3563 85.0698L60.4507 85.4715C60.4507 84.1281 60.4507 80.9744 60.4507 80.1136V80.111Z" fill="#DCA95F"/>
<path d="M68.8423 79.9337C68.8423 79.618 69.0275 79.3337 69.3979 79.2189C69.2753 78.5981 69.304 78.0373 70.3239 77.6956C70.3552 76.407 71.4821 76.0679 71.4821 76.0679C71.4821 76.0679 72.609 76.407 72.6403 77.6617C73.6602 77.9642 73.6915 78.4886 73.5663 79.0885C73.9367 79.1772 74.1219 79.4328 74.1219 79.7302C74.1219 79.9989 74.1219 83.8595 74.1219 84.5429L68.8423 84.9029C68.8423 83.896 68.8423 80.2076 68.8423 79.9363V79.9337Z" fill="#DCA95F"/>
<path d="M45.8457 80.1918C45.8457 79.7901 45.5953 79.4432 45.0918 79.3232C45.2588 78.5094 45.217 77.7998 43.8371 77.3903C43.8111 76.3026 43.1746 75.7235 42.7207 75.447C42.9737 75.2905 43.172 75.2305 43.172 75.2305C43.172 75.2305 44.7006 75.6896 44.7423 77.3903C46.1248 77.8024 46.1665 78.512 45.997 79.3232C46.5004 79.4432 46.7508 79.7901 46.7508 80.1918C46.7508 82.263 46.7508 84.3315 46.7508 86.4027L45.8457 86.4653V80.1944V80.1918Z" fill="#B57439"/>
<path d="M56.2981 80.0378C56.2981 79.6726 56.0685 79.3544 55.6094 79.2448C55.7633 78.504 55.7242 77.8545 54.4643 77.4789C54.4382 76.4589 53.8278 75.9294 53.4131 75.6842C53.627 75.5564 53.7913 75.5068 53.7913 75.5068C53.7913 75.5068 55.1869 75.9268 55.2234 77.4789C56.4833 77.8545 56.5224 78.5014 56.3685 79.2448C56.8276 79.3544 57.0572 79.67 57.0572 80.0378C57.0572 81.4829 57.0572 84.1253 57.0572 85.7008L56.2981 85.753V80.0378Z" fill="#B57439"/>
<path d="M65.7588 79.8816C65.7588 79.5504 65.5527 79.2634 65.138 79.1643C65.2762 78.4939 65.2423 77.907 64.1024 77.5679C64.0789 76.608 63.4816 76.128 63.106 75.9193C63.2781 75.8228 63.4033 75.7837 63.4033 75.7837C63.4033 75.7837 64.6632 76.1645 64.6997 77.5679C65.8397 77.907 65.8736 78.4939 65.7353 79.1643C66.1501 79.2634 66.3561 79.5504 66.3561 79.8816C66.3561 80.7242 66.3561 83.8961 66.3561 85.0673L65.7588 85.1091V79.8816Z" fill="#B57439"/>
<path d="M73.6288 79.7278C73.6288 79.433 73.4436 79.1748 73.0732 79.0861C73.1958 78.4861 73.1671 77.9618 72.1472 77.6592C72.1263 76.7854 71.5707 76.355 71.2368 76.175C71.3803 76.0967 71.4846 76.0654 71.4846 76.0654C71.4846 76.0654 72.6115 76.4045 72.6428 77.6592C73.6627 77.9618 73.694 78.4861 73.5688 79.0861C73.9392 79.1748 74.1244 79.4304 74.1244 79.7278C74.1244 79.9964 74.1244 83.857 74.1244 84.5404L73.6288 84.5743C73.6288 83.5153 73.6288 79.9782 73.6288 79.7278Z" fill="#B57439"/>
<path d="M39.5933 66.3379C39.5933 65.9127 39.8437 65.5423 40.3471 65.4197C40.1802 64.5667 40.2219 63.8076 41.6018 63.4424C41.6435 61.6974 43.1721 61.3452 43.1721 61.3452C43.1721 61.3452 44.7007 61.9139 44.7424 63.6172C46.1249 64.1259 46.1667 64.838 45.9971 65.6388C46.5006 65.7927 46.751 66.1579 46.751 66.5596C46.751 68.6307 46.751 70.6993 46.751 72.7704L39.5933 72.7548V66.3353V66.3379Z" fill="#DCA95F"/>
<path d="M39.5933 66.3379C39.5933 65.9127 39.8437 65.5423 40.3471 65.4197C40.1802 64.5667 40.2219 63.8076 41.6018 63.4424C41.6435 61.6974 43.1721 61.3452 43.1721 61.3452C43.1721 61.3452 44.7007 61.9139 44.7424 63.6172C46.1249 64.1259 46.1667 64.838 45.9971 65.6388C46.5006 65.7927 46.751 66.1579 46.751 66.5596C46.751 68.6307 46.751 70.6993 46.751 72.7704L39.5933 72.7548V66.3353V66.3379Z" fill="#F0C990"/>
<path d="M50.5254 66.9246C50.5254 66.5359 50.7549 66.1994 51.214 66.0872C51.0601 65.3073 51.0993 64.616 52.3592 64.2821C52.3983 62.691 53.7912 62.3701 53.7912 62.3701C53.7912 62.3701 55.1868 62.8892 55.2233 64.4439C56.4832 64.9082 56.5223 65.5577 56.3684 66.2881C56.8275 66.4289 57.0571 66.7628 57.0571 67.128C57.0571 68.5731 57.0571 71.2155 57.0571 72.7911L50.5254 72.778C50.5254 71.0903 50.5254 68.4088 50.5254 66.9246Z" fill="#F0C990"/>
<path d="M60.4507 67.4438C60.4507 67.0917 60.6568 66.7865 61.0715 66.6874C60.9333 65.9831 60.9672 65.357 62.1071 65.0571C62.141 63.6172 63.4035 63.3276 63.4035 63.3276C63.4035 63.3276 64.6634 63.7972 64.6999 65.2005C65.8398 65.6205 65.8737 66.2074 65.7355 66.87C66.1502 66.9978 66.3563 67.2978 66.3563 67.629C66.3563 68.4716 66.3563 71.6435 66.3563 72.8147L60.4507 72.8017C60.4507 71.4583 60.4507 68.3046 60.4507 67.4438Z" fill="#F0C990"/>
<path d="M68.8423 67.8534C68.8423 67.5404 69.0275 67.2665 69.3979 67.1778C69.2753 66.5492 69.304 65.9884 70.3239 65.7197C70.3552 64.4337 71.4821 64.1729 71.4821 64.1729C71.4821 64.1729 72.609 64.5902 72.6403 65.8475C73.6602 66.2231 73.6915 66.7474 73.5663 67.3396C73.9367 67.4543 74.1219 67.723 74.1219 68.0178C74.1219 68.2864 74.1219 72.147 74.1219 72.8305L68.8423 72.82C68.8423 71.8131 68.8423 68.1247 68.8423 67.8534Z" fill="#F0C990"/>
<path d="M45.8457 66.4968C45.8457 66.0951 45.5953 65.7299 45.0918 65.576C45.2588 64.7752 45.217 64.0605 43.8371 63.5544C43.8111 62.4641 43.1746 61.8407 42.7207 61.5329C42.9737 61.3946 43.172 61.3477 43.172 61.3477C43.172 61.3477 44.7006 61.9163 44.7423 63.6197C46.1248 64.1283 46.1665 64.8404 45.997 65.6412C46.5004 65.7951 46.7508 66.1603 46.7508 66.562C46.7508 68.6332 46.7508 70.7017 46.7508 72.7729H45.8457V66.4994V66.4968Z" fill="#DCA95F"/>
<path d="M27.9956 65.8266C27.9956 65.4015 28.246 65.0311 28.7495 64.9085C28.5825 64.0555 28.6243 63.2964 30.0041 62.9312C30.0459 61.1861 31.5745 60.834 31.5745 60.834C31.5745 60.834 33.103 61.4026 33.1448 63.106C34.5273 63.6146 34.569 64.3268 34.3995 65.1276C34.9029 65.2815 35.1533 65.6467 35.1533 66.0484V72.7783L27.9956 72.7626V65.824V65.8266Z" fill="#DCA95F"/>
<path d="M27.9956 65.8266C27.9956 65.4015 28.246 65.0311 28.7495 64.9085C28.5825 64.0555 28.6243 63.2964 30.0041 62.9312C30.0459 61.1861 31.5745 60.834 31.5745 60.834C31.5745 60.834 33.103 61.4026 33.1448 63.106C34.5273 63.6146 34.569 64.3268 34.3995 65.1276C34.9029 65.2815 35.1533 65.6467 35.1533 66.0484V72.7783L27.9956 72.7626V65.824V65.8266Z" fill="#F0C990"/>
<path d="M34.251 65.9856C34.251 65.5839 34.0005 65.2187 33.4971 65.0648C33.664 64.264 33.6223 63.5493 32.2424 63.0432C32.2163 61.9529 31.5799 61.3294 31.126 61.0216C31.379 60.8834 31.5772 60.8364 31.5772 60.8364C31.5772 60.8364 33.1058 61.4051 33.1476 63.1084C34.5301 63.6171 34.5718 64.3292 34.4022 65.13C34.9057 65.2839 35.1561 65.6491 35.1561 66.0508V72.7807H34.251V65.9882V65.9856Z" fill="#DCA95F"/>
<path d="M27.9956 80.0766C27.9956 79.6515 28.246 79.2811 28.7495 79.1585C28.5825 78.3055 28.6243 77.5464 30.0041 77.1812C30.0459 75.4361 31.5745 75.084 31.5745 75.084C31.5745 75.084 33.103 75.6526 33.1448 77.356C34.5273 77.8646 34.569 78.5768 34.3995 79.3776C34.9029 79.5315 35.1533 79.8967 35.1533 80.2984V87.0283L27.9956 87.0126V80.074V80.0766Z" fill="#DCA95F"/>
<path d="M27.9956 80.0766C27.9956 79.6515 28.246 79.2811 28.7495 79.1585C28.5825 78.3055 28.6243 77.5464 30.0041 77.1812C30.0459 75.4361 31.5745 75.084 31.5745 75.084C31.5745 75.084 33.103 75.6526 33.1448 77.356C34.5273 77.8646 34.569 78.5768 34.3995 79.3776C34.9029 79.5315 35.1533 79.8967 35.1533 80.2984V87.0283L27.9956 87.4013V80.0766Z" fill="#F0C990"/>
<path d="M34.251 80.2385C34.251 79.8368 34.0005 79.4716 33.4971 79.3177C33.664 78.5169 33.6223 77.8022 32.2424 77.2961C32.2163 76.2058 31.5799 75.5824 31.126 75.2746C31.379 75.1363 31.5772 75.0894 31.5772 75.0894C31.5772 75.0894 33.1058 75.658 33.1476 77.3614C34.5301 77.87 34.5718 78.5821 34.4022 79.3829C34.9057 79.5368 35.1561 79.902 35.1561 80.3037V87.0337H34.251V80.2411V80.2385Z" fill="#DCA95F"/>
<path d="M56.2976 67.0762C56.2976 66.711 56.068 66.3771 55.609 66.2362C55.7629 65.5059 55.7237 64.8537 54.4638 64.392C54.4377 63.3695 53.8273 62.7982 53.4126 62.5243C53.6265 62.4122 53.7908 62.373 53.7908 62.373C53.7908 62.373 55.1864 62.8921 55.2229 64.4468C56.4828 64.9111 56.5219 65.5606 56.368 66.291C56.8271 66.4319 57.0567 66.7658 57.0567 67.1309C57.0567 68.5761 57.0567 71.2185 57.0567 72.794H56.2976V67.0762Z" fill="#DCA95F"/>
<path d="M65.7588 67.5846C65.7588 67.2533 65.5527 66.9507 65.138 66.8255C65.2762 66.1655 65.2423 65.576 64.1024 65.156C64.0789 64.1961 63.4816 63.6718 63.106 63.437C63.2781 63.3536 63.4033 63.3223 63.4033 63.3223C63.4033 63.3223 64.6632 63.7918 64.6997 65.1952C65.8397 65.6151 65.8736 66.202 65.7353 66.8646C66.1501 66.9924 66.3561 67.2924 66.3561 67.6237C66.3561 68.4662 66.3561 71.6382 66.3561 72.8094H65.7588V67.5819V67.5846Z" fill="#DCA95F"/>
<path d="M73.6288 67.9839C73.6288 67.6891 73.4436 67.4178 73.0732 67.3057C73.1958 66.7135 73.1671 66.1892 72.1472 65.8136C72.1263 64.9371 71.5707 64.4702 71.2368 64.2668C71.3803 64.1989 71.4846 64.1729 71.4846 64.1729C71.4846 64.1729 72.6115 64.5902 72.6428 65.8475C73.6627 66.2231 73.694 66.7474 73.5688 67.3396C73.9392 67.4543 74.1244 67.723 74.1244 68.0178C74.1244 68.2864 74.1244 72.147 74.1244 72.8305H73.6288C73.6288 71.7714 73.6288 68.2317 73.6288 67.9839Z" fill="#DCA95F"/>
<path d="M75.9526 79.2368C75.9526 78.9577 76.117 78.7021 76.4483 78.5978C76.3387 78.0448 76.3648 77.5439 77.2751 77.2413C77.3038 76.0936 78.3081 75.791 78.3081 75.791C78.3081 75.791 79.3124 76.0936 79.3411 77.2126C80.2488 77.4839 80.2775 77.9509 80.168 78.4856C80.4992 78.5638 80.6636 78.7934 80.6636 79.0569C80.6636 79.2968 80.6636 83.4678 80.6636 84.0756L75.9579 84.3964V79.2394L75.9526 79.2368Z" fill="#F0C990"/>
<path d="M80.2153 79.0544C80.2153 78.791 80.051 78.5614 79.7197 78.4832C79.8292 77.9484 79.8032 77.4815 78.8928 77.2102C78.8745 76.4303 78.3789 76.0468 78.0815 75.8877C78.2094 75.8173 78.3033 75.7886 78.3033 75.7886C78.3033 75.7886 79.3075 76.0912 79.3362 77.2102C80.244 77.4815 80.2727 77.9484 80.1631 78.4832C80.4944 78.5614 80.6587 78.791 80.6587 79.0544C80.6587 79.2944 80.6587 83.4654 80.6587 84.0732L80.2153 84.1045V79.0544Z" fill="#DCA95F"/>
<path d="M75.9526 68.4688C75.9526 68.1897 76.117 67.9445 76.4483 67.8663C76.3387 67.3054 76.3648 66.8072 77.2751 66.5672C77.3038 65.4195 78.3081 65.1899 78.3081 65.1899C78.3081 65.1899 79.3124 65.563 79.3411 66.682C80.2488 67.0159 80.2775 67.4854 80.168 68.0123C80.4992 68.1141 80.6636 68.354 80.6636 68.6175C80.6636 68.8575 80.6636 72.2981 80.6636 72.9085L75.9579 72.8981V68.4714L75.9526 68.4688Z" fill="#F0C990"/>
<path d="M80.2153 68.5864C80.2153 68.3229 80.051 68.0829 79.7197 67.9812C79.8292 67.4543 79.8032 66.9848 78.8928 66.6509C78.8745 65.8709 78.3789 65.4536 78.0815 65.271C78.2094 65.211 78.3033 65.1875 78.3033 65.1875C78.3033 65.1875 79.3075 65.5605 79.3362 66.6796C80.244 67.0134 80.2727 67.483 80.1631 68.0099C80.4944 68.1116 80.6587 68.3516 80.6587 68.6151C80.6587 68.855 80.6587 72.2957 80.6587 72.906H80.2153V68.5864Z" fill="#DCA95F"/>
<path d="M85.667 64.032L149.241 55.7578V94.7809L85.667 89.6265V64.032Z" fill="url(#paint1_linear_3315_64240)"/>
<path d="M131.744 80.4706C131.744 80.0454 131.493 79.6568 130.99 79.5003C131.157 78.6577 131.115 77.8986 129.735 77.4343C129.693 75.6866 128.165 75.2275 128.165 75.2275C128.165 75.2275 126.636 75.6866 126.594 77.3874C125.212 77.7995 125.17 78.509 125.34 79.3203C124.836 79.4403 124.586 79.7872 124.586 80.1889C124.586 82.26 124.586 84.3286 124.586 86.3997L131.744 86.8875V80.468V80.4706Z" fill="#DCA95F"/>
<path d="M131.744 80.4706C131.744 80.0454 131.493 79.6568 130.99 79.5003C131.157 78.6577 131.115 77.8986 129.735 77.4343C129.693 75.6866 128.165 75.2275 128.165 75.2275C128.165 75.2275 126.636 75.6866 126.594 77.3874C125.212 77.7995 125.17 78.509 125.34 79.3203C124.836 79.4403 124.586 79.7872 124.586 80.1889C124.586 82.26 124.586 84.3286 124.586 86.3997L131.744 86.8875V80.468V80.4706Z" fill="#F0C990"/>
<path d="M120.811 80.2908C120.811 79.9022 120.582 79.5474 120.123 79.4039C120.277 78.637 120.238 77.9406 118.978 77.5206C118.939 75.9268 117.546 75.5068 117.546 75.5068C117.546 75.5068 116.15 75.9268 116.114 77.4789C114.854 77.8545 114.815 78.5014 114.968 79.2448C114.509 79.3544 114.28 79.67 114.28 80.0378V85.7008L120.811 86.1443V80.2908Z" fill="#F0C990"/>
<path d="M110.886 80.1105C110.886 79.7584 110.68 79.4402 110.265 79.3097C110.404 78.6159 110.37 77.9872 109.23 77.6064C109.196 76.1639 107.933 75.7856 107.933 75.7856C107.933 75.7856 106.673 76.1665 106.637 77.5699C105.497 77.909 105.463 78.4959 105.601 79.1663C105.187 79.2654 104.98 79.5523 104.98 79.8836C104.98 80.7261 104.98 83.8981 104.98 85.0693L110.886 85.471C110.886 84.1276 110.886 80.9739 110.886 80.1131V80.1105Z" fill="#F0C990"/>
<path d="M102.492 79.9332C102.492 79.6175 102.307 79.3332 101.936 79.2184C102.059 78.5976 102.03 78.0368 101.01 77.6951C100.979 76.4065 99.8522 76.0674 99.8522 76.0674C99.8522 76.0674 98.7253 76.4065 98.694 77.6612C97.6741 77.9638 97.6454 78.4881 97.768 79.088C97.3976 79.1767 97.2124 79.4323 97.2124 79.7297C97.2124 79.9984 97.2124 83.859 97.2124 84.5424L102.492 84.9024C102.492 83.8955 102.492 80.2071 102.492 79.9358V79.9332Z" fill="#F0C990"/>
<path d="M125.489 80.1918C125.489 79.7901 125.739 79.4432 126.242 79.3232C126.076 78.5094 126.117 77.7998 127.497 77.3903C127.523 76.3026 128.16 75.7235 128.614 75.447C128.361 75.2905 128.162 75.2305 128.162 75.2305C128.162 75.2305 126.634 75.6896 126.592 77.3903C125.21 77.8024 125.168 78.512 125.337 79.3232C124.834 79.4432 124.583 79.7901 124.583 80.1918C124.583 82.263 124.583 84.3315 124.583 86.4027L125.489 86.4653V80.1944V80.1918Z" fill="#DCA95F"/>
<path d="M115.036 80.0378C115.036 79.6726 115.266 79.3544 115.725 79.2448C115.571 78.504 115.61 77.8545 116.87 77.4789C116.896 76.4589 117.507 75.9294 117.921 75.6842C117.708 75.5564 117.543 75.5068 117.543 75.5068C117.543 75.5068 116.148 75.9268 116.111 77.4789C114.851 77.8545 114.812 78.5014 114.966 79.2448C114.507 79.3544 114.277 79.67 114.277 80.0378V85.7008L115.036 85.753V80.0378Z" fill="#DCA95F"/>
<path d="M105.578 79.8816C105.578 79.5504 105.784 79.2634 106.199 79.1643C106.06 78.4939 106.094 77.907 107.234 77.5679C107.258 76.608 107.855 76.128 108.231 75.9193C108.058 75.8228 107.933 75.7837 107.933 75.7837C107.933 75.7837 106.673 76.1645 106.637 77.5679C105.497 77.907 105.463 78.4939 105.601 79.1643C105.187 79.2634 104.98 79.5504 104.98 79.8816C104.98 80.7242 104.98 83.8961 104.98 85.0673L105.578 85.1091V79.8816Z" fill="#DCA95F"/>
<path d="M97.708 79.7278C97.708 79.433 97.8932 79.1748 98.2636 79.0861C98.141 78.4861 98.1697 77.9618 99.1896 77.6592C99.2105 76.7854 99.7661 76.355 100.1 76.175C99.9565 76.0967 99.8522 76.0654 99.8522 76.0654C99.8522 76.0654 98.7253 76.4045 98.694 77.6592C97.6741 77.9618 97.6454 78.4861 97.768 79.0861C97.3976 79.1748 97.2124 79.4304 97.2124 79.7278C97.2124 79.9964 97.2124 83.857 97.2124 84.5404L97.708 84.5743C97.708 83.5153 97.708 79.9782 97.708 79.7278Z" fill="#DCA95F"/>
<path d="M131.744 66.3379C131.744 65.9127 131.493 65.5423 130.99 65.4197C131.157 64.5667 131.115 63.8076 129.735 63.4424C129.693 61.6974 128.165 61.3452 128.165 61.3452C128.165 61.3452 126.636 61.9139 126.594 63.6172C125.212 64.1259 125.17 64.838 125.34 65.6388C124.836 65.7927 124.586 66.1579 124.586 66.5596C124.586 68.6307 124.586 70.6993 124.586 72.7704L131.744 72.7548V66.3353V66.3379Z" fill="#DCA95F"/>
<path d="M131.744 66.3379C131.744 65.9127 131.493 65.5423 130.99 65.4197C131.157 64.5667 131.115 63.8076 129.735 63.4424C129.693 61.6974 128.165 61.3452 128.165 61.3452C128.165 61.3452 126.636 61.9139 126.594 63.6172C125.212 64.1259 125.17 64.838 125.34 65.6388C124.836 65.7927 124.586 66.1579 124.586 66.5596C124.586 68.6307 124.586 70.6993 124.586 72.7704L131.744 72.7548V66.3353V66.3379Z" fill="#F0C990"/>
<path d="M120.811 66.9246C120.811 66.5359 120.582 66.1994 120.123 66.0872C120.277 65.3073 120.238 64.616 118.978 64.2821C118.939 62.691 117.546 62.3701 117.546 62.3701C117.546 62.3701 116.15 62.8892 116.114 64.4439C114.854 64.9082 114.815 65.5577 114.968 66.2881C114.509 66.4289 114.28 66.7628 114.28 67.128V72.7911L120.811 72.778V66.9246Z" fill="#F0C990"/>
<path d="M110.886 67.4438C110.886 67.0917 110.68 66.7865 110.265 66.6874C110.404 65.9831 110.37 65.357 109.23 65.0571C109.196 63.6172 107.933 63.3276 107.933 63.3276C107.933 63.3276 106.673 63.7972 106.637 65.2005C105.497 65.6205 105.463 66.2074 105.601 66.87C105.187 66.9978 104.98 67.2978 104.98 67.629C104.98 68.4716 104.98 71.6435 104.98 72.8147L110.886 72.8017C110.886 71.4583 110.886 68.3046 110.886 67.4438Z" fill="#F0C990"/>
<path d="M102.492 67.8534C102.492 67.5404 102.307 67.2665 101.936 67.1778C102.059 66.5492 102.03 65.9884 101.01 65.7197C100.979 64.4337 99.8522 64.1729 99.8522 64.1729C99.8522 64.1729 98.7253 64.5902 98.694 65.8475C97.6741 66.2231 97.6454 66.7474 97.768 67.3396C97.3976 67.4543 97.2124 67.723 97.2124 68.0178C97.2124 68.2864 97.2124 72.147 97.2124 72.8305L102.492 72.82C102.492 71.8131 102.492 68.1247 102.492 67.8534Z" fill="#F0C990"/>
<path d="M125.489 66.4968C125.489 66.0951 125.739 65.7299 126.242 65.576C126.076 64.7752 126.117 64.0605 127.497 63.5544C127.523 62.4641 128.16 61.8407 128.614 61.5329C128.361 61.3946 128.162 61.3477 128.162 61.3477C128.162 61.3477 126.634 61.9163 126.592 63.6197C125.21 64.1283 125.168 64.8404 125.337 65.6412C124.834 65.7951 124.583 66.1603 124.583 66.562C124.583 68.6332 124.583 70.7017 124.583 72.7729H125.489V66.4994V66.4968Z" fill="#DCA95F"/>
<path d="M115.036 67.0757C115.036 66.7105 115.266 66.3766 115.725 66.2357C115.571 65.5054 115.61 64.8532 116.87 64.3915C116.896 63.369 117.507 62.7977 117.921 62.5239C117.708 62.4117 117.543 62.3726 117.543 62.3726C117.543 62.3726 116.148 62.8917 116.111 64.4463C114.851 64.9106 114.812 65.5601 114.966 66.2905C114.507 66.4314 114.277 66.7653 114.277 67.1305V72.7935H115.036V67.0757Z" fill="#DCA95F"/>
<path d="M105.578 67.5846C105.578 67.2533 105.784 66.9507 106.199 66.8255C106.06 66.1655 106.094 65.576 107.234 65.156C107.258 64.1961 107.855 63.6718 108.231 63.437C108.058 63.3536 107.933 63.3223 107.933 63.3223C107.933 63.3223 106.673 63.7918 106.637 65.1952C105.497 65.6151 105.463 66.202 105.601 66.8646C105.187 66.9924 104.98 67.2924 104.98 67.6237C104.98 68.4662 104.98 71.6382 104.98 72.8094H105.578V67.5819V67.5846Z" fill="#DCA95F"/>
<path d="M97.708 67.9839C97.708 67.6891 97.8932 67.4178 98.2636 67.3057C98.141 66.7135 98.1697 66.1892 99.1896 65.8136C99.2105 64.9371 99.7661 64.4702 100.1 64.2668C99.9565 64.1989 99.8522 64.1729 99.8522 64.1729C99.8522 64.1729 98.7253 64.5902 98.694 65.8475C97.6741 66.2231 97.6454 66.7474 97.768 67.3396C97.3976 67.4543 97.2124 67.723 97.2124 68.0178C97.2124 68.2864 97.2124 72.147 97.2124 72.8305H97.708C97.708 71.7714 97.708 68.2317 97.708 67.9839Z" fill="#DCA95F"/>
<path d="M95.3838 79.2368C95.3838 78.9577 95.2195 78.7021 94.8882 78.5978C94.9977 78.0448 94.9717 77.5439 94.0613 77.2413C94.0326 76.0936 93.0283 75.791 93.0283 75.791C93.0283 75.791 92.0241 76.0936 91.9954 77.2126C91.0876 77.4839 91.0589 77.9509 91.1685 78.4856C90.8372 78.5638 90.6729 78.7934 90.6729 79.0569C90.6729 79.2968 90.6729 83.4678 90.6729 84.0756L95.3786 84.3964V79.2394L95.3838 79.2368Z" fill="#F0C990"/>
<path d="M91.1187 79.0539C91.1187 78.7905 91.2831 78.5609 91.6144 78.4827C91.5048 77.9479 91.5309 77.481 92.4413 77.2097C92.4595 76.4298 92.9551 76.0463 93.2525 75.8872C93.1247 75.8168 93.0308 75.7881 93.0308 75.7881C93.0308 75.7881 92.0265 76.0907 91.9978 77.2097C91.09 77.481 91.0614 77.9479 91.1709 78.4827C90.8396 78.5609 90.6753 78.7905 90.6753 79.0539C90.6753 79.2939 90.6753 83.4649 90.6753 84.0727L91.1187 84.104C91.1187 83.1597 91.1187 79.2783 91.1187 79.0539Z" fill="#DCA95F"/>
<path d="M95.3838 68.4688C95.3838 68.1897 95.2195 67.9445 94.8882 67.8663C94.9977 67.3054 94.9717 66.8072 94.0613 66.5672C94.0326 65.4195 93.0283 65.1899 93.0283 65.1899C93.0283 65.1899 92.0241 65.563 91.9954 66.682C91.0876 67.0159 91.0589 67.4854 91.1685 68.0123C90.8372 68.1141 90.6729 68.354 90.6729 68.6175C90.6729 68.8575 90.6729 72.2981 90.6729 72.9085L95.3786 72.8981V68.4714L95.3838 68.4688Z" fill="#F0C990"/>
<path d="M91.1187 68.5864C91.1187 68.3229 91.2831 68.0829 91.6144 67.9812C91.5048 67.4543 91.5309 66.9848 92.4413 66.6509C92.4595 65.8709 92.9551 65.4536 93.2525 65.271C93.1247 65.211 93.0308 65.1875 93.0308 65.1875C93.0308 65.1875 92.0265 65.5605 91.9978 66.6796C91.09 67.0134 91.0614 67.483 91.1709 68.0099C90.8396 68.1116 90.6753 68.3516 90.6753 68.6151C90.6753 68.855 90.6753 72.2957 90.6753 72.906H91.1187C91.1187 71.9618 91.1187 68.8081 91.1187 68.5864Z" fill="#DCA95F"/>
<path d="M143.033 65.8266C143.033 65.4015 142.783 65.0311 142.279 64.9085C142.446 64.0555 142.405 63.2964 141.025 62.9312C140.983 61.1861 139.454 60.834 139.454 60.834C139.454 60.834 137.926 61.4026 137.884 63.106C136.502 63.6146 136.46 64.3268 136.629 65.1276C136.126 65.2815 135.875 65.6467 135.875 66.0484C135.875 68.1195 135.875 70.7071 135.875 72.7783L143.033 72.7626V65.824V65.8266Z" fill="#DCA95F"/>
<path d="M143.033 65.8266C143.033 65.4015 142.783 65.0311 142.279 64.9085C142.446 64.0555 142.405 63.2964 141.025 62.9312C140.983 61.1861 139.454 60.834 139.454 60.834C139.454 60.834 137.926 61.4026 137.884 63.106C136.502 63.6146 136.46 64.3268 136.629 65.1276C136.126 65.2815 135.875 65.6467 135.875 66.0484C135.875 68.1195 135.875 70.7071 135.875 72.7783L143.033 72.7626V65.824V65.8266Z" fill="#F0C990"/>
<path d="M136.778 65.9856C136.778 65.5839 137.029 65.2187 137.532 65.0648C137.365 64.264 137.407 63.5493 138.787 63.0432C138.813 61.9529 139.449 61.3294 139.903 61.0216C139.65 60.8834 139.452 60.8364 139.452 60.8364C139.452 60.8364 137.923 61.4051 137.882 63.1084C136.499 63.6171 136.457 64.3292 136.627 65.13C136.123 65.2839 135.873 65.6491 135.873 66.0508C135.873 68.122 135.873 70.7096 135.873 72.7807H136.778V65.9882V65.9856Z" fill="#DCA95F"/>
<path d="M143.033 80.0766C143.033 79.6515 142.783 79.2811 142.279 79.1585C142.446 78.3055 142.405 77.5464 141.025 77.1812C140.983 75.4361 139.454 75.084 139.454 75.084C139.454 75.084 137.926 75.6526 137.884 77.356C136.502 77.8646 136.46 78.5768 136.629 79.3776C136.126 79.5315 135.875 79.8967 135.875 80.2984C135.875 82.3695 135.875 84.9571 135.875 87.0283L143.033 87.0126V80.074V80.0766Z" fill="#DCA95F"/>
<path d="M143.033 80.0766C143.033 79.6515 142.783 79.2811 142.279 79.1585C142.446 78.3055 142.405 77.5464 141.025 77.1812C140.983 75.4361 139.454 75.084 139.454 75.084C139.454 75.084 137.926 75.6526 137.884 77.356C136.502 77.8646 136.46 78.5768 136.629 79.3776C136.126 79.5315 135.875 79.8967 135.875 80.2984C135.875 82.3695 135.875 84.9571 135.875 87.0283L143.033 87.4013V80.0766Z" fill="#F0C990"/>
<path d="M136.778 80.2385C136.778 79.8368 137.029 79.4716 137.532 79.3177C137.365 78.5169 137.407 77.8022 138.787 77.2961C138.813 76.2058 139.449 75.5824 139.903 75.2746C139.65 75.1363 139.452 75.0894 139.452 75.0894C139.452 75.0894 137.923 75.658 137.882 77.3614C136.499 77.87 136.457 78.5821 136.627 79.3829C136.123 79.5368 135.873 79.902 135.873 80.3037C135.873 82.3749 135.873 84.9625 135.873 87.0337H136.778V80.2411V80.2385Z" fill="#DCA95F"/>
<path d="M99 84.7002C65.9019 87.1046 47.5671 90.0344 15 96.2002L6 103.2H150.5V94.7002C136.858 89.3703 125.024 87.3019 99 84.7002Z" fill="url(#paint2_linear_3315_64240)"/>
<path d="M85 85.7002C58.852 89.118 48.4459 91.6064 35 96.7002L25 98.2002L12.5 96.7002L77.5 83.7002L123 86.2002L128 86.7002L151 94.2002L149 95.7002C128.838 89.3984 113.16 88.035 85 85.7002Z" fill="url(#paint3_linear_3315_64240)"/>
</g>
<g clip-path="url(#clip2_3315_64240)">
<path d="M84.7365 88.1626L65 94.6021L115.304 96.2003L133 90.8436L84.7365 88.1626Z" fill="url(#paint4_linear_3315_64240)"/>
<path d="M126.831 53.4652L118.507 50.2002V93.2395L126.831 91.2575V53.4652Z" fill="#101010"/>
<path d="M82.7939 51.6312L118.507 50.2002V93.2395L82.7939 92.4336V51.6312Z" fill="#292D32"/>
<path d="M82.7939 61.4839L118.507 61.1851L126.831 62.7778V65.1381L118.485 64.1101L82.7939 64.5981V61.4839Z" fill="#DCA95F"/>
<path d="M82.7939 61.4839L118.507 61.1851L118.485 64.1101L82.7939 64.5981V61.4839Z" fill="#F0C990"/>
<path d="M126.831 62.09L118.529 60.3245L118.518 60.3218L82.7803 60.8125V61.0428L118.496 60.5521L126.831 62.3257V62.09Z" fill="#F0C990"/>
<path d="M118.518 60.3218H118.507V60.5548L126.831 62.3257V62.09L118.529 60.3245L118.518 60.3218Z" fill="#DCA95F"/>
<path d="M126.831 65.5909L118.505 64.7246L82.7803 65.1468V65.3771L118.494 64.9521L126.831 65.8212V65.5909Z" fill="#F0C990"/>
<path d="M118.507 64.9549L126.831 65.8212V65.5909L118.507 64.7246V64.9549Z" fill="#DCA95F"/>
<path d="M85.2524 66.6186V69.7191L92.3351 69.5902V66.5254L85.2524 66.6186Z" fill="#F0C990"/>
<path d="M95.5923 66.4817V69.5301L103.878 69.3739V66.3721L95.5923 66.4817Z" fill="#F0C990"/>
<path d="M107.534 66.3226V69.308L115.304 69.1627V66.2212L107.534 66.3226Z" fill="#F0C990"/>
<path d="M94.0973 69.5299C94.6187 69.5299 95.0413 68.8573 95.0413 68.0277C95.0413 67.198 94.6187 66.5254 94.0973 66.5254C93.576 66.5254 93.1533 67.198 93.1533 68.0277C93.1533 68.8573 93.576 69.5299 94.0973 69.5299Z" fill="#F0C990"/>
<path d="M106.648 68.0277C106.648 68.8583 106.225 69.5299 105.704 69.5299C105.183 69.5299 104.76 68.8583 104.76 68.0277C104.76 67.197 105.183 66.5254 105.704 66.5254C106.225 66.5254 106.648 67.197 106.648 68.0277Z" fill="#F0C990"/>
<path d="M118.074 67.7645C118.074 68.5951 117.651 69.2667 117.13 69.2667C116.608 69.2667 116.186 68.5951 116.186 67.7645C116.186 66.9338 116.608 66.2622 117.13 66.2622C117.651 66.2622 118.074 66.9338 118.074 67.7645Z" fill="#F0C990"/>
<path d="M83.9181 69.5299C84.3701 69.5299 84.7366 68.8573 84.7366 68.0277C84.7366 67.198 84.3701 66.5254 83.9181 66.5254C83.4661 66.5254 83.0996 67.198 83.0996 68.0277C83.0996 68.8573 83.4661 69.5299 83.9181 69.5299Z" fill="#F0C990"/>
<path d="M119.099 66.2349V89.4651L121.874 88.8922V66.5008L119.099 66.2349Z" fill="#DCA95F"/>
<path d="M124.283 66.7227L122.873 66.5884V69.2036L124.283 69.231V66.7227Z" fill="#DCA95F"/>
<path d="M126.127 66.8926L125.102 66.7939V69.2447L126.127 69.2667V66.8926Z" fill="#DCA95F"/>
<path d="M122.668 67.8633C122.668 68.4006 122.578 68.8365 122.466 68.8365C122.354 68.8365 122.264 68.4006 122.264 67.8633C122.264 67.326 122.354 66.8901 122.466 66.8901C122.578 66.8901 122.668 67.326 122.668 67.8633Z" fill="#DCA95F"/>
<path d="M124.951 68.0305C124.951 68.5541 124.861 68.9791 124.749 68.9791C124.637 68.9791 124.547 68.5541 124.547 68.0305C124.547 67.5069 124.637 67.082 124.749 67.082C124.861 67.082 124.951 67.5069 124.951 68.0305Z" fill="#DCA95F"/>
<path d="M126.681 68.0635C126.681 68.5542 126.599 68.9517 126.498 68.9517C126.397 68.9517 126.315 68.5542 126.315 68.0635C126.315 67.5728 126.397 67.1753 126.498 67.1753C126.599 67.1753 126.681 67.5728 126.681 68.0635Z" fill="#DCA95F"/>
</g>
</g>
<defs>
<linearGradient id="paint0_linear_3315_64240" x1="85.5" y1="75.2002" x2="13.5" y2="76.2002" gradientUnits="userSpaceOnUse">
<stop stop-color="#FDE2BA"/>
<stop offset="1" stop-color="#FBECD6"/>
</linearGradient>
<linearGradient id="paint1_linear_3315_64240" x1="149.091" y1="74.9703" x2="109.502" y2="73.148" gradientUnits="userSpaceOnUse">
<stop stop-color="#FBECD6"/>
<stop offset="1" stop-color="#FDE2BA"/>
</linearGradient>
<linearGradient id="paint2_linear_3315_64240" x1="39.5" y1="97.7002" x2="104.5" y2="80.2002" gradientUnits="userSpaceOnUse">
<stop stop-color="#FCECD6"/>
<stop offset="0.293154" stop-color="#F6E2C7"/>
<stop offset="1" stop-color="#EDD5B2"/>
</linearGradient>
<linearGradient id="paint3_linear_3315_64240" x1="25.5" y1="95.2002" x2="148.5" y2="82.7002" gradientUnits="userSpaceOnUse">
<stop stop-color="#FCECD4"/>
<stop offset="0.169117" stop-color="#F1DCBC"/>
<stop offset="0.787323" stop-color="#DDBE91"/>
<stop offset="1" stop-color="#FBECD6"/>
</linearGradient>
<linearGradient id="paint4_linear_3315_64240" x1="65" y1="92.1814" x2="132.5" y2="90.7002" gradientUnits="userSpaceOnUse">
<stop stop-color="#F6E2C6"/>
<stop offset="1" stop-color="#D1B792"/>
</linearGradient>
<clipPath id="clip0_3315_64240">
<rect width="149" height="95" fill="white" transform="translate(0 0.600098)"/>
</clipPath>
<clipPath id="clip1_3315_64240">
<rect width="134.241" height="80" fill="white" transform="translate(15 16.2002)"/>
</clipPath>
<clipPath id="clip2_3315_64240">
<rect width="68" height="46" fill="white" transform="translate(65 50.2002)"/>
</clipPath>
</defs>
</svg>
