<svg width="18" height="19" viewBox="0 0 18 19" fill="none" xmlns="http://www.w3.org/2000/svg">
<path d="M7.49991 10.3496C7.822 10.7802 8.23292 11.1365 8.70482 11.3943C9.17671 11.6521 9.69854 11.8054 10.2349 11.8438C10.7713 11.8822 11.3096 11.8049 11.8134 11.6169C12.3172 11.429 12.7747 11.1349 13.1549 10.7546L15.4049 8.50458C16.088 7.79733 16.466 6.85007 16.4574 5.86683C16.4489 4.88359 16.0545 3.94304 15.3592 3.24776C14.6639 2.55248 13.7234 2.1581 12.7402 2.14956C11.7569 2.14101 10.8097 2.51899 10.1024 3.20208L8.81241 4.48458M10.4999 8.84958C10.1778 8.41899 9.76689 8.0627 9.29499 7.80488C8.8231 7.54706 8.30127 7.39375 7.76492 7.35533C7.22856 7.31692 6.69022 7.39431 6.1864 7.58225C5.68258 7.77019 5.22507 8.06428 4.84491 8.44458L2.59491 10.6946C1.91181 11.4018 1.53383 12.3491 1.54238 13.3323C1.55092 14.3156 1.94531 15.2561 2.64059 15.9514C3.33587 16.6467 4.27641 17.0411 5.25965 17.0496C6.24289 17.0582 7.19015 16.6802 7.89741 15.9971L9.17991 14.7146" stroke="#614730" stroke-width="1.5" stroke-linecap="round" stroke-linejoin="round"/>
</svg>
