<svg width="512" height="512" viewBox="0 0 512 512" fill="none" xmlns="http://www.w3.org/2000/svg">
<path d="M498.65 221.47L444.43 167.25C440 162.942 434.053 160.551 427.874 160.594C421.695 160.638 415.781 163.112 411.413 167.482C407.044 171.852 404.571 177.766 404.53 183.945C404.488 190.124 406.881 196.071 411.19 200.5L440.35 229.66H327.65C324.506 229.568 321.376 230.108 318.445 231.248C315.513 232.387 312.841 234.104 310.584 236.295C308.328 238.486 306.535 241.108 305.31 244.005C304.085 246.901 303.454 250.014 303.454 253.16C303.454 256.305 304.085 259.418 305.31 262.315C306.535 265.211 308.328 267.833 310.584 270.024C312.841 272.216 315.513 273.932 318.445 275.072C321.376 276.211 324.506 276.751 327.65 276.66H441.4L412.24 305.82C407.931 310.248 405.538 316.195 405.58 322.374C405.621 328.553 408.094 334.467 412.463 338.837C416.831 343.207 422.745 345.681 428.924 345.725C435.103 345.768 441.05 343.378 445.48 339.07L498.65 285.9C502.882 281.668 506.239 276.644 508.53 271.115C510.82 265.586 511.999 259.659 511.999 253.675C511.999 247.69 510.82 241.763 508.53 236.234C506.239 230.705 502.882 225.681 498.65 221.45V221.47Z" fill="#A99B8D"/>
<path d="M352.709 313.278C357.088 309.203 362.819 306.893 368.8 306.791C382.28 306.521 392.82 317.061 391.75 329.911C390.77 341.701 389.79 346.211 388.53 355.391C385.6 376.601 374.96 397.161 358.92 413.391C342.88 429.621 322.2 440.771 300.61 444.141L299.95 444.251C290.76 445.681 282.27 446.961 272.76 448.081L276.05 400.991C282.82 400.191 289.32 399.311 296.32 398.311L297 398.221C308.488 396.511 319.108 391.113 327.26 382.841C335.424 374.702 340.693 364.111 342.26 352.691C343.34 344.161 344.21 340.311 345.08 328.861C345.612 322.903 348.33 317.352 352.709 313.278Z" fill="#A99B8D"/>
<path d="M196.17 47.0505C185.47 47.0605 177.43 47.2205 169.17 47.5005C94.9062 17.901 51.3735 30.4741 38.8901 40.4605C54.8901 23.8505 75.2701 12.2705 96.4501 8.57055L97.1001 8.45055C123 4.17055 142.06 0.380547 196.25 0.0605469C250.45 0.340547 270.79 4.18055 296.65 8.48055L297.3 8.60055C318.48 12.3105 338.89 23.8605 354.87 40.5005C370.85 57.1405 381.7 78.0005 384.89 99.2405C388.22 120.981 390.77 145.061 392.31 177.581C392.91 190.091 382.5 200.091 369.36 199.791C356.58 199.491 346.07 189.321 345.58 176.861C344.24 143.791 342.01 120.881 339.24 100.791C337.513 89.2952 332.201 78.6386 324.06 70.3405C316.047 61.9697 305.553 56.3986 294.13 54.4505L293.49 54.3505C267.56 50.4305 248.9 47.2705 196.17 47.0505Z" fill="#A99B8D"/>
<path fill-rule="evenodd" clip-rule="evenodd" d="M274.799 180.533C276.948 207.529 278.272 246.254 278.49 286.349C238.459 313.986 191.896 330.671 143.423 334.748C94.9626 338.824 46.2787 330.156 2.20308 309.605C3.29326 327.005 4.76209 342.725 6.53993 355.481C8.47349 368.781 13.0976 381.547 20.1299 393.001C22.0833 397.001 24.1833 400.941 26.4299 404.821C38.0999 424.741 53.0899 440.891 68.5299 449.951L68.9999 450.231C69.4959 450.521 69.9893 450.809 70.4804 451.096C88.623 461.705 103.765 470.559 141.63 486.731C180.026 502.968 194.346 506.364 212.222 510.603L212.76 510.731L213.21 510.831C228.03 514.291 242.02 509.521 252.86 497.671C263.36 486.191 270.45 468.601 272.76 448.081L276.09 401.001C277.41 374.721 278.25 344.341 278.46 314.191C278.837 264.751 277.483 213.757 274.799 180.533ZM0.599404 200.103C0.314251 209.163 0.130298 218.313 0.0599267 227.421C0.0598893 227.426 0.0598519 227.43 0.0598145 227.435C0.0598699 227.43 0.0599254 227.424 0.059981 227.419C0.130347 218.311 0.314282 209.163 0.599404 200.103Z" fill="#614730"/>
<path opacity="0.6" d="M278.49 286.35C278.27 245.83 276.92 206.71 274.73 179.68C272.685 156.464 265.794 133.936 254.5 113.55C243.33 93.4698 228.81 77.6898 213.59 69.3398L213.12 69.0798C199.85 61.8298 188.61 55.6798 169.21 47.4998C169.21 47.4998 112.4 22.1298 75.7 25.0598C51.7 26.9798 38.89 40.4598 38.89 40.4598C22.91 57.0998 12.06 77.9298 8.79003 99.1998C3.94003 130.51 0.430033 179.53 0.0600333 227.42C-0.229967 255.73 0.570033 284.42 2.17003 309.59C46.2544 330.152 94.9505 338.825 143.423 334.749C191.896 330.672 238.46 313.987 278.49 286.35Z" fill="#614730"/>
</svg>
