<svg width="56" height="56" viewBox="0 0 56 56" fill="none" xmlns="http://www.w3.org/2000/svg">
<g clip-path="url(#clip0_4743_75220)">
<path d="M10.876 0H45.1239C51.1306 0 56 4.86938 56 10.876V45.1239C56 51.1306 51.1306 56 45.1239 56H10.876C4.86938 56 0 51.1306 0 45.1239V10.876C0 4.86938 4.86938 0 10.876 0Z" fill="url(#paint0_radial_4743_75220)"/>
<path d="M40.5496 38.2129V43.9249C40.5496 44.719 39.7117 45.2335 39.0036 44.8743L28 39.2926" stroke="#FBECD6" stroke-width="1.09375" stroke-miterlimit="10" stroke-linecap="round"/>
<path d="M15.4502 38.2129V43.9249C15.4502 44.719 16.2881 45.2335 16.9962 44.8743L27.9998 39.2926" stroke="#FBECD6" stroke-width="1.09375" stroke-miterlimit="10" stroke-linecap="round"/>
<path opacity="0.35" d="M27.3504 37.5585C27.3504 37.9142 27.6441 38.2037 27.9998 38.2037V39.73L13.3815 36.7292L11.5879 36.3726C10.4383 36.1441 9.61035 35.1354 9.61035 33.9634V16.914C9.61035 15.4035 10.9607 14.2509 12.4524 14.488L27.9998 16.9595V18.4859C27.6441 18.4859 27.3504 18.7754 27.3504 19.1311V37.5585Z" fill="url(#paint1_radial_4743_75220)"/>
<path opacity="0.35" d="M28.6494 37.5585C28.6494 37.9142 28.3557 38.2037 28 38.2037V39.73L42.6184 36.7292L44.412 36.3726C45.5615 36.1441 46.3895 35.1354 46.3895 33.9634V16.914C46.3895 15.4035 45.0391 14.2509 43.5474 14.488L28 16.9595V18.4859C28.3557 18.4859 28.6494 18.7754 28.6494 19.1311V37.5585Z" fill="url(#paint2_radial_4743_75220)"/>
<path d="M27.3504 37.5587C27.3504 37.9144 27.6441 38.2039 27.9998 38.2039V39.7303L15.4502 34.2827L13.3828 33.386C12.4205 32.9686 11.7979 32.0198 11.7979 30.9709V14.5822C11.7979 12.7364 13.648 11.4637 15.3717 12.1238L27.9998 16.9597V18.486C27.6441 18.486 27.3504 18.7756 27.3504 19.1313V37.5587Z" fill="white"/>
<path d="M44.202 14.5821V30.9709C44.202 32.0197 43.5793 32.9685 42.6171 33.3859L40.5496 34.2827L28 39.7302V38.2039C28.3557 38.2039 28.6453 37.9143 28.6453 37.5586V19.1313C28.6453 18.7756 28.3557 18.486 28 18.486V16.9597L40.6282 12.1238C42.3518 11.4637 44.202 12.7364 44.202 14.5821Z" fill="#F4EDE3"/>
</g>
<defs>
<radialGradient id="paint0_radial_4743_75220" cx="0" cy="0" r="1" gradientUnits="userSpaceOnUse" gradientTransform="translate(44.3492 11.0516) scale(66.9545)">
<stop stop-color="#AB794D"/>
<stop offset="1" stop-color="#614730"/>
</radialGradient>
<radialGradient id="paint1_radial_4743_75220" cx="0" cy="0" r="1" gradientUnits="userSpaceOnUse" gradientTransform="translate(18.8051 27.0935) scale(11.0504)">
<stop stop-color="#F2DFD4"/>
<stop offset="1" stop-color="#F3DFD3"/>
</radialGradient>
<radialGradient id="paint2_radial_4743_75220" cx="0" cy="0" r="1" gradientUnits="userSpaceOnUse" gradientTransform="translate(37.1947 27.0935) rotate(180) scale(11.0504)">
<stop stop-color="#F2E4D4"/>
<stop offset="1" stop-color="#F3E6D3"/>
</radialGradient>
<clipPath id="clip0_4743_75220">
<rect width="56" height="56" fill="white"/>
</clipPath>
</defs>
</svg>
