<svg width="230" height="231" viewBox="0 0 230 231" fill="none" xmlns="http://www.w3.org/2000/svg">
<path d="M184.961 72.8918C183.355 58.4872 167.787 43.2648 154.46 44.0729C138.815 45.0335 135.158 50.0667 127.889 48.2823C118.457 45.966 110.924 38.5984 101.57 35.9818C90.9138 32.9997 78.6417 37.1485 71.9993 45.9809C67.4864 51.9805 65.5932 59.5417 61.5823 65.9007C57.7723 71.9143 52.2243 76.6236 45.674 79.4041C43.0357 80.5141 34.7598 84.5445 29.4088 95.2482C21.2299 111.648 25.3638 126.477 32.1613 140.112C43.7944 163.45 59.8015 158.586 69.8103 167.47C77.5292 174.327 74.3744 186.301 91.8392 197.973C107.028 208.127 122.264 202.685 132.623 194.983C146.133 184.935 157.98 189.123 165.565 182.85C182.175 169.108 166.628 156.166 177 145.461C180.964 141.367 184.941 137.271 188.306 132.667C193.514 125.533 192.753 118.373 191.902 115.19C187.908 100.383 187.862 96.111 184.961 72.8918Z" fill="#fff" fill-opacity=".5"/>
<path d="M175.76 161.593C175.76 161.593 174.171 154.64 177.055 149.901C179.939 145.161 188.015 137.179 191.623 139.645C195.232 142.112 192.119 144.278 188.154 156.159C184.189 168.039 178.215 170.495 175.76 161.593Z" fill="#fff" fill-opacity=".5" />
<path d="M49.9709 75.2166C49.9709 75.2166 59.5917 68.9242 61.4149 62.0919C63.2381 55.2597 57.7567 51.2921 49.496 60.3654C41.2353 69.4387 42.845 79.4536 49.9709 75.2166Z" fill="#fff" fill-opacity=".5"/>
</svg>
