<svg width="24" height="25" viewBox="0 0 24 25" fill="none" xmlns="http://www.w3.org/2000/svg">
<path fill-rule="evenodd" clip-rule="evenodd" d="M12 2.20898C6.14605 2.20898 1.60925 6.49699 1.60925 12.2882C1.60925 15.3176 2.85112 17.9351 4.87282 19.7436C5.04216 19.8962 5.14461 20.1074 5.15297 20.3352L5.20942 22.1834C5.22823 22.773 5.83662 23.1556 6.37602 22.9193L8.43744 22.0099C8.61306 21.9325 8.80749 21.9179 8.99147 21.9681C9.93855 22.2294 10.9484 22.3674 12 22.3674C17.8539 22.3674 22.3907 18.0794 22.3907 12.2882C22.3907 6.49699 17.8539 2.20898 12 2.20898Z" fill="#E8E8E8"/>
<path fill-rule="evenodd" clip-rule="evenodd" d="M5.76137 15.2359L8.81377 10.3939C9.29881 9.6245 10.34 9.43216 11.0675 9.97783L13.4948 11.7988C13.7185 11.9661 14.0238 11.964 14.2454 11.7967L17.5236 9.30881C17.9605 8.97639 18.5334 9.50115 18.2386 9.96528L15.1883 14.8052C14.7032 15.5746 13.6621 15.7669 12.9345 15.2213L10.5072 13.4003C10.2835 13.233 9.97829 13.2351 9.75667 13.4024L6.47638 15.8924C6.03943 16.2248 5.46658 15.7 5.76137 15.2359Z" fill="url(#paint0_linear_3514_65611)"/>
<defs>
<linearGradient id="paint0_linear_3514_65611" x1="4.66265" y1="13.5285" x2="18.3195" y2="10.7119" gradientUnits="userSpaceOnUse">
<stop stop-color="#1B8CFF"/>
<stop offset="0.326558" stop-color="#6856FF"/>
<stop offset="1" stop-color="#EC5287"/>
</linearGradient>
</defs>
</svg>
