<svg width="28" height="28" viewBox="0 0 28 28" fill="none" xmlns="http://www.w3.org/2000/svg">
<path d="M21.4364 10.5249L17.5154 6.60585C17.2379 6.31882 16.8684 6.1385 16.4714 6.09642C16.0744 6.05435 15.6753 6.15321 15.3438 6.37571C15.1484 6.51468 14.9857 6.6946 14.8669 6.90294C14.7482 7.11127 14.6764 7.343 14.6564 7.58195C14.6364 7.82091 14.6688 8.06135 14.7513 8.28649C14.8339 8.51164 14.9645 8.71608 15.1341 8.88555L15.5245 9.27528C15.624 9.37536 15.6798 9.51072 15.6798 9.65182C15.6798 9.79292 15.624 9.92829 15.5245 10.0284L14.1397 11.4132C14.0182 11.5342 13.8674 11.6217 13.702 11.6671C13.5366 11.7125 13.3623 11.7143 13.196 11.6724L12.6553 11.5339C12.0317 11.3711 11.3839 11.3222 10.7429 11.3895C10.3217 11.4333 9.92175 11.5966 9.59028 11.8602C9.25881 12.1238 9.00961 12.4766 8.87206 12.8772C8.72139 13.2912 8.69205 13.7396 8.78749 14.1697C8.88293 14.5998 9.09918 14.9938 9.41082 15.3052L10.5622 16.4975L6.28176 20.7793C6.21878 20.8401 6.16854 20.9129 6.13398 20.9933C6.09942 21.0738 6.08123 21.1603 6.08047 21.2479C6.07971 21.3354 6.09639 21.4223 6.12955 21.5033C6.16271 21.5843 6.21167 21.658 6.27359 21.7199C6.33551 21.7818 6.40914 21.8308 6.49018 21.8639C6.57122 21.8971 6.65806 21.9138 6.74562 21.913C6.83318 21.9122 6.91971 21.8941 7.00016 21.8595C7.08062 21.8249 7.15339 21.7747 7.21422 21.7117L11.4788 17.4471L12.3031 18.3004C12.8619 18.8933 13.6327 19.2408 14.447 19.2672C14.7102 19.2675 14.9716 19.2229 15.2199 19.1353C15.5987 19.0045 15.9315 18.7668 16.178 18.4508C16.4245 18.1347 16.5741 17.7541 16.6086 17.3548C16.6754 16.7197 16.6276 16.0777 16.4675 15.4595L16.3277 14.7829C16.2885 14.6179 16.2922 14.4456 16.3383 14.2824C16.3845 14.1192 16.4717 13.9705 16.5915 13.8505L17.9691 12.4749C18.0762 12.3766 18.2148 12.3196 18.3601 12.314C18.4239 12.3139 18.4871 12.3265 18.546 12.351C18.6049 12.3756 18.6582 12.4117 18.703 12.4571L19.0367 12.7908C19.3127 13.0855 19.6847 13.2722 20.086 13.3174C20.4872 13.3626 20.8914 13.2633 21.2261 13.0374C21.4215 12.8985 21.5843 12.7186 21.7031 12.5103C21.8219 12.302 21.8938 12.0703 21.9138 11.8313C21.9339 11.5924 21.9015 11.3519 21.8191 11.1267C21.7366 10.9016 21.606 10.6971 21.4364 10.5276V10.5249Z" fill="#E57373"/>
</svg>
