<svg width="18" height="18" viewBox="0 0 18 18" fill="none" xmlns="http://www.w3.org/2000/svg">
<path d="M13.8751 3.08249L10.1326 1.67999C9.51012 1.44749 8.49012 1.44749 7.86762 1.67999L4.12512 3.08249C3.26262 3.40499 2.55762 4.42499 2.55762 5.33999V10.9125C2.55762 11.7975 3.14262 12.96 3.85512 13.4925L7.08012 15.9C8.13762 16.695 9.87762 16.695 10.9351 15.9L14.1601 13.4925C14.8726 12.96 15.4576 11.7975 15.4576 10.9125V5.33999C15.4426 4.42499 14.7376 3.40499 13.8751 3.08249ZM8.94762 5.27249C9.83262 5.27249 10.5526 5.99249 10.5526 6.87749C10.5526 7.74749 9.87012 8.44499 9.00762 8.47499H8.99262H8.97762C8.96262 8.47499 8.94762 8.47499 8.93262 8.47499C8.03262 8.44499 7.35762 7.74749 7.35762 6.87749C7.35012 5.99249 8.07012 5.27249 8.94762 5.27249ZM10.6426 12.27C10.1851 12.57 9.59262 12.7275 9.00012 12.7275C8.40762 12.7275 7.80762 12.5775 7.35762 12.27C6.93012 11.985 6.69762 11.595 6.69012 11.1675C6.69012 10.7475 6.93012 10.3425 7.35762 10.0575C8.26512 9.45749 9.74262 9.45749 10.6501 10.0575C11.0776 10.3425 11.3176 10.7325 11.3176 11.16C11.3101 11.58 11.0701 11.985 10.6426 12.27Z" fill="#614730"/>
</svg>
