<svg width="18" height="18" viewBox="0 0 18 18" fill="none" xmlns="http://www.w3.org/2000/svg">
<path d="M12.9677 3.10503L12.9152 5.94753C12.9077 6.33753 13.1552 6.85503 13.4702 7.08753L15.3302 8.49753C16.5227 9.39753 16.3277 10.5 14.9027 10.95L12.4802 11.7075C12.0752 11.835 11.6477 12.2775 11.5427 12.69L10.9652 14.895C10.5077 16.635 9.3677 16.8075 8.4227 15.2775L7.1027 13.14C6.8627 12.75 6.2927 12.4575 5.8427 12.48L3.3377 12.6075C1.5452 12.6975 1.0352 11.6625 2.2052 10.2975L3.6902 8.57253C3.9677 8.25003 4.0952 7.65003 3.9677 7.24503L3.2027 4.81503C2.7602 3.39003 3.5552 2.60253 4.9727 3.06753L7.1852 3.79503C7.5602 3.91503 8.1227 3.83253 8.4377 3.60003L10.7477 1.93503C12.0002 1.04253 12.9977 1.56753 12.9677 3.10503Z" fill="#614730"/>
<path d="M16.0802 15.3525L13.8077 13.08C13.5902 12.8625 13.2302 12.8625 13.0127 13.08C12.7952 13.2975 12.7952 13.6575 13.0127 13.875L15.2852 16.1475C15.3977 16.26 15.5402 16.3125 15.6827 16.3125C15.8252 16.3125 15.9677 16.26 16.0802 16.1475C16.2977 15.93 16.2977 15.57 16.0802 15.3525Z" fill="#614730"/>
</svg>
