<svg width="18" height="18" viewBox="0 0 18 18" fill="none" xmlns="http://www.w3.org/2000/svg">
<path d="M6.6975 1.5H3.765C2.25 1.5 1.5 2.25 1.5 3.765V6.705C1.5 8.25 2.25 9 3.765 8.9625H6.705C8.25 9 9 8.25 8.9625 6.6975V3.765C9 2.25 8.25 1.5 6.6975 1.5ZM6.7575 7.32C6.2475 7.32 5.7525 7.125 5.34 6.78C4.875 7.1175 4.3125 7.32 3.705 7.32C3.3975 7.32 3.1425 7.065 3.1425 6.7575C3.1425 6.45 3.3975 6.195 3.705 6.195C4.47 6.195 5.1075 5.67 5.34 4.95H3.705C3.3975 4.95 3.1425 4.695 3.1425 4.3875C3.1425 4.08 3.3975 3.825 3.705 3.825H4.6725C4.7025 3.54 4.935 3.315 5.2275 3.315C5.52 3.315 5.7525 3.54 5.7825 3.825H5.9775C5.985 3.825 5.9925 3.825 5.9925 3.825H6.0075H6.75C7.0575 3.825 7.3125 4.08 7.3125 4.3875C7.3125 4.695 7.065 4.95 6.75 4.95H6.5025C6.435 5.31 6.2925 5.6475 6.105 5.955C6.3075 6.105 6.525 6.195 6.7575 6.195C7.065 6.195 7.32 6.45 7.32 6.7575C7.32 7.065 7.065 7.32 6.7575 7.32Z" fill="#614730"/>
<path d="M6.75 17.0625C3.5475 17.0625 0.9375 14.4525 0.9375 11.25C0.9375 10.9425 1.1925 10.6875 1.5 10.6875C1.8075 10.6875 2.0625 10.9425 2.0625 11.25C2.0625 13.47 3.6075 15.33 5.685 15.8175L5.4825 15.48C5.325 15.21 5.4075 14.865 5.6775 14.7075C5.94 14.55 6.2925 14.6325 6.45 14.9025L7.2375 16.215C7.3425 16.3875 7.3425 16.605 7.245 16.7775C7.14 16.95 6.9525 17.0625 6.75 17.0625Z" fill="#614730"/>
<path d="M16.4998 7.3125C16.1923 7.3125 15.9373 7.0575 15.9373 6.75C15.9373 4.53 14.3923 2.67 12.3148 2.1825L12.5173 2.52C12.6748 2.79 12.5923 3.135 12.3223 3.2925C12.0598 3.45 11.7073 3.3675 11.5498 3.0975L10.7623 1.785C10.6573 1.6125 10.6573 1.395 10.7548 1.2225C10.8598 1.05 11.0473 0.9375 11.2498 0.9375C14.4523 0.9375 17.0623 3.5475 17.0623 6.75C17.0623 7.0575 16.8073 7.3125 16.4998 7.3125Z" fill="#614730"/>
<path d="M12.6899 8.88745C10.5899 8.88745 8.87988 10.59 8.87988 12.6975C8.87988 14.7975 10.5824 16.5074 12.6899 16.5074C14.7899 16.5074 16.4999 14.805 16.4999 12.6975C16.4999 10.59 14.7974 8.88745 12.6899 8.88745ZM14.5499 14.505C14.2724 14.64 13.9349 14.5349 13.7924 14.2499L13.6649 13.9949H11.7224L11.5949 14.2499C11.4974 14.445 11.2949 14.5574 11.0924 14.5574C11.0099 14.5574 10.9199 14.5349 10.8449 14.4974C10.5674 14.3549 10.4549 14.0174 10.5899 13.7399L12.1949 10.5375C12.2924 10.35 12.4874 10.23 12.6974 10.23C12.9074 10.23 13.1024 10.35 13.1999 10.545L14.8049 13.7474C14.9399 14.025 14.8274 14.3625 14.5499 14.505Z" fill="#614730"/>
<path d="M12.2852 12.87H13.1027L12.6902 12.0525L12.2852 12.87Z" fill="#614730"/>
</svg>
