<svg width="24" height="25" viewBox="0 0 24 25" fill="none" xmlns="http://www.w3.org/2000/svg">
<g clip-path="url(#clip0_3514_65035)">
<path d="M24 5.15811C23.1075 5.54961 22.1565 5.80911 21.165 5.93511C22.185 5.32611 22.9635 4.36911 23.3295 3.21561C22.3785 3.78261 21.3285 4.18311 20.2095 4.40661C19.3065 3.44511 18.0195 2.84961 16.6155 2.84961C13.8915 2.84961 11.6985 5.06061 11.6985 7.77111C11.6985 8.16111 11.7315 8.53611 11.8125 8.89311C7.722 8.69361 4.1025 6.73311 1.671 3.74661C1.2465 4.48311 0.9975 5.32611 0.9975 6.23361C0.9975 7.93761 1.875 9.44811 3.183 10.3226C2.3925 10.3076 1.617 10.0781 0.96 9.71661C0.96 9.73161 0.96 9.75111 0.96 9.77061C0.96 12.1616 2.6655 14.1476 4.902 14.6051C4.5015 14.7146 4.065 14.7671 3.612 14.7671C3.297 14.7671 2.979 14.7491 2.6805 14.6831C3.318 16.6316 5.127 18.0641 7.278 18.1106C5.604 19.4201 3.4785 20.2091 1.1775 20.2091C0.774 20.2091 0.387 20.1911 0 20.1416C2.1795 21.5471 4.7625 22.3496 7.548 22.3496C16.602 22.3496 21.552 14.8496 21.552 8.34861C21.552 8.13111 21.5445 7.92111 21.534 7.71261C22.5105 7.01961 23.331 6.15411 24 5.15811Z" fill="#03A9F4"/>
</g>
<defs>
<clipPath id="clip0_3514_65035">
<rect width="24" height="24" fill="white" transform="translate(0 0.599609)"/>
</clipPath>
</defs>
</svg>
