<svg width="18" height="18" viewBox="0 0 18 18" fill="none" xmlns="http://www.w3.org/2000/svg">
<g clip-path="url(#clip0_3501_9228)">
<path d="M7.49966 9.74997C7.82175 10.1806 8.23268 10.5369 8.70457 10.7947C9.17647 11.0525 9.69829 11.2058 10.2346 11.2442C10.771 11.2826 11.3094 11.2053 11.8132 11.0173C12.317 10.8294 12.7745 10.5353 13.1547 10.155L15.4047 7.90497C16.0878 7.19772 16.4657 6.25046 16.4572 5.26722C16.4486 4.28398 16.0543 3.34344 15.359 2.64815C14.6637 1.95287 13.7232 1.55849 12.7399 1.54995C11.7567 1.5414 10.8094 1.91938 10.1022 2.60247L8.81216 3.88497M10.4997 8.24997C10.1776 7.81938 9.76664 7.46309 9.29475 7.20527C8.82285 6.94745 8.30103 6.79414 7.76467 6.75572C7.22832 6.71731 6.68997 6.7947 6.18615 6.98264C5.68233 7.17058 5.22483 7.46467 4.84466 7.84497L2.59466 10.095C1.91157 10.8022 1.53359 11.7495 1.54213 12.7327C1.55068 13.716 1.94506 14.6565 2.64034 15.3518C3.33562 16.0471 4.27617 16.4415 5.25941 16.45C6.24264 16.4585 7.1899 16.0806 7.89716 15.3975L9.17966 14.115" stroke="#614730" stroke-width="2" stroke-linecap="round" stroke-linejoin="round"/>
</g>
<defs>
<clipPath id="clip0_3501_9228">
<rect width="18" height="18" fill="white"/>
</clipPath>
</defs>
</svg>
