<svg width="24" height="25" viewBox="0 0 24 25" fill="none" xmlns="http://www.w3.org/2000/svg">
<g clip-path="url(#clip0_3514_65039)">
<path d="M23.5055 6.83837C23.2288 5.81023 22.4182 4.99981 21.3903 4.72296C19.5122 4.20898 11.9998 4.20898 11.9998 4.20898C11.9998 4.20898 4.48753 4.20898 2.60943 4.70337C1.60125 4.98004 0.770871 5.81042 0.4942 6.83837C0 8.71629 0 12.6109 0 12.6109C0 12.6109 0 16.5252 0.4942 18.3835C0.771054 19.4114 1.58148 20.222 2.60961 20.4989C4.50731 21.0129 12 21.0129 12 21.0129C12 21.0129 19.5122 21.0129 21.3903 20.5185C22.4184 20.2418 23.2288 19.4312 23.5057 18.4033C23.9999 16.5252 23.9999 12.6307 23.9999 12.6307C23.9999 12.6307 24.0197 8.71629 23.5055 6.83837Z" fill="#FF0000"/>
<path d="M9.60791 16.2087L15.8549 12.6107L9.60791 9.0127V16.2087Z" fill="white"/>
</g>
<defs>
<clipPath id="clip0_3514_65039">
<rect width="24" height="24" fill="white" transform="translate(0 0.599609)"/>
</clipPath>
</defs>
</svg>
