<svg width="20" height="20" viewBox="0 0 20 20" fill="none" xmlns="http://www.w3.org/2000/svg">
<path fill-rule="evenodd" clip-rule="evenodd" d="M5.97562 2.55197C5.37579 3.09589 5.14449 3.84346 5.0553 5.00002L5.12186 5.06644C5.9616 5 7.00764 5 8.33328 5H8.33329H8.33329C11.476 5 13.0474 5 14.0236 5.88528C15 6.77058 15 8.19543 15 11.0451V12.2883C15 13.3258 15 14.1745 14.9528 14.877L14.9993 14.9234C16.0827 14.8267 16.812 14.6083 17.3564 14.1148C18.3326 13.2294 18.3326 11.8046 18.3326 8.95494V7.7118C18.3326 4.86211 18.3326 3.43726 17.3564 2.55197C16.38 1.66669 14.8087 1.66669 11.666 1.66669C8.52329 1.66669 6.95193 1.66669 5.97562 2.55197Z" fill="#614730"/>
<path d="M5.0553 5.00002L4.58794 4.96398C4.5774 5.10061 4.62718 5.23502 4.72419 5.33182L5.0553 5.00002ZM5.97562 2.55197L5.66075 2.20472L5.66075 2.20472L5.97562 2.55197ZM5.12186 5.06644L4.79075 5.39824C4.88774 5.49504 5.02223 5.54454 5.15883 5.53373L5.12186 5.06644ZM14.0236 5.88528L13.7087 6.23252L13.7087 6.23253L14.0236 5.88528ZM14.9528 14.877L14.4851 14.8456C14.4761 14.9807 14.5259 15.1131 14.6217 15.2088L14.9528 14.877ZM14.9993 14.9234L14.6682 15.2552C14.7663 15.3531 14.9028 15.4026 15.0409 15.3903L14.9993 14.9234ZM17.3564 14.1148L17.6712 14.462L17.6713 14.462L17.3564 14.1148ZM17.3564 2.55197L17.6713 2.20473L17.6712 2.20472L17.3564 2.55197ZM5.52266 5.03606C5.60909 3.91534 5.82641 3.32004 6.2905 2.89922L5.66075 2.20472C4.92517 2.87173 4.67989 3.77159 4.58794 4.96398L5.52266 5.03606ZM5.45297 4.73464L5.38641 4.66822L4.72419 5.33182L4.79075 5.39824L5.45297 4.73464ZM5.15883 5.53373C5.97588 5.46908 7.00054 5.46875 8.33328 5.46875V4.53125C7.01475 4.53125 5.94731 4.53092 5.08488 4.59915L5.15883 5.53373ZM8.33328 5.46875H8.33329V4.53125H8.33328V5.46875ZM8.33329 5.46875H8.33329V4.53125H8.33329V5.46875ZM8.33329 5.46875C9.91667 5.46875 11.0614 5.46957 11.9341 5.57597C12.7977 5.68124 13.3233 5.88303 13.7087 6.23252L14.3385 5.53804C13.7477 5.00225 12.9995 4.7614 12.0476 4.64536C11.1049 4.53043 9.89258 4.53125 8.33329 4.53125V5.46875ZM13.7087 6.23253C14.0876 6.5761 14.3012 7.03511 14.4142 7.7973C14.53 8.57806 14.5312 9.60568 14.5312 11.0451H15.4687C15.4687 9.63483 15.4699 8.5252 15.3416 7.65979C15.2105 6.77582 14.9359 6.07976 14.3385 5.53803L13.7087 6.23253ZM14.5312 11.0451V12.2883H15.4687V11.0451H14.5312ZM14.5312 12.2883C14.5312 13.3314 14.531 14.1622 14.4851 14.8456L15.4205 14.9084C15.4689 14.1867 15.4687 13.3202 15.4687 12.2883H14.5312ZM15.3304 14.5916L15.2839 14.5452L14.6217 15.2088L14.6682 15.2552L15.3304 14.5916ZM17.0415 13.7675C16.6113 14.1575 16.0076 14.3628 14.9576 14.4565L15.0409 15.3903C16.1578 15.2906 17.0127 15.059 17.6712 14.462L17.0415 13.7675ZM17.8639 8.95494C17.8639 10.3943 17.8627 11.422 17.7469 12.2027C17.6339 12.9649 17.4203 13.424 17.0415 13.7675L17.6713 14.462C18.2686 13.9203 18.5432 13.2242 18.6743 12.3402C18.8026 11.4748 18.8014 10.3652 18.8014 8.95494H17.8639ZM17.8639 7.7118V8.95494H18.8014V7.7118H17.8639ZM17.0415 2.89921C17.4203 3.24277 17.6339 3.70178 17.7469 4.46398C17.8627 5.24475 17.8639 6.27239 17.8639 7.7118H18.8014C18.8014 6.30153 18.8026 5.1919 18.6743 4.32649C18.5432 3.44252 18.2686 2.74646 17.6713 2.20473L17.0415 2.89921ZM11.666 2.13544C13.2494 2.13544 14.3941 2.13626 15.2668 2.24265C16.1304 2.34793 16.656 2.54971 17.0415 2.89922L17.6712 2.20472C17.0804 1.66894 16.3322 1.42809 15.3803 1.31204C14.4376 1.19712 13.2253 1.19794 11.666 1.19794V2.13544ZM6.2905 2.89922C6.67594 2.54971 7.20157 2.34793 8.06513 2.24265C8.93785 2.13626 10.0826 2.13544 11.666 2.13544V1.19794C10.1067 1.19794 8.89439 1.19712 7.95168 1.31204C6.99981 1.42809 6.25162 1.66894 5.66075 2.20472L6.2905 2.89922Z" fill="#614730"/>
<path fill-rule="evenodd" clip-rule="evenodd" d="M12.75 11.9872C12.75 9.63623 12.75 8.46072 11.9445 7.73036C11.1391 7 9.8427 7 7.25 7C4.65727 7 3.36092 7 2.55545 7.73036C1.75 8.46072 1.75 9.63623 1.75 11.9872V13.0128C1.75 15.3638 1.75 16.5393 2.55545 17.2697C3.36092 18 4.65727 18 7.25 18C9.8427 18 11.1391 18 11.9445 17.2697C12.75 16.5393 12.75 15.3638 12.75 13.0128V11.9872ZM8.24583 10.6644L7.65925 9.48144C7.34258 8.83956 6.82264 8.83956 6.50267 9.48144L5.91607 10.6644C5.83608 10.8289 5.62277 10.9869 5.44612 11.0172L4.38291 11.1953C3.70298 11.3095 3.54633 11.8069 4.03295 12.2975L4.85952 13.1309C4.99951 13.2721 5.07617 13.5443 5.03283 13.7392L4.79619 14.7709C4.60955 15.5841 5.04283 15.9034 5.75609 15.4765L6.75265 14.8818C6.93596 14.7742 7.23258 14.7742 7.41258 14.8818L8.40916 15.4765C9.12575 15.9034 9.55567 15.5874 9.369 14.7709L9.13242 13.7392C9.08908 13.5443 9.16575 13.2721 9.30567 13.1309L10.1322 12.2975C10.6222 11.8069 10.4622 11.3095 9.78233 11.1953L8.71908 11.0172C8.53908 10.9869 8.32583 10.8289 8.24583 10.6644Z" fill="#614730"/>
<path d="M11.9445 7.73036L11.6296 8.0776L11.6297 8.07761L11.9445 7.73036ZM2.55545 7.73036L2.24058 7.38311L2.24058 7.38311L2.55545 7.73036ZM2.55545 17.2697L2.24057 17.6169L2.24059 17.6169L2.55545 17.2697ZM11.9445 17.2697L12.2594 17.6169L12.2594 17.6169L11.9445 17.2697ZM7.65925 9.48144L7.23887 9.68883L7.2393 9.68969L7.65925 9.48144ZM8.24583 10.6644L8.66743 10.4594L8.66579 10.4561L8.24583 10.6644ZM6.50267 9.48144L6.08316 9.27232L6.08272 9.27319L6.50267 9.48144ZM5.91607 10.6644L5.49611 10.4561L5.49448 10.4595L5.91607 10.6644ZM5.44612 11.0172L5.52356 11.4795L5.52524 11.4792L5.44612 11.0172ZM4.38291 11.1953L4.30547 10.733L4.30523 10.733L4.38291 11.1953ZM4.03295 12.2975L3.70012 12.6276L3.70013 12.6276L4.03295 12.2975ZM4.85952 13.1309L5.19237 12.8009L5.19234 12.8009L4.85952 13.1309ZM5.03283 13.7392L5.48973 13.844L5.49041 13.8409L5.03283 13.7392ZM4.79619 14.7709L5.25306 14.8757L5.25308 14.8757L4.79619 14.7709ZM5.75609 15.4765L5.51587 15.074L5.51539 15.0743L5.75609 15.4765ZM6.75265 14.8818L6.51538 14.4775L6.51243 14.4793L6.75265 14.8818ZM7.41258 14.8818L7.1721 15.2841L7.17236 15.2843L7.41258 14.8818ZM8.40916 15.4765L8.16895 15.879L8.16928 15.8792L8.40916 15.4765ZM9.369 14.7709L9.82596 14.6664L9.82589 14.6661L9.369 14.7709ZM9.13242 13.7392L8.67483 13.8409L8.67553 13.844L9.13242 13.7392ZM9.30567 13.1309L8.97285 12.8009L8.97274 12.801L9.30567 13.1309ZM10.1322 12.2975L9.80057 11.9663L9.79943 11.9674L10.1322 12.2975ZM9.78233 11.1953L9.86001 10.733L9.85976 10.733L9.78233 11.1953ZM8.71908 11.0172L8.6414 11.4795L8.64165 11.4795L8.71908 11.0172ZM11.6297 8.07761C11.9231 8.34371 12.094 8.70165 12.1856 9.3198C12.28 9.95652 12.2812 10.7971 12.2812 11.9872H13.2188C13.2188 10.8263 13.22 9.90366 13.113 9.1823C13.0033 8.44237 12.7714 7.84737 12.2594 7.38311L11.6297 8.07761ZM7.25 7.46875C8.55839 7.46875 9.4969 7.46957 10.2108 7.5566C10.9155 7.64251 11.3297 7.80557 11.6296 8.0776L12.2594 7.38312C11.754 6.92479 11.1172 6.72267 10.3242 6.62599C9.54036 6.53043 8.53431 6.53125 7.25 6.53125V7.46875ZM2.87033 8.07761C3.17034 7.80556 3.58452 7.64251 4.28923 7.5566C5.0031 7.46957 5.94159 7.46875 7.25 7.46875V6.53125C5.96568 6.53125 4.95963 6.53043 4.17578 6.62599C3.38276 6.72267 2.74603 6.92479 2.24058 7.38311L2.87033 8.07761ZM2.21875 11.9872C2.21875 10.7971 2.21996 9.95652 2.31436 9.3198C2.40602 8.70165 2.57687 8.34371 2.87033 8.07761L2.24058 7.38311C1.72858 7.84738 1.49671 8.44237 1.387 9.1823C1.28004 9.90366 1.28125 10.8263 1.28125 11.9872H2.21875ZM2.21875 13.0128V11.9872H1.28125V13.0128H2.21875ZM2.87034 16.9224C2.57687 16.6563 2.40602 16.2984 2.31436 15.6802C2.21996 15.0435 2.21875 14.2029 2.21875 13.0128H1.28125C1.28125 14.1737 1.28004 15.0963 1.387 15.8177C1.49671 16.5576 1.72858 17.1526 2.24057 17.6169L2.87034 16.9224ZM7.25 17.5312C5.94159 17.5312 5.0031 17.5304 4.28923 17.4434C3.58452 17.3575 3.17034 17.1944 2.87032 16.9224L2.24059 17.6169C2.74603 18.0752 3.38276 18.2773 4.17578 18.374C4.95963 18.4696 5.96568 18.4688 7.25 18.4688V17.5312ZM11.6296 16.9224C11.3297 17.1944 10.9155 17.3575 10.2108 17.4434C9.4969 17.5304 8.55839 17.5312 7.25 17.5312V18.4688C8.53431 18.4688 9.54036 18.4696 10.3242 18.374C11.1172 18.2773 11.754 18.0752 12.2594 17.6169L11.6296 16.9224ZM12.2812 13.0128C12.2812 14.2029 12.28 15.0435 12.1856 15.6802C12.094 16.2984 11.9231 16.6563 11.6296 16.9224L12.2594 17.6169C12.7714 17.1526 13.0033 16.5576 13.113 15.8177C13.22 15.0963 13.2188 14.1737 13.2188 13.0128H12.2812ZM12.2812 11.9872V13.0128H13.2188V11.9872H12.2812ZM7.2393 9.68969L7.82588 10.8726L8.66579 10.4561L8.0792 9.2732L7.2393 9.68969ZM6.92219 9.69056C6.98101 9.57257 7.03581 9.51152 7.06955 9.48409C7.10024 9.45914 7.10362 9.46878 7.0822 9.46878C7.06065 9.46878 7.06354 9.45904 7.09349 9.48349C7.12657 9.5105 7.18079 9.57109 7.23887 9.68883L8.07963 9.27405C7.88836 8.88636 7.55473 8.53128 7.0822 8.53128C6.61051 8.53128 6.27607 8.88531 6.08316 9.27232L6.92219 9.69056ZM6.33602 10.8726L6.92262 9.68969L6.08272 9.27319L5.49612 10.4561L6.33602 10.8726ZM5.52524 11.4792C5.70621 11.4482 5.87146 11.3612 5.99802 11.2666C6.12471 11.1719 6.25613 11.037 6.33767 10.8693L5.49448 10.4595C5.49667 10.455 5.49449 10.4607 5.4827 10.474C5.47145 10.4867 5.45574 10.5015 5.43666 10.5157C5.41758 10.53 5.39899 10.5409 5.38362 10.5481C5.36743 10.5557 5.36151 10.5561 5.367 10.5552L5.52524 11.4792ZM4.46034 11.6576L5.52356 11.4795L5.36869 10.5549L4.30547 10.733L4.46034 11.6576ZM4.36578 11.9674C4.18076 11.7809 4.2295 11.7084 4.21735 11.7468C4.20463 11.7869 4.20375 11.7007 4.46058 11.6575L4.30523 10.733C3.88214 10.8041 3.46297 11.0237 3.3236 11.4637C3.1848 11.902 3.39852 12.3235 3.70012 12.6276L4.36578 11.9674ZM5.19234 12.8009L4.36577 11.9674L3.70013 12.6276L4.5267 13.461L5.19234 12.8009ZM5.49041 13.8409C5.53297 13.6495 5.51265 13.4517 5.46585 13.2869C5.41914 13.1224 5.33219 12.9419 5.19237 12.8009L4.52668 13.461C4.5247 13.459 4.53043 13.4645 4.53948 13.4812C4.54821 13.4973 4.55706 13.5185 4.56399 13.5429C4.57092 13.5673 4.57466 13.5905 4.5758 13.6096C4.57697 13.6294 4.57502 13.6385 4.57525 13.6375L5.49041 13.8409ZM5.25308 14.8757L5.48972 13.844L4.57595 13.6344L4.33931 14.6661L5.25308 14.8757ZM5.51539 15.0743C5.37304 15.1595 5.27451 15.1888 5.22036 15.1956C5.17052 15.2019 5.1842 15.1874 5.21645 15.2111C5.24826 15.2345 5.23765 15.2507 5.22803 15.1988C5.21771 15.1431 5.2157 15.0385 5.25306 14.8757L4.33932 14.666C4.23661 15.1135 4.24662 15.6615 4.6609 15.9663C5.07756 16.2728 5.60333 16.1142 5.99679 15.8788L5.51539 15.0743ZM6.51243 14.4793L5.51587 15.074L5.99631 15.879L6.99287 15.2843L6.51243 14.4793ZM7.65307 14.4794C7.47281 14.3717 7.26499 14.3323 7.08386 14.3323C6.9023 14.3323 6.69545 14.3718 6.51538 14.4775L6.98991 15.286C6.9892 15.2865 6.99732 15.2818 7.01651 15.2772C7.03515 15.2728 7.05842 15.2698 7.08386 15.2698C7.10931 15.2698 7.13209 15.2728 7.14983 15.277C7.16815 15.2814 7.17466 15.2857 7.1721 15.2841L7.65307 14.4794ZM8.64938 15.074L7.6528 14.4793L7.17236 15.2843L8.16895 15.879L8.64938 15.074ZM8.91204 14.8753C8.94958 15.0396 8.94776 15.145 8.93747 15.2011C8.92788 15.2535 8.91732 15.2364 8.95017 15.2123C8.98339 15.1879 8.99772 15.2027 8.94709 15.1962C8.89223 15.1892 8.79278 15.1594 8.64904 15.0738L8.16928 15.8792C8.56211 16.1132 9.08846 16.2742 9.50543 15.9677C9.92043 15.6626 9.92807 15.1131 9.82596 14.6664L8.91204 14.8753ZM8.67553 13.844L8.91211 14.8756L9.82589 14.6661L9.58931 13.6344L8.67553 13.844ZM8.97274 12.801C8.833 12.942 8.74608 13.1224 8.69939 13.2869C8.6526 13.4517 8.63228 13.6495 8.67484 13.8409L9.58999 13.6375C9.59023 13.6385 9.58827 13.6294 9.58945 13.6096C9.59059 13.5904 9.59433 13.5673 9.60126 13.5429C9.60819 13.5185 9.61704 13.4973 9.62578 13.4811C9.63483 13.4644 9.64057 13.4589 9.63859 13.4609L8.97274 12.801ZM9.79943 11.9674L8.97285 12.8009L9.63848 13.461L10.4651 12.6276L9.79943 11.9674ZM9.70465 11.6575C9.96197 11.7008 9.96209 11.7874 9.9494 11.7476C9.93682 11.7081 9.98677 11.7798 9.80057 11.9663L10.4639 12.6288C10.7677 12.3245 10.9827 11.9023 10.8426 11.4629C10.7025 11.0232 10.2826 10.804 9.86001 10.733L9.70465 11.6575ZM8.64165 11.4795L9.7049 11.6576L9.85976 10.733L8.79651 10.5549L8.64165 11.4795ZM7.82425 10.8693C7.90584 11.0371 8.03742 11.1722 8.16513 11.2672C8.29296 11.3623 8.45921 11.4488 8.6414 11.4795L8.79677 10.5549C8.80099 10.5556 8.79434 10.555 8.77802 10.5474C8.76242 10.5401 8.74379 10.5292 8.72479 10.5151C8.70577 10.5009 8.69018 10.4864 8.67904 10.4738C8.66737 10.4606 8.66523 10.4549 8.66742 10.4594L7.82425 10.8693Z" fill="#614730"/>
</svg>
