<svg width="20" height="20" viewBox="0 0 20 20" fill="none" xmlns="http://www.w3.org/2000/svg">
<path fill-rule="evenodd" clip-rule="evenodd" d="M1.95943 11.0111L1.95945 11.0112L2.21032 12.6437L2.21033 12.6437C2.62735 15.3574 2.83588 16.7143 3.80913 17.5238C4.78238 18.3333 6.20523 18.3333 9.05096 18.3333H10.949C13.7947 18.3333 15.2175 18.3333 16.1908 17.5238C17.164 16.7144 17.3725 15.3576 17.7896 12.6441L17.7896 12.6437L18.0405 11.0112L18.0405 11.0111C18.3346 9.09678 18.4817 8.13966 18.1198 7.29114C17.7579 6.44259 16.955 5.86201 15.349 4.70087L14.1491 3.83332L14.1489 3.83315C12.1513 2.38882 11.1525 1.66666 9.99996 1.66666C8.84741 1.66666 7.8486 2.38883 5.85099 3.83318L5.85078 3.83332L4.65091 4.70087C3.04498 5.86201 2.24202 6.44259 1.8801 7.29114C1.51818 8.13966 1.66526 9.09678 1.95943 11.0111ZM8.33337 14C7.78109 14 7.33337 14.4477 7.33337 15C7.33337 15.5523 7.78109 16 8.33337 16H11.6667C12.219 16 12.6667 15.5523 12.6667 15C12.6667 14.4477 12.219 14 11.6667 14H8.33337Z" fill="#614730"/>
<path d="M1.95945 11.0112L1.49601 11.0816L1.49614 11.0824L1.95945 11.0112ZM1.95943 11.0111L2.42288 10.9408L2.42274 10.9399L1.95943 11.0111ZM2.21032 12.6437L1.74701 12.7149L1.74708 12.7153L2.21032 12.6437ZM2.21033 12.6437L2.67364 12.5725L2.67356 12.572L2.21033 12.6437ZM3.80913 17.5238L3.50938 17.8842H3.50938L3.80913 17.5238ZM16.1908 17.5238L16.4905 17.8842L16.1908 17.5238ZM17.7896 12.6441L18.2529 12.7153L18.2532 12.7128L17.7896 12.6441ZM17.7896 12.6437L17.3263 12.5725L17.3259 12.575L17.7896 12.6437ZM18.0405 11.0112L18.5038 11.0824L18.5045 11.0775L18.0405 11.0112ZM18.0405 11.0111L17.5771 10.9399L17.5764 10.9448L18.0405 11.0111ZM18.1198 7.29114L17.6886 7.47504V7.47504L18.1198 7.29114ZM15.349 4.70087L15.6237 4.32101L15.6237 4.32101L15.349 4.70087ZM14.1491 3.83332L14.4238 3.45346L14.423 3.45291L14.1491 3.83332ZM14.1489 3.83315L13.8742 4.21301L13.875 4.21356L14.1489 3.83315ZM5.85099 3.83318L5.57633 3.45332L5.57624 3.45338L5.85099 3.83318ZM5.85078 3.83332L6.12544 4.21318L6.12553 4.21312L5.85078 3.83332ZM4.65091 4.70087L4.37626 4.32101L4.37626 4.32101L4.65091 4.70087ZM1.8801 7.29114L2.31127 7.47504L2.31127 7.47504L1.8801 7.29114ZM2.42289 10.9409L2.42287 10.9408L1.49599 11.0815L1.49601 11.0816L2.42289 10.9409ZM2.67363 12.5725L2.42276 10.94L1.49614 11.0824L1.74701 12.7149L2.67363 12.5725ZM2.67356 12.572L2.67355 12.572L1.74708 12.7153L1.74709 12.7154L2.67356 12.572ZM4.10887 17.1634C3.72056 16.8405 3.46273 16.3968 3.25137 15.6674C3.03592 14.9239 2.88406 13.9418 2.67364 12.5725L1.74702 12.7149C1.95362 14.0594 2.11454 15.1126 2.35091 15.9283C2.59139 16.7582 2.92444 17.3977 3.50938 17.8842L4.10887 17.1634ZM9.05096 17.8646C7.61635 17.8646 6.58266 17.8638 5.78439 17.7668C4.99784 17.6713 4.49912 17.488 4.10887 17.1634L3.50938 17.8842C4.09239 18.3691 4.79173 18.5906 5.67135 18.6975C6.53924 18.8029 7.63984 18.8021 9.05096 18.8021V17.8646ZM10.949 17.8646H9.05096V18.8021H10.949V17.8646ZM15.891 17.1634C15.5008 17.488 15.0021 17.6713 14.2155 17.7668C13.4173 17.8638 12.3836 17.8646 10.949 17.8646V18.8021C12.3601 18.8021 13.4607 18.8029 14.3286 18.6975C15.2082 18.5906 15.9075 18.3691 16.4905 17.8842L15.891 17.1634ZM17.3262 12.5729C17.1158 13.942 16.964 14.924 16.7485 15.6675C16.5372 16.3968 16.2793 16.8405 15.891 17.1634L16.4905 17.8842C17.0754 17.3977 17.4085 16.7582 17.649 15.9284C17.8853 15.1128 18.0463 14.0596 18.2529 12.7153L17.3262 12.5729ZM17.3259 12.575L17.3259 12.5754L18.2532 12.7128L18.2533 12.7124L17.3259 12.575ZM17.5771 10.94L17.3263 12.5725L18.2529 12.7148L18.5038 11.0824L17.5771 10.94ZM17.5764 10.9448L17.5764 10.9449L18.5045 11.0775L18.5045 11.0774L17.5764 10.9448ZM17.6886 7.47504C17.8321 7.81154 17.8843 8.18543 17.858 8.72879C17.8311 9.28337 17.7257 9.97317 17.5772 10.9399L18.5038 11.0823C18.6494 10.1347 18.7646 9.38881 18.7944 8.77411C18.8247 8.1482 18.7693 7.61926 18.551 7.10724L17.6886 7.47504ZM15.0744 5.08073C15.8849 5.66677 16.4647 6.08664 16.8898 6.46386C17.3075 6.83444 17.5447 7.13764 17.6886 7.47504L18.551 7.10724C18.333 6.59609 17.9878 6.18473 17.512 5.7626C17.0437 5.34711 16.4191 4.89612 15.6237 4.32101L15.0744 5.08073ZM13.8745 4.21319L15.0744 5.08074L15.6237 4.32101L14.4238 3.45346L13.8745 4.21319ZM13.875 4.21356L13.8752 4.21374L14.423 3.45291L14.4228 3.45273L13.875 4.21356ZM9.99996 2.13541C10.4671 2.13541 10.9245 2.27832 11.5281 2.61707C12.1427 2.9619 12.8666 3.48447 13.8742 4.21301L14.4235 3.45329C13.4335 2.73749 12.6593 2.17682 11.9869 1.79949C11.3037 1.41608 10.6853 1.19791 9.99996 1.19791V2.13541ZM6.12564 4.21304C7.13325 3.4845 7.85724 2.96192 8.47177 2.61707C9.07544 2.27832 9.53277 2.13541 9.99996 2.13541V1.19791C9.31461 1.19791 8.69625 1.41608 8.01298 1.7995C7.34056 2.17683 6.56633 2.73751 5.57633 3.45332L6.12564 4.21304ZM6.12553 4.21312L6.12573 4.21297L5.57624 3.45338L5.57604 3.45353L6.12553 4.21312ZM4.92556 5.08073L6.12544 4.21318L5.57613 3.45346L4.37626 4.32101L4.92556 5.08073ZM2.31127 7.47504C2.45517 7.13764 2.69243 6.83444 3.1101 6.46386C3.53526 6.08664 4.11503 5.66677 4.92556 5.08073L4.37626 4.32101C3.58086 4.89612 2.95619 5.3471 2.4879 5.7626C2.01213 6.18472 1.66695 6.59608 1.44893 7.10724L2.31127 7.47504ZM2.42274 10.9399C2.27419 9.97316 2.16878 9.28336 2.14194 8.72879C2.11563 8.18543 2.16774 7.81154 2.31127 7.47504L1.44893 7.10724C1.23054 7.61926 1.17523 8.1482 1.20553 8.77411C1.23529 9.38881 1.35051 10.1347 1.49612 11.0823L2.42274 10.9399ZM7.80212 15C7.80212 14.7066 8.03997 14.4688 8.33337 14.4688V13.5312C7.52221 13.5312 6.86462 14.1888 6.86462 15H7.80212ZM8.33337 15.5312C8.03997 15.5312 7.80212 15.2934 7.80212 15H6.86462C6.86462 15.8112 7.52221 16.4688 8.33337 16.4688V15.5312ZM11.6667 15.5312H8.33337V16.4688H11.6667V15.5312ZM12.198 15C12.198 15.2934 11.9601 15.5312 11.6667 15.5312V16.4688C12.4779 16.4688 13.1355 15.8112 13.1355 15H12.198ZM11.6667 14.4688C11.9601 14.4688 12.198 14.7066 12.198 15H13.1355C13.1355 14.1888 12.4779 13.5312 11.6667 13.5312V14.4688ZM8.33337 14.4688H11.6667V13.5312H8.33337V14.4688Z" fill="#614730"/>
</svg>
