<svg width="20" height="20" viewBox="0 0 20 20" fill="none" xmlns="http://www.w3.org/2000/svg">
<mask id="path-1-inside-1_70_9046" fill="white">
<path fill-rule="evenodd" clip-rule="evenodd" d="M3.33337 8.26571C3.33337 9.50982 3.68117 10.6735 4.28576 11.6667H15.7143C16.319 10.6735 16.6667 9.50982 16.6667 8.26571C16.6667 4.62115 13.682 1.66666 10 1.66666C6.31814 1.66666 3.33337 4.62115 3.33337 8.26571ZM10.8219 4.8159C10.9503 4.59112 10.8722 4.30479 10.6475 4.17634C10.4227 4.0479 10.1364 4.12599 10.0079 4.35077L8.76872 6.51936C8.39968 7.16519 8.866 7.96875 9.60983 7.96875H10.3869C10.3965 7.96875 10.4005 7.97085 10.4025 7.97209C10.4058 7.97407 10.4103 7.97799 10.4139 7.98431C10.4176 7.99064 10.4188 7.99644 10.4189 8.00027C10.4189 8.00269 10.4188 8.00717 10.414 8.0155L9.1746 10.1841C9.04614 10.4088 9.12421 10.6952 9.34897 10.8236C9.57374 10.9521 9.86008 10.874 9.98854 10.6493L11.228 8.48071C11.5971 7.83488 11.1308 7.03125 10.3869 7.03125H9.60983C9.60023 7.03125 9.59627 7.02915 9.5942 7.0279C9.59091 7.02593 9.58647 7.02201 9.5828 7.01568C9.57913 7.00936 9.57793 7.00356 9.57785 6.99972C9.5778 6.99731 9.57793 6.99283 9.5827 6.9845L10.8219 4.8159Z"/>
</mask>
<path fill-rule="evenodd" clip-rule="evenodd" d="M3.33337 8.26571C3.33337 9.50982 3.68117 10.6735 4.28576 11.6667H15.7143C16.319 10.6735 16.6667 9.50982 16.6667 8.26571C16.6667 4.62115 13.682 1.66666 10 1.66666C6.31814 1.66666 3.33337 4.62115 3.33337 8.26571ZM10.8219 4.8159C10.9503 4.59112 10.8722 4.30479 10.6475 4.17634C10.4227 4.0479 10.1364 4.12599 10.0079 4.35077L8.76872 6.51936C8.39968 7.16519 8.866 7.96875 9.60983 7.96875H10.3869C10.3965 7.96875 10.4005 7.97085 10.4025 7.97209C10.4058 7.97407 10.4103 7.97799 10.4139 7.98431C10.4176 7.99064 10.4188 7.99644 10.4189 8.00027C10.4189 8.00269 10.4188 8.00717 10.414 8.0155L9.1746 10.1841C9.04614 10.4088 9.12421 10.6952 9.34897 10.8236C9.57374 10.9521 9.86008 10.874 9.98854 10.6493L11.228 8.48071C11.5971 7.83488 11.1308 7.03125 10.3869 7.03125H9.60983C9.60023 7.03125 9.59627 7.02915 9.5942 7.0279C9.59091 7.02593 9.58647 7.02201 9.5828 7.01568C9.57913 7.00936 9.57793 7.00356 9.57785 6.99972C9.5778 6.99731 9.57793 6.99283 9.5827 6.9845L10.8219 4.8159Z" fill="#FFFFFF"/>
<path d="M4.28576 11.6667L3.48497 12.1541L3.75891 12.6042H4.28576V11.6667ZM15.7143 11.6667V12.6042H16.2411L16.5151 12.1542L15.7143 11.6667ZM10.6475 4.17634L11.1126 3.36237L11.1126 3.36236L10.6475 4.17634ZM10.8219 4.8159L10.0079 4.35077L10.0079 4.35077L10.8219 4.8159ZM10.0079 4.35077L9.19394 3.88564L10.0079 4.35077ZM8.76872 6.51936L7.95474 6.05423L7.95474 6.05423L8.76872 6.51936ZM10.4025 7.97209L10.8845 7.16797L10.8844 7.16793L10.4025 7.97209ZM10.4139 7.98431L9.60303 8.4548L9.60306 8.45485L10.4139 7.98431ZM10.4189 8.00027L9.48158 8.01961L9.48158 8.01968L10.4189 8.00027ZM10.414 8.0155L9.60011 7.55027L9.60009 7.5503L10.414 8.0155ZM9.1746 10.1841L9.98854 10.6493L9.98854 10.6493L9.1746 10.1841ZM9.34897 10.8236L8.88377 11.6376L8.88377 11.6376L9.34897 10.8236ZM9.98854 10.6493L9.1746 10.1841L9.1746 10.1841L9.98854 10.6493ZM11.228 8.48071L12.0419 8.94591V8.94591L11.228 8.48071ZM9.5942 7.0279L9.11224 7.83203L9.11238 7.83211L9.5942 7.0279ZM9.5828 7.01568L8.77194 7.48623L8.77197 7.48627L9.5828 7.01568ZM9.57785 6.99972L8.64055 7.01912L8.64055 7.01918L9.57785 6.99972ZM9.5827 6.9845L8.76872 6.51936L8.76872 6.51937L9.5827 6.9845ZM5.08655 11.1792C4.5686 10.3283 4.27087 9.33262 4.27087 8.26571H2.39587C2.39587 9.68703 2.79373 11.0186 3.48497 12.1541L5.08655 11.1792ZM15.7143 10.7292H4.28576V12.6042H15.7143V10.7292ZM15.7292 8.26571C15.7292 9.33263 15.4315 10.3283 14.9135 11.1791L16.5151 12.1542C17.2064 11.0186 17.6042 9.68701 17.6042 8.26571H15.7292ZM10 2.60416C13.1732 2.60416 15.7292 5.1479 15.7292 8.26571H17.6042C17.6042 4.0944 14.1907 0.729156 10 0.729156V2.60416ZM4.27087 8.26571C4.27087 5.1479 6.82687 2.60416 10 2.60416V0.729156C5.80941 0.729156 2.39587 4.09439 2.39587 8.26571H4.27087ZM10.1823 4.99032C9.95757 4.86188 9.87948 4.57554 10.0079 4.35077L11.6359 5.28103C12.0212 4.60671 11.7869 3.74769 11.1126 3.36237L10.1823 4.99032ZM10.8219 4.8159C10.6935 5.04067 10.4071 5.11876 10.1823 4.99032L11.1126 3.36236C10.4383 2.97704 9.57927 3.21132 9.19394 3.88564L10.8219 4.8159ZM9.5827 6.98449L10.8219 4.8159L9.19394 3.88564L7.95474 6.05423L9.5827 6.98449ZM9.60983 7.03125C9.60181 7.03125 9.59799 7.03024 9.5971 7.02999C9.59602 7.02969 9.59537 7.02939 9.5946 7.02894C9.59262 7.02775 9.58751 7.0238 9.5828 7.01568C9.57809 7.00757 9.5772 7.00118 9.57715 6.99886C9.57713 6.99797 9.5772 6.99725 9.57747 6.99617C9.5777 6.99528 9.57872 6.99146 9.5827 6.98449L7.95474 6.05423C7.22856 7.32505 8.14617 8.90625 9.60983 8.90625V7.03125ZM10.3869 7.03125H9.60983V8.90625H10.3869V7.03125ZM10.8844 7.16793C10.7382 7.08027 10.5679 7.03125 10.3869 7.03125V8.90625C10.3238 8.90625 10.2406 8.89938 10.1464 8.87319C10.0415 8.84403 9.9638 8.80213 9.92062 8.77625L10.8844 7.16793ZM11.2248 7.51382C11.1432 7.37319 11.0268 7.25326 10.8845 7.16797L9.92057 8.77622C9.78484 8.69487 9.67729 8.58278 9.60303 8.4548L11.2248 7.51382ZM11.3562 7.98094C11.3528 7.81497 11.3064 7.65436 11.2248 7.51378L9.60306 8.45485C9.52883 8.32693 9.48485 8.17791 9.48158 8.01961L11.3562 7.98094ZM11.2279 8.48074C11.3178 8.32362 11.3597 8.15142 11.3562 7.98087L9.48158 8.01968C9.48054 7.96931 9.48273 7.88102 9.50946 7.7755C9.53346 7.68072 9.56878 7.60508 9.60011 7.55027L11.2279 8.48074ZM9.98854 10.6493L11.228 8.4807L9.60009 7.5503L8.36067 9.71886L9.98854 10.6493ZM9.81417 10.0097C10.0389 10.1382 10.117 10.4245 9.98854 10.6493L8.36067 9.71886C7.97528 10.3932 8.20949 11.2522 8.88377 11.6376L9.81417 10.0097ZM9.1746 10.1841C9.30307 9.9593 9.58941 9.88124 9.81417 10.0097L8.88377 11.6376C9.55806 12.023 10.4171 11.7888 10.8025 11.1145L9.1746 10.1841ZM10.414 8.01551L9.1746 10.1841L10.8025 11.1145L12.0419 8.94591L10.414 8.01551ZM10.3869 7.96875C10.3949 7.96875 10.3987 7.96976 10.3996 7.97001C10.4007 7.9703 10.4014 7.9706 10.4021 7.97106C10.4041 7.97225 10.4092 7.9762 10.4139 7.98431C10.4186 7.99243 10.4195 7.99882 10.4196 8.00114C10.4196 8.00203 10.4195 8.00275 10.4193 8.00382C10.419 8.00472 10.418 8.00854 10.414 8.01551L12.0419 8.94591C12.7682 7.67509 11.8506 6.09375 10.3869 6.09375V7.96875ZM9.60983 7.96875H10.3869V6.09375H9.60983V7.96875ZM9.11238 7.83211C9.25859 7.91971 9.42884 7.96875 9.60983 7.96875V6.09375C9.67296 6.09375 9.75614 6.10062 9.85032 6.1268C9.95517 6.15596 10.0329 6.19785 10.076 6.2237L9.11238 7.83211ZM8.77197 7.48627C8.85355 7.62684 8.96994 7.74675 9.11224 7.83203L10.0762 6.22378C10.2119 6.30512 10.3194 6.41718 10.3936 6.5451L8.77197 7.48627ZM8.64055 7.01918C8.64399 7.1851 8.69037 7.34567 8.77194 7.48623L10.3937 6.54514C10.4679 6.67304 10.5119 6.82203 10.5151 6.98027L8.64055 7.01918ZM8.76872 6.51937C8.67896 6.67645 8.63702 6.8486 8.64055 7.01912L10.5151 6.98032C10.5162 7.03068 10.514 7.11895 10.4873 7.22445C10.4633 7.31922 10.428 7.39483 10.3967 7.44962L8.76872 6.51937ZM10.0079 4.35077L8.76872 6.51936L10.3967 7.44963L11.6359 5.28103L10.0079 4.35077Z" fill="#FFFFFF" mask="url(#path-1-inside-1_70_9046)"/>
<path d="M14.1667 13.3333H5.83337L6.66671 15.8333H13.3334L14.1667 13.3333Z" fill="#FFFFFF" stroke="#FFFFFF" stroke-width="0.9375" stroke-linejoin="round"/>
<path d="M12.5 15.8333L11.6667 18.3333H8.33333L7.5 15.8333" fill="#FFFFFF"/>
<path d="M12.5 15.8333L11.6667 18.3333H8.33333L7.5 15.8333" stroke="#FFFFFF" stroke-width="0.9375" stroke-linejoin="round"/>
</svg>
