<svg width="20" height="20" viewBox="0 0 20 20" fill="none" xmlns="http://www.w3.org/2000/svg">
<path fill-rule="evenodd" clip-rule="evenodd" d="M18.3334 8.33332V11.6667C18.3334 14.8093 18.3334 16.3807 17.357 17.357C16.3808 18.3333 14.8094 18.3333 11.6667 18.3333H10C6.85734 18.3333 5.286 18.3333 4.30968 17.357C3.33337 16.3807 3.33337 14.8093 3.33337 11.6667V8.33332C3.33337 5.19062 3.33337 3.61928 4.30968 2.64296C5.286 1.66666 6.85734 1.66666 10 1.66666H11.6667C14.8094 1.66666 16.3808 1.66666 17.357 2.64296C18.3334 3.61928 18.3334 5.19062 18.3334 8.33332ZM12.8993 8.59088H9.60062H9.60061C8.56395 8.59088 8.04566 8.59088 7.72359 8.30909C7.40153 8.02729 7.40153 7.57375 7.40153 6.66667V6.66667V6.66666C7.40153 5.75958 7.40153 5.30604 7.72359 5.02424C8.04566 4.74245 8.56395 4.74245 9.60062 4.74245H12.8993C13.936 4.74245 14.4543 4.74245 14.7764 5.02424C15.0984 5.30605 15.0984 5.75958 15.0984 6.66667C15.0984 7.57375 15.0984 8.02729 14.7764 8.30909C14.4543 8.59088 13.936 8.59088 12.8993 8.59088Z" fill="#614730"/>
<path d="M17.357 17.357L17.0256 17.0255L17.0256 17.0255L17.357 17.357ZM4.30968 17.357L4.64114 17.0255L4.64113 17.0255L4.30968 17.357ZM4.30968 2.64296L3.97823 2.31151L3.97822 2.31151L4.30968 2.64296ZM17.357 2.64296L17.0256 2.97441L17.0256 2.97442L17.357 2.64296ZM7.72359 8.30909L7.41491 8.66186L7.41493 8.66187L7.72359 8.30909ZM7.72359 5.02424L7.41493 4.67146L7.41491 4.67147L7.72359 5.02424ZM14.7764 5.02424L15.0851 4.67149L15.085 4.67144L14.7764 5.02424ZM14.7764 8.30909L15.085 8.66189L15.0851 8.66184L14.7764 8.30909ZM18.8021 11.6667V8.33332H17.8646V11.6667H18.8021ZM17.6885 17.6885C18.2783 17.0987 18.5469 16.3464 18.6759 15.3867C18.8031 14.4405 18.8021 13.2247 18.8021 11.6667H17.8646C17.8646 13.2512 17.8636 14.3925 17.7468 15.2618C17.6317 16.1175 17.4121 16.639 17.0256 17.0255L17.6885 17.6885ZM11.6667 18.8021C13.2248 18.8021 14.4405 18.8031 15.3867 18.6758C16.3464 18.5468 17.0988 18.2782 17.6885 17.6884L17.0256 17.0255C16.6391 17.4121 16.1176 17.6317 15.2618 17.7467C14.3926 17.8636 13.2513 17.8646 11.6667 17.8646V18.8021ZM10 18.8021H11.6667V17.8646H10V18.8021ZM3.97822 17.6884C4.56799 18.2782 5.32031 18.5468 6.28001 18.6758C7.22621 18.8031 8.44194 18.8021 10 18.8021V17.8646C8.41544 17.8646 7.27415 17.8636 6.40493 17.7467C5.5492 17.6317 5.02769 17.4121 4.64114 17.0255L3.97822 17.6884ZM2.86462 11.6667C2.86462 13.2247 2.86363 14.4405 2.99084 15.3867C3.11987 16.3464 3.38846 17.0987 3.97824 17.6885L4.64113 17.0255C4.2546 16.639 4.03503 16.1175 3.91998 15.2618C3.80312 14.3925 3.80212 13.2512 3.80212 11.6667H2.86462ZM2.86462 8.33332V11.6667H3.80212V8.33332H2.86462ZM3.97822 2.31151C3.38846 2.90128 3.11987 3.6536 2.99084 4.61329C2.86363 5.5595 2.86462 6.77522 2.86462 8.33332H3.80212C3.80212 6.74872 3.80312 5.60743 3.91998 4.73821C4.03503 3.88248 4.25459 3.36097 4.64114 2.97442L3.97822 2.31151ZM10 1.19791C8.44194 1.19791 7.22621 1.19691 6.28001 1.32412C5.32032 1.45315 4.568 1.72174 3.97823 2.31151L4.64114 2.97442C5.02769 2.58788 5.54919 2.36832 6.40493 2.25327C7.27415 2.1364 8.41544 2.13541 10 2.13541V1.19791ZM11.6667 1.19791H10V2.13541H11.6667V1.19791ZM17.6885 2.31152C17.0988 1.72174 16.3464 1.45315 15.3867 1.32412C14.4405 1.19691 13.2248 1.19791 11.6667 1.19791V2.13541C13.2513 2.13541 14.3926 2.1364 15.2618 2.25327C16.1176 2.36832 16.6391 2.58788 17.0256 2.97441L17.6885 2.31152ZM18.8021 8.33332C18.8021 6.77522 18.8031 5.5595 18.6759 4.61329C18.5469 3.65359 18.2783 2.90127 17.6885 2.31151L17.0256 2.97442C17.4121 3.36097 17.6317 3.88248 17.7468 4.73821C17.8636 5.60743 17.8646 6.74872 17.8646 8.33332H18.8021ZM9.60062 9.05963H12.8993V8.12213H9.60062V9.05963ZM9.60061 9.05963H9.60062V8.12213H9.60061V9.05963ZM7.41493 8.66187C7.67873 8.89268 7.99837 8.98108 8.33936 9.0212C8.67257 9.0604 9.09391 9.05963 9.60061 9.05963V8.12213C9.07065 8.12213 8.71451 8.12137 8.44889 8.09012C8.19106 8.05979 8.09052 8.00729 8.03224 7.95631L7.41493 8.66187ZM6.93278 6.66667C6.93278 7.10513 6.93149 7.48775 6.97847 7.79355C7.02863 8.11995 7.14211 8.42315 7.41491 8.66186L8.03226 7.95632C7.98301 7.91322 7.93546 7.84876 7.9051 7.65117C7.87157 7.43298 7.87028 7.13529 7.87028 6.66667H6.93278ZM6.93278 6.66667V6.66667H7.87028V6.66667H6.93278ZM6.93278 6.66666V6.66667H7.87028V6.66666H6.93278ZM7.41491 4.67147C7.14211 4.91018 7.02863 5.21339 6.97847 5.53978C6.93149 5.84558 6.93278 6.2282 6.93278 6.66666H7.87028C7.87028 6.19804 7.87157 5.90036 7.9051 5.68216C7.93546 5.48457 7.98301 5.42011 8.03226 5.37701L7.41491 4.67147ZM9.60062 4.2737C9.09392 4.2737 8.67257 4.27294 8.33936 4.31214C7.99837 4.35225 7.67873 4.44066 7.41493 4.67146L8.03224 5.37703C8.09052 5.32604 8.19106 5.27355 8.4489 5.24322C8.71451 5.21197 9.07065 5.2112 9.60062 5.2112V4.2737ZM12.8993 4.2737H9.60062V5.2112H12.8993V4.2737ZM15.085 4.67144C14.8212 4.44066 14.5016 4.35225 14.1606 4.31214C13.8273 4.27294 13.406 4.2737 12.8993 4.2737V5.2112C13.4293 5.2112 13.7854 5.21197 14.051 5.24322C14.3089 5.27355 14.4094 5.32604 14.4677 5.37705L15.085 4.67144ZM15.5671 6.66667C15.5671 6.22821 15.5684 5.84558 15.5215 5.53979C15.4713 5.21341 15.3578 4.9102 15.0851 4.67149L14.4677 5.37699C14.5169 5.42009 14.5645 5.48455 14.5948 5.68216C14.6283 5.90035 14.6296 6.19804 14.6296 6.66667H15.5671ZM15.0851 8.66184C15.3578 8.42313 15.4713 8.11993 15.5215 7.79354C15.5684 7.48775 15.5671 7.10513 15.5671 6.66667H14.6296C14.6296 7.13529 14.6283 7.43298 14.5948 7.65118C14.5645 7.84878 14.5169 7.91325 14.4677 7.95634L15.0851 8.66184ZM12.8993 9.05963C13.406 9.05963 13.8273 9.0604 14.1606 9.0212C14.5016 8.98108 14.8212 8.89268 15.085 8.66189L14.4677 7.95629C14.4094 8.00729 14.3089 8.05979 14.051 8.09012C13.7854 8.12137 13.4293 8.12213 12.8993 8.12213V9.05963Z" fill="#614730"/>
<path d="M4.16663 5H1.66663M4.16663 10H1.66663M4.16663 15H1.66663" stroke="#614730" stroke-width="0.9375" stroke-linecap="round" stroke-linejoin="round"/>
</svg>
