<svg width="16" height="18" viewBox="0 0 16 18" fill="none" xmlns="http://www.w3.org/2000/svg">
<path d="M3.48131 11.9013C2.30234 12.6033 -0.788864 14.0367 1.09389 15.8305C2.01359 16.7066 3.03791 17.3333 4.32573 17.3333H11.6743C12.9621 17.3333 13.9864 16.7066 14.9061 15.8305C16.7888 14.0367 13.6977 12.6033 12.5187 11.9013C9.754 10.2551 6.24599 10.2551 3.48131 11.9013Z" fill="#614730" stroke="#614730" stroke-width="0.9375" stroke-linecap="round" stroke-linejoin="round"/>
<path d="M11.75 4.41669C11.75 6.48775 10.0711 8.16669 8 8.16669C5.92893 8.16669 4.25 6.48775 4.25 4.41669C4.25 2.34562 5.92893 0.666687 8 0.666687C10.0711 0.666687 11.75 2.34562 11.75 4.41669Z" fill="#614730" stroke="#614730" stroke-width="0.9375"/>
</svg>
